<?xml version="1.0" encoding="UTF-8"?>
<svg version="1.1" viewBox="0 0 2000 2000" width="500" height="500" xmlns="http://www.w3.org/2000/svg">
<path transform="translate(0)" d="m0 0h2e3v2e3h-2e3z" fill="#082D3B"/>
<path transform="translate(0)" d="m0 0h932l1 3-2 4h-3v6l3 1-1 5h2v2l-3 2 1 5-1 2 10-3 3-1-1-4h5l-3-5 1-5-2-1 3-4 3 2v2l5 1v2h-2l-3 3 3 5v2l4 1v5l3 3 5-2h4v4l2 4v6l-8 6-5 1v5l4 2 3 4 2-2 3 1v6h-2l1 3-4-2h-3l-1 4v2h-2v2l-6 1-1 5-3 1-2 2-2-1-2 4-5-1v6l-3 4 5 2 1 4-1 2-5 1v-7l-5 2-1 6 6 8h-3l-1 4-6-1-2 4 4 3v2l2 1v2l1 2h-2v2l-6-2 1 3h-2l1 5-1 3h-2l-3-3-2 1v4l-4 1-1 4-2-1-1 3-2 3h-2l2 4 2 1v6l-7 1v-2h-2v-3l-5 2 1 7-1 4h-2l1 5-5 3-1 2h-2l1 4 6 2 2-1v9l-1-2-7-2 1 3-1 5-2 1-1 4-1 1-5 3-3 6-3-2-2 2v-2h-2l1 5-4 2 3 6v2h3l-1 2-2-1 1 3h-2v2h-2v3h-4l3 5-7 7-2 3v2l6-1v2l-3 1-2 4-5 1-1-1-1 4 2 7-2 3 5-1 2 2-1 3-8 1v2l-3-1-1-5-5 3 3 4h-2v6l4-1v-4l-1-2 4 2 1 2-1 3h-2l-3 9h-2v2h-2v2h2v3h2v2l3 1v5h2l-1 3h-2l-3 6-1 4-6-1-3 2h2l2 5-2 4-7-1v2l-2 1 1 11h-7v4h6l1 6 3 3-1 2-2-1-1 2h-3l1 4 1 3 1-3 4 2-2 4-2 9h-2v2h-2l-1 8-2 2 1 2-4 1-1 4 3 1 1 4h-2l-2 5-4 3h-2v2h-3l3 3 2 4-2 5v2l-2 4h-6v3l-2 3h-2l1 4h-2v3l-3 3-1 3h-2l-1 6 1 2-2 6h-2l1 3h-2v3l-7 3-2 6-6 2v2l-2 1v3h-3l-1 5h-2v5l5 1-1 5-2-1-4 4-1 4 2 2h-2v4l-1 8h-3v5h-2v2h-2l-1 5 1 3-5 6h2l1 1h3l-1 5-3 1-1 2h-2v2l-4 1 2-5-4-2-1 1-1 5h-2l-1 3-2-5 1-3-1-9-2 4-1 8-4 3-5-2-2-1 1 3-4 1-1 8h-2l1 2 3 1 1 4-2 4 2 5-4 1-1 1-5 2 4 5-1 4h2v2l4 1-1 2-4 1-3-1v-2h-2l-2 3-3-1-4-1-1-6-5-3-2 2 1 5-1 1h7l1 3-1 2h-4v-3l-4 1h-2l-2 1-1-3-8-3v2h-3l1 3h-2l-1 8 7-1v2h2v-2l7-2h6l1-2 2 3v3h6v5l3 1-1 4-2 1 1 4-1 2h-2v5l-4 4-1 6-2 2-2-1v-2h-5l-1-3 1-4-1 1-2-1 1-7 1-1h6l2-4-5-2v-3l6-3 2-3-7-1-1 3-3 2-1 3 1 2-1 3-3 1-5-1-7 2-2 1 1 4-3 1v1l-6 1-1 2h-2l-2 11 1 5-9 2 1 5 2 1v3h-2l2 6 4 4 1 5-5 1h-3l1 3-2 9-2 5 1 2v-2h3l1 4-2 5-2 1-1 3-2 1-2 5 4 1 3 3-1 7-5 5v3l4 1 1 5-2 5 2 4v10h-2v6l-2 3h-3l-1 4-3 1-3 7-6 3-4 3-8 2-5 5-5 4h-4v2l-2 1 2 1 2 7-3 1-2-1-4 10-1 3-3-2v-2l-4-1v2l-3 1v6l-5 1 1 3-2 3 3 1v2h5l-2-9 3-1 2 1v2l5-1 2 7 4-1 6-1 6-3h3v2l8-1 3 1h8l5 3 12 4 1 1 1 9 3 1 5 21 18 67 12 44v2h2l2-11 15-56 14-53 4-12 2-2h50l-1 10-14 48-12 41-25 85-3 10-3 2h-62l-4-9-43-147-11-37-1-4v-2h-3l-1 4v14l5 9 3 7 3 10 1 4 2 10 2 6 3 12 2 7 4 15 3 7 2 9 2 3 2 9 5 18 1 9 3 7 2 6 2 7 2 9 2 10 2 4 5 2-1 9-2 2-5 1-5-2-1-3-3-1-1-4-4-2-3-16-3-3h-4v-4-3h-2l-6-18-1-12h2l-1-3-2-1v-3l-4-2-2-12-1-8h-2l-2-4-3-17-7-2 1-9-1-8-9 3-2 7-4 2v5l-3 1 1 4 2 1v8l1 1v7l-4 6h-4l-3 6 1 10h6l2 1 1-2 1 6v8l-4 5-5-2-1-2v8l-2 16h-2v2h3v7l-2 7-1 6-5 5-2 7v6l-5 1-2 1-2 9 3 1v2h-2v2h-2v2h-6l1 4h2l-1-3h2l2 5-1 2h-7v7l-1-2-3 1-1-10-4-1v2l-4 2-6 1-4 2-3-4h-5l-3 3 3 3v4l4-1v5l4 1 2-4-3 2v-3l-2-1 1-3 10-2h5l-1 6 4 3v7l-3 1-1 5 3-1 5 1 1 4-4 1-2-3-3-1v13h-2l-1-2-9-1-1-6 4-1 1-6v-4l-4-1-3 1v7h-2v7l-3 1v5l4 2 5 2-1 3-8-1-1 2-4-3-3 1-1 6-1 1 2 2-4 1v3l-1-2-4 4h-2l-2 4-2 1 3 1 1 2 3 2-1 3h-2l2 4v4l-2 2h-3v3 5h-6v2l-5-1-2-4h2l-1-3h2v-2l-4 2-1 6h-3v3h-2l-3 5-3 1v5 4l-2 1-3-2-4 4-2 5-6 3-1 4-8 5-3 6 1 7-4 4-6 1-3-1v2l-5 4v3h-2v2h2l2 4-1 7h-3v5l-2 5-5 4-10 1v2h2l4 4 1 3h-2v4l-3 6v4l1 5-1 3h-2l-1 2-5-2-3 2v7l-1 6h-2l-1 3-2-4 1-2-4 3 1 2-10 2-2 3-1 2-1 5-5 2-4 2v2l-4 4h-2v-3l-1 4-7 3v2l-6 2-3 2 1 5-2 3-4-1 1 1-3 2v3h-2v2h-3v-2h-2l1 3-3 2-3 6-5 1-2-1v3h-2v2l-7 1-1 3h-3l-1 2-1 1-3 2-4 4-1-2-3 1-3 4-2-1-1 4h-2v3h-2v2h-2v2l-2-1-1-1-8-1-5 4-4 2-2 3-4-1v-2l-2 1-1 4-4 1-1 2-7-3h-2l2 4 2 2 2-1-2 4-6 2h-1l-2 2v-2h-8l-1 3-4 1-3-1v3h-2v2h-7l-1 7h-2v2l2 1-1 5 1 3 3 1 1 4 3-1 7 6 5 2v2l4-1 2 8 6-1 1-2v4h4l2 4 3 2v2l5-1 3-1 1 3 5 1 1 5h3v3l4-1v3l9-1 3 2v2l3 1-2 2 2 2 2 3h-2l1 3v4l1 2h-3l1 7-3 1-1 2-4-4-1-3h-3-2l-1-5h3l1-7-1-1-1 6h-3v2l-2-1-1 1-2 3 5-1-1 4 1 5-1 3v2l-4-2-3-4-1 6 1 2h-2l-2 4v2l2 1v2l2 1-4 2v2l-4-2-4 4 4 2 1 4-3 6-2 1 3 1-2 4-1 6h-7v2l4-1-3 4-1 2h-4l3 7-4 2v-2h-5l2 5 2 1-2 2-4-2-6 3v-2h-3l-4 5-2-1-2 5-1 2h-3v3h-2v-9h2v-4l-1 3-5-1v6h-4l-1 2-3-2-6 7-5-1 2-4-4 3 1 2h-3l5 1-2 4-10-1-8 2-3 6h-5l-1-2-8-1h-1l-1 3 2 3h-2l1 3-3 1-4-2h-7l-9 3-4 1-1 3h-3l-7 3-1-4h-2v2h-2v-2h-6l-5 2v4l-2-1-3 1-8 2-1-3-9-1-6 2v3l-8-1-5 2-2-1-1-5h-2l-1 3h-4-5l-4 7-7-4z" fill="#104853"/>
<path transform="translate(0)" d="m0 0h264l1 3 2-1v2l6-2 3 5-2 2v4l2 1h-2l3 6 4 2h3l-1 5 2 1 1 4 9 5v2l-5 2 1 2-6 2 5 3 1 3-2 6-5 3h2l1 5v2l1 3h-2l-1 7h-2l1 3-1 1h2v2h-3l-1 9-4 3 2 2 1 5-3 2-1-1-3 3 1 8-3-3-1-4 1-2-5 2-1 3 3 4-2 3 3 1h-3v6l-5 2 3 3v4h-2l1 6-1 4-7 1-2 7-4 5 1 1 1 4-2 3 1 3 4-1v4l-3 1 1 2-6 2v3l2 1 1-3 2 2 1 5h-2l1 5-4 4-3 1 1 4 4-1 4 3-3 1-2 6h-4l1 3-1 2 3 2h-4l2 6-3 3-1 3 3 1-2 1-1 9v4l-1 5-4 6h-2l4 5-5-1v4l-1 4v3 9l-2 4-3 1-4-1-1 1 4 1h-2l-1 3-1 4 1 2-2 1-1 9-2 2 1 2-2 1 1 5-3 3-2 4 1 3h-3v4 1 3l1 2h-2v4 3l-3 2v-2l-4 2 2 4-1 2h2l-2 7-4 1v3h2l-2 4-4 2 2 9-2 3-1 1-3 6 3 1v4l-2 1 1 2h-3l4 1-3 6 3-1v5l-3-1v2l3 1h-2l1 8h2l-1 7-2 4 3 1-1 4h-2l1 3 2 2-2 3 2 6h-2v2l3 1-4 2-3 4h2l-1 7 2 1-3 2v6l-4 6-1 3-4 1-2 4h2v2l2 1-1 3h-2l-2 9-2 2-2-1-1 4h2l-3 12-3 1-1 5-5-1v3h-2l1 4-3 3h-2v2h-2v2h-3l-1 5-1-2-1 4h6l2 4-3 5h-2l-1 5-3 1-1 2h2v2h-2l-3 10-1 5 1 2h-2v3l2 2-1 4 5 2v3l-6-2-2-1-4 1 1 5-5-1v2l-5 2 1 3 2 2v5l-2 1 1 2-1 6-4 2-4 3-2 7h-2l1 3h-2l-1 4-3 3 5 8-1 4-5-1-2 1v3l-1 3 1 1-2 4-2 2 2 9h-2l-2 4h-3l1 3h-2v2l-3 2-3 3-1 9-6 5h-2l-1 6-3 7 2 5v3l-5-2-5 3 3 5-4 6v4l-7 2-4 6v3l-1 2-3 1 1-4h-2v2h-2l-1 5h-3v6h-2l1 3-3 1-4 1h-2l2 4-5 3-1-2h-2l-1 2v-3l-6 4 2 1h-2l1 8-7 1-2 4-3-1-1-4-2 2 1 3-1 2-5 2-2-6v-2l-4-1z" fill="#1A626A"/>
<path transform="translate(1608,785)" d="m0 0h3l-2 87-10 7-20 11-24 14-43 25-18 10-24 14-9 5-1 13 6-2 35-20 48-28 16-9 4-3h2v88l-19 11-17 10-49 28-17 10-8 5-1 12v95l-1 1h-30v-127l17-9 27-16 25-14 17-10 21-12 3-2 1-6v-10l-16 9-17 10-21 12-24 14-31 18h-2v-85l9-6 20-11 27-16 49-28 26-15 17-10 1-1 2-15-8 4-21 12-43 25-49 28-17 10-12 7h-1v-36l23-13 22-13 26-15 28-16 72-42z" fill="#31C68A"/>
<path transform="translate(1114)" d="m0 0h122l3 3v3l-1 2-8 1 2 7h2l-2 4-1 3 2 2-1 5 1 2-1 2 2 1-1 3-5 3-4 1h-2l1 4-4 3-6 3-1 2 2 1-1 5h-3v2l2 1-6 1-4-1-1-2h-4l3 3 4 2-2 5-4 1v-2h-5l1 5 1 3-3 2 2 1h-2l-1 3-3 3 3 3v4l-6 2-2 2-4 2-2 2-2-1-1 4-3 1-1 2h-1l-1 3-5 4v5l-4-1v-2h-2v2l-2 2-1 4h-2l-1 2-3-3h-2l-1 5-5 4-1-1-2 2-2 4h2v5l-4-2-4-1-1 4h-2v3h-7v7l-1 2-6 1v2h-3l-2 7 1 2-1 3h-4l-1-2-3 1 1 4h3v-2h3l-1 6-5 2-2-2-6 6-4 1v3l-5 1-2 2 4 4-1 3 2 1-4 2-2-1-1-3-3 2-2 5-5 1-2-1-1 4-3 9h-6l1 2v1h4l-1-2 6-1 2 4-3 3-3 1v-2h-2v2l-6-1h-1-3v2h-2l-1 2-1-1-1 11 3 3-4 5-2 4v3h-3l-1 2-3-1v5l-4 2-2-1v-3l-4 1 1 5-1 3-5 4-2-1-2 4h-2l-1 2-4-1-2 5-1 3h-2l1 5-3 2-3-1-3 2-1 6 2 1-1 4-1 1-10 1v5l1 5v3h-2l1 4-2 6 2 5-1 3-1 4-2 6-4 1h-3l-2 2 1 2-1 2h4l1-3 4 1-3 5h-2v3h-2l1 4-1 2h-2l1 3h-2v2l2 1-1 2h3l-1 3-5-1-3 1v4l-4-1-1-4 5-1v-2l3-3v-2h-6v-3l-5-2v-2l-3-1 4-4 1-5-2-2-3 3-1 3-3-2-4-3v-2l-6-2-2-3 1-5h2l2-8 2 1 2-4-1-2-4 5h-3l-1-5v-8-2l-3-4 5-5 3-1 1-4 7-6-3-3v-2l2-1 1-2 3-3 2-4 1 1 1-2h2v-6l2-1-1-6 2-4 4 1 1 5 5-3 1-3-3-1 3-6 1-10 3-6 3-1 2 1 2-5 4-1v-2l4 2 1-2-3-1 2-1v-3l4-2v-6l-1-3 4-4 5 3 4-2-4-4 5-5 3 4 3-2-4-7 4-2 3 2 3-1-1-4-2-1 5-3 2-4 2-1v-2h2l3 4 2-1-2-3-2-1 2-3h2l1-5 4-4 3 2 1-9h2v-2l4-1h3l5-3h1v-2h2v-2h2l1-5h2l1-7v-2h4l1-3v7l2 1 2-4-3-1 1-4 3-3 7-1 1-4 3-1 1-2v2h3l-3-3-2-1 1-4 4 1 2 1v-2h2l2-11 8-1 5-3h-3v-5l5-2 4 1 2-1 1-3h2l1-4 4-2h1l-2-3-2-1-3 1-1-2-6-1 1-4 10-1 1-2 1 3 5 1 1 2 2-5-2-2h-3l-5-1-1-12-5 1 2 4v5l-4 2-2-4 2-5v-7l-5 1-1 2-2-1v-5l3-1-4-3h-2l-1-1-5-3h-2l-2-4-7-6-1-7-5-3h-6v3l-5 2-1-4 3-7 6-1 3 2 9-1v-3l-1-4 3-1 5 1 4-1 1 3-1 4 4-1 1-5-2-1 2-2 2-4z" fill="#104853"/>
<path transform="translate(1263,856)" d="m0 0h62l4 8 10 35 23 79 19 65 2 8-4 1h-47l-3-3-4-16h-64l-2 10-2 8-3 1h-49l-1-3 11-37 35-120 8-27 4-8z" fill="#FEFEFE"/>
<path transform="translate(946,852)" d="m0 0h14l21 3 15 5 17 8 7 5-1 5-18 37-5-2-15-7-12-4-12-2h-8l-10 3-3 6 2 6 7 6 22 10 16 7 12 7 10 8 8 8 6 10 4 13 1 6v10l-3 16-7 14-9 10-11 7-12 5-16 3h-28l-14-2-18-5-16-7-11-7 1-6 18-36 2-1 11 6 13 6 16 4h20l7-3 4-4v-5l-7-8-16-8-23-11-16-10-13-12-7-10-5-15-1-6v-11l3-13 4-9 6-8 8-8 14-8 13-4z" fill="#FEFEFE"/>
<path transform="translate(591,856)" d="m0 0h51l3 6 22 82 12 44v2h2l2-11 15-56 14-53 4-12 2-2h50l-1 10-14 48-12 41-25 85-3 10-3 2h-62l-4-9-43-147-11-37z" fill="#FEFEFE"/>
<path transform="translate(1060,856)" d="m0 0h109l28 1 1 6v40l-1 1-7 1h-36v146l-6 1h-43l-2-1v-146h-43l-1-1v-45z" fill="#FEFEFE"/>
<path transform="translate(802,856)" d="m0 0h44l1 1v194l-5 1h-45l-1-1v-193z" fill="#FEFEFE"/>
<path transform="translate(841,1084)" d="m0 0 13 2 9 6 6 8 2 6v18l-4 10-7 8-10 5h-17l-8-4-5-5-5-7-2-6v-18l6-12 8-7 8-3z" fill="#FEFEFE"/>
<path transform="translate(885,1084)" d="m0 0h14l5 6 12 20 3 3v-28l1-1h13l2 1v62l-2 1h-11l-5-3-14-24-3-3v29l-2 1h-13l-1-1v-62z" fill="#FEFEFE"/>
<path transform="translate(1218,1084)" d="m0 0 15 1 4 5 11 18 2 6h2v-29l5-1h9l2 1v62l-4 1h-9l-4-2-12-20-5-7-2-1 1 4v24l-4 2h-9l-3-2v-61z" fill="#FEFEFE"/>
<path transform="translate(1170,1084)" d="m0 0 18 1 3 5 7 24 8 28v5l-3 1h-7l-6-2-1-4h-21l-1 5-3 1h-12l-1-4 10-36 6-20z" fill="#FEFEFE"/>
<path transform="translate(1e3 1084)" d="m0 0h13l2 2 1 40 3 4 9 1 5-5 1-38 1-4 15 1v39l-2 11-6 8-6 3-4 1h-16l-9-4-5-6-3-12v-40z" fill="#FEFEFE"/>
<path transform="translate(1352,1085)" d="m0 0h16l11 4 1 1v6l-4 7-6-1-10-2h-6l3 5 16 8 7 6 2 4v11l-5 8-7 4-3 1h-14l-9-2-6-3-1-5 5-9 10 3h13l-1-4-18-10-5-5-3-6v-8l3-6 6-5z" fill="#FEFEFE"/>
<path transform="translate(965,1085)" d="m0 0h11l13 5 1 5-4 8-6-1-2-1h-13l2 4 19 10 5 6 1 2v11l-4 7-5 4-6 2h-14l-8-2-6-3-2-5 5-9 5 1 4 2 15 1-2-5-18-10-5-4-3-6v-8l4-8 9-5z" fill="#FEFEFE"/>
<path transform="translate(784,1084)" d="m0 0 11 1 8 3-1 5-6 8-3 1-2-1h-7l-6 3h-2l-2 5-1 3v9l4 6 6 4h8l6-1 4 5 3 5v3l-11 4h-15l-8-3-6-5-6-9-2-5v-16l4-10 8-9 7-4z" fill="#FEFEFE"/>
<path transform="translate(1293,915)" d="m0 0h2l11 44 7 27v3h-33l-7-1 13-50 6-22z" fill="#0A3640"/>
<path transform="translate(1282,1084)" d="m0 0h42l1 1v14l-12 1h-2v47l-3 1h-11l-2-1-1-47h-10l-3-1v-14z" fill="#FEFEFE"/>
<path transform="translate(1105,1084)" d="m0 0h42l1 1v13l-1 1-13 1v46l-4 2h-9l-3-2v-46h-11l-3-1v-14z" fill="#FEFEFE"/>
<path transform="translate(1069,1084)" d="m0 0 14 1 1 2v45h16l3 3v11l-5 2h-29l-1-1v-62z" fill="#FEFEFE"/>
<path transform="translate(799,1095)" d="m0 0 1 3-4 7 7-3 5 1-1 9v8l1 9-5 1h-3l-1 3-2-2-6 1h-8l-6-4-4-5-1-2v-9l4-8 8-4h7l3 1 4-4z" fill="#124C55"/>
<path transform="translate(839,1100)" d="m0 0h8l5 4 3 7v10l-4 8-5 3h-8l-6-4-3-7v-10l4-8z" fill="#135157"/>
<path transform="translate(803,853)" d="m0 0h17l2 1 25 1 1 1v195h-1l-1-194h-44l-5 1-1 177h-1l-1-29v-105l1-45 1-1h7z" fill="#1E776E"/>
<path transform="translate(787,252)" d="m0 0h2l1 2 2-2v4l2-1v2l3 1-2 2-3 2-1 6h-2v2h-2v2l-6-2-2 1 1 3-1 3 5 1v2h2v2l-5 2-4 1v6l-4 3-8 1-1-7 3-4h5l1-6h2v-6l3-7-1-2-2-1 1-5 2-4h1v7h7l-1-7z" fill="#082D3B"/>
<path transform="translate(819,174)" d="m0 0h5l4 4-1 3-5-1v3h-2l-2 7-2 1v2h-3l-1 4-1 5 4 2-1 3-1 2-4 1-2-6-4 1 1 5 4 2 1 4h-3l2 3-4-1v2l-4-1-4-4v-3l-2-1 2-7 8-3v-2l-2-2 2-9 2-1 2-4v2l3 1h-3v2l3 1 1-1 1-5 2-3 4 1 1-3-2-2z" fill="#082D3B"/>
<path transform="translate(727,366)" d="m0 0 7 2 5 3 8 1 5 1h2l2 4 7 4v2l-10-1-11 2h-3v-2l-2-1 1-6h-7l-3 6-4 1-5-5-2-3 7-2 1-2h2z" fill="#082D3B"/>
<path transform="translate(842)" d="m0 0h20v2h3l-1 3-10 4v3h-2l1 3h-2l-1-2h-2l2 2-5 2h-8v-3l1-6h2l-1-3h2l-1-3z" fill="#082F3D"/>
<path transform="translate(732,848)" d="m0 0 1 2 15-2 13 4 8 3v8l-2 5-1-2 2-10-38 1h-12l-3 7-1-4 2-5 6-3 8-3z" fill="#14535A"/>
<path transform="translate(672,575)" d="m0 0 7 2 2 5 7 2v-2h5v3h3 2l1 3 2 2-1 2h-3l-1 2-5 2-5-3-3 3-1-9-5-1-13 1 1-5 4-1z" fill="#082D3B"/>
<path transform="translate(1186)" d="m0 0h41l-1 3-3 3h-6l-5 1 1 2h-2v2l-4-1v-2h-3v-2l-2-1h-16z" fill="#082D3B"/>
<path transform="translate(949,1110)" d="m0 0 7 6 18 10 2 2v4l-6 1-12-2-6-3 4-1 1-3-3-2-3-6-1-4-2-1z" fill="#135458"/>
<path transform="translate(988,1097)" d="m0 0 1 4-2 3 1 10v3l-15-8-8-5v-4h13l4 2h4z" fill="#145559"/>
<path transform="translate(1177,1104)" d="m0 0h2l6 21v3h-13l1-8z" fill="#135358"/>
<path transform="translate(695,930)" d="m0 0 1 4-12 45-4-4h-1v-5l4-6h2v-10l4-6h2v-9z" fill="#14565B"/>
<path transform="translate(250,1508)" d="m0 0h2l1 1 3-1 4 1 1 4 1 2h-3l1 7-3 1-1 2-4-4-1-3h-3-2l-1-5h3z" fill="#0F444F"/>
<path transform="translate(917,1085)" d="m0 0h2l1 22v6h-3l-5-9 2-1-1-9-1-8z" fill="#135358"/>
<path transform="translate(833,133)" d="m0 0 9 1v3l-2 1-1 7-1 5 1 3-1 4-5-1-3 2-2-7 3-1 1-3 5-6-5-2v-3h3l-2-1z" fill="#082E3C"/>
<path transform="translate(484,1107)" d="m0 0 5 4v2l6 2 1 4-1 1h-12l-1 4-5 1v-6l7-4-3-3v-2z" fill="#082D3B"/>
<path transform="translate(763,311)" d="m0 0h4v2l3-1h3l3 1 1 6-4 3-8 1-2-5h-2l-1-5z" fill="#082D3B"/>
<path transform="translate(1357,1099)" d="m0 0 11 1 8 3-3 5h-5l-1 2-6-2-6-4-1-4z" fill="#0E4248"/>
<path transform="translate(1039,1083)" d="m0 0h15v2h-9l-5-1-1 42-4 5-2 1h-6l3-2 4-3 3-18v-19z" fill="#186361"/>
<path transform="translate(709,511)" d="m0 0 5 1 4 1 5 2-1 4-7 3h-7l-2-6z" fill="#082D3B"/>
<path transform="translate(743,512)" d="m0 0 4 2v2l3 2v3h-3l-1 2-3 3-4 1-3-3 1-7 2-3 4-1z" fill="#082D3B"/>
<path transform="translate(964,1081)" d="m0 0h12l7 3 1 4-8-2h-11l-9 3v-2h2l1-5z" fill="#165D5E"/>
<path transform="translate(783,291)" d="m0 0 8 1-1 4 1 5-5 3-3-1-4-7 2-4z" fill="#082D3B"/>
<path transform="translate(1570,907)" d="m0 0 3 1-1 89h-1v-88l-5 2z" fill="#195F67"/>
<path transform="translate(371,1287)" d="m0 0 1 2 3 1-1 2 4 2v3l-3 2-3-1-7 1v-9l3 1v-3z" fill="#082D3B"/>
<path transform="translate(1101,972)" d="m0 0h1l1 79 2 1-5-1z" fill="#114954"/>
<path transform="translate(110,644)" d="m0 0 7 3v2h2l-1 4-4 3h-6l-2-5 2-2-2-1 2-1-1-2z" fill="#15545D"/>
<path transform="translate(1101,21)" d="m0 0 7 2v2h2l1 7h2v2l2 1-1 2h-2l-1-2-4-1-4-6h-4v-6z" fill="#082D3B"/>
<path transform="translate(367,1265)" d="m0 0 1 3 3-3 3 3 1 3v4l-2 4h-3l-1-5-5-1v-6z" fill="#082D3B"/>
<path transform="translate(1180,1141)" d="m0 0h7l3 3 1 2 5 1v1h-7l-6-2h-12l-3-1v-3z" fill="#165D5D"/>
<path transform="translate(754,344)" d="m0 0 2 2-1 5-3 3-6-2-2 3-4-1-1-4 6-3 6-1z" fill="#082D3B"/>
<path transform="translate(852,18)" d="m0 0 1 3 5 2 1 5 2-1 2-2 5 1 1 2-3 4h-3l-1-2h-4l-1 2-2-2-2 1-2-9-1-2h2z" fill="#082D3B"/>
<path transform="translate(125,626)" d="m0 0h4l-1 4-2 1h4l-1 6-7 3h-3v2l-2-1 2-6 4-2-1-5z" fill="#196068"/>
<path transform="translate(693,554)" d="m0 0 2 1-2 4h4l1 5-2 2-4 3 1-4-6 2-2-3v-3l2-1v-2h2l1-2v2h2z" fill="#082D3B"/>
<path transform="translate(710,486)" d="m0 0 6 1v2h6v3l-5 2h-6v3h-2v-2l-4-2 2-4z" fill="#082D3B"/>
<path transform="translate(1186)" d="m0 0h20v4l-3 1h-17z" fill="#09303E"/>
<path transform="translate(722,580)" d="m0 0 4 2h-2l1 3-1 3h2v3l-3-1-1 3 2 3-1 4-6 1-1-3 3-2-1-9 3-1-1-3z" fill="#104853"/>
<path transform="translate(783,233)" d="m0 0 4 1 2 4 2 1 3 4-1 2 4-2 4 1-1 6h-5l-2-3-4-2h-2l1-8-4-2z" fill="#082E3C"/>
<path transform="translate(515,1482)" d="m0 0 1 3-1 2 3 1-2 4-3 3-2 5-3-1v-5h-2l1-2 2 1v-4l2-1-1-3 5-1z" fill="#104651"/>
<path transform="translate(583,808)" d="m0 0h2l-1 10-1 2h-9l-2-2 4-1 2-5v-2z" fill="#082D3B"/>
<path transform="translate(684,533)" d="m0 0 7 1 2 1-1 7-5 1-6-2 1-4 3-1z" fill="#082D3B"/>
<path transform="translate(795,222)" d="m0 0 1 2h2v2h2v2l4 1 2 5h-2l-1 2v-2l-7-1v-3l-5-1z" fill="#082D3B"/>
<path transform="translate(729,557)" d="m0 0h5l2 4-3 5 2 1h-2l-1 4-2 2-1 2-3-1v-2h2v-2h2v-2h-3v-4h2l1-5-3-1z" fill="#0B3845"/>
<path transform="translate(843,1123)" d="m0 0h8l1 5-7 3h-5l-1-2 2-5z" fill="#09333F"/>
<path transform="translate(694,507)" d="m0 0h2v3l2 1-4 2-2 5h-2l-1 2-4-1-1-3 2-3h2l1-2z" fill="#082D3B"/>
<path transform="translate(808,372)" d="m0 0h4l1 3h3l1 5-1 3h-3l1 3-4-1v-6l-2 1v-3l-3 2v-5h2z" fill="#082E3B"/>
<path transform="translate(745,400)" d="m0 0h5v3h2l-1 6-7 1-2-1v-5z" fill="#082D3B"/>
<path transform="translate(1232,1118)" d="m0 0 4 2 2 4-1 11h-2l-1 11h-1z" fill="#0F4550"/>
<path transform="translate(832,19)" d="m0 0 5 1h5l4 4v2l2 1-5 1-1 2-4-5v-2l-4 1-2-2z" fill="#082D3B"/>
<path transform="translate(490,1133)" d="m0 0 3 3v5h3v2l-6 3-1-2-4-2 1-4h2v-3h2z" fill="#0B3845"/>
<path transform="translate(734,538)" d="m0 0h2l2 5-1 3 1 1-4 4-3 1v-2l-3 1-1-2 6-5-1-3h2z" fill="#082D3B"/>
<path transform="translate(140,582)" d="m0 0 5 5-3 6-4 1-2-2 1-1-1-6 4-1z" fill="#15545E"/>
<path transform="translate(749,325)" d="m0 0 3 1-1 7 2 1-3 4h-2v-2h-3l1-2-2-3 1-3 2 1z" fill="#082D3B"/>
<path transform="translate(1037,1117)" d="m0 0h2v9l-4 5-2 1h-6l3-2 4-3 2-9z" fill="#175E5F"/>
<path transform="translate(351,1304)" d="m0 0 6 2 1 6-4 3-3-1-1-5v-3z" fill="#082D3B"/>
<path transform="translate(944,1139)" d="m0 0h4l4 4 5 2 6 1h14l5-1-1 2-3 1h-16l-8-2-7-2v-2l-3-1z" fill="#1A6B66"/>
<path transform="translate(965,1100)" d="m0 0 12 1v2l-4 3h-6l-3-3z" fill="#0C3945"/>
<path transform="translate(914,450)" d="m0 0 6 1 1 5v3h-3v2h-4v-4z" fill="#104752"/>
<path transform="translate(977,321)" d="m0 0 3 3-1 7v3l3 1-3 1v2l-4-2-1-7h2l1-5z" fill="#082D3B"/>
<path transform="translate(247,126)" d="m0 0h5l1 2-2 6-6 1-1-5z" fill="#114A55"/>
<path transform="translate(208,318)" d="m0 0 4 1 6 3-1 4-4 1v2l-4-2v-2l1-3v-2z" fill="#14535C"/>
<path transform="translate(1036,244)" d="m0 0 4 1-1 5-4 1-2-1-1 3-4-1 5-6z" fill="#082E3C"/>
<path transform="translate(722,532)" d="m0 0 1 2 4 2 1 4-6 1-4-2 2-6z" fill="#082D3B"/>
<path transform="translate(695,653)" d="m0 0h4v2h-2v6l4-2 1 5-5-1-3-1v-3h-2v-4h3z" fill="#114954"/>
<path transform="translate(827,162)" d="m0 0 1 2 2 1v5l2 1-3 1-4-2-4 1-1-2 4-4z" fill="#082E3C"/>
<path transform="translate(233,175)" d="m0 0 7 1 2 4-2 3-4-1-3-2-1-4z" fill="#114954"/>
<path transform="translate(405,1216)" d="m0 0 3 1v2l-2 2 1 2-6 1v-2h-3l1-4 4-1 2 1z" fill="#082F3D"/>
<path transform="translate(700,534)" d="m0 0 4 4v4h-2l-1 2v-2l-5-2 1-5z" fill="#082D3B"/>
<path transform="translate(897,149)" d="m0 0 2 2-1 8-4 1-1-5-2-1 1-3z" fill="#08303D"/>
<path transform="translate(1159)" d="m0 0h13l1 3-6 2-8-4z" fill="#09303E"/>
<path transform="translate(741,489)" d="m0 0 2 1-4 10-5 2v-3l-2-1 5-3h3l-1-3z" fill="#082D3B"/>
<path transform="translate(489,1494)" d="m0 0 3 1-3 5-4 2-2-2 1-4z" fill="#104752"/>
<path transform="translate(803,853)" d="m0 0h17l2 2h-15v2l-6-1 2-1z" fill="#135157"/>
<path transform="translate(1128,42)" d="m0 0h5l-1 4h-2l-1 3-5 4-1-2h2l-1-3z" fill="#082D3B"/>
<path transform="translate(1215,23)" d="m0 0h2v2h2l1 4h-8l-2-1 2-4z" fill="#082D3B"/>
<path transform="translate(248,196)" d="m0 0 5 2-3 2-1 5h-5v-5h2z" fill="#165761"/>
<path transform="translate(700,568)" d="m0 0 3 1 1 3-3 5-4-1-1-3h2v-2h2z" fill="#082D3B"/>
<path transform="translate(897,169)" d="m0 0h2l1 6-4 4-4-2h2l1-5 2-1z" fill="#114954"/>
<path transform="translate(954,40)" d="m0 0 6 2 1 3-1 2-5-1-4-5z" fill="#082D3B"/>
<path transform="translate(1163,4)" d="m0 0 1 2h2l-1 5-3 1-5-3 5-4z" fill="#082D3B"/>
<path transform="translate(85,707)" d="m0 0 4 4v6l-6-3-1-4h2z" fill="#1B636B"/>
<path transform="translate(931,460)" d="m0 0h2l1 3h-2v2l-9 4 2-5 4-3h2z" fill="#104853"/>
<path transform="translate(267,87)" d="m0 0 5 1 1 3-1 1 2 2h-4l-1-2-4 1-1-4z" fill="#114A55"/>
<path transform="translate(1101,1035)" d="m0 0h1l1 16 2 1-5-1v-15z" fill="#124E57"/>
<path transform="translate(864,206)" d="m0 0h7v2l-2 1-1 4-4-1-1-4z" fill="#082D3B"/>
<path transform="translate(652,627)" d="m0 0h2l-1 5-2 6-4-2v-3l4-3z" fill="#082D3B"/>
<path transform="translate(770,353)" d="m0 0h5l1 5-7 2v-6z" fill="#082D3B"/>
<path transform="translate(1126,26)" d="m0 0h5v6l-3 1-5-4z" fill="#082D3B"/>
<path transform="translate(1220,21)" d="m0 0h7l2 3-6 2-2 2z" fill="#082E3C"/>
<path transform="translate(334,1327)" d="m0 0h8l1 2-2 5-5-2z" fill="#082D3B"/>
<path transform="translate(425,1191)" d="m0 0h8l-2 5-4 1-4-4z" fill="#082D3B"/>
<path transform="translate(558,863)" d="m0 0 6 2-2 5-6-1 1-4z" fill="#082D3B"/>
<path transform="translate(704,642)" d="m0 0 3 2-1 2h-3l-1 5h2l-1 5-2-3-1-8 3-2z" fill="#104853"/>
<path transform="translate(807,417)" d="m0 0 2 1v2l2 1h-2v2h-2l-1 3-2-2-1-4h2v-2z" fill="#0F4450"/>
<path transform="translate(816,361)" d="m0 0 3 1 3 3-1 2-2-1-1 2h-3v-2h-3v-2h3z" fill="#114954"/>
<path transform="translate(727,346)" d="m0 0h2l-1 6h-2v2l-4-1 1-4z" fill="#082D3B"/>
<path transform="translate(212,301)" d="m0 0 3 1v5l-2 3-5-1 1-2 1-3z" fill="#124C56"/>
<path transform="translate(701,603)" d="m0 0h3v2l4 1-1 2-4 1-3-1v-2l-2-1h3z" fill="#114954"/>
<path transform="translate(704,584)" d="m0 0 4 2 1 4-4 1-3-2z" fill="#114954"/>
<path transform="translate(765,297)" d="m0 0 2 1v2h3l1 4-3 3-2-1 1-2h-2z" fill="#082D3B"/>
<path transform="translate(1174,1117)" d="m0 0h1v8l-1 1 10 1 1-2v3h-13l1-8z" fill="#207D73"/>
<path transform="translate(676,977)" d="m0 0 2 3 1 3h3l-1 7h-2l-3-9z" fill="#1C6E69"/>
<path transform="translate(706,615)" d="m0 0h2l1 4 3 1 1 3h-5v-2h-2l-1-2-3-2 2-1 2 1z" fill="#114954"/>
<path transform="translate(748,392)" d="m0 0 6 2v2h2l-1 3-5-1-1-3-2-2z" fill="#082D3B"/>
<path transform="translate(1118,60)" d="m0 0 5 1v5l-4 2-2-4z" fill="#114954"/>
<path transform="translate(1369,1101)" d="m0 0 7 2-3 5-4-1-1-3z" fill="#145359"/>
<path transform="translate(723,577)" d="m0 0 10 1v3l-6 1v-2h-3z" fill="#104752"/>
<path transform="translate(726,558)" d="m0 0 4 1-1 5h-2l-1 3-2-5z" fill="#114954"/>
<path transform="translate(876,194)" d="m0 0 2 4v5l-3 2-1-2h2l-2-3v-5z" fill="#082F3C"/>
<path transform="translate(849)" d="m0 0h9l-1 3-5 2-2-2z" fill="#114954"/>
<path transform="translate(840,1101)" d="m0 0h5l4 4-13-1 1-2z" fill="#082D3B"/>
<path transform="translate(808,1091)" d="m0 0 3 1 2 5v3h-3v-2h-2z" fill="#104753"/>
<path transform="translate(783,430)" d="m0 0 5 2-1 5-1-2h-4l-1-3h2z" fill="#082D3B"/>
<path transform="translate(955,362)" d="m0 0h2l-1 4 1 2-5 1-1-4z" fill="#104753"/>
<path transform="translate(1053,230)" d="m0 0h4l3 1-2 4h-6z" fill="#114954"/>
<path transform="translate(1232,1118)" d="m0 0 4 2 1 3h-2l-1 10h-1z" fill="#1C6F6A"/>
<path transform="translate(110,644)" d="m0 0 7 3v2l-4-1-2-1v2h-2l-2-4z" fill="#13505A"/>
<path transform="translate(932,432)" d="m0 0 2 1v2l3 1v3l-3 2-1-2 1-2h-3z" fill="#104753"/>
<path transform="translate(992,306)" d="m0 0 5 1-2 5-4-2z" fill="#104753"/>
<path transform="translate(798,273)" d="m0 0 3 1-2 7h-2l-1-7z" fill="#082D3B"/>
</svg>
