<?xml version="1.0" encoding="UTF-8"?>
<svg data-bbox="62.639 20 76.093 160" viewBox="0 0 200 200" height="200" width="200" xmlns:xlink="http://www.w3.org/1999/xlink" xmlns="http://www.w3.org/2000/svg" data-type="color">
    <g>
        <defs>
            <path d="M90.371 57.228s-11.817-1.426-14.423 2.173C73.341 63 69.771 70.059 68.744 76.149c-1.027 6.09-5.005 18.548-4.731 21.108.274 2.56 8.351 1.041 8.351 1.041l-.471-4.658s4.037-.896 8.912-.281l.609 7.225s-2.086 13.327-2.778 14.841c-.692 1.513-1.282 4.629.675 6.263 1.957 1.634 2.411.414 3.958 1.194 1.547.78 4.898 2.341 9.409 1.561 4.511-.78 17.788 1.821 23.201-.91 0 0 3.697-.757 5.285-1.951 0 0 2.836-1.301 3.222-3.381.387-2.081-1.102-4.395-1.067-5.644.035-1.249 1.672-17.248 1.672-17.248l5.604 1.057-.233 2.726s5.159.663 5.592-.539c.433-1.202-2.383-11.365-3.032-15.627-.65-4.262-2.939-10.964-5.379-17.456s-7.691-8.208-10.206-8.208c-2.514 0-9.351.472-9.351.472l-17.615-.506z" id="60b9c830-f583-4687-a29e-ca76705d4507"/>
        </defs>
        <clipPath id="4d6ef5b7-0b71-4278-94d7-61f3cc5f850a">
            <use overflow="visible" xlink:href="#60b9c830-f583-4687-a29e-ca76705d4507"/>
        </clipPath>
        <g clip-path="url(#4d6ef5b7-0b71-4278-94d7-61f3cc5f850a)">
            <path d="M90.371 57.228s-11.817-1.426-14.423 2.173C73.341 63 69.771 70.059 68.744 76.149c-1.027 6.09-5.005 18.548-4.731 21.108.274 2.56 8.351 1.041 8.351 1.041l-.471-4.658s4.037-.896 8.912-.281l.609 7.225s-2.086 13.327-2.778 14.841c-.692 1.513-1.282 4.629.675 6.263 1.957 1.634 2.411.414 3.958 1.194 1.547.78 4.898 2.341 9.409 1.561 4.511-.78 17.788 1.821 23.201-.91 0 0 3.697-.757 5.285-1.951 0 0 2.836-1.301 3.222-3.381.387-2.081-1.102-4.395-1.067-5.644.035-1.249 1.672-17.248 1.672-17.248l5.604 1.057-.233 2.726s5.159.663 5.592-.539c.433-1.202-2.383-11.365-3.032-15.627-.65-4.262-2.939-10.964-5.379-17.456s-7.691-8.208-10.206-8.208c-2.514 0-9.351.472-9.351.472l-17.615-.506z" fill="#FCE6D4" data-color="1"/>
        </g>
        <g clip-path="url(#4d6ef5b7-0b71-4278-94d7-61f3cc5f850a)">
            <path d="M121.727 122.321c-3.302 0-6.012-1.833-7.492-5.182-1.259-2.851-4.377-4.72-9.266-5.556-11.153-1.908-27.28 2.251-28.49 3.549-.905.971-1.282 1.962-.959 2.527.348.609 1.488.736 3.127.349 1.843-.435 2.936-1.066 3.734-1.526.922-.531 1.531-.883 2.348-.263a.258.258 0 0 1 .051.359.253.253 0 0 1-.356.051c-.525-.397-.848-.244-1.791.299-.825.476-1.956 1.128-3.871 1.58-2.564.606-3.408-.111-3.682-.593-.45-.789-.066-1.96 1.029-3.134 1.514-1.623 17.871-5.598 28.945-3.703 5.068.867 8.313 2.836 9.646 5.853 2.474 5.601 7.332 5.075 9.305 4.59 2.402-.591 5.131-2.366 5.049-3.768-.036-.617-.751-1.042-2.013-1.197-8.791-1.075-9.918-5.798-9.918-9.792.001-4.65 3.342-13.262 8.8-13.379.85-.018 1.734-.017 2.589-.015 4.291.008 8.726.017 9.549-2.565.413-1.298.024-3.256-1.52-4.485-1.305-1.039-4.346-2.26-10.062 1.239-2.455 1.503-5.007 2.319-7.379 2.361-1.885.035-3.615-.427-4.754-1.263-.799-.586-1.176-1.272-1.034-1.879.077-.328.387-.907 1.601-1.111 4.079-.684 7.341-5.509 9.728-9.635 1.091-1.886 3.135-2.484 4.939-3.01 1.602-.468 2.985-.872 3.506-2.018.26-.572.172-1.097-.262-1.561-1.158-1.237-4.658-1.825-7.434-.73-1.764.696-2.692 2.592-3.767 4.787-1.115 2.277-2.379 4.858-4.89 6.52-2.983 1.975-6.456 2.485-9.815 2.979-2.127.313-4.136.608-5.885 1.261-1.31.489-3.315 1.86-5.636 3.447-4.541 3.105-9.69 6.624-12.696 5.735-.852-.252-1.484-.849-1.877-1.774-.614-1.446-.432-3.024.542-4.688 2.892-4.938 12.088-9.354 16.641-9.807 5.226-.521 9.055-2.663 13.214-7.396 3.882-4.417 7.635-6.542 11.457-6.486 2.9.04 4.752-.357 4.953-1.062.101-.354-.143-1.2-2.904-2.895-4.578-2.809-10.193 3.013-13.908 6.866-1.034 1.072-1.926 1.998-2.569 2.48-7.898 5.927-13.103 6.324-14.814 6.455-5.15.393-8.812 4.413-12.043 7.96a76.601 76.601 0 0 1-2.058 2.203c-1.394 1.413-1.816 3.187-2.224 4.902-.665 2.798-1.294 5.44-5.892 6.072-3.223.443-5.824-.403-7.322-2.383-1.369-1.81-1.646-4.419-.706-6.649 1.015-2.408 2.845-2.74 5.161-3.161 1.687-.306 3.786-.687 6.165-1.978 3.631-1.97 5.455-5.149 6.921-7.702.816-1.421 1.52-2.648 2.391-3.485 1.537-1.475 5.188-2.553 7.227-3.064 3.065-.769 6.495-1.279 8.951-1.334 3.288-.072 7.583-3.766 9.084-6.895.481-1.002.9-2.402.166-3.381-.314-.419-.862-.677-1.629-.765-3.856-.445-11.959 3.511-13.254 4.602l-.328.278c-2.005 1.7-6.153 5.217-8.529 5.217l-.079-.001c-2.294-.077-9.907 2.677-12.521 4.787-1.493 1.205-3.572 2.365-4.516 1.668-.545-.403-.562-1.285-.049-2.623.874-2.282 4.564-3.051 8.472-3.865 2.686-.56 5.463-1.138 7.637-2.22 5.068-2.522 5.409-7.726 4.956-9.236a.254.254 0 1 1 .487-.149c.311 1.037.656 6.921-5.217 9.844-2.232 1.111-5.042 1.696-7.759 2.262-3.768.785-7.327 1.527-8.101 3.548-.407 1.064-.451 1.783-.124 2.025.55.407 2.226-.305 3.899-1.654 2.738-2.21 10.439-4.981 12.856-4.899l.066.001c2.187 0 6.392-3.565 8.198-5.097l.33-.279c1.373-1.157 9.575-5.188 13.637-4.718.91.105 1.576.43 1.977.965.703.938.664 2.291-.114 3.913-.783 1.632-2.298 3.428-4.052 4.805-1.909 1.498-3.854 2.343-5.478 2.379-4.699.103-13.42 1.936-15.839 4.257-.819.785-1.506 1.983-2.302 3.37-1.498 2.61-3.362 5.858-7.12 7.897-2.451 1.33-4.594 1.719-6.316 2.031-2.334.424-3.876.704-4.784 2.857-.87 2.063-.617 4.472.643 6.137 1.382 1.827 3.815 2.603 6.849 2.186 4.254-.585 4.816-2.948 5.467-5.684.424-1.784.863-3.629 2.357-5.144a75.919 75.919 0 0 0 2.044-2.189c3.294-3.617 7.028-7.717 12.378-8.124 6.768-.516 12.624-4.911 14.549-6.355.61-.458 1.489-1.37 2.508-2.426 3.827-3.969 9.612-9.967 14.536-6.946 2.392 1.467 3.386 2.571 3.129 3.474-.284.997-2.114 1.48-5.448 1.433-3.669-.048-7.292 2.014-11.071 6.313-3.11 3.539-6.904 6.904-13.544 7.566-4.452.444-13.436 4.748-16.253 9.558-.887 1.515-1.06 2.937-.513 4.225.335.789.843 1.274 1.553 1.484 2.778.823 8.04-2.776 12.269-5.667 2.348-1.606 4.377-2.993 5.745-3.503 1.799-.672 3.834-.971 5.988-1.288 3.304-.486 6.72-.988 9.609-2.9 2.395-1.585 3.627-4.1 4.713-6.318 1.075-2.196 2.091-4.27 4.038-5.038 2.747-1.084 6.555-.677 7.988.855.582.622.704 1.357.354 2.127-.618 1.359-2.177 1.814-3.827 2.296-1.796.525-3.653 1.067-4.642 2.777-2.442 4.223-5.795 9.163-10.083 9.882-.685.115-1.108.372-1.19.723-.09.385.231.901.838 1.347 2.133 1.565 6.663 1.882 11.57-1.122 5.978-3.659 9.232-2.324 10.64-1.203 1.547 1.232 2.242 3.307 1.688 5.044-.936 2.939-5.355 2.929-10.033 2.921-.852-.002-1.733-.003-2.577.015-3.007.064-5.066 2.99-6.025 4.729-1.383 2.506-2.277 5.7-2.278 8.137-.001 7.16 4.787 8.71 9.471 9.283 1.965.24 2.422 1.043 2.459 1.675.091 1.553-2.449 3.561-5.435 4.296a9.953 9.953 0 0 1-2.398.305z" fill="#FFFFFF" data-color="2"/>
        </g>
        <path d="M121.855 68.524l-.233-.103c-.132.303-3.225 7.444-3.162 8.502.018.295.106 1.013.217 1.923.276 2.25.738 6.016.586 7.294-.213 1.792-.037 3.312-.036 3.328l.252-.031c-.001-.011-.101-.889-.055-2.086l.079.022.78-2.841-.245-.069-.554 2.017c.01-.104.017-.204.03-.31.156-1.309-.291-4.948-.586-7.356l-.054-.439 1.978-4.358-.231-.107-1.806 3.978a23.7 23.7 0 0 1-.104-.981c-.046-.826 2.254-6.331 3.144-8.383z" fill="#FFA88D" data-color="3"/>
        <path d="M81.73 76.867a1.642 1.642 0 0 0-.036-.285 4.37 4.37 0 0 0-.34-1.184c-.817-2.439-2.679-6.742-2.781-6.976l-.233.103c.548 1.263 1.63 3.834 2.369 5.817-.856-1.078-1.934-1.609-1.951-1.618l-.109.231c.021.01 1.719.851 2.479 2.557.15.446.256.81.311 1.072.017.109.034.218.042.333-.018.292-.105 1-.215 1.897-.213 1.732-.5 4.09-.588 5.77l-.786-4.802-.251.042 1.038 6.347c.209 1.759.037 3.25.036 3.265l.252.031a15.88 15.88 0 0 0-.036-3.328c-.152-1.278.31-5.044.586-7.294.112-.91.2-1.628.217-1.923 0-.004-.002-.012-.001-.016h.001c0-.013-.003-.025-.004-.039z" fill="#FFA88D" data-color="3"/>
        <path d="M64.251 97.363l.252-.03c-.208-1.777 4.093-3.555 4.136-3.573l-.095-.238c-.185.076-4.524 1.87-4.293 3.841z" fill="#FFA88D" data-color="3"/>
        <path d="M133.6 95.473c-.961-.716-2.492-1.921-2.508-1.933l-.156.202c.015.012 1.55 1.219 2.513 1.937 1.51 1.127 2.224 2.075 2.008 2.67l.239.088c.265-.732-.44-1.729-2.096-2.964z" fill="#FFA88D" data-color="3"/>
        <path d="M66.36 89.411l.24.083c.94-2.769 4.005-11.821 4.005-12.068l-.253-.011c-.052.342-2.899 8.776-3.992 11.996z" fill="#FFA88D" data-color="3"/>
        <path d="M132.617 85.053c-1.327-2.39-3.457-8.01-3.479-8.067l-.237.091c.021.057 2.159 5.694 3.494 8.101l.222-.125z" fill="#FFA88D" data-color="3"/>
        <path d="M86.688 59.209c.172.157 4.261 3.86 7.784 4.463l.043-.253c-3.45-.591-7.615-4.363-7.656-4.401l-.171.191z" fill="#FFA88D" data-color="3"/>
        <path d="M100.917 65.189l.059.249c.067-.016 6.763-1.667 10.853-6.239l-.189-.172c-4.035 4.513-10.656 6.146-10.723 6.162z" fill="#FFA88D" data-color="3"/>
        <path d="M89.975 41.219s-1.421-7.112.62-11.153 5.628-4.78 5.628-4.78-1.413-3.399.628-4.407c2.041-1.007 2.276 0 2.276 0s1.334-1.24 3.375-.775c2.041.465 2.702 2.978 1.996 4.992 0 0 3.946 2.112 4.966 5.24 1.02 3.129 0 10.882 0 10.882H89.975z" fill="#F47362" data-color="4"/>
        <path d="M111.034 57.769c-1.226-.281-5.254.17-5.849-.684-.422-.605-.426-3.199-.392-4.662.711-.736 1.257-1.435 1.557-1.804.82-1.012 1.927-5.301 1.927-5.301s2.495-.769 2.739-3.712c.161-1.944-.744-3.408-2.311-3.012 0 0-.32 1.96-.582 1.96-.262 0-.196-.485-.295-1.422-.098-.937.029-3.971-2.556-6.586-2.033-2.056-7.09-3.517-10.826.102-2.266 2.195-2.799 4.72-2.84 6.78-.042 2.06-.84-1.197-.84-1.197s-1.961.223-2.271 2.414c-.308 2.18.857 4.676 3.152 4.758 0 0 1.026 4.217 2.037 5.459.214.263.577.703 1.049 1.201.073 1.234.173 4.385-.655 4.958-1.034.716-4.155.004-6.089.403-1.934.398 4.356 3.443 11.733 3.336 7.377-.107 13.269-2.543 11.312-2.991z" fill="#FFA88D" data-color="3"/>
        <path d="M99.669 55.079c-.051 0-.102-.001-.152-.004-2.106-.122-4.759-2.747-4.871-2.859a.124.124 0 0 1-.001-.175.122.122 0 0 1 .173-.001c.027.027 2.699 2.672 4.712 2.788 2.011.114 5.153-2.403 5.185-2.429a.121.121 0 0 1 .172.019.125.125 0 0 1-.019.174c-.127.104-3.098 2.487-5.199 2.487z" fill="#F47362" opacity=".2" data-color="4"/>
        <path d="M91.285 41.967a.123.123 0 0 1-.122-.112c-.163-1.725-1.794-2.184-1.811-2.188a.124.124 0 0 1-.087-.151.123.123 0 0 1 .15-.088c.018.005 1.812.509 1.991 2.404a.124.124 0 0 1-.11.135h-.011z" fill="#F47362" opacity=".2" data-color="4"/>
        <path d="M90.334 44.001a.125.125 0 0 1-.083-.032c-1.785-1.651-.701-3.326-.69-3.343a.123.123 0 0 1 .17-.034.125.125 0 0 1 .034.171c-.041.061-.974 1.518.653 3.022a.124.124 0 0 1-.084.216z" fill="#F47362" opacity=".2" data-color="4"/>
        <path d="M108.489 41.424l-.012-.001a.123.123 0 0 1-.11-.135c.005-.054.137-1.32.833-1.769.275-.178.598-.204.958-.078a.123.123 0 0 1 .075.157.122.122 0 0 1-.156.076c-.289-.102-.533-.084-.745.052-.596.384-.72 1.573-.721 1.586a.123.123 0 0 1-.122.112z" fill="#F47362" opacity=".2" data-color="4"/>
        <path d="M108.816 44.033a.124.124 0 0 1-.081-.217c2.132-1.871.92-3.422.868-3.487a.125.125 0 0 1 .017-.174.121.121 0 0 1 .172.017c.015.018 1.421 1.798-.896 3.831a.123.123 0 0 1-.08.03z" fill="#F47362" opacity=".2" data-color="4"/>
        <path d="M99.88 47.795c-1.664-.014-3.038-.139-3.313.167-.275.306 1.521 1.29 3.193 1.318 1.672.028 3.297-.845 3.343-1.123.072-.427-1.623-.348-3.223-.362z" fill="#FFFFFF" data-color="2"/>
        <path d="M96.816 47.836c-.274.012-.56.023-.581.156-.034.215.631.413.631.413l-.05-.569z" fill="#F47362" data-color="4"/>
        <path d="M102.818 47.91l-.009.536s.694-.124.694-.317c0-.183-.685-.219-.685-.219z" fill="#F47362" data-color="4"/>
        <path d="M96.816 47.836s1.904-.221 2.925.342c0 0 1.394-.542 3.077-.268 0 0-1.585-1.051-3.087-.367 0 0-.704-.763-2.915.293z" fill="#F47362" data-color="4"/>
        <path d="M96.866 48.406s1.274.84 2.895.874c1.62.034 3.049-.834 3.049-.834s-.733 1.524-2.992 1.558c-2.261.033-2.952-1.598-2.952-1.598z" fill="#F47362" data-color="4"/>
        <path d="M99.071 45.984a.124.124 0 0 1-.103-.056l-.757-1.178a.124.124 0 0 1-.016-.096l1.045-4.485a.122.122 0 0 1 .147-.092.123.123 0 0 1 .091.149l-1.033 4.433.728 1.134a.124.124 0 0 1-.102.191z" fill="#F47362" data-color="4"/>
        <path d="M100.459 45.758a.122.122 0 0 1-.1-.052l-.454-.641a.125.125 0 0 1 .028-.173.121.121 0 0 1 .171.029l.454.641a.125.125 0 0 1-.028.173.123.123 0 0 1-.071.023z" fill="#F47362" data-color="4"/>
        <path d="M93.695 39.999s.487 1.189 1.806 1.288c1.318.098 1.878-1.227 1.878-1.227s-1.606-2.372-3.684-.061z" fill="#FFFFFF" data-color="2"/>
        <path d="M96.513 40.156c0 .637-.425 1.153-.95 1.153-.525 0-.95-.516-.95-1.153s.425-1.153.95-1.153c.525 0 .95.516.95 1.153z" opacity=".9"/>
        <path d="M97.713 40.243c-.286-.388-.619-.753-1.033-1.024-.411-.268-.93-.412-1.43-.325a2.745 2.745 0 0 0-.711.227 3.563 3.563 0 0 0-.65.364c-.023.016-.041.033-.063.05a1.212 1.212 0 0 1-.856-.064.027.027 0 0 0-.034.01.026.026 0 0 0 .008.037c.178.118.389.2.61.22h.015c-.063.051-.121.101-.189.144a1.286 1.286 0 0 1-.138.081 1.485 1.485 0 0 1-.155.042.586.586 0 0 1-.313-.012.045.045 0 0 0-.045.011.044.044 0 0 0 .001.061c.093.091.233.14.363.151a.988.988 0 0 0 .196.001 1 1 0 0 0 .203-.011.92.92 0 0 0 .377-.165 2.66 2.66 0 0 0 .279-.232 3.18 3.18 0 0 1 .522-.428c.192-.116.404-.192.62-.233.433-.086.889.018 1.267.264.383.241.694.594.959.972l.001.001.001.002a.12.12 0 0 0 .167.025.12.12 0 0 0 .028-.169z" fill="#F47362" data-color="4"/>
        <path d="M93.753 40.183c-.102.014-.191.04-.282.075a.764.764 0 0 0-.243.151c-.008.009-.011.023-.005.034a.026.026 0 0 0 .037.009.67.67 0 0 1 .243-.076c.083-.011.173-.012.25-.003h.002a.097.097 0 0 0 .106-.108.097.097 0 0 0-.108-.082z" fill="#F47362" data-color="4"/>
        <g opacity=".4">
            <path d="M97.713 40.243c-.286-.388-.619-.753-1.033-1.024-.411-.268-.93-.412-1.43-.325a2.745 2.745 0 0 0-.711.227 3.563 3.563 0 0 0-.65.364c-.023.016-.041.033-.063.05a1.212 1.212 0 0 1-.856-.064.027.027 0 0 0-.034.01.026.026 0 0 0 .008.037c.178.118.389.2.61.22h.015c-.063.051-.121.101-.189.144a1.286 1.286 0 0 1-.138.081 1.485 1.485 0 0 1-.155.042.586.586 0 0 1-.313-.012.045.045 0 0 0-.045.011.044.044 0 0 0 .001.061c.093.091.233.14.363.151a.988.988 0 0 0 .196.001 1 1 0 0 0 .203-.011.92.92 0 0 0 .377-.165 2.66 2.66 0 0 0 .279-.232 3.18 3.18 0 0 1 .522-.428c.192-.116.404-.192.62-.233.433-.086.889.018 1.267.264.383.241.694.594.959.972l.001.001.001.002a.12.12 0 0 0 .167.025.12.12 0 0 0 .028-.169z"/>
            <path d="M93.753 40.183c-.102.014-.191.04-.282.075a.764.764 0 0 0-.243.151c-.008.009-.011.023-.005.034a.026.026 0 0 0 .037.009.67.67 0 0 1 .243-.076c.083-.011.173-.012.25-.003h.002a.097.097 0 0 0 .106-.108.097.097 0 0 0-.108-.082z"/>
        </g>
        <path d="M97.497 39.904a.126.126 0 0 1-.112-.068c-.037-.072-.94-1.752-2.733-1.174a.128.128 0 0 1-.078-.244c1.997-.643 3.025 1.28 3.035 1.299a.128.128 0 0 1-.053.173.138.138 0 0 1-.059.014z" opacity=".2"/>
        <path d="M105.565 39.999s-.487 1.189-1.806 1.288c-1.318.098-1.878-1.227-1.878-1.227s1.606-2.372 3.684-.061z" fill="#FFFFFF" data-color="2"/>
        <path d="M102.746 40.156c0 .637.425 1.153.95 1.153.525 0 .95-.516.95-1.153s-.425-1.153-.95-1.153c-.524 0-.95.517-.95 1.153z" opacity=".9"/>
        <path d="M106.484 39.991a.586.586 0 0 1-.313.012 1.782 1.782 0 0 1-.155-.042 1.139 1.139 0 0 1-.138-.081c-.068-.042-.126-.093-.189-.144h.015c.222-.02.432-.102.61-.22a.028.028 0 0 0 .009-.034c-.006-.013-.022-.019-.035-.013a1.223 1.223 0 0 1-.856.064c-.022-.017-.04-.034-.063-.05a3.504 3.504 0 0 0-.65-.364 2.707 2.707 0 0 0-.711-.227c-.499-.086-1.018.057-1.43.325-.414.271-.747.636-1.033 1.024a.002.002 0 0 1-.002.002.121.121 0 0 0 .028.168.117.117 0 0 0 .166-.029l.001-.001c.266-.378.577-.731.959-.972.378-.246.834-.35 1.267-.264.216.041.428.116.62.233.192.118.357.271.522.428.085.079.173.157.279.232a.94.94 0 0 0 .377.165c.069.013.138.012.203.011.064.006.13.006.196-.001.13-.01.27-.06.363-.151.011-.011.016-.029.011-.045-.005-.021-.029-.033-.051-.026z" fill="#F47362" data-color="4"/>
        <path d="M105.789 40.258a1.158 1.158 0 0 0-.282-.075.096.096 0 0 0-.107.107c.006.053.054.09.106.084h.001a1 1 0 0 1 .25.003.682.682 0 0 1 .243.076c.01.006.025.005.034-.005a.027.027 0 0 0-.001-.038.782.782 0 0 0-.244-.152z" fill="#F47362" data-color="4"/>
        <g opacity=".4">
            <path d="M106.484 39.991a.586.586 0 0 1-.313.012 1.782 1.782 0 0 1-.155-.042 1.139 1.139 0 0 1-.138-.081c-.068-.042-.126-.093-.189-.144h.015c.222-.02.432-.102.61-.22a.028.028 0 0 0 .009-.034c-.006-.013-.022-.019-.035-.013a1.223 1.223 0 0 1-.856.064c-.022-.017-.04-.034-.063-.05a3.504 3.504 0 0 0-.65-.364 2.707 2.707 0 0 0-.711-.227c-.499-.086-1.018.057-1.43.325-.414.271-.747.636-1.033 1.024a.002.002 0 0 1-.002.002.121.121 0 0 0 .028.168.117.117 0 0 0 .166-.029l.001-.001c.266-.378.577-.731.959-.972.378-.246.834-.35 1.267-.264.216.041.428.116.62.233.192.118.357.271.522.428.085.079.173.157.279.232a.94.94 0 0 0 .377.165c.069.013.138.012.203.011.064.006.13.006.196-.001.13-.01.27-.06.363-.151.011-.011.016-.029.011-.045-.005-.021-.029-.033-.051-.026z"/>
            <path d="M105.789 40.258a1.158 1.158 0 0 0-.282-.075.096.096 0 0 0-.107.107c.006.053.054.09.106.084h.001a1 1 0 0 1 .25.003.682.682 0 0 1 .243.076c.01.006.025.005.034-.005a.027.027 0 0 0-.001-.038.782.782 0 0 0-.244-.152z"/>
        </g>
        <path d="M101.763 39.904a.128.128 0 0 1-.112-.188c.01-.02 1.037-1.943 3.035-1.299a.128.128 0 0 1-.078.244c-1.793-.578-2.695 1.103-2.733 1.174a.125.125 0 0 1-.112.069z" opacity=".2"/>
        <path d="M93.155 37.005a4.534 4.534 0 0 1 1.19-.686 4.749 4.749 0 0 1 1.358-.332c.474-.034.975-.018 1.453.153.471.186.892.547 1.069 1.029a.142.142 0 0 1-.165.187l-.013-.003c-.466-.114-.806-.206-1.168-.285a5.67 5.67 0 0 0-1.131-.126 8.78 8.78 0 0 0-1.215.091 28.08 28.08 0 0 0-1.265.204l-.008.001a.13.13 0 0 1-.151-.106.136.136 0 0 1 .046-.127z" fill="#F47362" data-color="4"/>
        <path d="M106.207 37.235a28.08 28.08 0 0 0-1.265-.204 8.78 8.78 0 0 0-1.215-.091 5.526 5.526 0 0 0-1.131.126c-.362.079-.702.171-1.168.285l-.013.003a.14.14 0 0 1-.164-.186c.176-.482.598-.843 1.069-1.029.478-.17.98-.187 1.453-.153.477.038.93.164 1.358.332.427.174.829.389 1.19.686a.133.133 0 0 1 .019.185.13.13 0 0 1-.124.046h-.009z" fill="#F47362" data-color="4"/>
        <path d="M92.242 35.519a15.26 15.26 0 0 0-.491 3.737c.012.628.066 1.254.271 1.841.102.308.184.622.271.935l.268.938c.179.629.267 1.291.188 1.959-.046.332-.1.671-.288.99-.147.245-.221.567-.267.875-.089.627-.041 1.267.003 1.89.054.624.124 1.248.375 1.826l.001.002a.042.042 0 0 1-.021.055.04.04 0 0 1-.048-.011 2.373 2.373 0 0 1-.455-.877 4.659 4.659 0 0 1-.179-.969c-.055-.655.031-1.305.123-1.947.055-.322.092-.642.229-.974.099-.259.104-.577.094-.88-.029-.615-.095-1.234-.148-1.865a6.184 6.184 0 0 0-.159-.936 9.123 9.123 0 0 0-.296-.901c-.242-.618-.342-1.282-.393-1.932a15.594 15.594 0 0 1-.028-1.957c.025-.654.073-1.296.147-1.96a.412.412 0 1 1 .808.148l-.005.013z" fill="#F47362" data-color="4"/>
        <path d="M94.598 32.001a18.555 18.555 0 0 0-1.158 2.69c-.312.928-.552 1.885-.61 2.847a6.143 6.143 0 0 0-.001.718c.017.244.037.488.069.731.06.486.168.964.28 1.459.115.491.196 1.022.173 1.545a6.958 6.958 0 0 1-.27 1.517.127.127 0 0 1-.247-.061v-.002c.103-.485.175-.976.169-1.459-.01-.485-.11-.952-.253-1.43a15.35 15.35 0 0 1-.38-1.481 12.373 12.373 0 0 1-.12-.764 6.728 6.728 0 0 1-.045-.788c.003-1.051.2-2.075.47-3.067a19.45 19.45 0 0 1 1.057-2.905.486.486 0 0 1 .647-.241.493.493 0 0 1 .238.653l-.012.025-.007.013z" fill="#F47362" data-color="4"/>
        <path d="M106.45 31.701c.245.671.476 1.291.695 1.938.219.642.423 1.288.581 1.957.154.667.295 1.358.23 2.106a3.253 3.253 0 0 1-.104.565l-.136.477c-.096.315-.19.628-.293.937-.099.31-.197.618-.314.92-.118.302-.246.602-.35.91-.214.613-.28 1.278-.152 1.898.062.309.15.606.27.887l.102.228c.035.085.064.172.087.26.045.176.066.355.069.531 0 .708-.229 1.362-.557 1.948a.072.072 0 0 1-.097.027c-.031-.018-.044-.055-.031-.088l.002-.005c.229-.6.384-1.251.339-1.866a1.732 1.732 0 0 0-.164-.648l-.112-.217a2.773 2.773 0 0 1-.27-1.007c-.052-.69.007-1.356.02-2.039.012-.341.03-.684.074-1.021.045-.337.128-.663.219-.984.087-.322.19-.638.293-.951l.161-.465c.04-.128.075-.261.095-.402.082-.567.014-1.203-.141-1.812a9.388 9.388 0 0 0-.677-1.787c-.287-.569-.62-1.142-1.008-1.624l-.001-.002a.692.692 0 0 1 .099-.968.678.678 0 0 1 1.071.297z" fill="#F47362" data-color="4"/>
        <path d="M108.34 35.851c.076.7.125 1.375.154 2.063.032.685.035 1.372-.006 2.059a10.217 10.217 0 0 1-.295 2.054c-.093.346-.214.65-.307.974-.1.32-.165.648-.216.977-.05.328-.086.655-.128.976-.037.321-.077.641-.075.961.001.32.026.639.078.956.058.316.132.631.234.941.216.655.336 1.388.241 2.098a3.408 3.408 0 0 1-.3 1.025 2.763 2.763 0 0 1-.622.867.127.127 0 0 1-.179-.009.13.13 0 0 1-.001-.17l.009-.011c.198-.228.36-.523.471-.817a3.33 3.33 0 0 0 .194-.929c.046-.638-.095-1.264-.331-1.875-.483-1.299-.568-2.839-.087-4.135.112-.326.223-.648.318-.974.092-.325.198-.656.27-.965.146-.633.183-1.297.183-1.958a18.186 18.186 0 0 0-.506-3.937l-.003-.011a.46.46 0 1 1 .904-.16z" fill="#F47362" data-color="4"/>
        <g opacity=".3">
            <path d="M96.933 25.447c-.393 0-.693-.03-.724-.034a.127.127 0 0 1-.113-.141.128.128 0 0 1 .139-.114c.517.054 1.958.094 2.411-.364.671-.677 4.296-.228 5.47.186a.128.128 0 0 1-.084.242c-1.301-.459-4.693-.765-5.206-.247-.389.394-1.261.472-1.893.472z"/>
            <path d="M98.182 23.158h-.008a.128.128 0 0 1-.119-.136c.067-1.117.913-1.852.949-1.882a.126.126 0 0 1 .179.015.128.128 0 0 1-.015.18c-.008.007-.799.697-.86 1.702a.126.126 0 0 1-.126.121z"/>
            <path d="M104.074 23.751a.127.127 0 0 1-.126-.114c-.204-1.831-2.617-2.534-2.641-2.541a.128.128 0 0 1-.088-.158.127.127 0 0 1 .156-.089c.106.03 2.601.756 2.825 2.76a.128.128 0 0 1-.112.142h-.014z"/>
            <path d="M101.932 24.242a.128.128 0 0 1-.089-.22c.569-.552-.304-1.519-.313-1.529a.129.129 0 0 1 .007-.181.126.126 0 0 1 .179.007c.043.047 1.051 1.162.303 1.888a.127.127 0 0 1-.087.035z"/>
            <path d="M96.513 30.738a.128.128 0 0 1-.125-.104c-.017-.091-.412-2.235.229-3.65a.126.126 0 0 1 .168-.063.129.129 0 0 1 .063.17c-.607 1.34-.214 3.474-.21 3.495a.128.128 0 0 1-.101.15l-.024.002z"/>
            <path d="M97.916 30.271a.13.13 0 0 1-.068-.02c-.021-.014-.51-.347-.358-1.445a.125.125 0 0 1 .143-.109c.069.01.118.075.108.145-.128.921.242 1.193.246 1.195a.13.13 0 0 1 .034.177.125.125 0 0 1-.105.057z"/>
            <path d="M93.498 32.62a.127.127 0 0 1-.123-.096c-.027-.105-.651-2.604.203-4.622a.128.128 0 0 1 .167-.068.13.13 0 0 1 .067.168c-.82 1.938-.197 4.432-.191 4.457a.128.128 0 0 1-.091.156.09.09 0 0 1-.032.005z"/>
            <path d="M91.84 35.567a.12.12 0 0 1-.072-.023c-.082-.057-.797-.65-.61-3.776a.128.128 0 0 1 .134-.12c.07.004.123.065.119.136-.18 2.989.494 3.545.5 3.55a.128.128 0 0 1-.071.233z"/>
            <path d="M107.504 34.852a.128.128 0 0 1-.112-.188c1.739-3.272-.712-6.6-.737-6.633a.13.13 0 0 1 .024-.18.126.126 0 0 1 .178.025c.026.035 2.575 3.491.758 6.909a.124.124 0 0 1-.111.067z"/>
            <path d="M105.095 31.684a.129.129 0 0 1-.086-.223c.966-.888.176-2.112.142-2.163a.13.13 0 0 1 .035-.178.126.126 0 0 1 .176.035c.01.014.946 1.458-.182 2.495a.123.123 0 0 1-.085.034z"/>
            <path d="M101.624 30.072a.129.129 0 0 1-.101-.206c1.164-1.545.204-2.337.162-2.37a.13.13 0 0 1-.022-.18.126.126 0 0 1 .178-.023c.012.01 1.205.974-.116 2.727a.126.126 0 0 1-.101.052z"/>
            <path d="M108.38 37.388a.129.129 0 0 1-.058-.243c.553-.281.673-2.079.673-2.421 0-.071.057-.128.127-.128s.127.057.127.128c0 .022-.035 2.255-.813 2.65a.122.122 0 0 1-.056.014z"/>
        </g>
        <path d="M84.987 73.556s-1.177-.382-1.203.491c-.026.873 1.057.982 1.057.982l31.756-.347-.06-1.259-31.55.133z" fill="#FFFFFF" data-color="2"/>
        <path d="M117.274 87.079s-.065-10.518-.075-11.123c-.01-.605.401-1.261-.603-1.273-1.004-.012-31.756.347-31.756.347-2.122-1.853.146-1.474.146-1.474s30.889-.069 31.55-.132c.661-.063.626.031.661-.346.035-.377-.397-.39-.397-.39-2.068 0-30.766.234-31.834.314-1.068.08-2.135 1.408-2.091 3.218.044 1.81-.179 17.29-.179 17.29v18.679s.395 2.009 1.251 2.267 31.834.101 32.747 0c.913-.101.58-1.61.578-6.027l.002-21.35z" fill="#F47362" data-color="4"/>
        <path fill="#FCE6D4" d="M113.15 86.156v22.291H88.463V86.156h24.687z" data-color="1"/>
        <path d="M113.15 86.156v22.291H88.463V86.156h24.687z" opacity=".2"/>
        <path d="M107.645 83.555c-.526 0-.971-.13-1.329-.389-.679-.492-.78-1.264-.784-1.296a.173.173 0 1 1 .343-.042c.001.006.091.658.647 1.058.448.322 1.076.402 1.867.238 1.207-.251 1.549-1.041 1.474-1.641-.081-.654-.664-1.292-1.632-1.25-2.107.095-2.378-1.058-2.411-1.413-.075-.808.55-1.775 1.6-1.926 1.7-.245 2.31.683 2.335.723a.176.176 0 0 1-.052.241.171.171 0 0 1-.238-.052c-.022-.033-.528-.776-1.995-.567-.842.121-1.363.913-1.304 1.548.069.743.836 1.153 2.051 1.098 1.177-.056 1.89.742 1.991 1.555.1.807-.402 1.746-1.748 2.025a4.06 4.06 0 0 1-.815.09z" fill="#FFFFFF" data-color="2"/>
        <path d="M89.869 83.464h-3.434a.174.174 0 0 1-.173-.174v-5.875c0-.048.029-.112.064-.145.165-.157 1.361-.166 3.554-.029a.174.174 0 0 1-.021.348c-1.361-.085-2.87-.129-3.25-.065v5.592h3.261a.174.174 0 0 1-.001.348z" fill="#FFFFFF" data-color="2"/>
        <path d="M88.495 80.478h-2.06a.174.174 0 0 1 0-.348h2.06a.174.174 0 0 1 0 .348z" fill="#FFFFFF" data-color="2"/>
        <path d="M94.118 83.464a.172.172 0 0 1-.156-.1l-2.461-5.266v5.192a.173.173 0 1 1-.346 0v-5.971c0-.082.056-.152.135-.17a.17.17 0 0 1 .194.096l2.461 5.267V77.32a.173.173 0 1 1 .346 0v5.971a.174.174 0 0 1-.135.17c-.013.001-.025.003-.038.003z" fill="#FFFFFF" data-color="2"/>
        <path d="M97.093 83.475c-.086 0-.174-.004-.264-.012-1.082-.094-1.719-1.191-1.704-2.933.015-1.717.704-3.602 1.706-3.671 1.745-.123 2.131 1.742 2.134 1.761a.174.174 0 0 1-.135.205.173.173 0 0 1-.204-.136c-.013-.065-.337-1.582-1.771-1.482-.71.05-1.37 1.635-1.385 3.327-.005.577.08 2.468 1.388 2.582.593.053 1.047-.089 1.347-.42.524-.576.479-1.587.44-1.971l-1.566.098a.173.173 0 0 1-.183-.164.174.174 0 0 1 .162-.185l1.727-.108a.174.174 0 0 1 .181.144c.011.064.263 1.575-.505 2.421-.328.361-.788.544-1.368.544z" fill="#FFFFFF" data-color="2"/>
        <path d="M100.556 83.475a.174.174 0 0 1-.173-.175v-5.982a.173.173 0 1 1 .346 0v5.807l2.101-.01h.001c.095 0 .172.077.173.174a.174.174 0 0 1-.172.175l-2.276.011c.001 0 .001 0 0 0z" fill="#FFFFFF" data-color="2"/>
        <path d="M104.291 83.475a.174.174 0 0 1-.173-.174v-6.268a.173.173 0 1 1 .346 0V83.3a.175.175 0 0 1-.173.175z" fill="#FFFFFF" data-color="2"/>
        <path d="M111.415 83.554a.174.174 0 0 1-.173-.174v-6.348a.173.173 0 1 1 .346 0v6.348a.174.174 0 0 1-.173.174z" fill="#FFFFFF" data-color="2"/>
        <path d="M115.876 83.554a.174.174 0 0 1-.173-.174v-6.348a.173.173 0 1 1 .346 0v6.348a.174.174 0 0 1-.173.174z" fill="#FFFFFF" data-color="2"/>
        <path d="M115.876 80.217h-4.461a.174.174 0 0 1 0-.348h4.461a.174.174 0 0 1 0 .348z" fill="#FFFFFF" data-color="2"/>
        <path d="M117.937 98.791l.609-7.225s8.447-.384 12.468 2.075c0 0-.935 12.461-3.295 17.938 0 0-8.834.595-17.094-2.381-8.26-2.977-13.783-5.358-16.337-6.429-2.554-1.072-9.094-2.774-10.405-3.362-1.311-.588-3.119-2.929-3.217-3.37-.097-.441.241-.908.241-.908s-1.302-1.641-1.02-2.148c.282-.507.593-.41.593-.41s-.929-1.448-.666-1.882c.263-.434.55-.386.55-.386s-.541-1.048-.229-1.532c.312-.483 1.513 0 1.513 0s1.065-1.086 1.567-1.325c.503-.239 2.839 0 2.839 0s4.051 2.238 4.584 3.76c.532 1.522 1.559 3.565 5.112 4.259 3.552.691 16.563 2.008 22.187 3.326z" fill="#FFA88D" data-color="3"/>
        <path d="M81.669 98.791l-.609-7.225s-8.447-.384-12.468 2.075c0 0 .935 12.461 3.295 17.938 0 0 8.834.595 17.094-2.381 8.26-2.977 13.783-5.358 16.337-6.429 2.554-1.072 9.094-2.774 10.405-3.362 1.311-.588 3.119-2.929 3.217-3.37.097-.441-.241-.908-.241-.908s1.302-1.641 1.02-2.148c-.282-.507-.593-.41-.593-.41s.929-1.448.666-1.882c-.263-.434-.55-.386-.55-.386s.541-1.048.229-1.532c-.312-.483-1.513 0-1.513 0s-1.065-1.086-1.567-1.325c-.503-.239-2.839 0-2.839 0s-4.051 2.238-4.584 3.76c-.532 1.522-1.559 3.565-5.112 4.259-3.553.691-16.563 2.008-22.187 3.326z" fill="#FFA88D" data-color="3"/>
        <g opacity=".2">
            <path d="M100 105.105a.125.125 0 0 1-.046-.239c1.881-.764 3.402-1.406 4.513-1.874l.804-.338c1.427-.599 4.064-1.385 6.391-2.079 1.844-.55 3.437-1.025 4.012-1.282 1.255-.563 3.055-2.868 3.147-3.284.084-.382-.217-.805-.22-.809a.125.125 0 0 1 .009-.157c.007-.007.692-.764.897-1.412.088-.279.084-.532-.011-.695a.526.526 0 0 0-.34-.234l-3.025 2.278a.122.122 0 0 1-.172-.025.125.125 0 0 1 .025-.173l3.071-2.312a.12.12 0 0 1 .097-.022c.258.052.445.174.555.363.179.306.098.692.034.896-.185.586-.704 1.221-.886 1.433.099.165.289.547.206.924-.102.465-1.909 2.839-3.286 3.456-.589.264-2.189.741-4.042 1.294-2.321.692-4.951 1.476-6.366 2.07l-.803.338c-1.111.469-2.633 1.11-4.516 1.875a.172.172 0 0 1-.048.008z"/>
            <path d="M112.384 90.26a.124.124 0 0 1-.029-.243l5.573-1.366a.123.123 0 0 1 .058.24l-5.573 1.366c-.009.001-.019.003-.029.003z"/>
            <path d="M115.428 92.347a.124.124 0 0 1-.055-.234l3.814-1.921a.12.12 0 0 1 .164.055.124.124 0 0 1-.055.166l-3.814 1.921a.116.116 0 0 1-.054.013z"/>
            <path d="M116.055 97.844a.121.121 0 0 1-.088-.037.125.125 0 0 1 .002-.175l2.644-2.592a.121.121 0 0 1 .173.002.125.125 0 0 1-.002.175l-2.644 2.592a.12.12 0 0 1-.085.035z"/>
            <path d="M82.697 98.69a.124.124 0 0 1-.033-.242c3.389-.96 16.578-2.426 16.711-2.441a.12.12 0 0 1 .135.109.123.123 0 0 1-.108.136c-.133.015-13.302 1.479-16.672 2.433a.12.12 0 0 1-.033.005z"/>
            <path d="M74.641 101.147a.124.124 0 0 1-.056-.233c1.677-.865 6.835-2.186 7.053-2.242a.123.123 0 0 1 .149.089.123.123 0 0 1-.089.15c-.053.014-5.35 1.37-7.002 2.223a.13.13 0 0 1-.055.013z"/>
            <path d="M119.126 92.694a.125.125 0 0 1-.108-.183l.514-.959a.122.122 0 0 1 .166-.05c.06.032.082.108.05.168l-.514.959a.125.125 0 0 1-.108.065z"/>
            <path d="M81.35 97.084a.123.123 0 0 1-.098-.049c-.153-.203-.513-.7-.564-.929-.083-.377.107-.758.207-.924-.183-.211-.701-.847-.886-1.433-.064-.203-.145-.589.034-.895.11-.189.297-.311.556-.363a.12.12 0 0 1 .097.022l3.071 2.312a.125.125 0 0 1 .025.173.122.122 0 0 1-.172.025l-3.025-2.278a.523.523 0 0 0-.34.234c-.135.231-.053.563-.011.695.205.648.89 1.405.897 1.412.04.043.043.109.009.156-.003.004-.304.429-.22.809.022.1.191.396.52.833a.124.124 0 0 1-.024.173.12.12 0 0 1-.076.027z"/>
            <path d="M87.363 90.303a.143.143 0 0 1-.029-.003l-5.573-1.366a.123.123 0 0 1 .058-.24l5.573 1.366a.123.123 0 0 1-.029.243z"/>
            <path d="M84.319 92.39a.123.123 0 0 1-.055-.013l-3.814-1.921a.124.124 0 0 1-.055-.166.12.12 0 0 1 .164-.055l3.814 1.921c.061.03.085.105.055.166a.12.12 0 0 1-.109.068z"/>
            <path d="M83.692 97.887a.12.12 0 0 1-.085-.035l-2.644-2.592a.123.123 0 0 1-.002-.175.121.121 0 0 1 .173-.002l2.644 2.592a.123.123 0 0 1-.086.212z"/>
            <path d="M80.622 92.737a.12.12 0 0 1-.108-.065L80 91.713a.125.125 0 0 1 .049-.168.122.122 0 0 1 .166.05l.514.959c.032.06.01.135-.049.168a.125.125 0 0 1-.058.015z"/>
            <path d="M124.861 100.99a.126.126 0 0 1-.059-.015c-2.877-1.587-6.84-2.056-6.879-2.061a.124.124 0 0 1 .028-.246c.04.005 4.05.48 6.969 2.09a.125.125 0 0 1 .049.168.123.123 0 0 1-.108.064z"/>
        </g>
        <path d="M79.312 121.689s-4.46 3.858-6.352 28.947c-.577 7.65.1 17.274.199 29.364h56.542s1.314-21.374.348-29.364c-1.246-10.304-3.471-21.479-7.296-30.247l-43.441 1.3z" fill="#FFFFFF" data-color="2"/>
        <path d="M78.961 121.689s-4.46 3.858-6.352 28.947c-.577 7.65.1 17.274.199 29.364h56.542s1.314-21.374.348-29.364c-1.246-10.304-3.471-21.479-7.296-30.247l-43.441 1.3z" opacity=".2"/>
        <g opacity=".2">
            <path d="M101.045 180c-.001-.14-.085-14.083-.084-19.972 0-1.93.079-3.211.137-4.147.117-1.893.129-2.091-.854-2.87a137.86 137.86 0 0 0-3.584-2.713l.149-.208c.02.015 2.077 1.518 3.591 2.719 1.088.863 1.07 1.159.951 3.088-.057.932-.136 2.209-.136 4.131-.001 5.888.084 19.831.084 19.971l-.254.001z"/>
            <path d="M124.174 135.676c-7.481-.225-9.113-10.735-9.128-10.841l.251-.038c.015.104 1.617 10.404 8.885 10.623l-.008.256z"/>
            <path d="M77.233 136.238l-.022-.255c4.209-.368 7.047-2.351 8.437-5.895 1.04-2.653.833-5.234.831-5.26l.253-.022c.002.026.215 2.66-.844 5.368-.981 2.506-3.278 5.594-8.655 6.064z"/>
            <path d="M99.516 121.603v12.596h-.254v-12.596h.254z"/>
            <path d="M75.608 176.962l-1.446-10.873.252-.034 1.446 10.873-.252.034z"/>
            <path d="M105.38 176.98c-.945-3.336-2.903-11.77-2.923-11.855l.247-.059c.02.085 1.977 8.513 2.92 11.843l-.244.071z"/>
            <path d="M89.124 124.545c-.445-1.487.223-2.936.252-2.997l.229.11c-.007.014-.654 1.423-.238 2.813l-.243.074z"/>
            <path d="M90.24 124.432c-.306-1.122.197-2.796.219-2.866l.243.075c-.005.017-.503 1.673-.217 2.723l-.245.068z"/>
            <path d="M109.448 124.716l-.242-.079c.454-1.404.013-2.878-.132-3.362a.732.732 0 0 1-.045-.186h.254-.127l.126-.013c.003.02.017.062.035.124.152.504.611 2.035.131 3.516z"/>
            <path d="M111.054 124.72l-.239-.087c.879-2.463-.127-3.44-.137-3.45l.171-.189c.047.043 1.146 1.088.205 3.726z"/>
        </g>
    </g>
</svg>
