<?xml version="1.0" encoding="UTF-8"?>
<svg data-bbox="67 20.001 65.999 159.999" viewBox="0 0 200 200" height="200" width="200" xmlns="http://www.w3.org/2000/svg" data-type="color">
    <g>
        <path d="M127.197 177.252c-.315-3.2-.185-6.414-.425-9.62-.214-2.857-.297-5.719-.491-8.577-.196-2.879-1.018-21.795-1.418-24.673-.345-2.485-1.793-12.602-1.949-15.227-.167-2.804-.826-5.389-1.718-8.039-.472-1.402-.938-2.805-1.272-4.235-.083-.242-.17-.482-.247-.726a.213.213 0 0 0-.192-.157 17.855 17.855 0 0 1-4.961-1.259c-1.287-.533-2.395-.995-3.808-.888-1.65.125-3.281.423-4.936.524a83.747 83.747 0 0 1-4.858.129c-3.241.009-6.485-.073-9.722.14a42.876 42.876 0 0 0-4.489.524c-1.397.241-2.778.517-4.184.568.109-.195.212-.393.323-.586.133-.232-.213-.45-.346-.218-.155.269-.302.543-.452.815-.147 0-.294-.009-.441-.015l-.102.415c.105.003.211.008.316.01-.202.374-.397.752-.59 1.131-1.187 4.963-2.246 9.958-2.98 15.009-.755 5.195-.854 10.41-1.358 15.624-.246 2.54-.533 5.079-.566 7.633-.033 2.592.503 31.7.558 32.957.007.171.016.34.025.51l22.028.433c.352-1.644.829-3.264 1.271-4.891.831-3.062.362-6.06.371-9.24.015-4.916.658-11.201.658-11.201s.298 12.38 1.259 17.224c.352 1.772-.37 3.412-.324 5.241.025.982-.012 1.966.014 2.947l25.134.466c.016-.402.031-.803.048-1.204-.061-.514-.126-1.029-.176-1.544z" fill="#AB5855" data-color="1"/>
        <path d="M99.476 131.657c-.248 0-1.352-.075-2.176-1.353-.868-1.346-.367-15.675-.307-17.305.004-.116.102-.212.218-.201a.21.21 0 0 1 .202.217c-.233 6.346-.362 16.128.241 17.063.781 1.211 1.836 1.16 1.846 1.16a.212.212 0 0 1 .223.196.21.21 0 0 1-.196.222l-.051.001z" opacity=".3"/>
        <path d="m108.104 50.59-1.595-4.531-1.622 1.575s-.059 2.232-.044 2.337c.014.105 3.261.619 3.261.619z" fill="#4D3932" data-color="2"/>
        <path d="M121.733 65.405c-.749-1.85-3.049-2.301-4.787-2.596-5.386-.912-8.978-2.876-10.892-8.238-1.178-3.302-.556-6.458.134-9.798.028-.136-.105-.252-.234-.238a131.73 131.73 0 0 1-10.579.761c-.009-.622-.018-1.244-.024-1.865-.002-.269-.419-.215-.417.052.005.609.012 1.219.019 1.828l-.424.015c-.105-.133-.358-.127-.369.083-.126 2.243-.063 4.495-.255 6.735-.1 1.162-.138 2.389-.638 3.466-.568 1.225-1.668 2.106-2.773 2.833-.906.596-6.194 2.738-6.194 2.738s5.554 5.19 6.535 5.384c2.897.572 5.854.969 8.78 1.363 2.64.356 5.308.236 7.982-.059a5.352 5.352 0 0 0 1.97 2.095c1.452.866 3.159 1.157 4.803 1.434 2.126.359 4.254.709 6.381 1.064.113.019.224-.023.261-.141.383-1.232.659-2.486.797-3.769.106-.971.305-2.206-.076-3.147z" fill="#FFA18A" data-color="3"/>
        <path d="m95.62 150.202 2.313-.76s.631-25.572.475-25.782c-.157-.21-17.149-5.13-17.149-5.13l-.496 2.807 14.857 28.865z" fill="#FFD191" data-color="4"/>
        <path fill="#FFFFFF" d="m81.255 119.367 16.221 5.231-.1 23.969-2.593.862-15.769-28.467 2.241-1.595z" data-color="5"/>
        <path fill="#FFD191" d="m67.104 116.362 28.618 9.33-.102 24.51L67 141.396l.104-25.034z" data-color="4"/>
        <path d="M112.42 30.924c-1.132-3.591-3.034-6.625-6.224-8.716-1.674-1.098-3.367-2.045-5.405-2.187a8.728 8.728 0 0 0-4.64.976c-1.191.114-2.407.268-3.432.824-1.144.62-2.2 1.552-3.09 2.488-2.089 2.196-2.844 4.596-2.599 7.584.062.753.171 1.536.1 2.291-.075.804-.392 1.57-.377 2.385.015.866.401 1.684.865 2.417 1.054 1.664 2.117 3.427 3.599 4.752.785.702 1.881 1.221 2.631 1.997-.017.12-.038.24-.049.362-.023.246.325.269.402.066.135.195.25.404.333.637.089.252.497.151.407-.104a3.221 3.221 0 0 0-.656-1.086c.022-.133.051-.265.081-.396.485.343.989.658 1.53.915.725.345 1.497.594 2.3.669 1.096.102 2.144-.257 3.235-.269.97-.01 1.94.238 2.91.109.826-.11 1.532-.5 2.197-.983.747-.543 1.525-1.146 2.111-1.862.699-.855.986-1.964 1.666-2.841 1.111-1.434 2.125-2.578 2.508-4.415.387-1.863.165-3.811-.403-5.613z" fill="#4D3932" data-color="2"/>
        <path d="M109.679 36.265c.081-.947.154-.933.169-1.884.049-3.03.177-5.352-1.748-8.008-1.313-1.812-3.533-2.888-5.773-3.474-2.966-.776-6.338-.706-8.719 1.218-2.668 2.156-3.668 4.108-4.077 7.31-.457 3.577-.222 6.279.661 9.818.464 1.858 1.108 3.702 2.175 5.341 1.067 1.639 2.588 3.068 4.462 3.835 2.474 1.012 5.467.737 7.619-.699 2.007-1.339 3.159-3.56 3.8-5.748a39.229 39.229 0 0 0 1.431-7.709z" fill="#FFA18A" data-color="3"/>
        <path d="M94.747 35.916c-1.023-.27-1.006 2.229-.245 2.297.184.017.366-.075.494-.209.439-.457.528-1.882-.249-2.088z" opacity=".5"/>
        <path d="M104.45 35.957c-1.023-.27-1.006 2.229-.245 2.297.184.017.366-.075.494-.209.44-.457.528-1.883-.249-2.088z" opacity=".5"/>
        <path d="M99.604 42.61a.213.213 0 0 1-.122-.039c-1.121-.796-1.104-1.067-1.098-1.156.009-.149.094-.368.222-.7.122-.314.273-.705.388-1.123.216-.784.164-1.926.164-1.937a.209.209 0 0 1 .2-.219.212.212 0 0 1 .22.199c.002.049.055 1.221-.178 2.068-.12.438-.276.84-.401 1.162-.093.241-.189.49-.195.575.038.084.471.468.923.789a.21.21 0 0 1-.123.381z" opacity=".3"/>
        <path d="M96.409 44.445s1.441.216 3.204.245c2.17.036 3.223-.061 3.223-.061s-1.1 2.003-3.459 1.75c-2.359-.252-2.968-1.934-2.968-1.934z" opacity=".3"/>
        <path d="M100.239 51.626a7.41 7.41 0 0 1-.33-.008c-3.158-.162-5.345-2.428-5.437-2.525a.209.209 0 0 1 .008-.296.211.211 0 0 1 .297.008c.021.022 2.167 2.242 5.153 2.395 2.965.156 4.743-1.993 4.761-2.015a.21.21 0 1 1 .326.264c-.073.091-1.799 2.177-4.778 2.177z" opacity=".3"/>
        <path d="M96.47 33.665c-.103-.169-.323-.286-.525-.351-1.435-.46-3.284-.055-4.164 1.227a.313.313 0 0 0-.066.149c-.008.112.104.203.216.215.112.012.221-.033.326-.075.873-.358 1.811-.643 2.749-.538.353.04.713.134 1.058.05.225-.055.451-.22.464-.451a.381.381 0 0 0-.058-.226z" fill="#4D3932" data-color="2"/>
        <path d="M102.613 33.619c.108-.166.332-.276.536-.334 1.449-.414 3.284.049 4.123 1.358.03.046.059.096.061.151.004.112-.111.2-.223.208-.112.008-.22-.04-.323-.086-.861-.385-1.789-.701-2.73-.625-.354.028-.717.111-1.059.016-.223-.062-.444-.234-.45-.465a.391.391 0 0 1 .065-.223z" fill="#4D3932" data-color="2"/>
        <path d="M109.022 36.005s1.766-.764 1.807 1.931c.041 2.694-1.048 4.409-2.448 4.357-1.399-.052-1.521-2.158-1.521-2.158l2.162-4.13z" fill="#FFA18A" data-color="3"/>
        <path d="M90.073 35.45s-1.657-.977-2.035 1.691c-.378 2.668.488 4.505 1.883 4.627s1.779-1.951 1.779-1.951l-1.627-4.367z" fill="#FFA18A" data-color="3"/>
        <path d="M108.324 26.047c-2.282-2.669-6.947-5.728-10.65-4.38a1.072 1.072 0 0 0-.667-.14c-.702.056-1.449.568-2.07.854-.821.378-1.876.44-2.619.943-.558.377-.908 1.084-1.244 1.643-.479.797-.9 1.63-1.263 2.485a20.273 20.273 0 0 0-1.402 5.132.17.17 0 0 0-.107.17c.003.173.012.343.023.512l-.006.047a.195.195 0 0 0 .017.102c.046.557.137 1.1.284 1.655.031.118.566.224.684.212.691-.073.978-.208 1.545-.646.721-.556.522-1.118.807-1.901.207-.567.55-1 .82-1.495.114.323.293.618.565.86.109.097.297.111.429.073.628-.179 1.415-.201 1.836-.752.268-.49.325-1.042.682-1.514.347-.457.824-.803 1.208-1.226.717-.789.806-1.666.798-2.572.174.391.409.755.739 1.066.41.386.907.663 1.423.882.795.337 1.991.353 2.518 1.071.392.533.385 1.209.897 1.683.476.441 1.161.665 1.711.998.747.452 1.46.99 1.98 1.698.455.62.683 1.345.738 2.106.034.468-.244 1.278.117 1.667.566.61 1.493-.234 1.632-.799.295-1.197.514-2.523.566-3.755.098-2.295-.479-4.911-1.991-6.679z" fill="#4D3932" data-color="2"/>
        <path d="M122.978 68.379a5.307 5.307 0 0 0-.013-.649 1.915 1.915 0 0 0-.084-.419c-.151-.444-.496-.703-1.197-1.038-1.688-.8-3.548-.971-5.4-.984h-.05c-.71-.008-1.419.013-2.117.025-2.1.046-4.204.113-6.232-.486-2.209-.657-11.687-1.654-14.236-2.11-2.742-.49-7.378-1.537-9.679-1.93-.911-.155-1.667-.138-2.305 0-.97.218-1.667.716-2.217 1.344-.945 1.076-1.193 2.6-1.243 4.12-.008.142-.008.285-.008.427-.013.754.017 1.495.025 2.169-.491 2.989-.512 6.008-.353 9.031l.025.414c.164 2.86.479 5.723.701 8.575.059.749.092 1.511.029 2.265a7.656 7.656 0 0 1-.046.422c-.348 2.613-1.533 4.534-.55 7.147.046.126.097.251.16.381a.903.903 0 0 0 .055.13c.252-.251.286 2.529.088 4.271-.122 1.063-.088 2.307.206 3.446.034.155.08.306.13.452.206.641.508 1.227.92 1.712.395 1.591 1.751 1.955 3.15 2.089.353.038.71.059 1.054.08.017 0 .034.004.05.004 1.801.117 3.242.775 5.048.352 1.167-.276 2.339-.561 3.506-.85h.004c.508-.121 1.02-.247 1.529-.373.991-.239 3.464-1.181 4.38-.816 1.323.523 2.965.419 4.359.779 1.188.31 2.297.883 3.519 1.072 1.041.155 2.083.025 3.112-.13h.004c.294-.046.584-.092.873-.134 1.571-.226 3.154-.31 4.741-.335 1.13-.017 3.784-.335 5.363-.239.286.017.538.05.739.1.424.105.907-.561 1.285-1.562.407-1.084.701-2.554.676-3.873 0-.075 0-.147-.004-.218 0-.063-.004-.126-.004-.184a21.762 21.762 0 0 1-.021-1.168c.008-1.511-.957-3.412-1.155-4.982a40.97 40.97 0 0 1-.176-1.671c-.013-.147-.021-.293-.029-.431-.21-3.215.298-4.467.781-7.679.021-.134.038-.276.063-.423.067-.486.134-1.017.197-1.604.311-2.818.269-5.631.231-8.453 0-.142 0-.281-.004-.423-.008-1.043-.017-2.085 0-3.128.023-1.504.07-3.007.12-4.515z" fill="#F5EBE3" data-color="6"/>
        <path d="M81.932 141.923c-.267-2.228-.445-1.468-.522-3.705-.025-.74-.132-1.494-.55-2.124-.309-.466-1.597-1.65-1.597-1.65s.179-6.648.23-8.211c.103-3.126.219-6.252.361-9.377a.225.225 0 0 0 .01-.241l.021-.483c.013-.269-.407-.277-.42-.008l-.016.376c-2.555-.137-5.032.55-7.552.848-.038-.771-.081-1.543-.116-2.314-.012-.268-.432-.278-.42-.008.036.79.08 1.579.119 2.369-.399.039-.799.068-1.201.079-.269.008-.279.426-.008.419.412-.012.821-.041 1.23-.082.296 5.849 1.444 17.614 1.444 17.614s-.744 4.399-.559 6.631c.11 1.321.011 2.592 1.731 2.636.356.009.469.389.723.559.208.139.778.135.881.307.591.986 1.654.17 2.499.673.67.399 1.29 1.562 2.225.862.773-.579.43-1.782.351-2.573-.028-.276-.046-.552-.067-.829.088.191.195.356.337.454 1.266.874.916-1.808.866-2.222z" fill="#FFA18A" data-color="3"/>
        <path d="M84.634 91.763a73.075 73.075 0 0 0-.071-2.738c-.004-.138-.013-.276-.021-.414a81.463 81.463 0 0 0-1.185-10.413 73.09 73.09 0 0 0-.34-1.83c-.563-2.822-1.163-5.644-1.487-8.508a27.417 27.417 0 0 1-.059-.569l-.038-.423a44.606 44.606 0 0 1-.143-3.433c-.004-.703-.046-1.382-.39-1.959.235-.1.479-.197.735-.281.202-.067.176-.339.029-.406a.204.204 0 0 0-.134 0c-2.268.749-4.052 2.437-5.186 4.505a15.09 15.09 0 0 0-.483.989c-.109.243-.21.49-.302.741-1.293 3.483-3.057 7.18-3.225 10.831a6.992 6.992 0 0 0-.013.406v.008c-.034 2.353-.277 4.643-.861 6.929-.269 1.051-.441 2.098-.584 3.157-.021.138-.038.276-.055.419-.101.762-.189 1.532-.286 2.311-.223 1.738-.227 3.488-.206 5.238 0 .121 0 .247.004.368 0 .314.004.624.008.938.013 1.03.029 2.064-.021 3.098-.067 1.273.365 2.265-.223 3.383-.34.636-.521 1.306-.609 1.993a5.926 5.926 0 0 0-.046.406c-.172 2.131.395 4.425-.151 6.485-.013-.004-.025-.004-.042-.008-.437-.067-.869-.23-1.31-.063a1.168 1.168 0 0 0-.47.322 1.145 1.145 0 0 0-.235.389c-.235.62-.08 1.457.034 2.052.206 1.038.286 1.8-.042 2.818-.802 2.487 3.578 3.035 4.951 3.115.966.059 1.936.113 2.906.172 2.003.117 4.01.239 6.018.356.122.008.202-.096.214-.205.202-1.491.349-2.985.449-4.484.013-.138.021-.276.025-.419.021-.276.038-.557.05-.833.13-.373.26-.749.386-1.126a.177.177 0 0 0 .042-.117c.034-.105.071-.209.109-.314.58-1.767 1.079-3.559 1.411-5.384a25.77 25.77 0 0 0 .277-1.796c.13-1.076.403-2.604.685-4.208l.076-.444c.302-1.725.596-3.496.718-4.857.013-.134.025-.268.029-.394.013-.151.021-.293.025-.427.095-2.638-.938-2.739-.963-5.376z" fill="#F5EBE3" data-color="6"/>
        <path d="M108.6 108.838s13.588 8.988 14.321 9.375c.733.387 4.733-1.376 3.714-4.066-.96-2.536.657-6.453.657-6.453l-10.913-1.231-7.779 2.375z" fill="#F5EBE3" data-color="6"/>
        <path d="m132.103 97.39-.189-.695c-.038-.147-.08-.297-.122-.448-.42-1.503-.861-3.015-1.172-4.543-.395-1.955-.244-3.776-.487-5.635-.013-.13-.034-.255-.055-.385a9.641 9.641 0 0 0-.651-2.299c-.936-2.19-2.188-4.095-2.809-6.335a7.209 7.209 0 0 1-.113-.444 9.884 9.884 0 0 1-.109-.523 39.499 39.499 0 0 0-1.667-6.272c-.248-.691-.567-1.541-1.037-2.219a2.825 2.825 0 0 0-.294-.377 2.525 2.525 0 0 0-.626-.536c-1.898-1.13-4.355-1.47-6.488-1.39h-.05c-.269.008-.391 1.382-.122 1.373a26.977 26.977 0 0 1 3.141.063c-.181.49-.416.938-.693 1.357-.105.159-.218.314-.332.469-1.34 1.784-3.238 3.157-3.666 5.556a14.914 14.914 0 0 0-.202 1.825c-.008.138-.013.276-.017.419-.029.942-.004 1.884.008 2.818.034 1.98.067 3.957.113 5.937.008.435.021.867.034 1.302.004.138.004.276.013.419.067 2.541.168 5.083.323 7.62.008.142.021.285.029.427.046.766.105 1.532.164 2.299.143 1.742.302 3.483.525 5.221.013.113.025.222.042.335.004.021.004.046.013.067.227 1.52 1.428 1.871 2.73 2.541.559.285.907.846 1.193 1.482.26.578.475 1.218.747 1.775.286.59.643 1.084 1.201 1.306.882.352 3.087 1.097 4.905 1.377.945.147 1.789.167 2.284-.054 1.239-.553 2.784-3.065 3.666-4.065.328-.373.466-.984.525-1.666.013-.147.021-.293.025-.444.042-.996-.038-2.072.067-2.776.237-1.629-.439-3.329-.847-4.882z" fill="#F5EBE3" data-color="6"/>
        <path d="M115.098 117.308c1.5 1.074 3.077 2.037 4.663 2.98.51.303 1.04.582 1.58.849a83.139 83.139 0 0 0 2.195-6.482.19.19 0 0 0-.02-.163c.725-.957 1.45-1.912 2.16-2.88.51-.696 1.017-1.394 1.52-2.095.441-.615 1.045-1.266 1.381-1.946.846-1.714-3.527-2.209-4.466-2.257-2.485-.13-3.896 2.66-5.296 4.36a34.804 34.804 0 0 0-3.858 5.768c-.204.384-.471.814-.703 1.255.286.212.571.415.844.611z" fill="#FFA18A" data-color="3"/>
        <path d="m92.397 108.771-10.019 5.876s-1.509-2.104-.982-2.442c.526-.338 1.44-4.446 2.673-4.74 1.232-.293 8.328 1.306 8.328 1.306z" fill="#F5EBE3" data-color="6"/>
        <path d="M90.494 47.795a30.697 30.697 0 0 0-.257-2.788c-.057-.408-.056-3.031-.803-2.725-.442.181-.507 1.675-.588 2.086a20.59 20.59 0 0 0-.375 2.763 5.521 5.521 0 0 0-.002.656l2.025.008z" fill="#E35F4B" data-color="7"/>
        <path d="M89.178 41.069c-1.054.289-.234 2.418.85 1.448.621-.555.17-1.561-.724-1.471a.784.784 0 0 0-.126.023z" fill="#F5EBE3" data-color="6"/>
        <path d="M110.484 47.878a30.697 30.697 0 0 0-.257-2.788c-.057-.408-.056-3.031-.803-2.725-.442.181-.507 1.675-.588 2.086a20.59 20.59 0 0 0-.375 2.763 5.521 5.521 0 0 0-.002.656l2.025.008z" fill="#E35F4B" data-color="7"/>
        <path d="M109.168 41.152c-1.054.289-.234 2.418.85 1.448.621-.555.17-1.561-.724-1.471a.688.688 0 0 0-.126.023z" fill="#F5EBE3" data-color="6"/>
        <path d="M78.036 145.835a.21.21 0 0 1-.207-.175l-.342-2.025a.21.21 0 1 1 .414-.069l.342 2.025a.21.21 0 0 1-.207.244z" opacity=".3"/>
        <path d="M80.672 143.125a.21.21 0 0 1-.207-.175l-.717-4.259a.21.21 0 0 1 .172-.241.208.208 0 0 1 .242.172l.717 4.259a.21.21 0 0 1-.207.244z" opacity=".3"/>
        <path d="M110.128 111.706H89.95a.21.21 0 1 1 0-.418h20.177a.21.21 0 0 1 .21.209.208.208 0 0 1-.209.209z" opacity=".3"/>
        <path d="M101.234 142.128a.209.209 0 0 1-.209-.195c-.133-1.893-.504-8.963-.576-11.387-.069-2.349-.032-18.023-.031-18.182a.21.21 0 0 1 .21-.209h.001c.116 0 .21.094.209.21 0 .158-.038 15.826.031 18.168.071 2.42.442 9.48.575 11.37a.209.209 0 0 1-.195.223c-.006.002-.011.002-.015.002z" opacity=".3"/>
        <path opacity=".3" d="M101.486 109.431a.986.986 0 0 1-.987.984.986.986 0 0 1-.987-.984c0-.543.442-.984.987-.984.545 0 .987.44.987.984z"/>
        <path d="M112.842 116.309a.212.212 0 0 1-.118-.036l-3.199-2.163a.21.21 0 0 1-.056-.291.212.212 0 0 1 .292-.056l3.199 2.163a.21.21 0 0 1-.118.383z" opacity=".3"/>
        <path d="M123.692 67.592c-.244.05-.487.096-.727.138-1.575.301-3.154.578-4.737.821a92.373 92.373 0 0 1-6.748.816 99.905 99.905 0 0 1-16.609-.034c-4.527-.385-8.953-1.202-13.4-2.043-.903-.167-1.806-.339-2.713-.511-.189-.033-.374-.071-.563-.1a91.736 91.736 0 0 0-2.335-.398c.059-.134.118-.264.181-.394a92.02 92.02 0 0 1 3.612.636c.592.113 1.188.23 1.781.343 4.926.938 9.835 1.8 14.853 2.156a99.551 99.551 0 0 0 17.012-.243 92.197 92.197 0 0 0 5.262-.699c1.445-.23 2.885-.494 4.321-.77.172-.029.344-.063.517-.096.108.119.205.244.293.378z" fill="#637595" data-color="8"/>
        <path d="M126.619 77.05a89.51 89.51 0 0 0-3.758-.603 33.785 33.785 0 0 0-4.01-.314 39.475 39.475 0 0 0-4.506.218c-1.277.13-2.549.306-3.817.502-5.22.816-10.372 1.754-15.664 2.001-3.826.176-7.626-.013-11.431-.239-1.508-.092-3.015-.188-4.527-.272a38.072 38.072 0 0 0-1.012-.05c-1.856-.084-3.721-.113-5.573-.025v-.008c0-.134.004-.268.013-.406a58.065 58.065 0 0 1 5.535.025c.798.029 1.596.075 2.389.126 1.033.067 2.066.13 3.099.193 4.372.26 8.731.435 13.123.147 5.388-.352 10.641-1.482 15.983-2.19a57.09 57.09 0 0 1 1.898-.222c2.154-.214 4.325-.293 6.488-.126.672.054 1.34.126 2.007.218 1.218.159 2.436.364 3.649.582.034.15.072.297.114.443z" fill="#637595" data-color="8"/>
        <path d="M130.134 86.069c-2.293.385-4.59.716-6.937.825-.277.013-.55.025-.827.033-2.62.084-5.241.008-7.857-.1-3.985-.167-7.966-.41-11.951-.281-6.085.197-11.993 1.654-17.999 2.479-.726.105-1.457.193-2.188.272-1.26.134-2.528.23-3.796.26-1.907.046-3.813-.046-5.703-.352a24.355 24.355 0 0 1-2.053-.431c.017-.142.034-.281.055-.419.756.193 1.524.356 2.301.473 1.806.272 3.624.352 5.447.306a50.003 50.003 0 0 0 5.111-.414c.269-.033.537-.071.806-.109 6.837-.938 13.497-2.525 20.447-2.52 3.166.004 6.341.184 9.512.318 2.646.113 5.291.188 7.933.096a52.06 52.06 0 0 0 4.183-.297 57.13 57.13 0 0 0 3.464-.523c.018.128.039.254.052.384z" fill="#637595" data-color="8"/>
        <path d="M131.914 96.695c-.584-.121-1.163-.234-1.743-.352-2.83-.561-5.686-1.038-8.554-1.306-2.247-.205-4.497-.285-6.753-.163-.857.038-1.709.109-2.566.214-5.707.687-11.225 2.453-16.94 3.073-3.229.347-6.513.151-9.814-.201-2.448-.26-4.909-.607-7.357-.875-2.633-.289-5.258-.49-7.853-.394-.004-.121-.004-.247-.004-.368 2.562-.084 5.148.1 7.697.381l.873.1c2.234.264 4.455.553 6.673.762 3.872.373 7.735.519 11.662-.071 5.699-.85 11.246-2.6 17.007-3.015.197-.013.395-.025.592-.034 2.255-.13 4.506-.054 6.753.159 3.427.318 6.837.946 10.204 1.641.044.152.086.302.123.449z" fill="#637595" data-color="8"/>
        <path d="M132.884 105.048a8.028 8.028 0 0 1-.025.444c-3.179-1.13-6.517-1.834-9.881-2.232-.189-.025-.382-.046-.571-.067a75.396 75.396 0 0 0-6.799-.398c-3.611-.063-7.227.075-10.834.201-3.112.109-6.219.209-9.331.172-2.923-.033-5.862-.356-8.785-.167a13.41 13.41 0 0 0-1.907.26c-2.116.427-4.036 1.277-6.085 2.123l-.172.071c-2.528 1.043-5.119 1.424-7.844 1.189-.403-.033-.806-.08-1.205-.134.013-.138.025-.272.046-.406 1.138.159 2.293.23 3.469.188 2.016-.075 3.8-.653 5.577-1.361.949-.377 1.894-.791 2.877-1.181a16.184 16.184 0 0 1 3.414-.934c1.499-.247 3.024-.306 4.582-.272 3.12.075 6.228.243 9.352.201 3.04-.046 6.081-.176 9.125-.272 2.528-.08 5.094-.13 7.668-.08 2.478.042 4.959.18 7.416.465 3.388.393 6.722 1.072 9.913 2.19z" fill="#637595" data-color="8"/>
        <path d="M81.791 117.039a7.142 7.142 0 0 1-.025.419c-.655 0-1.31 0-1.965-.004-2.637-.013-4.959-.435-7.378-1.511-1.73-.766-3.452-1.566-5.186-2.307.055-.147.13-.276.235-.389 1.277.548 2.545 1.126 3.8 1.712 1.39.645 2.793 1.31 4.292 1.683 1.449.356 2.944.389 4.426.394.6-.002 1.2.003 1.801.003z" fill="#637595" data-color="8"/>
        <path d="M82.173 108.938a.204.204 0 0 1-.08-.016c-.056-.023-1.378-.584-2.025-2.327-.658-1.772-.294-4.136 1.342-8.72 1.284-3.596.241-6.646-.382-8.468-.162-.474-.302-.884-.368-1.204-.17-.834.139-3.728.439-6.527.22-2.054.469-4.381.362-4.674-.22-.321-3.576-2.316-6.618-4.023a.21.21 0 0 1 .206-.365c1.075.603 6.455 3.64 6.779 4.185.167.28.047 1.572-.311 4.921-.282 2.638-.602 5.628-.445 6.399.06.294.196.692.354 1.153.641 1.874 1.713 5.009.38 8.743-1.579 4.423-1.956 6.788-1.344 8.435.584 1.573 1.78 2.08 1.792 2.085a.21.21 0 0 1-.081.403z" opacity=".3"/>
        <path d="M95.802 106.587a.232.232 0 0 1-.058-.008c-.229-.066-5.635-1.621-7.655-2.651-2.041-1.041-2.642-1.757-2.667-1.787a.21.21 0 1 1 .325-.265c.005.006.588.687 2.533 1.679 1.984 1.012 7.525 2.605 7.58 2.621a.209.209 0 0 1-.058.411z" opacity=".3"/>
        <path d="M97.202 106.593a.213.213 0 0 1-.124-.04l-5.303-3.86a.21.21 0 1 1 .247-.339l5.303 3.86a.21.21 0 0 1-.123.379z" opacity=".3"/>
        <path d="M105.596 107.814a.21.21 0 0 1-.062-.41c.045-.014 4.502-1.383 6.779-2.336 2.235-.935 4.387-3.793 4.408-3.822a.211.211 0 0 1 .294-.043.21.21 0 0 1 .043.293c-.09.121-2.243 2.979-4.583 3.958-2.297.961-6.773 2.337-6.818 2.351a.215.215 0 0 1-.061.009z" opacity=".3"/>
        <path d="M121.027 82.966a.209.209 0 0 1-.127-.376l4.704-3.539a.209.209 0 1 1 .253.334l-4.704 3.539a.203.203 0 0 1-.126.042z" opacity=".3"/>
        <path d="M80.719 115.075a.24.24 0 0 1-.037-.003c-1.018-.179-9.954-1.758-10.305-1.864a.208.208 0 0 1-.139-.26.211.211 0 0 1 .261-.141c.269.079 6.281 1.151 10.257 1.853a.21.21 0 0 1-.037.415z" opacity=".3"/>
        <path d="M73.08 117.519h-.014l-4.688-.299a.209.209 0 0 1-.196-.222.214.214 0 0 1 .223-.196l4.688.299a.21.21 0 0 1-.013.418z" opacity=".3"/>
        <path d="M80.144 118.734s-.001 0 0 0l-8.607-.036a.21.21 0 1 1 .001-.419h.001l8.606.036a.21.21 0 1 1-.001.419z" opacity=".3"/>
        <path d="M120.175 102.641a.212.212 0 0 1-.152-.065.209.209 0 0 1 .006-.296c.094-.09 2.336-2.197 5.926-2.197h.038c3.591.015 5.825 1.463 5.918 1.524a.21.21 0 1 1-.232.349c-.022-.014-2.23-1.44-5.688-1.455-3.441-.002-5.65 2.06-5.672 2.081a.203.203 0 0 1-.144.059z" opacity=".3"/>
        <path d="M120.184 100.478a.208.208 0 0 1-.201-.27c.033-.109.415-1.108 3.565-2.421 3.089-1.288 3.725-1.327 3.791-1.327h.001a.21.21 0 1 1-.001.419h-.001c-.018.001-.638.048-3.627 1.294-2.975 1.24-3.322 2.147-3.325 2.156a.21.21 0 0 1-.202.149z" opacity=".3"/>
        <path d="M119.924 107.091a.21.21 0 0 1-.185-.11c-.047-.088-1.155-2.158-.986-3.147.152-.889.278-3.609.081-6.873-.223-3.677.359-5.893.886-7.105.607-1.396.021-7.164.014-7.222l-.008-.08 4.587-6.326a.21.21 0 0 1 .34.245l-4.494 6.197c.073.738.562 5.933-.055 7.352-.509 1.17-1.07 3.32-.852 6.913.2 3.297.07 6.059-.086 6.968-.12.703.639 2.316.942 2.878a.209.209 0 0 1-.086.284.19.19 0 0 1-.098.026z" opacity=".3"/>
        <path d="M80.733 111.703a.207.207 0 0 1-.192-.289c.028-.065.33-.67 2.278-1.853 1.95-1.184 8.199-2.926 8.464-2.999a.21.21 0 1 1 .113.403c-.064.018-6.458 1.8-8.358 2.954-1.819 1.104-2.111 1.661-2.113 1.666a.217.217 0 0 1-.192.118z" opacity=".3"/>
        <path d="M118.314 108.565a.214.214 0 0 1-.05-.006c-.001 0-1.31-.319-3.038-.71-1.677-.378-5.042-.021-5.075-.017a.21.21 0 0 1-.232-.185.21.21 0 0 1 .186-.231c.141-.016 3.468-.369 5.213.025 1.733.392 3.045.711 3.045.711a.209.209 0 0 1-.049.413z" opacity=".3"/>
        <path d="M110.276 56.951a10.51 10.51 0 0 0-.11-.466c-.336-1.289-1.044-2.44-1.379-3.715-.371-1.411-.486-1.918-1.224-3.254-.481-.872-2.077-.633-2.077-.633s-.405 3.397-1.024 5.687c-.343 1.27-.827 2.194-1.402 3.351a7.61 7.61 0 0 0-.791 3.162c-.022.676.086 1.388-.099 2.052-.196.706-.715 1.194-1.228 1.682-.624.594-.94 1.014-1.052 1.867-.097.735-.37 1.756.17 2.384.352.409 1.043.606 1.609.484.089-.094.178-.195.267-.304.687-1.449 1.36-2.904 2.189-4.282.175-.29.02 1.576-.18 2.007-.282.608-.781 1.157-1.103 1.769-.309.587-.571 1.155.256 1.128.903-.03 2.158-.452 2.929-.926a9.993 9.993 0 0 0 3.104-3.046c.509-.796.094-1.346.002-2.205-.062-.574-.114-1.193.168-1.721.27-.506.748-.852.922-1.419.354-1.156.299-2.431.053-3.602z" fill="#4D3932" data-color="2"/>
        <path d="M71.945 142.35a.203.203 0 0 1-.072-.013l-4.462-1.622a.21.21 0 1 1 .144-.393l4.462 1.622c.109.04.165.16.125.268a.209.209 0 0 1-.197.138z" opacity=".3"/>
        <path d="M94.675 149.154a.215.215 0 0 1-.061-.009L81.73 145.22a.209.209 0 1 1 .123-.4l12.884 3.925a.209.209 0 0 1-.062.409z" opacity=".3"/>
        <path d="M97.789 25.59a.21.21 0 0 1-.155-.068 4.992 4.992 0 0 1-1.029-2.011c-.269-1.105-.538-1.621-.541-1.626a.21.21 0 0 1 .371-.197c.012.022.295.56.578 1.724.263 1.082.925 1.82.932 1.828a.21.21 0 0 1-.156.35z" opacity=".3"/>
        <path d="M92.645 30.614a.21.21 0 0 1-.208-.243c.012-.07.291-1.738 1.341-3.294 1.062-1.572 2.609-2.181 2.674-2.206a.21.21 0 0 1 .151.391c-.015.006-1.493.591-2.478 2.05-.997 1.476-1.272 3.11-1.275 3.127a.207.207 0 0 1-.205.175z" opacity=".3"/>
        <path d="M88.302 34.522a.21.21 0 0 1-.08-.403c.016-.007 1.635-.681 2.072-2.034.471-1.454.638-1.997 1.204-4.005.576-2.044 2.73-3.381 2.822-3.436a.21.21 0 0 1 .289.069.208.208 0 0 1-.069.288c-.021.013-2.106 1.308-2.637 3.193-.568 2.014-.736 2.56-1.208 4.02-.499 1.541-2.24 2.263-2.314 2.293a.221.221 0 0 1-.079.015z" opacity=".3"/>
        <path d="M110.041 35.326a.21.21 0 0 1-.21-.209c0-.012-.006-1.243-.168-1.94-.13-.559-.602-1.614-2.304-2.409-1.05-.49-1.761-1.404-2.448-2.287-.429-.551-.872-1.121-1.394-1.584-1.295-1.149-3.594-.995-3.617-.994a.21.21 0 1 1-.031-.417c.102-.008 2.501-.167 3.928 1.099.551.489 1.006 1.074 1.446 1.64.687.883 1.336 1.717 2.294 2.165 1.863.869 2.388 2.061 2.535 2.693.173.743.179 1.981.179 2.033 0 .116-.109.2-.21.21z" opacity=".3"/>
        <path d="M111.437 35.326a.21.21 0 0 1-.204-.261c.005-.02.498-2.009-.162-3.457-.658-1.442-2.682-2.328-2.703-2.337a.21.21 0 0 1-.11-.275.21.21 0 0 1 .276-.109c.089.038 2.193.958 2.919 2.548.722 1.584.21 3.647.187 3.734a.21.21 0 0 1-.203.157z" opacity=".3"/>
        <path d="M104.403 64.632a.21.21 0 0 1-.207-.243c.02-.124.506-3.055 1.389-4.639.935-1.678 1.053-4.051 1.067-4.51.031-1.008-.38-2.825-.384-2.843a.21.21 0 1 1 .409-.093c.017.077.426 1.887.394 2.949-.015.476-.137 2.938-1.12 4.701-.847 1.52-1.336 4.473-1.341 4.503a.21.21 0 0 1-.207.175z" opacity=".3"/>
        <path d="M107.763 56.887a.209.209 0 0 1-.205-.255c.002-.008.17-.768.17-2.187 0-1.404-.848-3.315-.856-3.334a.209.209 0 0 1 .106-.276c.106-.048.23 0 .277.106.036.081.893 2.012.893 3.505 0 1.472-.173 2.247-.18 2.279a.211.211 0 0 1-.205.162z" opacity=".3"/>
        <path d="M109.11 40.532a.21.21 0 0 1-.184-.312c.003-.006.347-.625.332-1.115-.015-.477-.076-.631-.077-.633a.213.213 0 0 1 .106-.274.207.207 0 0 1 .274.094c.023.046.101.242.118.8.018.607-.368 1.303-.385 1.332a.212.212 0 0 1-.184.108z" opacity=".3"/>
        <path d="M89.861 40.089a.208.208 0 0 1-.183-.107c-.017-.029-.404-.725-.385-1.332.017-.559.095-.754.118-.8a.212.212 0 0 1 .282-.094.209.209 0 0 1 .094.281c.001 0-.059.157-.074.626-.015.49.328 1.109.332 1.115a.21.21 0 0 1-.184.311z" opacity=".3"/>
    </g>
</svg>
