<?xml version="1.0" encoding="UTF-8"?>
<svg data-bbox="68.5 19.999 63.001 160.001" viewBox="0 0 200 200" height="200" width="200" xmlns="http://www.w3.org/2000/svg" data-type="color">
    <g>
        <path d="m89.826 51.434-1.389-2.63c-.097-.183-.365-.177-.449.01l-1.271 2.69a.251.251 0 0 0-.008.189l1.42 3.966c.082.228.406.22.478-.011l1.236-4.026a.254.254 0 0 0-.017-.188zm-.661.293-.701 2.279c-.037.13-.224.134-.267.006l-.805-2.244a.143.143 0 0 1 .006-.109l.718-1.522c.05-.106.2-.109.251-.006l.788 1.488c.02.035.021.071.01.108z" fill="#A18BBC" data-color="1"/>
        <path d="M88.905 47.938c.015.67-.291 1.221-.685 1.23-.394.009-.726-.527-.741-1.197-.015-.67.291-1.221.685-1.23.393-.009.725.527.741 1.197z" fill="#FFFFFF" data-color="2"/>
        <path d="M126.731 107.656c-.296.309 2.218 10.619 1.019 14.572-1.199 3.953-12.837 6.029-12.837 6.029l-5.599-21.011 17.417.41z" fill="#A5B1C7" data-color="3"/>
        <path d="M77.738 73.94s.511 22.006.28 28.518c-.231 6.512-.676 16.501-.676 16.501l38.676 2.706s2.955-53.492 2.924-54.834c-.031-1.341-6.462-2.245-6.462-2.245l-21.096 3.509-13.646 5.845z" fill="#A86556" data-color="4"/>
        <path d="m126.393 178.861-21.618.491s-1.731-8.319-2.959-15.048l-.069-.369a204.062 204.062 0 0 1-.707-4.131c-.37-2.359-.644-4.736-.905-7.11-.021 3.685.02 7.376-.009 11.061.001.048-.002.093-.001.141-.001.133-.002.262-.007.395-.036 3.898-.157 7.799-.525 11.68a79.919 79.919 0 0 1-.401 3.508L76.296 180a355.705 355.705 0 0 1-.081-8.264v-.004a707.417 707.417 0 0 1 .035-6.222v-.004c-.004-.161.001-.322.001-.483.017-1.905.038-3.806.055-5.711l.002-.443c.009-.854.013-1.703.018-2.557.008-1.595.004-3.189-.005-4.783-.003-.141-.003-.286-.006-.427-.017-2.496-.054-4.991-.087-7.491-.003-.133-.006-.266-.005-.403-.022-1.65-.044-3.301-.057-4.951a337.16 337.16 0 0 1 .026-9.793c.001-.133.006-.266.011-.399.017-.999.047-1.998.081-2.997.187-5.238.657-10.52 2.353-15.515 0 0 .394-1.165.592-1.745a6.343 6.343 0 0 0-.475-.042c.012-.028.027-.053.03-.085a4.04 4.04 0 0 0 .042-.307c.178.012.357.028.536.048.015-.049.034-.097.049-.146.137-.402.22-.991.496-1.336.193-.238.517-.394.8-.248a.192.192 0 0 1 .105.171l.003.121c.002.258-.399.267-.405.013-.22.307-.378.637-.479.997-.053.162-.106.321-.163.483 1.036.154 2.075.388 3.108.404.782.01 1.558-.043 2.33-.137.137-.015.275-.034.416-.05 1.24-.173 2.469-.431 3.695-.676 2.02-.404 4.033-.748 6.098-.779 2.089-.031 4.172.183 6.237.482 3.906.572 7.784 1.357 11.657 2.102 1.294.248 3.275.268 4.274 1.26.473.472.671 1.152.887 1.764.295.843.582 1.694.853 2.549 1.519 4.741 2.581 9.564 3.422 14.433.028.148.051.297.075.441.431 2.527.805 5.067 1.155 7.616.034.245.07.578.112.988l.034.41c.124 1.342.267 3.312.417 5.643.007.137.018.269.026.406a809.543 809.543 0 0 1 .412 6.815c.176 3.076.351 6.281.504 9.229.008.181.02.362.029.543.197 3.796.358 7.118.441 9.122.008.169.016.33.019.479.018.451.035.813.041 1.07.073 2.429.206 4.85.383 7.27z" fill="#FFD191" data-color="5"/>
        <path d="M124.119 138.287a42.317 42.317 0 0 1-3.519-1.373c-2.173-.973-4.402-2.066-6.227-3.611-1.735-1.47-2.757-3.307-3.266-5.506-.562-2.439-.719-5.004-1.901-7.269-1.199-2.296-3.36-3.632-5.848-4.203-4.988-1.139-10.135.834-15.105-.389-2.094-.512-2.853-2.005-3.013-4.034a29.678 29.678 0 0 1-.035-4.154c.072-1.286.216-2.57.414-3.834.039-.255.43-.155.391.1a38.542 38.542 0 0 0-.438 4.902c-.028 1.43-.116 3.047.304 4.43.96 3.159 5.784 2.659 8.397 2.495 4.239-.261 9.051-.967 12.775 1.614 3.976 2.756 3.421 7.681 4.871 11.735.887 2.464 2.849 4.139 5.062 5.437 2.242 1.318 4.652 2.383 7.102 3.253.013.126.025.263.036.407z" fill="#FFFFFF" data-color="2"/>
        <path d="M124.562 144.337c-.731.081-1.463.154-2.196.159-2.446.019-4.626-1.264-6.581-2.604-1.864-1.278-3.515-3.471-5.782-3.975-2.545-.57-5.627-.581-8.189-.128-2.368.416-4.547 1.456-6.832 2.156a25.552 25.552 0 0 1-6.707 1.095c-3.789.11-8.438-.742-12.11-2.781-.004-.157-.007-.31-.007-.467a17.52 17.52 0 0 0 3.12 1.467c4.341 1.54 9.146 1.793 13.644.809 2.16-.476 4.178-1.339 6.272-2.019 2.175-.71 4.372-.965 6.658-.9 1.99.059 4.322.01 6.045 1.135 1.76 1.148 3.185 2.722 4.981 3.845 1.06.66 2.185 1.315 3.392 1.678 1.122.337 2.263.315 3.415.2.283-.027.566-.053.849-.076.01.136.021.269.028.406z" fill="#FFFFFF" data-color="2"/>
        <path d="M125.967 170.524c-3.515-1.716-6.668-4.455-9.252-7.089-2.036-2.072-3.25-4.476-3.858-7.301-.626-2.893-.624-6.001-1.681-8.787-.595-1.573-1.627-2.781-3.217-3.406-1.447-.571-3.041-.688-4.576-.842-1.681-.167-3.377-.306-5.063-.175-1.771.133-3.391.685-5.059 1.234-1.319.433-2.682.842-4.084.826-1.232-.012-2.351-.422-3.445-.956-1.401-.689-2.769-1.503-4.384-1.479-1.498.018-2.914.63-4.365.933-.25.054-.504.096-.754.13-.003-.133-.006-.266-.005-.403 1.906-.241 3.904-1.236 5.801-1.034 2.818.294 4.848 2.644 7.819 2.383 2.983-.261 5.644-1.856 8.661-2.049 1.626-.109 3.253.027 4.869.187 1.287.128 2.602.235 3.853.577 2.303.628 3.772 2.161 4.492 4.403.886 2.75.937 5.704 1.561 8.508.686 3.077 2.144 5.508 4.437 7.67 2.418 2.276 5.173 4.625 8.231 6.191.007.169.015.33.019.479z" fill="#FFFFFF" data-color="2"/>
        <path d="M100.127 163.897c-.001.133-.002.262-.007.395-.94.005-1.884-.01-2.793-.279-1.415-.423-2.703-1.283-3.955-2.036a78.849 78.849 0 0 1-3.404-2.177c-2.308-1.566-4.443-3.354-6.705-4.981-2.137-1.538-4.464-2.508-6.941-3.289-.003-.141-.003-.286-.006-.427.828.251 1.636.514 2.416.811 2.292.874 4.27 2.166 6.196 3.664 2.297 1.784 4.621 3.515 7.075 5.077a65.718 65.718 0 0 0 3.626 2.168c1.374.746 2.678 1.067 4.233 1.071l.265.003z" fill="#FFFFFF" data-color="2"/>
        <path d="m124.268 178.909-1.008.023a6.725 6.725 0 0 1-1.023-.621c-1.043-.778-1.573-1.836-2.314-2.87-.958-1.335-2.337-1.763-3.692-2.565-1.852-1.097-2.388-2.933-3.261-4.77-.66-1.39-1.578-2.38-3.106-2.808-1.239-.35-2.562-.457-3.834-.621-1.402-.182-2.802-.327-4.213-.371l-.069-.369c2.23.09 4.435.326 6.658.666 2.032.304 3.659.952 4.67 2.813.52.959.844 2.002 1.352 2.965.589 1.114 1.416 1.852 2.539 2.439.922.478 1.9.883 2.65 1.619.841.822 1.26 1.964 2.054 2.828a6.018 6.018 0 0 0 2.597 1.642z" fill="#FFFFFF" data-color="2"/>
        <path d="m99.015 179.484-.51.012c-.886-.858-1.832-1.649-2.774-2.453-1.301-1.11-2.591-2.244-3.667-3.581-.976-1.21-1.776-2.544-2.548-3.888-1.566-2.735-3.085-5.752-5.78-7.567-2.23-1.495-4.931-1.833-7.43-2.694l.002-.443c2.454.87 5.148 1.22 7.384 2.63 2.778 1.753 4.378 4.716 5.952 7.478.907 1.59 1.835 3.187 3.026 4.586 1.303 1.52 2.875 2.777 4.391 4.079a27.21 27.21 0 0 1 1.954 1.841z" fill="#FFFFFF" data-color="2"/>
        <path d="M98.002 135.825c-1.931 1.284-4.595 1.683-6.875 1.682-2.41-.002-4.329-.86-5.894-2.668-.845-.975-1.558-2.062-2.474-2.976-1.094-1.09-2.444-1.656-3.862-2.211a35.527 35.527 0 0 1-2.705-1.187c.001-.133.006-.266.011-.399a34.7 34.7 0 0 0 2.197.961c1.276.511 2.606.943 3.726 1.759 1.788 1.304 2.751 3.38 4.412 4.808 2.198 1.891 5.341 1.694 8.017 1.13 1.217-.257 2.456-.656 3.467-1.404 1.314-.976 2.518-3.065.717-4.224-1.057-.685-2.471-.898-3.677-1.181-1.124-.264-2.255-.504-3.384-.773-4.301-1.022-8.503-2.686-10.718-6.738-1.898-3.468-2.078-7.764-.284-11.303.12-.232.473-.039.357.193-2.592 5.108-.85 11.8 4.009 14.915 2.368 1.516 5.15 2.19 7.866 2.805 1.287.289 2.577.565 3.849.911.909.245 1.931.5 2.639 1.16 1.635 1.531.063 3.769-1.394 4.74z" fill="#FFFFFF" data-color="2"/>
        <path d="M122.818 129.274c-2.343-.977-4.039-2.686-5.552-4.697-1.805-2.391-3.541-4.807-5.585-7.016-2.015-2.181-4.232-4.188-6.677-5.884-2.387-1.649-5.052-2.889-7.239-4.82-.198-.173.083-.461.277-.288 2.728 2.398 6.148 3.87 9.003 6.121 2.731 2.152 5.142 4.674 7.323 7.371 2.201 2.724 4.007 6.21 7.076 8.081.415.256.85.484 1.3.691.027.148.051.296.074.441z" fill="#FFFFFF" data-color="2"/>
        <path d="M125.507 160.924c-1.846-1.379-3.393-3.108-4.406-5.247-.975-2.063-1.597-5.862 1.824-5.566.726.064 1.4.274 2.023.59.011.149.019.298.027.45-.714-.398-1.493-.651-2.336-.656-4.1-.036-.798 5.993.416 7.5a15.055 15.055 0 0 0 2.424 2.385c.007.182.019.363.028.544z" fill="#FFFFFF" data-color="2"/>
        <path d="M86.351 174.106a.208.208 0 0 1-.145.197c-1.659.597-3.292-.139-4.852-.707-1.711-.617-3.423-1.243-5.138-1.86v-.004a13.035 13.035 0 0 1-.001-.395c2.116.765 4.231 1.526 6.351 2.271.809.288 1.69.59 2.564.534.21-.037.42-.07.629-.107.132-.414.063-.766-.207-1.054-.211-.358-.575-.692-.853-.999a29.9 29.9 0 0 0-2.941-2.832 28.98 28.98 0 0 0-3.554-2.552 22.255 22.255 0 0 0-1.785-1.006l-.168-.081v-.004c-.004-.161.001-.322.001-.483 1.227.504 2.4 1.347 3.433 2.056a29.83 29.83 0 0 1 4.116 3.381c.932.92 2.57 2.22 2.55 3.645z" fill="#FFFFFF" data-color="2"/>
        <path d="M80.189 67.719s-4.194 1.219-5.827 5.686c-1.355 3.708-5.573 31.966-4.803 36.536.768 4.557 7.753 4.505 9.404 1.408 1.65-3.097 5.399-19.147 5.399-19.147s-1.516-17.484-1.525-17.884c-.01-.401-2.648-6.599-2.648-6.599z" fill="#A86556" data-color="4"/>
        <path d="M117.837 65.867s4.246 1.028 6.082 5.415c1.524 3.642 7.037 31.679 6.478 36.28-.557 4.587-7.538 4.853-9.329 1.834-1.791-3.019-6.274-18.882-6.274-18.882s.71-17.535.701-17.935c-.009-.401 2.342-6.712 2.342-6.712z" fill="#A86556" data-color="4"/>
        <path d="M108.777 33.031c-.897-2.083-2.398-3.859-4.69-5.046-2.914-1.508-7.14-1.702-10.286-.841-2.8.766-5.136 2.399-6.232 5.07a9.91 9.91 0 0 0-.53 1.76c-.133.645-.196 1.311-.11 1.967.088.677.378 1.238.685 1.839.286.561.585 1.116.902 1.661a22.027 22.027 0 0 0 2.159 3.1c.183.217.37.43.563.639 2.006 2.173 4.076 4.291 6.115 6.433.822.864 1.626 1.998 2.629 2.666.86.573 1.687.257 2.514-.235 2.801-1.669 4.593-3.943 5.862-6.853 1.544-3.541 2.007-8.208.56-11.824a21.248 21.248 0 0 0-.141-.336z" fill="#382823" data-color="6"/>
        <path d="M111.434 64.217c-.249-.087-.506-.182-.768-.272-1.123-.409-2.304-.854-2.951-1.145a1.133 1.133 0 0 1-.106-.05 2.085 2.085 0 0 1-.246-.127 11.503 11.503 0 0 1-1.279-.845c-.618-.473-1.158-1.029-1.526-1.713-.004-.008-.008-.012-.013-.02a3.258 3.258 0 0 1-.179-.383c-.711-1.549-.729-3.562-.798-5.242-.072-1.752-.044-3.513-.225-5.259-.021-.201-.452.944-.546 1.075a7.054 7.054 0 0 0-.409.009c-.026-.587-.047-1.171-.077-1.758-.014-.253-.416-.284-.402-.027.022.595.048 1.195.074 1.79-3.413.074-6.82.018-10.227-.182-.126-.009-.249.11-.213.234.462 1.761.767 4.657.819 7.096.003.137.006.274.005.407.025 1.095.165 2.767-.42 3.754-.14.237-.397.536-.757.875-.174.165-.377.343-.6.525-.413.34-.903.697-1.458 1.06l-.291.188c-.523.33-1.103.665-1.727.985-.264.143-.532.274-.813.405a22.974 22.974 0 0 1-2.03.828c-.747.267-1.532.498-2.342.681-1.66.368-3.906 1.357-4.532 3.171-.315.925.188 2.734.339 3.664.202 1.219.529 2.412.965 3.574.039.116.149.146.258.123.516-.112 1.028-.229 1.543-.341.85-.184 1.697-.373 2.543-.561l1.999-.444c.661-.148 1.33-.3 1.985-.496.905-.262 1.784-.608 2.566-1.133a5.134 5.134 0 0 0 1.79-2.11c.426.023.852.041 1.273.052 2.16.072 4.305-.005 6.414-.408 2.029-.38 4.069-.769 6.092-1.218a75.47 75.47 0 0 0 2.292-.543c.246-.062.783-.477 1.442-1.051.222-.198.46-.409.702-.636.067-.062.139-.128.214-.202.266-.248.539-.508.813-.771 1.458-1.406 2.843-2.843 2.843-2.843s-.908-.314-2.036-.716z" fill="#A86556" data-color="4"/>
        <path d="M112.351 77.316s3.741.653 7.374.101c3.633-.552 5.596-1.026 5.596-1.026s3.51 15.381 4.297 17.309c.787 1.928 2.126 10.269 1.845 12.691-.282 2.422-1.267 5.07-2.603 5.696-1.336.626-3.773 1.101-5.924.351-2.151-.749-6.383-11.53-6.392-11.932-.009-.402 6.031-3.761 6.031-3.761s-3.585-6.892-4.647-8.875c-1.062-1.984-2.771-3.656-2.771-3.656l-2.806-6.898z" fill="#4D3932" data-color="7"/>
        <path d="M86.346 77.907s-3.707.822-7.361.436c-3.654-.387-5.598-.773-5.598-.773s-2.839 15.526-3.536 17.488c-.697 1.962-1.652 10.355-1.259 12.762s1.499 5.007 2.862 5.572c1.363.564 3.82.928 5.934.082 2.115-.846 5.846-11.808 5.836-12.21-.009-.402-5.019-3.426-5.019-3.426s2.086-7.104 3.056-9.134c.97-2.03 2.6-3.778 2.6-3.778l2.485-7.019z" fill="#4D3932" data-color="7"/>
        <path d="M105.827 36.639c-.582-3.172-1.79-4.794-4.578-6.802-2.488-1.793-5.866-1.683-8.792-.75-2.211.707-4.59 3.461-5.247 5.627a9.57 9.57 0 0 0-.246 1.039c-.331 1.887-.145 3.942-.11 6.013.05 2.92.506 6.447 1.398 8.971.757 2.151 1.539 3.954 3.618 5.183 2.232 1.318 5.257 1.207 7.677.064 1.837-.866 3.28-2.372 4.26-4.065.98-1.692 1.526-3.567 1.887-5.446.425-2.19.622-4.057.561-5.985v-.004a25.141 25.141 0 0 0-.428-3.845z" fill="#A86556" data-color="4"/>
        <path d="M90.56 42.549c-1.05-.146-.733 2.331.032 2.308a.633.633 0 0 0 .466-.266c.384-.505.3-1.931-.498-2.042z" opacity=".8"/>
        <path d="M100.151 42.152c-1.043-.192-.835 2.297-.07 2.308.185.003.36-.103.478-.245.404-.49.384-1.918-.408-2.063z" opacity=".8"/>
        <path d="M105.568 40.664s1.611-1.094 2.122 1.696c.51 2.79-.267 4.755-1.658 4.94-1.391.184-1.879-1.98-1.879-1.98l1.415-4.656z" fill="#A86556" data-color="4"/>
        <path d="M95.099 48.886c-.3 0-.637-.045-.888-.206a.807.807 0 0 1-.369-.534c-.185-.895.265-2.615.285-2.688a.203.203 0 0 1 .247-.143.2.2 0 0 1 .144.246c-.004.017-.446 1.702-.28 2.505a.41.41 0 0 0 .192.277c.349.223 1.048.132 1.287.077a.202.202 0 0 1 .09.393c-.023.003-.337.073-.708.073z" opacity=".2"/>
        <path d="M105.743 45.045a.204.204 0 0 1-.125-.043.2.2 0 0 1-.035-.282c0-.001.203-.28.329-1.042.115-.698-.157-.95-.169-.96a.202.202 0 0 1 .26-.309c.048.039.462.406.308 1.334-.142.866-.382 1.19-.408 1.224a.202.202 0 0 1-.16.078z" opacity=".2"/>
        <path d="M95.203 56.901c-1.462 0-2.523-.364-2.591-.388a.2.2 0 0 1-.123-.257.205.205 0 0 1 .258-.123c.024.008 2.451.837 4.969-.05 2.538-.894 4.415-3.032 4.434-3.053a.204.204 0 0 1 .285-.021.2.2 0 0 1 .021.284c-.079.091-1.965 2.239-4.606 3.169a7.938 7.938 0 0 1-2.647.439z" opacity=".2"/>
        <path d="m110.18 69.537-.768 1.302-.511-1.454-2.618-7.462c.346.258.716.487 1.081.7.062.039.144.081.246.127h.004l2.195 5.804.371.983z" fill="#4D3932" data-color="7"/>
        <path d="M90.015 39.966a4.369 4.369 0 0 0-.629.271 4.702 4.702 0 0 0-.92.658c-.119.106-.524.566-.077.56.965-.013 1.905-.25 2.871-.278.577-.017 1.135.039 1.689-.169a.665.665 0 0 0 .241-.138c.135-.136.099-.35.026-.506-.308-.656-1.176-.709-1.807-.669a5.352 5.352 0 0 0-1.394.271z" opacity=".3"/>
        <path d="M99.332 39.32c-.633-.011-1.497.082-1.774.751-.066.159-.092.374.049.504a.66.66 0 0 0 .247.127c.563.183 1.118.102 1.695.092.966-.016 1.916.178 2.88.147.447-.014.021-.455-.103-.555a4.68 4.68 0 0 0-.949-.616 4.376 4.376 0 0 0-.641-.242 5.32 5.32 0 0 0-1.404-.208z" opacity=".3"/>
        <path d="M92.406 50.004s.795.349 2.639.332c1.921-.018 3.621-.475 3.621-.475s-.526 2.288-3.344 2.195c-2.553-.084-2.916-2.052-2.916-2.052z" fill="#914A3A" data-color="8"/>
        <path d="M105.985 36.493c-.582-3.172-1.773-4.875-4.56-6.884-2.488-1.793-6.078-1.624-9.004-.691-2.211.707-4.65 3.535-5.307 5.701-.102.341-.085.78-.149 1.134.869-1.045 2.006-2.126 3.302-1.992 1.059.11 2.044.435 3.11.49a24.102 24.102 0 0 0 6.031-.464h.013c1.569-.446 3.137 1.126 3.905 2.297.798 1.212 1.156 2.669 1.298 4.097.039.397-.118 1.476.474 1.576.461.077.869-.673 1.158-1.269v-.004c-.036-1.225-.02-2.619-.271-3.991z" fill="#382823" data-color="6"/>
        <path d="M122.948 122.138c-.962-2.611-1.379-5.182-1.728-7.933-.423-3.327-1.477-6.599-2.767-9.687-1.085-2.598-1.002-5.428-1.046-8.211-.049-3.112-.907-6.076-1.504-9.103-.396-2.009-.737-4.178-1.25-6.271-.358-1.459-.8-2.881-1.403-4.185-.803-1.885-1.787-3.699-2.489-5.625l-.58-1.586c-.682.166-1.367.318-2.061.437-3.251.561-6.617.555-9.906.496-2.859-.051-5.77-.047-8.62-.303-1.147-.103-2.348-.269-3.44-.671-.165.35-.332.7-.493 1.053-1.02 2.227-1.993 4.29-3.273 6.384-1.42 2.325-2.019 4.842-2.796 7.407-.697 2.3-1.48 4.631-1.827 7.016-.353 2.425-.424 4.899-.517 7.344-.105 2.785.418 6.278-.332 8.963-1.02 3.651-1.665 7.326-2.338 11.099a17.914 17.914 0 0 0-.117 5.739c.124.853.273 1.752.573 2.563.129.348.311.764.723.825 1.006.148 2.026-1.908 2.348-2.623a7.945 7.945 0 0 0 .603-2.172c.09-.639.33-1.052.965-1.301.363-.143.757-.226 1.079-.446.47-.319.713-.871.918-1.399 1.049-2.695 2.457-4.557 4.126-6.881a23.622 23.622 0 0 0 1.959-3.269c5.945.225 11.906.077 17.861.127.157.17.314.34.462.516a20.714 20.714 0 0 1 2.605 3.943c.564 1.106 1.057 2.279 2.074 3.058 1.116.854 2.558 1.124 3.658 2.009 1.743 1.403 2.57 3.602 4.206 5.105a5.49 5.49 0 0 0 1.119.813c.608.325 1.351.388 1.684 1.067.213.434.161.832.474 1.244.32.421.745.657 1.244.81.079.024.191-.02.226-.098.939-2.072.328-4.222-.42-6.254z" fill="#4D3932" data-color="7"/>
        <path d="M109.608 63.018c-.186.138-1.195 9.154-1.213 16.066-.018 6.912.156 12.293 1.421 17.13 1.354 5.178 5.863 10.128 8.118 11.643 2.255 1.514 4.085 1.853 4.085 1.853l-.963-3.72s-4.023-1.446-6.014-4.677c-2.222-3.607-3.857-6.285-4.251-14.599-.394-8.314 1.344-22.649.932-22.942-.412-.294-1.929-.893-2.115-.754z" fill="#A5B1C7" data-color="3"/>
        <path d="M117.926 87.87s-2.937-4.52-4.291-5.441c-1.628-1.107-5.385.007-6.483.551-.845.419-.465 1.22-.258 2.094-.2.169-.376.29-.52.563-.154.294-.239.6-.176.936.063.334.251.61.503.8l-.021.081c-.319.315-.469.88-.454 1.301.016.431.265.648.582.748-.227.34-.264.786-.029 1.171.215.352.583.602.979.809.16.146.353.285.598.411 1.935.999 5.758 1.715 5.758 1.715l4.995-.056-1.183-5.683z" fill="#A86556" data-color="4"/>
        <path d="M107.203 85.344a.201.201 0 0 1-.063-.392c.047-.016 1.167-.381 1.882-.398l1.082-.025c.118.006.204.085.207.197a.203.203 0 0 1-.198.206l-1.082.025c-.655.015-1.753.374-1.764.377a.208.208 0 0 1-.064.01z" opacity=".2"/>
        <path d="M107.089 87.654a.202.202 0 0 1-.199-.165.202.202 0 0 1 .163-.234c.076-.014 1.861-.334 2.471-.258l.585.073a.203.203 0 0 1 .176.225.206.206 0 0 1-.226.175l-.585-.073c-.455-.057-1.849.165-2.347.255l-.038.002z" opacity=".2"/>
        <path d="M107.134 89.615a.201.201 0 0 1-.004-.403l2.525-.057c.121.009.204.086.207.197a.203.203 0 0 1-.198.206l-2.525.057h-.005z" opacity=".2"/>
        <path d="M119.355 101.684c.758-.189 1.47-.129 2.17-.471.868-.425 1.595-1.141 2.08-1.991l.573-1.563c.041-.225.061-.452.067-.679l-6.318-9.109-3.811 5.74 3.559 8.147c.546.117 1.161.056 1.68-.074z" fill="#A86556" data-color="4"/>
        <path d="M103.264 21.671c-.978-1.153-1.947-1.527-3.359-1.641-2.505-.203-5.184.562-6.098 3.582-.299.985-.282 2.167.408 2.921.942 1.031 2.886.631 4.079.656a.194.194 0 0 0 .094-.021c2.03.294 5.785 1.093 6.327-1.876.262-1.435-.647-2.673-1.451-3.621z" fill="#382823" data-color="6"/>
        <path d="m90.591 62.96-3.725 7.823-.714-1.288 2.981-5.475c.554-.363 1.044-.72 1.458-1.06z" fill="#4D3932" data-color="7"/>
        <path d="M73.352 88.883s-2.993 9.035-2.793 11.118c.2 2.082 3.11 3.264 5.632 2.383 1.455-.508 1.613-9.198 1.613-9.198l-4.452-4.303z" fill="#A86556" data-color="4"/>
        <path d="M101.943 27.421a.249.249 0 0 1-.046-.005c-.019-.004-1.927-.443-3.494-.578-1.555-.133-3.344.194-3.362.197a.204.204 0 0 1-.236-.161.202.202 0 0 1 .162-.235c.075-.014 1.862-.34 3.471-.202 1.596.138 3.531.583 3.551.587a.2.2 0 0 1 .151.242.202.202 0 0 1-.197.155z" opacity=".2"/>
        <path d="M102.125 26.929a.201.201 0 0 1-.146-.341c.009-.01.966-1.016.879-2.626-.087-1.62-.891-2.475-.898-2.483a.2.2 0 0 1 .006-.284.204.204 0 0 1 .286.005c.038.038.916.962 1.011 2.741.096 1.792-.948 2.882-.993 2.928a.208.208 0 0 1-.145.06z" opacity=".2"/>
        <path d="M101.761 24.827a.2.2 0 0 1-.183-.287c.002-.005.268-.596.069-1.549-.206-.987-1.131-2.236-1.14-2.249a.2.2 0 0 1 .042-.282.203.203 0 0 1 .283.042c.04.054.989 1.334 1.212 2.407.228 1.094-.086 1.774-.099 1.803a.207.207 0 0 1-.184.115z" opacity=".2"/>
        <path d="M95.847 26.287a.203.203 0 0 1-.176-.101 3.58 3.58 0 0 1-.199-2.814c.527-1.489 1.781-2.321 1.835-2.356a.202.202 0 0 1 .223.337c-.012.008-1.195.796-1.675 2.153-.475 1.339.162 2.469.168 2.48a.2.2 0 0 1-.176.301z" opacity=".2"/>
        <path d="M89.116 33.381a.202.202 0 0 1-.193-.264c.04-.122 1-3.001 2.269-4.065 1.247-1.046 2.366-1.546 2.413-1.567a.202.202 0 0 1 .267.102.202.202 0 0 1-.103.266c-.011.005-1.116.5-2.317 1.507-1.181.991-2.135 3.854-2.144 3.883a.203.203 0 0 1-.192.138z" opacity=".2"/>
        <path d="M91.575 31.249a.2.2 0 0 1-.126-.044.2.2 0 0 1-.033-.283c.066-.083 1.632-2.038 2.696-2.801 1.071-.77 1.754-.953 1.783-.96a.203.203 0 0 1 .246.143.202.202 0 0 1-.144.246c-.006.002-.647.177-1.649.897-1.019.732-2.6 2.706-2.616 2.726a.196.196 0 0 1-.157.076z" opacity=".2"/>
        <path d="M101.556 33.639a.2.2 0 0 1-.199-.237c.003-.016.291-1.594.075-2.915-.216-1.322-1.088-2.858-1.097-2.873a.2.2 0 0 1 .076-.274.203.203 0 0 1 .276.075c.038.065.916 1.615 1.144 3.008.228 1.391-.064 2.986-.076 3.053a.202.202 0 0 1-.199.163z" opacity=".2"/>
        <path d="M102.808 34.866h-.011a.201.201 0 0 1-.191-.212c.001-.024.127-2.371.056-3.235-.071-.861-.156-1.276-.157-1.28a.2.2 0 0 1 .157-.238.202.202 0 0 1 .24.156c.004.017.091.439.164 1.329.074.891-.049 3.192-.055 3.29a.202.202 0 0 1-.203.19z" opacity=".2"/>
        <path d="M107.528 39.084a.201.201 0 0 1-.197-.246c.002-.01.231-1.042.125-3.21-.106-2.153-1.257-4.006-1.269-4.024a.201.201 0 0 1 .064-.277.203.203 0 0 1 .279.064c.05.079 1.219 1.962 1.33 4.218.11 2.232-.125 3.276-.134 3.319a.205.205 0 0 1-.198.156z" opacity=".2"/>
        <path d="M97.5 79.532c-2.794.063-6.519-15.084-6.935-16.811a.2.2 0 0 1 .15-.242.201.201 0 0 1 .244.149c1.602 6.656 4.663 16.544 6.532 16.502 1.885-.042 6.172-10.52 8.594-17.553a.203.203 0 0 1 .257-.125c.106.036.162.15.126.256-.626 1.817-6.195 17.761-8.968 17.824z" fill="#FFFFFF" data-color="2"/>
        <path d="M98.562 80.414c.019.833-.411 1.519-.96 1.532-.55.012-1.011-.653-1.03-1.486-.019-.833.411-1.519.961-1.532.549-.013 1.01.653 1.029 1.486z" fill="#FFFFFF" data-color="2"/>
        <path d="M99.833 151.349a.202.202 0 0 1-.198-.16c-.03-.144-3.052-14.424-3.816-16.111-.766-1.69-2.284-3.852-2.299-3.874a.2.2 0 0 1 .049-.28.203.203 0 0 1 .282.05c.015.022 1.556 2.215 2.337 3.939.782 1.727 3.718 15.604 3.843 16.194a.2.2 0 0 1-.198.242z" fill="#FFD191" data-color="5"/>
        <path d="M99.833 151.349a.202.202 0 0 1-.198-.16c-.03-.144-3.052-14.424-3.816-16.111-.766-1.69-2.284-3.852-2.299-3.874a.2.2 0 0 1 .049-.28.203.203 0 0 1 .282.05c.015.022 1.556 2.215 2.337 3.939.782 1.727 3.718 15.604 3.843 16.194a.2.2 0 0 1-.198.242z" opacity=".3"/>
        <path d="M94.848 112.637c-3.879 0-7.679-.178-7.721-.18a.202.202 0 0 1-.193-.211.203.203 0 0 1 .212-.191c.047.002 4.694.219 8.952.173 4.261-.047 10.82-.245 10.885-.248h.006a.201.201 0 0 1 .006.402c-.066.002-6.629.201-10.893.248-.416.005-.836.007-1.254.007z" fill="#FFD191" data-color="5"/>
        <path d="M94.848 112.637c-3.879 0-7.679-.178-7.721-.18a.202.202 0 0 1-.193-.211.203.203 0 0 1 .212-.191c.047.002 4.694.219 8.952.173 4.261-.047 10.82-.245 10.885-.248h.006a.201.201 0 0 1 .006.402c-.066.002-6.629.201-10.893.248-.416.005-.836.007-1.254.007z" opacity=".3"/>
        <path d="M129.906 100.588a.204.204 0 0 1-.173-.097 7.481 7.481 0 0 0-1.764-1.865c-1.151-.855-3.523-1.846-3.547-1.856a.2.2 0 0 1-.108-.263.202.202 0 0 1 .265-.108c.099.041 2.441 1.02 3.632 1.905 1.203.893 1.842 1.936 1.869 1.98a.202.202 0 0 1-.174.304z" opacity=".3"/>
        <path d="M128.463 97.26a.196.196 0 0 1-.059-.009c-1.49-.454-3.77-1.141-3.944-1.172h-.005c-.109 0-.185-.086-.188-.196-.002-.111.101-.202.212-.205.04-.003.117-.009 4.043 1.188a.2.2 0 0 1 .134.251.203.203 0 0 1-.193.143z" opacity=".3"/>
        <path d="M115.098 83.156a.203.203 0 0 1-.194-.144l-1.312-4.396a.203.203 0 0 1 .388-.114l1.312 4.396a.2.2 0 0 1-.194.258z" opacity=".3"/>
        <path d="M80.244 82.329a.201.201 0 0 1-.192-.266c.157-.461.939-2.763.97-2.839a.204.204 0 0 1 .263-.113.2.2 0 0 1 .114.26c-.031.082-.592 1.73-.963 2.82a.203.203 0 0 1-.192.138z" opacity=".3"/>
        <path d="M88.084 109.289a.201.201 0 0 1-.186-.281l.913-2.103a.203.203 0 0 1 .266-.105c.103.044.15.163.106.265l-.913 2.103a.203.203 0 0 1-.186.121z" opacity=".3"/>
        <path d="M105.345 109.149a.202.202 0 0 1-.177-.103l-.897-1.59a.2.2 0 0 1 .078-.274.204.204 0 0 1 .276.077l.897 1.59a.2.2 0 0 1-.078.274.206.206 0 0 1-.099.026z" opacity=".3"/>
        <path d="m118.286 104.093 2.264 5.413 1.966.863s.508-2.125.2-3.427-.111-2.615-1.236-3.117c-1.126-.503-3.194.268-3.194.268z" fill="#4D3932" data-color="7"/>
        <path d="M85.215 65.82c-.261-.321-1.77.079-2.062.601-.292.522-1.858 20.463-3.405 28.029a65.78 65.78 0 0 1-1.57 6.105c.397 1.306.83 1.891.858 2.851.011.391-.007.785-.042 1.179.872-2.047 1.772-4.34 2.402-6.456 2.324-7.815 4.079-31.988 3.819-32.309z" fill="#A5B1C7" data-color="3"/>
        <path d="m74 95.518 3.423-1.073s3.786-.889 5.673-1.975c.239-.137.425-.285.579-.438.385-.225.742-.491.94-.853a1.074 1.074 0 0 0-.083-1.168c.312-.115.551-.343.547-.774-.004-.422-.18-.979-.513-1.279a2.454 2.454 0 0 0-.025-.08c.243-.201.418-.486.466-.822.048-.338-.051-.64-.219-.927-.156-.267-.338-.379-.545-.539.167-.882.509-1.7-.354-2.08-1.122-.494-4.927-1.436-6.502-.256-1.31.982-4.036 5.63-4.036 5.63L74 95.518z" fill="#A86556" data-color="4"/>
        <path d="M83.94 85.873a.213.213 0 0 1-.055-.007c-.011-.003-1.117-.311-1.779-.297l-1.082.025c-.102.009-.204-.086-.207-.197a.203.203 0 0 1 .198-.206l1.082-.025c.736-.016 1.85.299 1.899.312a.2.2 0 0 1-.056.395z" opacity=".2"/>
        <path d="m84.16 88.176-.027-.002c-.503-.067-1.905-.226-2.357-.148l-.581.1a.2.2 0 1 1-.069-.396l.581-.1c.603-.103 2.404.135 2.48.146a.2.2 0 0 1-.027.4z" opacity=".2"/>
        <path d="M81.679 90.194a.201.201 0 0 1-.004-.403l2.525-.057a.197.197 0 0 1 .207.197.203.203 0 0 1-.198.206l-2.525.057h-.005z" opacity=".2"/>
        <path d="M76.684 113.323a.2.2 0 0 1-.194-.257c.022-.078 2.244-7.845 2.312-9.159.066-1.28-.997-3.296-1.008-3.316a.201.201 0 0 1 .085-.272.203.203 0 0 1 .274.084c.046.086 1.126 2.134 1.054 3.525-.071 1.359-2.235 8.927-2.327 9.249a.205.205 0 0 1-.196.146z" opacity=".3"/>
        <path d="m107.874 51.024-1.389-2.63c-.097-.183-.365-.177-.449.01l-1.271 2.69a.252.252 0 0 0-.008.189l1.42 3.966c.082.228.406.22.478-.011l1.236-4.026a.249.249 0 0 0-.017-.188zm-.661.292-.701 2.279c-.038.13-.224.134-.267.006l-.805-2.245a.143.143 0 0 1 .006-.109l.718-1.522c.05-.106.2-.109.251-.006l.788 1.488c.02.037.021.073.01.109z" fill="#A18BBC" data-color="1"/>
        <path d="M106.953 47.528c.015.67-.291 1.221-.685 1.23-.394.009-.726-.527-.741-1.197-.015-.67.291-1.221.685-1.23.394-.009.726.527.741 1.197z" fill="#FFFFFF" data-color="2"/>
    </g>
</svg>
