<?xml version="1.0" encoding="UTF-8"?>
<svg data-bbox="65 19.998 70.001 160.002" viewBox="0 0 200 200" height="200" width="200" xmlns="http://www.w3.org/2000/svg" data-type="color">
    <g>
        <path d="M133.025 180H67.532c.227-2.019.398-4.046.547-6.074l.038-.492c.124-1.735.235-3.474.351-5.209.18-2.689.419-5.365.701-8.038.086-.823.18-1.646.274-2.464 1.001-8.58 2.442-17.097 3.956-25.623a209.99 209.99 0 0 1 1.899-9.501v-.004c.038-.195.081-.382.128-.568.214-.959.432-1.871.646-2.744v-.004c.043-.17.086-.335.124-.496 3.13-12.567 5.863-16.851 6.15-18.684-.09-.097-.073-.276.051-.339.068-.42.128-.844.192-1.264.038-.271.453-.157.415.11-.06.378-.115.755-.171 1.132 4.439-.017 8.827-.937 13.27-.691 2.442.136 4.884.327 7.322.53l.633.051c1.437.119 2.87.238 4.307.348 1.146.089 2.292.174 3.438.263.201.017.402.03.603.047l2.271.174c1.048.081 2.1.161 3.152.246.539.038 1.433-.055 1.886.344.312.271.321.696.364 1.073.175 1.574.432 3.105.744 4.615.111.56.235 1.116.364 1.671.573 2.507 1.257 4.988 1.899 7.55a185.48 185.48 0 0 1 1.146 4.818 206.213 206.213 0 0 1 2.634 13.815c.517 3.351.949 6.714 1.292 10.086.077.704.145 1.412.205 2.116.077.84.15 1.684.214 2.524.18 2.299.872 7.435 1.732 13.272.03.191.056.386.086.581.833 5.653 1.813 11.892 2.63 16.829z" fill="#637595" data-color="1"/>
        <path d="M85.327 147.74c4.26-2.587 8.686-5.624 10.944-10.205 1.317-2.668 1.582-5.9-.445-8.292-.056-.064-.192-.085-.261-.03-6.021 4.53-11.265 10.031-15.447 16.279-1.078 1.607-2.019 3.291-3.036 4.933a16.371 16.371 0 0 1-2.763 3.338c.706-1.65 1.634-3.19 2.386-4.823.902-1.964 1.39-4.051 1.843-6.154 1.035-4.755 2.066-9.514 3.101-14.273.03-.144-.064-.254-.205-.267-1.993-.182-2.797 2.333-3.379 3.779-1.014 2.519-1.766 5.136-2.339 7.783-.992 4.572-1.45 9.229-1.839 13.882a15.27 15.27 0 0 0-.278.708c-.214.174-.428.352-.646.522-1.168.912-2.408 1.807-3.52 2.804-.094.819-.188 1.641-.274 2.464 1.176-.869 2.425-1.688 3.836-2.125 1.608-.492 3.284-.259 4.927-.492 1.45-.204 2.797-.793 4.204-1.162 1.822-.475 3.682-.352 5.543-.509 2.194-.187 4.559-.95 5.542-3.079.073-.157-.017-.297-.184-.318a35.353 35.353 0 0 0-18.864 2.901c.004-.03.004-.064.009-.098 3.276-3.071 7.309-5.238 11.145-7.566z" opacity=".5"/>
        <path d="M128.158 144.677c-.086.204-.163.411-.235.619-.65.56-1.317 1.099-2.006 1.612-1.557 1.166-3.143 1.82-5.081 2.07-1.454.191-2.891.377-4.319.721-5.56 1.336-10.854 4.36-13.818 9.34a.216.216 0 0 0 .184.322c5.025-.013 9.545-1.845 13.724-4.356-2.908 2.392-5.812 4.789-8.72 7.181-2.083 1.718-4.17 3.393-5.607 5.713-1.283 2.07-2.031 4.403-2.254 6.816-.013.161.192.267.321.187 2.489-1.603 5.064-3.117 7.437-4.878 2.014-1.493 3.635-3.338 5.068-5.374 2.9-4.118 5.568-8.419 8.284-12.669.689-.5 1.369-1.014 2.044-1.523 1.065-.772 2.134-1.54 3.207-2.299-3.447 5.115-4.384 11.388-4.328 17.449 0 .221.278.276.398.106 2.536-3.626 4.234-7.787 4.892-12.156.321-2.129.145-4.335.53-6.447.051-.034.098-.068.15-.102.111-.076.222-.148.334-.216a89.546 89.546 0 0 0-.205-2.116z" opacity=".5"/>
        <path d="M121.187 108.408a59.143 59.143 0 0 1-.364-1.671 15.47 15.47 0 0 0-2.04 1.315c-1.257.963-2.185 2.227-3.323 3.304a.208.208 0 0 0-.188.089c-.06.076-.111.157-.167.238a.545.545 0 0 0-.051.047c-1.407 1.209-3.173 1.824-4.944 2.295-5.513 1.459-11.816 2.927-14.639 8.432-.073.14.013.322.184.318 6.817-.14 12.791-3.754 17.59-8.347a64.738 64.738 0 0 0-6 11.859c-.064.17.167.344.316.242 2.271-1.616 4.311-3.571 5.906-5.857.787-1.132 1.45-2.363 1.745-3.716.231-1.06.248-2.142.201-3.219a27.126 27.126 0 0 1 5.774-5.329z" opacity=".5"/>
        <path d="M112.407 100.286c-1.723 1.442-3.52 2.795-5.414 4.008-3.387 2.167-7.103 3.652-10.721 5.378-1.48.708-2.938 1.472-4.319 2.35-1.339 1.646-2.746 3.228-4.375 4.593-1.347 1.124-2.827 2.066-4.448 2.748-1.954.823-4.033 1.319-5.953 2.223-.646.305-1.274.64-1.877 1.009.038-.195.081-.382.128-.568a19.477 19.477 0 0 1 2.143-1.086c2.023-.874 4.2-1.362 6.188-2.324 1.741-.848 3.297-2.019 4.687-3.355a34.108 34.108 0 0 0 2.249-2.396c-1.463 1.048-2.844 2.214-4.443 3.058-3.19 1.68-6.83 2.104-10.178 3.355.043-.17.086-.335.124-.496 3.473-1.247 7.262-1.671 10.473-3.584 1.689-1.005 3.169-2.32 4.815-3.393.06-.038.128-.076.188-.114 1.398-1.722 2.72-3.508 4.135-5.209a36.048 36.048 0 0 1 7.617-6.905l.633.051c-.282.182-.565.369-.842.56-3.289 2.273-5.97 5.124-8.433 8.237-.68.865-1.356 1.739-2.04 2.608 1.292-.751 2.634-1.417 3.99-2.044 3.644-1.697 7.317-3.245 10.679-5.476a52.578 52.578 0 0 0 4.392-3.274c.2.016.401.029.602.046z" opacity=".5"/>
        <path d="M126.798 134.15c-3.982 2.184-7.955 4.39-11.885 6.668-4.73 2.74-9.413 5.701-13.574 9.259 1.33-3.113 2.639-6.243 4.371-9.162 2.117-3.563 4.927-6.659 7.745-9.683a151.472 151.472 0 0 1 10.777-10.455 15.95 15.95 0 0 0-.107-.471c-3.054 2.672-6 5.463-8.827 8.373-2.724 2.808-5.44 5.684-7.792 8.805-2.399 3.19-4.114 6.752-5.688 10.396-.402.933-.804 1.883-1.219 2.842a50.024 50.024 0 0 0-3.054 2.935c-2.451 2.575-4.589 5.446-6.235 8.589-.71 1.361-1.351 2.753-2.006 4.131-3.314 1.993-7.159 2.447-10.871 3.325-3.562.844-7.052 2.053-10.315 3.732l-.038.492c3.079-1.612 6.381-2.795 9.759-3.643 3.618-.908 7.45-1.281 10.798-3.033.115-.064.227-.136.346-.199-1.056 2.184-2.181 4.326-3.716 6.26-2.049 2.579-4.49 4.763-7.146 6.689h.701c1.612-1.2 3.148-2.498 4.567-3.936 2.699-2.732 4.649-5.87 6.257-9.331a.848.848 0 0 1 .043-.085c5.487-3.389 8.592-9.497 11.068-15.218.064-.148.128-.297.192-.45 3.588-3.164 7.608-5.866 11.697-8.334 4.662-2.812 9.434-5.446 14.22-8.054a17.537 17.537 0 0 1-.068-.442zM90.04 165.893c1.561-3.304 3.212-6.472 5.534-9.348a44.242 44.242 0 0 1 4.619-4.882c-2.378 5.416-5.17 10.858-10.153 14.23z" opacity=".5"/>
        <path d="M130.394 163.17c-4.55 5.556-9.639 10.655-14.759 15.693-.385.377-.77.759-1.159 1.137h-.496c3.614-3.448 7.082-7.075 10.465-10.701a128.324 128.324 0 0 0 5.863-6.71c.031.191.056.386.086.581z" opacity=".5"/>
        <path d="m125.587 69.015 9.295 33.879-12.288-2.634-1.915-7.169s-1.363-1.42-1.648-1.95c-.285-.53-4.448-11.125-2.331-12.618 2.116-1.493 8.887-9.508 8.887-9.508z" fill="#FFA18A" data-color="2"/>
        <path d="m74.413 69.015-9.295 33.879 12.288-2.634 1.915-7.169s1.363-1.42 1.648-1.95c.285-.53 4.448-11.125 2.331-12.618-2.116-1.493-8.887-9.508-8.887-9.508z" fill="#FFA18A" data-color="2"/>
        <path d="M118.076 49.008c-.987-3.128-.558-6.402-.94-9.611-.158-1.324-.464-2.627-1.057-3.83-.749-1.518-1.63-2.811-2.045-4.483-.353-1.422-.558-2.886-1.158-4.237a8.775 8.775 0 0 0-.966-1.649 6.445 6.445 0 0 0-.742-1.246c-1.214-1.572-3.82-3.161-5.702-3.48-4.2-.71-7.712-.745-11.843.754-2.058.747-4.027 2.401-5.138 4.298l-.036.066c-1.143 1.671-1.95 3.59-2.655 5.475-.662 1.77-.905 3.419-.841 5.3.036 1.067.114 2.159-.13 3.21-.228.982-.756 1.811-1.351 2.611-.924 1.242-2.029 2.513-2.108 4.132-.057 1.173.319 2.046-.231 3.193-.31.647-.737 1.243-.784 1.982-.054.845.573 1.867 1.557 1.626.422-.103.698-.455.95-.788.048.283.151.554.317.798.814 1.195 2.371 1.278 3.685 1.295a.218.218 0 0 0 .206-.156l.623-2.325.01.476c.011.549-.071 1.166.077 1.701.199.717.735.697 1.371.65.634-.048 1.111-.082 1.714.195.274.126.522.3.79.436.296.15.496.243.833.213.768-.069 1.516-.426 2.31-.484.847-.062 1.68.027 2.507.206a.208.208 0 0 0 .236-.113c.648.012 1.309-.059 1.896-.105 1.252-.099 2.503-.232 3.759-.265 1.37-.036 2.738.067 4.108.031 1.324-.035 2.643-.16 3.958-.31.702-.08 1.931.013 2.532-.435.591-.44.521-1.588.603-2.217l.101-.776.387 2.619c.011.074.085.126.149.148.053.018.106.031.158.043a.212.212 0 0 0 .235.112c.87-.17 1.867-.244 2.709-.528.317-.107.493-.158.654-.471.572-1.112-.38-3.023-.708-4.061z" fill="#F7DAB2" data-color="3"/>
        <path d="M120.289 68.631c-.053-1.625-.621-3.37-1.392-4.798a8.06 8.06 0 0 0-.471-.758 30.983 30.983 0 0 0-.856-.123c-5.516-.717-8.393-2.577-10.548-7.932-1.327-3.297-.816-6.516-.244-9.924.023-.139-.117-.251-.247-.232-3.562.538-7.143.926-10.736 1.176-.033-.629-.067-1.258-.096-1.887-.013-.272-.435-.201-.422.069.029.617.06 1.233.09 1.85l-.43.032c-.112-.131-.369-.114-.373.099-.041 2.276.111 4.552.002 6.828-.056 1.18-.048 2.424-.514 3.533-.531 1.262-1.615 2.196-2.712 2.974-.899.638-6.197 3.01-6.197 3.01s5.854 5.041 6.86 5.199c2.971.468 5.995.756 8.988 1.043 2.7.259 5.41.035 8.12-.366a5.444 5.444 0 0 0 2.086 2.046c1.512.821 2.405 1.061 4.088 1.278 1.465.189 2.931.374 4.397.56a9.642 9.642 0 0 0 .607-3.677z" fill="#FFA18A" data-color="2"/>
        <path d="M109.999 36.349c.045-.962.12-.95.099-1.914-.067-3.07-.028-5.425-2.09-8.04-1.407-1.784-3.707-2.788-6.009-3.296-3.048-.672-6.477-.472-8.825 1.568-2.631 2.285-3.574 4.3-3.866 7.557-.326 3.638.017 6.365 1.053 9.913.544 1.863 1.271 3.706 2.42 5.323 1.15 1.618 2.753 3.007 4.69 3.711 2.557.929 5.592.536 7.727-1 1.99-1.433 3.077-3.725 3.644-5.965a39.542 39.542 0 0 0 1.157-7.857z" fill="#FFA18A" data-color="2"/>
        <path d="M80.264 91.009c-.066 1.138-.415 2.209-.657 3.315-.431 1.973-.093 3.845.557 5.734.874 2.54 3.873 1.759 6.165 1.759h28.233c1.605 0 3.228.618 4.837.373 2.323-.355 1.681-1.72 1.711-3.577.031-1.94.071-3.88.112-5.82.113-5.371.479-10.733.653-16.103.063-1.954.102-3.908.095-5.863-.003-.82-.015-1.64-.036-2.46-.068-2.605.005-5.106-1.707-7.253-1.202-1.508-2.829-1.851-4.641-2.165-3.031-.524-3.367-1.014-6.4-.185-5.451 1.49-11.652 2.379-16.931-.174-.549-.266-1.093-.568-1.694-.683-2.315-.443-6.674.705-8.569 2.122-1.074.803-1.492 2.117-1.66 3.388-.242 1.841-.151 3.738-.161 5.589-.011 2.191-.067 4.373-.326 6.55-.236 1.984-.55 3.961-.521 5.964.031 2.096.394 4.154.703 6.221.162 1.08.301 2.174.237 3.268z" fill="#F5DED3" data-color="4"/>
        <path d="M94.812 36.482c-1.042-.274-1.024 2.258-.25 2.327a.64.64 0 0 0 .503-.211c.448-.463.538-1.908-.253-2.116z" opacity=".7"/>
        <path d="M104.872 36.104c-1.042-.274-1.024 2.258-.25 2.327a.64.64 0 0 0 .503-.211c.449-.463.539-1.908-.253-2.116z" opacity=".7"/>
        <path d="M107.934 34.672c.078-.092-.119-.237-.189-.287-1.114-.778-1.794-.846-2.815-.875-.727-.02-2.076.097-2.308.716-.056.15-.035.413.125.451.159.037 5.109.087 5.187-.005z" fill="#F7DAB2" data-color="3"/>
        <path d="M91.706 34.672c-.078-.092.119-.237.189-.287 1.114-.778 1.794-.846 2.815-.875.727-.02 2.076.097 2.308.716.056.15.035.413-.125.451-.16.037-5.109.087-5.187-.005z" fill="#F7DAB2" data-color="3"/>
        <path d="M100.434 43.373c-.487 0-1.11-.117-1.286-.68-.25-.8-.019-3.217-.009-3.319a.213.213 0 0 1 .425.041c-.066.674-.195 2.555-.009 3.152.177.567 1.397.335 1.41.332a.212.212 0 1 1 .086.416 3.364 3.364 0 0 1-.617.058z" opacity=".2"/>
        <path d="M100.145 52.094h-.019c-2.437-.008-5.127-2.183-5.241-2.275a.21.21 0 0 1-.029-.298.216.216 0 0 1 .301-.029c.027.022 2.687 2.171 4.97 2.178h.017c2.722 0 5.533-2.16 5.561-2.182a.215.215 0 0 1 .3.036.211.211 0 0 1-.036.298c-.119.093-2.956 2.272-5.824 2.272z" opacity=".2"/>
        <path d="M97.32 44.777s.971.345 3.154.345c1.813 0 2.833-.345 2.833-.345s-.401 1.75-2.994 1.776c-2.592.027-2.993-1.776-2.993-1.776z" opacity=".2"/>
        <path d="M109.137 36.417s1.677-1.048 2.091 1.796c.413 2.845-.449 4.807-1.869 4.942-1.419.135-1.833-2.075-1.833-2.075l1.611-4.663z" fill="#FFA18A" data-color="2"/>
        <path d="M90.43 36.417s-1.677-1.048-2.091 1.796c-.413 2.845.449 4.807 1.869 4.942 1.419.135 1.833-2.075 1.833-2.075l-1.611-4.663z" fill="#FFA18A" data-color="2"/>
        <path d="M110.752 36.388c-.122-1.848-.374-3.695-.568-5.537-.169-1.607-.272-3.024-1.242-4.378-.968-1.35-2.157-2.061-3.721-2.573-1.93-.631-3.869-1.212-5.894-1.443a.187.187 0 0 0-.106.018c-.533-.325-1.345-.356-1.896-.405-2.35-.208-4.249.452-5.762 2.223-1.486 1.74-2.008 4.025-2.622 6.175-.707 2.48-.734 5.16-.633 7.724a.202.202 0 0 0-.067.2c.155.737-.103 1.815.729 2.238.551.28 1.042-.175 1.149-.705.055-.274-.033-.531-.019-.803.022-.432.207-.877.402-1.258-.206 1.281-.18 2.566.859 2.096.779-.353.669-1.891.764-2.52.199-1.319.463-2.626.734-3.932.178-.736.303-1.49.539-2.217.933-2.874 3.376-4.903 6.377-5.34.37 1.014 1.145 1.774 2.036 2.426.758.555 1.653 1.017 2.302 1.704.432.457.687.957.786 1.571.036.221.046.449.134.659.235.561.813.829 1.261 1.2.654.543 1.286 1.199 1.714 1.935.521.896.353 2.171.323 3.179-.016.552-.202 1.333.131 1.833.456.684 1.175.308 1.561-.217.792-1.077.813-2.584.729-3.853z" fill="#F7DAB2" data-color="3"/>
        <path d="M110.855 46.803c-.043-.17-.081-.344-.12-.513a7.042 7.042 0 0 1-.068-.314l-.09-.42c-.073-.344-.141-.687-.21-1.031-.017-.089-.038-.182-.056-.271-.009-.051-.021-.098-.03-.148-.103-.496-.21-.997-.329-1.493-.111-.458-.411.853-.453 1.077-.056.276-.111.551-.162.827-.039.17-.068.339-.103.509-.047.233-.09.467-.137.696-.043.204-.086.407-.12.611a7 7 0 0 0-.047.284c-.009.068-.026.148-.038.233-.017.149-.026.31.034.424.222.441 1.458.318 1.818.157.103-.047.192-.093.214-.212v-.042c-.005-.115-.078-.272-.103-.374z" fill="#4D4644" data-color="5"/>
        <path d="M110.367 44.526c-.376.165-.757.327-1.133.5.034-.17.064-.339.103-.509.316-.14.633-.276.945-.411.009.051.021.098.03.148l.055.272z" fill="#FFFFFF" data-color="6"/>
        <path d="M110.666 45.976c-.599.28-1.189.568-1.775.874.013-.085.03-.165.038-.233a7 7 0 0 1 .047-.284c.526-.271 1.061-.53 1.599-.776.032.139.061.279.091.419z" fill="#FFFFFF" data-color="6"/>
        <path d="M90.971 46.533c-.043-.17-.081-.344-.12-.513-.038-.178-.081-.356-.115-.534l-.09-.424c-.073-.339-.137-.683-.205-1.022l-.013-.055-.077-.369c-.086-.424-.18-.848-.278-1.272-.111-.458-.415.853-.458 1.077-.038.191-.077.382-.111.573-.038.17-.068.335-.103.5-.064.322-.124.64-.188.959l-.063.317c-.034.17-.068.339-.09.513-.009.021-.009.042-.013.064-.026.187-.098.479-.004.657.227.441 1.458.318 1.818.157.103-.047.192-.093.214-.212 0-.013.004-.025 0-.042-.005-.115-.078-.272-.104-.374z" fill="#4D4644" data-color="5"/>
        <path d="M90.441 44.039c-.346.153-.693.301-1.039.454.034-.165.064-.331.103-.5.282-.127.565-.25.847-.378l.077.369.012.055z" fill="#FFFFFF" data-color="6"/>
        <path d="M90.736 45.485c-.565.25-1.12.517-1.676.797.021-.174.056-.344.09-.513.496-.25.992-.484 1.497-.708l.089.424z" fill="#FFFFFF" data-color="6"/>
        <path d="M117.143 59.265s4.528 1.444 6.238 3.141c1.711 1.697 2.994 1.06 3.207 2.121.214 1.06 1.176 5.408-.855 8.271-2.031 2.863-2.031 5.343-2.138 7.231-.107 1.888-3.301 5.67-3.301 5.67l-3.151-26.434z" fill="#F5DED3" data-color="4"/>
        <path d="M83.301 59.265s-4.528 1.444-6.238 3.141c-1.711 1.697-2.994 1.06-3.207 2.121-.214 1.06-1.176 5.408.855 8.271 2.031 2.863 2.031 5.343 2.138 7.231.107 1.888 3.301 5.67 3.301 5.67l3.151-26.434z" fill="#F5DED3" data-color="4"/>
        <path d="M88.996 58.144s.954-1.518 1.445-1.571c.491-.053 5.837 2.24 10.915 1.571 5.078-.669 8.089-2.103 8.562-1.572.472.531 2.29 2.692 2.29 2.692s-8.339 2.928-11.199 3.3c-2.86.371-7.376.636-8.967-.636-1.591-1.272-3.046-3.784-3.046-3.784z" fill="#F5DED3" data-color="4"/>
        <path d="M99.654 25.328a.215.215 0 0 1-.129-.043.211.211 0 0 1-.042-.297c.008-.01.738-.985.44-1.854-.337-.986-.514-1.591-.483-1.959.025-.298 0-.635 0-.638a.212.212 0 0 1 .197-.227.213.213 0 0 1 .229.195c.001.015.028.374 0 .705-.025.292.158.9.462 1.787.371 1.084-.469 2.199-.505 2.246a.206.206 0 0 1-.169.085z" opacity=".2"/>
        <path d="M90.441 37.424a.212.212 0 0 1-.209-.257c.007-.031.689-3.131.935-4.352a5.06 5.06 0 0 0 .084-.981c.013-.728.026-1.481.865-2.969 1.188-2.105 2.416-2.937 2.468-2.971a.215.215 0 0 1 .296.058.21.21 0 0 1-.058.294c-.012.008-1.2.817-2.333 2.826-.787 1.395-.799 2.062-.811 2.77-.006.322-.012.656-.092 1.057a389.77 389.77 0 0 1-.937 4.359.21.21 0 0 1-.208.166z" opacity=".2"/>
        <path d="M87.956 37.699a.213.213 0 0 1-.214-.211c-.001-.157-.013-3.87.715-5.917.725-2.042 1.477-3.086 1.509-3.129a.215.215 0 0 1 .298-.048.21.21 0 0 1 .048.296c-.007.01-.75 1.044-1.452 3.022-.703 1.979-.691 5.736-.69 5.774a.213.213 0 0 1-.213.213h-.001z" opacity=".2"/>
        <path d="M94.003 24.763a.215.215 0 0 1-.172-.086.211.211 0 0 1 .044-.297c.066-.049 1.636-1.196 3.12-1.556a68.8 68.8 0 0 0 2.167-.553.212.212 0 1 1 .117.408 68.31 68.31 0 0 1-2.182.557c-1.399.339-2.951 1.473-2.967 1.484a.207.207 0 0 1-.127.043z" opacity=".2"/>
        <path d="m110.785 36.038-.022-.001a.214.214 0 0 1-.192-.232c.001-.008.08-.826-.114-1.639-.235-.987-.667-1.888-1.399-2.918-.436-.613-.696-1.206-.998-1.893-.298-.677-.635-1.445-1.221-2.396-1.119-1.815-2.828-2.414-2.846-2.419a.211.211 0 0 1-.133-.269.214.214 0 0 1 .271-.132c.076.026 1.87.648 3.073 2.6.601.975.944 1.757 1.248 2.447.292.665.545 1.24.956 1.818.765 1.077 1.217 2.023 1.466 3.065a5.95 5.95 0 0 1 .123 1.78.211.211 0 0 1-.212.189z" opacity=".2"/>
        <path d="M114.436 50.6h-.011a.212.212 0 0 1-.203-.222c.002-.036.176-3.631 0-6.751-.175-3.104-.838-5.106-.845-5.126a.213.213 0 0 1 .405-.134c.028.083.688 2.077.866 5.237.177 3.143.002 6.759 0 6.795a.21.21 0 0 1-.212.201z" opacity=".2"/>
        <path d="M115.647 51.272a.213.213 0 0 1-.214-.212v-4.777c0-.117.096-.212.214-.212s.214.095.214.212v4.777a.213.213 0 0 1-.214.212z" opacity=".2"/>
        <path d="m87.671 51.272-.018-.001a.213.213 0 0 1-.196-.229l.285-3.481a.213.213 0 0 1 .231-.194.213.213 0 0 1 .196.229l-.285 3.481a.213.213 0 0 1-.213.195z" opacity=".2"/>
        <path d="M83.301 51.413a.222.222 0 0 1-.087-.018c-.108-.048-.156-.173-.108-.28.015-.034 1.522-3.387 2.222-5.621.697-2.223.88-4.654.882-4.678a.214.214 0 0 1 .427.031c-.002.025-.188 2.504-.9 4.774-.708 2.259-2.225 5.635-2.24 5.669a.216.216 0 0 1-.196.123z" opacity=".2"/>
        <path d="M107.094 30.665a.214.214 0 0 1-.205-.151c-.005-.017-.537-1.738-1.773-3.063-1.236-1.324-3.419-2.128-3.441-2.137a.21.21 0 0 1-.127-.272.215.215 0 0 1 .274-.126c.093.034 2.301.847 3.608 2.246 1.306 1.399 1.847 3.155 1.869 3.229a.212.212 0 0 1-.143.264.171.171 0 0 1-.062.01z" opacity=".2"/>
        <path d="M81.938 59.75s1.196 19.739.228 28.425-5.507 22.408-5.507 23.273c0 .865.836 2.486.836 2.486s6.458-16.318 7.209-25.072c.793-9.233.577-13.573.158-21.525-.314-5.967-.417-8.023-1.165-8.342s-1.759.755-1.759.755z" fill="#875549" data-color="7"/>
        <path d="M118.038 59.575s-1.261 19.914-.293 28.599c.968 8.686 5.507 22.408 5.507 23.273 0 .865-.836 2.486-.836 2.486s-6.458-16.318-7.209-25.072c-.793-9.233-.577-13.573-.158-21.525.314-5.967.417-8.023 1.165-8.342s1.824.581 1.824.581z" fill="#875549" data-color="7"/>
        <path d="M86.67 92.758s-.103.153-.295.433a72.014 72.014 0 0 1-1.428 1.993 177 177 0 0 1-1.086 1.434c-1.715 2.214-4.106 5.094-6.847 7.813-5.56 5.514-11.795 4.42-12.009-.246-.214-4.666 6.595-9 9.588-10.591 1.604-.853 3.99-2.613 5.859-4.063a97.099 97.099 0 0 0 1.715-1.357c.697-.556 1.133-.92 1.133-.92l3.37 5.504z" fill="#FFA18A" data-color="2"/>
        <path d="M67.749 98.246a.216.216 0 0 1-.142-.054.211.211 0 0 1-.018-.299c.036-.04.885-.982 1.825-1.592.966-.627 5.326-3.033 5.369-3.057.209-.115 3.102-2.135 4.996-3.466a.214.214 0 0 1 .298.051.212.212 0 0 1-.051.296c-.484.34-4.74 3.328-5.037 3.49-.042.023-4.387 2.421-5.342 3.041-.891.578-1.731 1.509-1.739 1.518a.208.208 0 0 1-.159.072z" opacity=".2"/>
        <path d="M111.684 57.955a.213.213 0 0 0-.287.093 75.208 75.208 0 0 1-2.154 3.835c-.267.306-6.023 6.826-10.185 5.76-4.222-1.081-8.769-8.807-8.937-9.095a44.815 44.815 0 0 1-.524-1.083.215.215 0 0 0-.284-.104.212.212 0 0 0-.105.281c.27.583 6.618 14.201 11.156 14.201l.073-.001c4.411-.144 11.061-13.053 11.342-13.602a.212.212 0 0 0-.095-.285zm-11.262 13.464-.063.001c-2.61 0-6.035-5.182-8.313-9.231 1.782 2.377 4.36 5.214 6.905 5.866.351.09.71.131 1.075.131 2.976 0 6.294-2.76 8.138-4.556-2.32 3.633-5.43 7.714-7.742 7.789z" opacity=".2"/>
        <path d="M101.017 71.632c0 .509-.487.922-1.087.922s-1.087-.413-1.087-.922c0-.509.487-.922 1.087-.922s1.087.413 1.087.922z" fill="#FFFFFF" data-color="6"/>
        <path d="M104.017 70.254c0 .439-.318.795-.709.795-.392 0-.709-.356-.709-.795 0-.439.318-.795.709-.795.391 0 .709.356.709.795z" fill="#FFFFFF" data-color="6"/>
        <path d="M104.726 66.49c0 .439-.318.795-.709.795-.392 0-.709-.356-.709-.795 0-.439.318-.795.709-.795.391 0 .709.356.709.795z" fill="#FFFFFF" data-color="6"/>
        <path d="M97.014 68.664c0 .439-.318.795-.709.795s-.709-.356-.709-.795c0-.439.318-.795.709-.795s.709.356.709.795z" fill="#FFFFFF" data-color="6"/>
        <path d="m80.302 84.64-.025-.001a.212.212 0 0 1-.187-.235c.004-.03.363-3.07.365-4.898.001-.989-.218-1.478-.472-2.045-.209-.467-.447-.996-.594-1.871-.079-.469-.134-.962-.193-1.484-.181-1.614-.368-3.284-1.267-4.522-1.252-1.725-1.474-5.521-1.483-5.681a.213.213 0 0 1 .202-.223.215.215 0 0 1 .225.2c.002.038.225 3.832 1.403 5.457.964 1.329 1.166 3.132 1.345 4.723.058.516.113 1.004.189 1.461.138.822.354 1.303.563 1.768.262.585.51 1.138.509 2.218-.001 1.853-.364 4.917-.368 4.947a.213.213 0 0 1-.212.186z" opacity=".1"/>
        <path d="M79.758 76.478a.216.216 0 0 1-.171-.084c-.019-.025-1.955-2.571-3.655-6.047-1.73-3.538-.871-5.952-.834-6.053a.215.215 0 0 1 .274-.126c.111.04.168.162.128.272-.009.023-.829 2.358.817 5.722 1.681 3.436 3.592 5.951 3.612 5.976a.211.211 0 0 1-.171.34z" opacity=".1"/>
        <path d="M121.187 82.8h-.014a.213.213 0 0 1-.199-.226c.002-.024.167-2.459.524-5.139.219-1.647.214-3.062.21-4.311-.003-.805-.006-1.565.049-2.313.139-1.923 1.831-6.985 1.903-7.2a.214.214 0 0 1 .406.134c-.018.052-1.746 5.226-1.882 7.096-.053.732-.05 1.485-.047 2.281.005 1.263.01 2.693-.214 4.368a88.545 88.545 0 0 0-.521 5.112.216.216 0 0 1-.215.198z" opacity=".1"/>
        <path d="m123.254 74.143-.033-.002c-.117-.015-.195-.138-.18-.254.01-.078.052-.141.142-.279.274-.417 1.002-1.522 1.215-3.798.263-2.819.266-4.681.266-4.699 0-.117.096-.212.214-.212s.214.095.214.212c0 .019-.003 1.898-.268 4.738-.222 2.381-.993 3.551-1.282 3.991-.041.063-.072.106-.085.135-.015.104-.1.168-.203.168z" opacity=".1"/>
        <path d="M86.668 73.646c-.601.884-.141 3.009-.211 6.382-.101 4.862.002 11.608.188 16.682.149 4.05-.274 6.702.545 7.149.41.224 3.401.202 7.484.22 3.782.017 8.332-.018 11.994-.113 3.661-.096 5.82.405 6.664-.483.844-.888.401-2.944.536-6.667.163-4.496.25-10.439.215-15.146-.032-4.269.424-6.967-.431-7.755-.855-.788-3.135-.44-6.892-.585a291.202 291.202 0 0 0-12.246-.199c-3.993.027-7.51.021-7.846.515z" fill="#FFFFFF" data-color="6"/>
        <path d="M94.826 81.619c.133-.153.244-.314.308-.488.436-1.23-.607-1.345-1.552-1.162a.499.499 0 0 0 .056-.157c.163-1.158-1.762-.857-2.339-.785-1.698.216-3.404.763-4.948 1.493-1.557.734-2.433 1.781-2.947 3.41a86.926 86.926 0 0 0-1.381 4.801c-.133.53-.261 1.065-.385 1.603-.038.165.086.255.214.263.325.225.65.45.975.679.492.339.979.683 1.467 1.022.466.327 1.065.895 1.685.937.145.013.278-.009.398-.047.346-.106.607-.386.894-.636.795-.696 1.753-2.299 2.54-3.003s3.592-2.354 4.118-3.028c.547-.691.432-1.336-.098-1.828.466-.382.902-.789 1.296-1.222.806-.88.481-1.58-.301-1.852z" fill="#FFA18A" data-color="2"/>
        <path d="M87.6 82.517a.21.21 0 0 1-.116-.39c.021-.013.518-.329 1.617-.927 1.118-.608 3.723-1.195 3.833-1.22a.215.215 0 0 1 .256.16.21.21 0 0 1-.162.253c-.026.006-2.656.599-3.722 1.178-1.083.589-1.586.908-1.591.911a.202.202 0 0 1-.115.035z" opacity=".2"/>
        <path d="M88.776 84.32a.212.212 0 0 1-.087-.406l5.56-2.439a.214.214 0 0 1 .282.108.212.212 0 0 1-.109.28l-5.56 2.439a.218.218 0 0 1-.086.018z" opacity=".2"/>
        <path d="M90.291 86.642a.214.214 0 0 1-.187-.11.21.21 0 0 1 .084-.288l3.011-1.651a.214.214 0 0 1 .29.083.21.21 0 0 1-.084.288l-3.011 1.651a.204.204 0 0 1-.103.027z" opacity=".2"/>
        <path d="M116.699 87.25s5.716 4.751 8.71 6.342c2.994 1.591 9.801 5.926 9.587 10.592-.214 4.666-6.451 5.761-12.01.247s-9.653-11.673-9.653-11.673l3.366-5.508z" fill="#FFA18A" data-color="2"/>
        <path d="M130.88 97.486a.216.216 0 0 1-.125-.04c-.039-.028-3.969-2.827-5.453-3.67-1.503-.854-3.696-2.428-3.718-2.444a.21.21 0 0 1-.048-.296.214.214 0 0 1 .299-.047c.022.016 2.196 1.577 3.679 2.419 1.503.854 5.328 3.578 5.49 3.694a.21.21 0 0 1-.124.384z" opacity=".2"/>
        <path d="M99.788 60.413c-.15 0-.3-.002-.451-.005-5.422-.124-8.241-1.528-8.359-1.588a.21.21 0 0 1-.093-.285.216.216 0 0 1 .288-.092c.028.014 2.861 1.42 8.174 1.541 5.313.123 10.436-2.013 10.487-2.035a.215.215 0 0 1 .281.112.211.211 0 0 1-.113.278c-.05.022-4.961 2.074-10.214 2.074z" opacity=".1"/>
        <path d="M112.208 74.821h-.006c-.039-.001-3.985-.108-11.172-.265-7.181-.157-13.028-.001-13.086 0a.224.224 0 0 1-.22-.206.213.213 0 0 1 .208-.218c.059-.001 5.914-.157 13.108 0 7.188.157 11.135.264 11.174.265a.213.213 0 0 1 .208.218.213.213 0 0 1-.214.206z" fill="#F5DED3" data-color="4"/>
        <path d="M112.208 103.274h-.006c-.039-.001-3.985-.108-11.172-.265-7.181-.157-13.028-.001-13.086 0-.103-.004-.216-.089-.22-.206a.213.213 0 0 1 .208-.218c.059-.001 5.914-.157 13.108 0 7.188.157 11.135.264 11.174.265a.213.213 0 0 1 .208.218.213.213 0 0 1-.214.206z" fill="#F5DED3" data-color="4"/>
        <path d="M103.78 82.022c0 .996-1.568 1.803-3.502 1.803-1.934 0-3.502-.807-3.502-1.803 0-.996 1.568-1.803 3.502-1.803 1.934.001 3.502.808 3.502 1.803z" fill="#F5DED3" data-color="4"/>
        <path d="M119.014 89.744c-.782-2.226-1.68-4.403-2.644-6.557-.407-.91-.913-1.617-1.568-2.172-1.369.091-3.024-.041-4.411-.053-1.634-.014-2.88-.391-4.486-.662-.969-.163-3.038-.231-2.27 1.33.088.18.224.337.384.482-.795.38-1.052 1.157-.091 1.994.47.409 1.222.565 1.76.913-.499.586-.505 1.14.154 1.806.641.648 1.537 1.134 2.278 1.669.911.658 1.55 1.507 2.46 2.323.835.749 1.828 1.306 2.753 1.943.45.31.856.681 1.445.57.651-.122 1.214-.795 1.669-1.196l2.371-2.088c.136-.023.255-.135.196-.302z" fill="#FFA18A" data-color="2"/>
        <path d="M115.303 81.503s-2.65-2.945-4.396-4.111-2.673-1.131-2.994-.672c-.321.46 1.283 1.752 2.245 2.785.962 1.033 2.709 3.083 2.709 3.083s2.015-.318 1.934-.424c-.08-.106.502-.661.502-.661z" fill="#FFA18A" data-color="2"/>
        <path d="M110.123 83.852a.221.221 0 0 1-.115-.033c-.011-.007-.315-.191-1.6-.735-1.292-.547-4.133-.847-4.162-.85a.212.212 0 0 1-.19-.233.213.213 0 0 1 .235-.189c.119.012 2.934.31 4.285.882 1.337.566 1.649.759 1.661.767a.211.211 0 0 1-.114.391z" opacity=".2"/>
        <path d="M109.346 86.476a.225.225 0 0 1-.071-.012l-3.207-1.113a.212.212 0 0 1-.131-.27.216.216 0 0 1 .273-.13l3.207 1.113a.212.212 0 0 1-.071.412z" opacity=".2"/>
        <path d="M111.902 101.029a.73.73 0 0 0-.734-.728.731.731 0 0 0-.734.728.73.73 0 0 0 .734.728.73.73 0 0 0 .734-.728z" fill="#F5DED3" data-color="4"/>
        <path d="M84.947 95.184a177 177 0 0 1-1.086 1.434c-1.484-2.223-2.776-4.543-3.408-7.087a97.099 97.099 0 0 0 1.497-1.179c.021.127.047.254.073.382.184.878.462 1.722.804 2.545.559 1.355 1.303 2.649 2.12 3.905z" fill="#4D4644" data-color="5"/>
        <path d="M84.187 89.843c-.765-.897-2.268-.883-3.357.03-1.089.913-1.352 2.381-.587 3.278.765.897 2.268.883 3.357-.03 1.089-.914 1.352-2.382.587-3.278z" fill="#FFFFFF" data-color="6"/>
        <path d="M92.94 40.143c-.357.005-.704.072-.994.238-.272.156-.462.503-.332.788.085.187.28.3.471.379.453.188.954.258 1.441.202.319-.037.641-.131.888-.335.245-.202.396-.581.204-.834-.096-.127-.255-.191-.408-.238a4.31 4.31 0 0 0-1.27-.2z" fill="#FC8C72" data-color="8"/>
        <path d="M105.26 40.217c-.153.047-.312.111-.408.238-.191.253-.04.632.205.834.247.204.569.299.888.335a2.91 2.91 0 0 0 1.441-.202c.191-.079.386-.192.471-.379.129-.285-.06-.632-.332-.788-.29-.166-.637-.233-.994-.238a4.3 4.3 0 0 0-1.271.2z" fill="#FC8C72" data-color="8"/>
    </g>
</svg>
