<?xml version="1.0" encoding="UTF-8"?>
<svg data-bbox="492 714 3015.848 2571.273" viewBox="0 0 4000 4000" height="4000" width="4000" xmlns="http://www.w3.org/2000/svg" data-type="color">
    <g>
        <path d="M704.545 3264.774c-14.563-54.489-29.5-108.88-43.611-163.485-28.422-109.981-46.073-221.85-57.369-334.78-8.193-81.906-15.449-163.89-13.804-246.332 1.446-72.466 8.405-144.194 31.143-213.594 13.318-40.649 30.293-79.583 54.915-114.767 51.536-73.642 123.118-114.74 211.29-126.854 44.6-6.127 86.33 5.893 125.631 26.993 30.219 16.225 56.573 37.37 80.371 61.956 49.12 50.746 86.427 109.558 117.262 172.617 43.414 88.784 77.976 180.894 99.965 277.386 22.732 99.75 44.694 199.677 66.9 299.546 26.565 119.474 53.033 238.969 79.529 358.459.206.928.207 1.902.304 2.854l-752.526.001z" fill="#674D5A" data-color="1"/>
        <path d="M1276 1477c12.801-22.188-147.973-116.69-131-136 24.624-28.015-110.309-194.464-98.425-241.771 13.061-51.99 28.19-103.31 51.062-152.092 25.582-54.561 62.072-99.573 112.393-133.219 22.215-14.854 46.274-24.952 72.325-30.256 11.013-2.242 20.523-6.574 29.629-13.335 46.315-34.392 99.237-51.345 156.17-55.231 61.923-4.226 122.505 3.434 179.645 28.933 41.32 18.44 79.367 42.313 110.499 75.849 4.855 5.23 9.232 11.031 13.073 17.05 7.529 11.799 10.168 24.477 6.143 38.402-1.078 3.727-.993 8.642.542 12.141 15.318 34.892 19.266 71.918 20.792 109.336 2.264 55.49 5.877 110.834 13.478 165.899 7.264 52.625-67.271 129.226-34.327 170.294 24.243 30.22-546.597 221.303-501.999 144z" fill="#132646" data-color="2"/>
        <path d="M1066.447 3264.774c-44.621-26.871-89.737-52.965-133.68-80.901-26.992-17.16-52.449-36.795-78.141-55.929-50.363-37.508-83.725-87.243-103.968-146.293-14.637-42.7-44.878-76.764-60.77-120.186-18.834-51.459-31.863-104.938-40.165-159.072-21.984-143.355-7.608-287 10.258-429.908 8.364-66.903 18.65-133.564 27.312-200.432 5.956-45.979 16.573-91.303 27.304-136.361 1.328-5.577 2.89-11.1 4.423-16.626 10.687-38.514 33.354-66.605 69.502-84.91 40.243-20.379 82.009-36.757 124.225-52.248 98.772-36.245 270.81-71.73 371.909-101.065 69.527-20.174 140.215-35.05 212.471-40.458 29-2.171 58.332-.69 87.482.169 27.249.803 54.441 3.664 81.689 4.291 15.214.351 30.504-1.844 45.737-3.159 103.763-8.958 206.252-3.361 307.507 23.173 90.749 23.781 180.3 51.114 268.705 82.448 43.235 15.324 77.675 41.118 106.628 76.847 44.996 55.526 75.228 118.264 99.593 184.734 44.156 120.467 78.888 243.811 114.128 367.027 35.288 123.386 63.335 248.364 82.487 375.266 8.212 54.412 14.711 109.108 15.376 164.21.96 79.655-14.348 157.014-36.033 233.186-9.812 34.466-21.739 68.328-32.588 102.501-1.413 4.45-2.118 9.125-3.151 13.696h-1568.24z" fill="#9FADC1" data-color="3"/>
        <path d="M1666.745 3264.774c-6.242-23.039-12.407-46.1-18.739-69.115-38.313-139.26-77.614-278.257-114.742-417.832-39.218-147.431-77.53-295.125-114.004-443.255-21.717-88.2-38.259-177.661-58.703-266.19-24.75-107.174-51.441-213.899-76.611-320.978-4.659-19.823-6.091-40.404-9.263-62.371 40.822-14.118 79.992-27.879 119.331-41.138 11.758-3.963 24.009-2.005 35.191 2.292 6.734 2.587 12.601 2.711 19.332 1.526 41.912-7.379 83.862-14.552 125.823-21.652 11.297-1.911 22.394-3.529 33.543 2.429 4.654 2.487 11.199 2.15 16.845 1.958 66.319-2.263 131.8 6.399 197.351 14.508 8.233 1.018 11.234 5.574 13.881 12.164 18.365 45.713 36.654 91.459 55.422 137.007 32.801 79.602 66.192 158.961 98.824 238.631 20.847 50.899 41.666 101.845 60.699 153.433 8.22 22.28 12.672 46.074 17.507 69.456 22.856 110.531 46.152 220.984 67.509 331.808 15.475 80.301 28.169 161.137 42.088 241.737 23.605 136.684 47.208 273.369 70.774 410.06 1.462 8.478 2.592 17.013 3.877 25.521l-585.935.001z" fill="#FFFFFF" data-color="4"/>
        <path fill="#9FADC1" d="m1354 1568-113 100 8 471 105-48-47 92 315 980 133-17-295.258-1161.889L1354 1568z" data-color="3"/>
        <path opacity=".2" d="m1354 1568-113 100 8 471 105-48-47 92 315 980 133-17-295.258-1161.889L1354 1568z"/>
        <path fill="#9FADC1" d="m1695 1548 127 45 206 327-101-20 94 95 82 994-49 10-359-1451z" data-color="3"/>
        <path opacity=".2" d="m1695 1548 127 45 206 327-101-20 94 95 82 994-49 10-359-1451z"/>
        <path d="M1095.17 3264.774c.172-9.067.541-18.136.484-27.201-.28-44.029-1.167-88.06-.835-132.083.184-24.373 2.543-48.723 3.491-73.1.294-7.562 3.713-12.241 9.664-16.35 28.269-19.518 59.427-30.487 93.726-32.419 4.746-.268 9.519-.037 14.566-.037 1.276-2.059 2.312-3.553 3.171-5.142 8.993-16.653 19.046-22.201 37.362-19.475 29.803 4.435 59.691 8.519 89.28 14.136 119.832 22.749 238.588 50.45 356.726 80.628 142.684 36.448 284.944 74.554 427.483 111.577 84.687 21.997 169.579 43.203 254.318 64.998 12.012 3.09 23.706 7.438 35.508 11.324 12.302 4.05 22.047 11.263 27.88 23.146h-284.351c-2.59-.887-5.164-2.485-7.771-2.542-13.559-.298-27.129-.32-40.69-.12-2.05.03-4.075 1.732-6.111 2.661h-166.59c-3.939-.958-7.877-2.745-11.817-2.752-95.116-.156-190.233-.152-285.349-.002-3.389.005-6.776 1.795-10.163 2.754l-539.982-.001z" fill="#FF8966" data-color="5"/>
        <path d="M1635.15 3264.774c3.388-.958 6.774-2.749 10.163-2.754 95.116-.15 190.233-.154 285.349.002 3.941.007 7.878 1.794 11.817 2.752H1635.15z" fill="#FFFFFF" data-color="4"/>
        <path d="M2109.069 3264.774c2.037-.929 4.062-2.631 6.111-2.661 13.561-.2 27.13-.178 40.69.12 2.608.057 5.182 1.655 7.771 2.542l-54.572-.001z" fill="#FFFFFF" data-color="4"/>
        <path d="M1369.556 1380.168c1.318-3.013 2.619-6.033 3.957-9.038 7.139-16.033 19.696-24.817 37.021-24.841 16.687-.024 33.452 1.022 50.05 2.823 53.911 5.848 106.791 16.706 157.261 36.957 17.661 7.086 34.457 16.473 51.243 25.559 16.872 9.132 27.337 23.739 31.721 42.351 3.286 13.948 5.059 28.281 8.845 42.075 7.997 29.134 4.397 58.906 5.274 88.325 1.625 54.485.935 109.036 1.548 163.556.091 8.118-2.172 12.824-9.94 16.582-79.804 38.608-160.813 42.035-243.075 8.878-25.474-10.268-48.491-24.699-68.464-43.835-12.309-11.794-49.672-25.893-51.778-42.826-7.728-62.133-9.347-124.154-17.074-186.287-4.954-39.837-15.909-79.797-20.367-119.696-.742-6.644 29.195-13.251 28.35-19.884-1.319-10.355 2.63-17.234 10.747-18.85 8.009-1.595 14.707 3.136 17.347 13.28 2.125 8.163 3.276 16.58 4.86 24.885.824-.006 1.649-.01 2.474-.014z" fill="#FF8966" data-color="5"/>
        <path d="M1100.914 3264.774c-6.872-4.263-13.495-9.013-20.671-12.682-12.69-6.487-17.282-16.887-17.119-30.536.205-17.216-.059-34.44-.253-51.659-.23-20.465-.423-20.352-20.047-23.725-46.452-7.985-87.995-25.881-120.495-61.261-19.649-21.391-32.538-46.201-34.37-75.583-2.392-38.354 13.084-68.951 43.108-92.139 27.398-21.16 59.247-30.485 93.408-32.705 6.675-.434 13.386-.303 20.077-.519 12.609-.407 14.198-1.907 14.983-13.882 1.367-20.842 1.369-20.683 22.586-20.939 94.699-1.144 189.398-2.308 284.095-3.637 29.829-.418 23.921 3.333 23.811 24.321-.596 114.325-1.851 228.657-1.042 342.973.182 25.702-9.471 40.549-31.761 49.64-1.288.525-2.374 1.546-3.554 2.336-84.251-.003-168.504-.003-252.756-.003zm-39.088-248.573h-1.513c0-24.404.239-48.812-.099-73.211-.173-12.497-2.863-15.113-15.379-15.663-22.758-.999-44.914 2.208-65.894 11.479-54.059 23.889-64.363 75.829-23.384 118.345 23.737 24.627 53.361 38.359 86.447 45.179 16.938 3.492 19.74 1.161 19.802-15.787.085-23.446.02-46.894.02-70.342z" fill="#FFFFFF" data-color="4"/>
        <path d="M1605.899 1546.345c8.389-12.503 20.1-18.156 33.232-19.597 27.561-3.025 55.242-4.962 82.882-7.248 1.266-.104 2.611.744 4.605 1.361-.73 1.927-.885 4.495-2.069 5.125-10.448 5.553-10.077 15.274-9.784 24.83.469 15.3 1.379 30.587 1.878 45.886.262 8.013.046 16.041.046 23.528-3.237 1.131-4.562 2.015-5.868 1.989-40.645-.807-81.387-.278-121.421-9.264-44.922-10.082-84.291-30.294-117.514-62.532-29.653-28.774-57.859-58.778-78.226-94.967-10.742-19.087-19.83-39.21-28.289-59.441-6.715-16.059-.027-32.033 14.191-38.937 14.322-6.954 30.212-1.976 39.877 12.529 1.059 1.589 2.15 3.21 2.873 4.962 15.846 38.367 42.786 68.894 70.281 98.944 10.649 11.639 21.906 22.779 33.486 33.497 22.33 20.671 49.17 32.51 79.82 39.335z" opacity=".2"/>
        <path d="M1300.019 1282.227c2.66-27.907 4.203-53.611 7.713-79.043 8.363-60.594 14.465-121.584 28.603-181.245 3.958-16.701 9.238-33.161 14.978-49.354 23.58-66.516 70.341-107.769 138.302-125.539 100.297-26.225 204.468 5.092 272.535 92.74 23.564 30.343 35.763 65.523 39.144 103.262 2.554 28.513 3.278 57.35 2.44 85.973-1.603 54.734.885 108.799 13.145 162.497 6.918 30.3 4.678 61.496-7.911 90.197-19.573 44.622-40.94 88.463-61.987 132.425-3.885 8.114-9.315 15.664-14.975 22.718-13.698 17.071-30.675 27.2-53.689 22.891-7.037-1.318-14.338-1.606-21.171-3.57-56.96-16.374-114.023-32.436-170.624-49.983-15.738-4.879-30.72-13.298-44.854-22.029-31.771-19.625-62.218-41.256-89.447-67.005-5.868-5.549-12.078-8.5-20.233-9.023-25.795-1.655-51.445-4.397-76.154-12.82-28.43-9.691-53.14-24.217-67.947-51.658-11.891-22.036-18.063-45.084-12.53-70.396 5.216-23.863 19.528-34.288 43.59-30.18 24.998 4.268 47.141 15.344 67.76 29.741 3.873 2.705 7.718 5.449 13.312 9.401z" fill="#FF8966" data-color="5"/>
        <path d="M1545.978 2055.726c11.878-121.493 24.311-248.599 36.73-375.707 5.861-59.984 11.664-119.973 17.607-179.948.466-4.708 1.179-9.58 2.894-13.936 3.901-9.901 13.704-15.319 24.135-14.144 10.367 1.168 18.476 8.781 19.923 19.509.63 4.676.349 9.555-.104 14.285a232816.05 232816.05 0 0 1-24.814 257.101c-7.203 74.27-14.461 148.534-21.684 222.801-2.963 30.469-5.865 60.944-8.898 91.406-.328 3.291-.724 6.819-2.149 9.715a1142.376 1142.376 0 0 1-20.376 39.522c-1.155 2.134-4.159 4.624-6.201 4.533-1.978-.088-4.98-2.993-5.537-5.171-5.415-21.162-14.648-41.662-11.526-69.966z" fill="#674D5A" data-color="1"/>
        <path d="M1538.073 1150.869c4.336 1.214 10.897 2.517 17.018 4.933 5.01 1.978 9.212 5.725 8.347 11.977-.897 6.486-6.286 8.027-11.622 8.681-8.06.988-16.197 1.328-24.277 2.18-29.193 3.08-56.909 12.237-84.764 20.8-1.82.559-3.632 2.198-5.292 2.004-3.449-.402-7.985-.65-9.923-2.853-3.627-4.125-.38-7.925 3.284-10.72 1.509-1.152 3.194-2.109 4.891-2.973 29.09-14.813 59.304-26.495 91.48-32.654 2.806-.537 5.677-.731 10.858-1.375z" fill="#132646" data-color="2"/>
        <path d="M1762.22 1102.729c11.594 1.16 22.511 1.906 33.282 3.593 2.458.385 6.025 3.938 6.142 6.186.122 2.343-2.88 5.526-5.315 7.126-2.21 1.452-5.5 1.239-8.303 1.814-28.52 5.853-57.038 11.716-85.556 17.58-.936.192-1.858.452-2.795.635-6.393 1.245-12.645 1.691-16.052-5.45-2.693-5.643.079-12.064 8.328-15.916 8.585-4.009 17.653-7.591 26.894-9.448 14.474-2.909 29.272-4.212 43.375-6.12z" fill="#132646" data-color="2"/>
        <path d="M1650.973 1401.357c-11.806-1.646-21.219-2.901-30.609-4.318-1.855-.28-3.671-1.06-5.41-1.825-7.878-3.468-12.362-9.156-9.962-13.514 3.923-7.123 9.483-3.174 14.932-1.695 28.645 7.774 56.608 5.01 83.913-6.149 4.842-1.979 9.608-4.196 14.566-5.824 3.969-1.303 8.346-.653 9.08 4.013.401 2.548-1.47 6.928-3.629 8.139-7.865 4.408-15.95 9.123-24.565 11.345-16.519 4.262-33.457 6.895-48.316 9.828z" opacity=".2"/>
        <path fill="#FFFFFF" d="m1598.548 1807.781-138.806 176.33L1380 1721l218.548 86.781z" data-color="4"/>
        <path opacity=".1" d="m1598.548 1807.781-138.806 176.33L1380 1721l218.548 86.781z"/>
        <path fill="#FFFFFF" d="m1716.644 1596.702 79.24 271.106-142.26-56.095 63.02-215.011z" data-color="4"/>
        <path opacity=".1" d="m1716.644 1596.702 79.24 271.106-142.26-56.095 63.02-215.011z"/>
        <path d="M1658.475 1294.503c-14.155-20.154-21.024-41.843-24.488-64.713-.848-5.597-1.291-11.46-.495-16.996.307-2.133 4.428-4.74 7.108-5.14 1.725-.258 5.064 2.751 5.792 4.927 1.489 4.456 1.716 9.336 2.446 14.044 3.405 21.968 9.463 42.81 24.39 60.165 3.885 4.517 6.831 10.946 2.155 15.554-4.759 4.689-11.448 8.374-17.928 10.071-5.587 1.463-8.765-5.356-5.461-10.847 1.422-2.366 3.774-4.174 6.481-7.065z" opacity=".2"/>
        <path fill="#674D5A" d="M1631.627 1820.935 1714 2901l183.14 202.496L1966 2777l-334.373-956.065z" data-color="1"/>
        <path d="M1709.498 1182.811c.046-13.391 5.848-20.722 15.299-22.035 8.801-1.223 16.581 3.698 19.328 13.307 1.686 5.895 2.647 12.192 2.692 18.318.072 9.791-6.274 16.73-15.124 17.937-8.29 1.13-15.898-3.297-18.842-12.017-1.964-5.815-2.64-12.063-3.353-15.51z"/>
        <path d="M1556.607 1240.248c-.17 12.617-6.325 20.076-15.744 21.155-8.788 1.006-16.416-4.061-19.084-13.74-1.632-5.92-2.592-12.212-2.623-18.343-.048-9.646 6.491-16.474 15.528-17.556 8.34-.998 15.822 3.521 18.658 12.33 1.883 5.848 2.483 12.108 3.265 16.154z"/>
        <path d="M1522.373 1946.767c-10.491-12.175-5.817-25.132 2.389-38.09 1.929-3.045 4.395-6.829 4.086-10.03-1.621-16.833 6.105-30.91 13.563-44.573 3.298-6.042 10.626-11.685 17.293-13.765 23.688-7.391 47.754-13.702 71.923-19.373 15.784-3.703 30.322.485 42.798 11.244 5.042 4.349 10.418 8.31 17.135 13.631-.095-8.9-3.727-13.708-9.558-17.253-9.402-5.717-18.66-11.721-28.379-16.845-4.04-2.13-9.056-2.777-13.717-3.297-24.72-2.759-49.445-5.523-74.216-7.76-15.33-1.385-28.516-7.666-40.989-15.969-9.344-6.22-12.44-13.251-9.953-21.633 2.289-7.715 8.155-11.869 19.315-11.344 41.087 1.933 82.177 3.963 123.209 6.788 19.054 1.312 38.021 4.231 56.935 7.043 7.506 1.116 14.871 3.593 22.107 6.023 10.905 3.662 18.977 10.918 24.386 21.068 29.469 55.301 58.923 110.61 88.366 165.925 1.348 2.532 2.858 5.044 3.75 7.744 8.408 25.472 24.377 46.081 41.322 66.33 114.877 137.28 231.571 272.919 354.665 402.999 51.296 54.207 100.046 110.817 150.204 166.107 24.434 26.934 49.747 53.071 74.125 80.054 44.092 48.805 84.295 100.476 112.964 160.146 11.002 22.898 21.459 46.283 19.782 72.607-3.289 51.639-21.181 97.852-53.314 138.372-3.376 4.257-8.75 7.446-13.823 9.76-48.277 22.019-96.789 43.525-144.957 65.776-7.395 3.416-13.418 3.234-20.322.192-15.61-6.877-28.233-17.711-40.548-29.206-5.47-5.106-11.832-9.645-18.514-12.992-17.48-8.756-31.758-21.25-44.373-35.84-34.24-39.603-63.044-82.994-89.419-128.116-27.784-47.531-53.02-96.35-77.397-145.72-22.439-45.445-47.2-89.765-71.641-134.193-33.496-60.887-60.604-124.749-89.118-187.978-34.019-75.438-68.047-150.878-103-225.884-9.863-21.165-23.012-40.794-34.593-61.163-4.036-7.098-9.585-11.638-18.054-12.427-3.768-.351-7.424-1.813-11.158-2.65-43.604-9.774-79.781-31.449-107.484-66.827-7.079-9.04-13.812-18.477-21.822-26.633-12.68-12.912-25.894-25.387-39.737-37.029-5.237-4.404-12.627-6.766-19.423-8.693-15.174-4.304-30.598-7.728-45.909-11.551-19.324-4.825-24.48-11.377-23.344-31.364.396-6.984 2.547-13.869 4.445-23.611z" fill="#FF8966" data-color="5"/>
        <path d="M1577.42 907.907c23.5 46.599 24.065 93.748 3.734 141.218-11.743 27.418-31.814 52.813-46.626 58.811.191-3.041-.521-6.081.665-7.84 3.194-4.732 7.246-8.879 10.875-13.325 34.83-42.683 48.494-90.624 34.503-144.733-2.938-11.364-9.021-21.987-14.291-32.637-1.966-3.972-5.751-7.044-10.376-12.493 7.048 58.079-9.774 107.019-40.772 151.263-41.888 59.788-95.483 106.848-160.8 139.868-10.609 5.363-17.698 12.137-21.347 23.289-6.24 19.069 53.508 126.686 47.015 145.672-1.237 3.618-68.582-81.306-70.207-77.872-2.299 4.861-6.19 7.788-11.576 4.926-8.846-4.7-17.698-9.515-25.92-15.19-2.646-1.826-4.188-6.381-4.733-9.918-1.962-12.738-4.068-25.536-4.713-38.381-3.043-60.612 1.584-120.376 20.602-178.513 21.028-64.281 59.995-115.94 111.383-158.788 63.578-53.013 136.12-88.304 216.458-107.611 63.463-15.252 114.922 5.719 156.12 54.193 22.366 26.315 36.371 56.98 42.894 91.149 8.598 45.042 11.438 90.092 2.958 135.446-.702 3.756-1.572 7.483-2.465 11.199-.547 2.274-1.287 4.501-2.491 8.642-23.177 3.702-46.646 7.673-70.193 11.109-10.385 1.515-20.919 2.527-31.404 2.709-12.051.209-15.216-3.089-13.144-14.521 2.414-13.318.525-25.843-4.704-37.84-8.774-20.131-17.417-40.388-27.591-59.819-9.841-18.795-24.788-33.732-42.541-46.32 1.417 2.659 2.672 5.421 4.276 7.962 16.663 26.405 26.622 55.02 28.068 86.319 1.071 23.185-5.824 44.368-17.604 64.051-1.124 1.878-4.194 2.59-8.896 2.313 1.009-3.791 1.326-7.953 3.131-11.317 23.049-42.941 14.908-84.512-6.795-124.572-8.086-14.925-20.067-27.78-30.641-41.29-2.827-3.612-7.017-6.158-10.581-9.193l-2.271 2.034z" fill="#132646" data-color="2"/>
        <path d="M1511.644 3264.774v-56.803h374.571c5.426-18.623 10.18-36 15.543-53.185 86.66-277.706 173.785-555.268 259.759-833.186 15.538-50.228 49.744-76.459 98.024-88.079 11.912-2.867 24.666-3.079 37.033-3.087 264.668-.164 529.337-.125 794.006-.125 94.764 0 189.528-.119 284.291.165 11.378.034 23.096.915 34.06 3.727 32.46 8.326 55.645 36.622 42.7 77.142-31.306 97.995-61.555 196.327-92.219 294.526-58.904 188.634-118.3 377.117-176.358 566.011-14.891 48.448-47.725 75.247-94.309 86.467-19.631 4.729-40.827 2.897-61.299 4.242-5.522.362-10.998 1.438-16.495 2.186l-1499.307-.001z" fill="#132646" data-color="2"/>
        <path fill="#132646" d="M3507.848 3261.901v23.373H492v-23.373h3015.848z" data-color="2"/>
    </g>
</svg>
