<?xml version="1.0" encoding="UTF-8"?>
<svg data-bbox="52.217 14.141 95.636 171.719" viewBox="0 0 200.001 200.001" height="266.668" width="266.668" xmlns="http://www.w3.org/2000/svg" data-type="color">
    <g>
        <path fill="#cea23e" d="M59.945 99.6a.715.715 0 0 0 .601-1.099c-.031-.049-3.109-4.901-3.984-9.225-.885-4.376.795-47.237.812-47.669a.714.714 0 1 0-1.428-.056c-.07 1.773-1.704 43.466-.785 48.009.928 4.589 4.048 9.505 4.181 9.712.136.213.367.33.603.33z" data-color="1"/>
        <path fill="#cea23e" d="M57.137 100.51a.714.714 0 0 0 .71-.801L56.186 86.2l-3.941 11.774a.715.715 0 0 0 1.355.453l1.938-5.789.891 7.245a.715.715 0 0 0 .708.627" data-color="1"/>
        <path fill="#cea23e" d="M56.138 101.714h.017a.714.714 0 0 0 .697-.731L56.576 89.4l-1.426-.048-.931 10.181a.715.715 0 0 0 1.183.603l.021.881a.714.714 0 0 0 .714.697z" data-color="1"/>
        <path fill="#f2c04c" d="M57.815 87.913a2.007 2.007 0 1 1-4.014 0 2.007 2.007 0 0 1 4.014 0" data-color="2"/>
        <path fill="#435968" d="m55.648 41.202 2.051-4.632s25.232-7.32 38.471-10.903c11.887-3.217 37.381-11.526 37.381-11.526l14.302 61.734-58.918 13.459-33.288-48.132Z" data-color="3"/>
        <path opacity=".5" d="m132.637 18.534 15.155 57.256-58.793 13.483-33.35-48.071s20.802-5.229 40.677-11.485c9.371-2.95 36.311-11.183 36.311-11.183"/>
        <path fill="#364f62" d="m86.256 65.269.988-12.591s5.529-8.136 20.415-7.807c16.333.361 18.704 5 18.704 5l1.467 10.614z" data-color="4"/>
        <path fill="#1f3444" d="M86.372 65.214c1.144 7.394 39.688 9.343 41.392-4.195 1.085-8.623-43.267-7.915-41.392 4.195" data-color="5"/>
        <path fill="#354252" d="M86.179 65.244c-.339-2.187.735-4.12 3.191-5.743 3.766-2.49 10.832-4.144 18.901-4.424 7.755-.269 14.538.786 17.702 2.751 1.471.914 2.139 1.995 1.985 3.215-.913 7.257-11.91 9.994-21.898 10.135q-.4.006-.8.006c-9.065 0-18.498-2.169-19.082-5.94zm3.408-5.416c-2.317 1.532-3.333 3.334-3.02 5.357.501 3.235 9.241 5.749 19.489 5.603 9.823-.139 20.633-2.785 21.515-9.793.133-1.054-.474-2.008-1.804-2.834-2.882-1.79-8.802-2.72-15.194-2.72-7.89 0-16.498 1.418-20.987 4.387Z" data-color="6"/>
        <path opacity=".8" d="M105.519 66.431c3.322 0 6.49-.5 9.261-1.485 4.068-1.446 6.765-3.783 7.214-6.251a.437.437 0 1 0-.86-.156c-.386 2.124-2.933 4.264-6.647 5.584-4.313 1.533-9.634 1.85-14.984.892a.437.437 0 1 0-.154.86c2.077.372 4.152.557 6.17.557Z"/>
        <path fill="#cea23e" d="M119.08 109.307c.251 2.886-19.862 3.724-19.034.414s18.758-3.586 19.034-.414" data-color="1"/>
        <path fill="#b27e76" d="M118.648 70.049s5.092 19.874 4.204 22.655-5.204 9.679-5.204 9.679l-1.976 6.658s-6.54 2.252-13.193-.201l-.094-6.614s-4.738-5.487-5.006-7.302c-.268-1.816-.065-7.586-.065-7.586l17.669-4.065s.994-3.331.374-9c-.421-3.848 3.292-4.225 3.292-4.225Z" data-color="7"/>
        <path fill="#b27e76" d="M98.208 185.582h23.575c-1.677-24.221-3.975-72.551-4.429-82.207-.05-1.103-.079-1.701-.079-1.701-.114-.024-14.547-.352-14.547-.352l-.284 5.045v.013l-.116 2.02-4.121 77.18Z" data-color="7"/>
        <path opacity=".4" d="M114.982 83.274s-4.382 5.547-5.272 9.069l-1.058-3.02-11.338-.231v-1.754z"/>
        <path opacity=".4" d="m118.868 70.721-1.305.621s.373 2.759.746 3.241 1.461 0 1.461 0z"/>
        <path fill="#cea23e" d="M92.186 185.86h32.688s.828-6.207 0-8.277c-.828-2.068-.828-3.311-.828-5.379s.828-3.311-.415-4.138c-1.24-.828-1.24-9.517-1.24-12.826 0-3.258-3.208-44.61-3.309-45.901.017.478-.529.902-1.448 1.256-4.387 1.697-17.272 1.861-17.606-.579-.256 4.372-3.326 56.499-4.119 58.877-.828 2.483-1.655 1.655-1.655 4.138v4.138c0 2.068-1.655 2.068-1.655 3.723s-.413 4.966-.413 4.966z" data-color="1"/>
        <path opacity=".4" d="m121.665 182.136-4.073 3.723h7.281s.828-6.207 0-8.277c-.828-2.068-.828-3.311-.828-5.379s.828-3.311-.415-4.138c-1.24-.828-1.24-9.517-1.24-12.826 0-3.258-3.208-44.61-3.309-45.901.017.478-.529.902-1.448 1.256-1.426 5.752.406 14.357.559 18.576.336 9.314.684 18.628 1.031 27.943l.19 5.134c.083 2.18.312 4.66 2.055 5.969-1.433.116-2.776 1.035-3.4 2.33 1.247-1.068 3.352.432 3.298 2.075-.057 1.64-1.463 2.922-2.933 3.656.328 1.079 1.498 1.607 2.47 2.18.974.57 1.952 1.629 1.557 2.684-.151.402-.478.708-.795.996Z"/>
    </g>
</svg>
