<?xml version="1.0" encoding="UTF-8"?>
<svg data-bbox="60 19.999 80 160.003" viewBox="0 0 200 200" height="200" width="200" xmlns="http://www.w3.org/2000/svg" data-type="color">
    <g>
        <path d="M115.385 65.082s10.687-2.702 15.197 6.766c1.672 3.509 1.944 6.035 3.74 17.243 1.796 11.207 1.437 23.57.67 28.539-.766 4.969-10.056 8.016-10.056 8.016l-9.551-60.564z" fill="#EBCFA9" data-color="1"/>
        <path d="M82.112 63.45s-1.101.236-1.054-1.669c.062-2.467 2.912-3.454 4.87-4.094 2.619-.856 5.172-2.158 7.897-2.619 3.113-.526 6.402-.426 9.545-.343 4.87.129 13.966-.089 15.038 6.153.367 2.139-2.207 3.516-2.341 4.381-.135.866-33.955-1.809-33.955-1.809z" fill="#AB5855" data-color="2"/>
        <path d="M66.148 154.283s-1.373.403-1.692.297c-.319-.106-4.623-19.123-4.451-19.346.172-.222 2.567-.698 2.567-.698l3.576 19.747z" fill="#A5B1C7" data-color="3"/>
        <path fill="#FFFFFF" d="m66.403 153.679-1.692.331-4.15-18.205 2.203-.685 3.639 18.559z" data-color="4"/>
        <path d="M79.342 63.848s-6.474 3.221-7.288 10.269c-.66 5.716-1.422 30.109-1.813 33.389-.39 3.28-1.157 4.709-1.061 8.709.096 4 .192 7.239-.862 10.572-1.054 3.334-1.341 10.953-1.149 11.239s12.173 1.048 12.173 1.048V63.848z" fill="#AB5855" data-color="2"/>
        <path d="M78.315 130.106s-16.379 3.984-16.54 4.365c-.161.381 4.054 19.621 4.373 19.811.319.19 13.729-3.111 13.729-3.111l-1.562-21.065z" fill="#A5B1C7" data-color="3"/>
        <path d="M69.737 155.061c.388.141 1.13-.021 1.405-.365l.055-.036c.009-.006.01-.015.018-.022.684.714 2.008.576 2.328-.46.025-.081.034-.167.051-.251.481.319 1.14.127 1.543-.449.039-.056.064-.119.097-.178.44.388.977.749 1.52.372.392-.272.375-.961.347-1.385a5.187 5.187 0 0 0-.348-1.596c-.131-.33-.265-.824-.665-.92-.377-.091-.872.072-1.022.449-.045-.206-.712-2.344-1.419-2.437-.829-.109-1.185.513-1.301 1.175-.344-.447-.82-.691-1.356-.065-.398.465-.489 1.147-.431 1.845-.447-.688-.99-1.07-1.454-.684-.89.739-.421 2.75-.175 3.635.14.501.246 1.168.807 1.372z" fill="#FFA680" data-color="5"/>
        <path d="M75.408 153.158a.191.191 0 0 1-.19-.167l-.315-2.482a.192.192 0 0 1 .38-.048l.315 2.482a.191.191 0 0 1-.19.215z" opacity=".2"/>
        <path d="M73.546 153.696a.19.19 0 0 1-.186-.147l-.966-4.111a.192.192 0 0 1 .373-.087l.966 4.111a.19.19 0 0 1-.187.234z" opacity=".2"/>
        <path d="M71.304 154.424a.191.191 0 0 1-.188-.154l-.569-2.877a.192.192 0 0 1 .376-.074l.569 2.877a.192.192 0 0 1-.188.228z" opacity=".2"/>
        <path d="M87.793 60.426s-8.203 2.231-10.375 5.024c-2.171 2.794-3.289 13.688-3.161 21.258.128 7.57-5.619 48.335-3.576 49.351 2.043 1.016 14.022-.127 14.29 0 .269.127 3.321-28.608 3.455-30.242.135-1.634-.633-45.391-.633-45.391z" fill="#AB5855" data-color="2"/>
        <path d="M122.031 180h-18.425c-.697-1.741-1.387-3.848-1.506-5.589a11.512 11.512 0 0 0-.161-1.227 7.889 7.889 0 0 0-.069-.385c-.552-2.96-1.946-7.715-2.897-10.82l-.134-.442c-.487-1.573-.828-2.621-.828-2.621l.138 2.652.023.442.575 11.014.019.385.346 6.591H78.913a193.753 193.753 0 0 1-.598-5.734l-.034-.377c-.134-1.684-.222-3.238-.192-4.305.038-1.417-.057-3.814-.195-6.488-.004-.13-.011-.259-.019-.389-.23-4.438-.552-9.536-.552-12.172 0-.671-.023-1.634-.057-2.785l-.011-.381c-.103-3.071-.303-7.303-.475-10.839l-.023-.389c-.176-3.551-.326-6.305-.326-6.305s1.621-1.916 3.732-4.324c.188-.21.375-.427.567-.644 2.908-3.292 6.502-7.231 8.172-8.511a3.598 3.598 0 0 1 .555-.362c1.123-.526 6.854-.541 12.345-.331.126.008.257.011.383.015 4.981.202 9.666.591 10.387.949 1.533.762 6.923 2.065 7.758 7.399.33 2.103.697 4.709.973 7.715l.034.389c.31 3.532.494 7.593.345 12.02a90.655 90.655 0 0 1-.203 3.867c-.138 1.817-.153 5.117-.103 8.984a769.73 769.73 0 0 0 .33 13.841l.011.377c.115 3.503.229 6.639.314 8.78z" fill="#FFD191" data-color="6"/>
        <path d="M116.284 171.839c1.808-.202 3.621-.423 5.433-.621l-.011-.377c-.977.107-1.946.221-2.912.331-1.126.13-2.253.255-3.379.377-.552-1.985-1.046-3.985-1.291-6.05a86.721 86.721 0 0 1-.464-5.909c2.329-.659 4.644-1.379 6.981-2.008.245-.065.49-.13.739-.194-.004-.13-.004-.259-.004-.389-2.594.667-5.169 1.471-7.736 2.202-.138-2.964-.199-5.939-.372-8.888-.1-1.737-.211-3.471-.329-5.208a43.3 43.3 0 0 0 3.437.046c1.782-.057 3.548-.293 5.295-.613.008-.13.011-.259.011-.389-1.169.221-2.341.4-3.525.511-1.747.164-3.498.141-5.245.061-.23-3.288-.49-6.576-.785-9.856a366.402 366.402 0 0 0-.391-4.084c.295.004.59.004.885.019 2.188.103 4.291.556 6.429.987.762.156 1.525.278 2.287.343l-.034-.389a23.145 23.145 0 0 1-2.498-.392c-2.391-.499-4.732-.823-7.099-.899a477.668 477.668 0 0 0-1.51-13.239c-.031-.24-.414-.244-.383 0 .563 4.4 1.061 8.812 1.506 13.228a32.333 32.333 0 0 0-4.222.175 55.391 55.391 0 0 0-4.211.644c-.353-5.189-.54-10.386-.701-15.578-.027-.827-.05-1.65-.077-2.476-.008-.244-.391-.244-.383 0 .027.819.05 1.642.077 2.461.161 5.223.349 10.45.709 15.666-4.578.891-9.061 2.236-13.609 3.269a149.372 149.372 0 0 1-.107-4.537 161.143 161.143 0 0 1 .697-16.119c.023-.244-.36-.24-.383 0a162.477 162.477 0 0 0-.59 20.744 68.07 68.07 0 0 1-4.973.937c-1.326.19-2.659.305-3.996.385-.103-3.756.18-7.517 1.18-11.14.146-.541.31-1.078.494-1.612.077-.236-.291-.335-.372-.103a29.45 29.45 0 0 0-.69 2.358c-.854 3.448-1.073 6.976-.977 10.519-.808.046-1.621.08-2.429.11l.023.389c.805-.03 1.613-.061 2.418-.107.123 3.616.563 7.242 1.004 10.812.004.042.011.08.015.122-.989.023-1.973.027-2.962.011l.011.381c1 .015 1.996.011 2.996-.011.494 4.065.908 8.123 1.054 12.218.027.754.042 1.509.061 2.263a49.21 49.21 0 0 0-3.502.488c.008.13.015.259.019.389a48.88 48.88 0 0 1 3.49-.488c.077 3.429.084 6.858.18 10.283.008.309.019.621.031.93-1.103.027-2.211.05-3.314.069l.034.377c1.096-.019 2.195-.042 3.291-.069.073 1.935.18 3.875.352 5.802h.383a109.487 109.487 0 0 1-.345-5.814c2.115-.053 4.23-.122 6.345-.21.207 2.019.51 4.023.862 6.023h.383a87.056 87.056 0 0 1-.866-6.042c3.349-.141 6.697-.32 10.046-.549l-.019-.385a374.74 374.74 0 0 1-9.245.526c-.272.011-.548.019-.82.03a58.08 58.08 0 0 1-.142-1.612c-.165-2.339-.188-4.69.011-7.025.08-.926.203-1.844.341-2.758 2.782-.061 5.567-.061 8.333-.141.314-.008.632-.019.946-.034l-.023-.442c-3.054.13-6.122.149-9.195.225.218-1.375.471-2.743.682-4.118.552-3.612.421-7.162.13-10.751 2.138-.305 4.268-.663 6.406-1.017 2.601-.431 5.184-.762 7.781-.922.057.396.119.796.18 1.196.778 4.869 2.111 9.685 2.655 14.592-2.636.419-5.287.636-7.95.766l.134.442c2.632-.118 5.26-.343 7.858-.781.054.526.1 1.048.134 1.577.195 3.208.015 6.416-.195 9.624a351.46 351.46 0 0 1-4.9.4c.027.133.05.259.069.385a409.19 409.19 0 0 0 4.805-.396c-.107 1.631-.222 3.261-.291 4.892a64.14 64.14 0 0 0-.057 2.32h.345c.019-2.404.192-4.827.36-7.242a399.06 399.06 0 0 0 8.004-.789c.54 1.874 1.138 3.734 1.59 5.635.188.796.349 1.592.483 2.396h.391c-.464-2.747-1.299-5.402-2.05-8.077.254-.028.511-.055.768-.086zm-36.705-34.974c-.004-.156-.011-.309-.015-.465a46.923 46.923 0 0 0 3.015-.267c2.004-.248 3.985-.621 5.95-1.059.096 2.518.249 5.033.467 7.543.111 1.333.241 2.659.356 3.985-1.513.213-3.027.4-4.552.526-1.402.11-2.801.183-4.203.221-.431-3.485-.864-6.975-1.018-10.484zm8.701 26.97c-.268 2.332-.306 4.682-.188 7.021.046.918.123 1.829.211 2.739-2.107.088-4.214.16-6.322.213-.126-3.745-.13-7.498-.211-11.243 2.23-.221 4.479-.32 6.732-.373-.08.546-.156 1.094-.222 1.643zm1.043-6.625c-.226 1.535-.513 3.059-.755 4.591-.805.023-1.605.046-2.41.08a73.57 73.57 0 0 0-4.398.301c-.004-.248-.008-.499-.015-.747a133.689 133.689 0 0 0-.946-12.439c-.05-.423-.103-.846-.153-1.265a89.587 89.587 0 0 0 2.483-.103c2.1-.126 4.18-.362 6.257-.651.281 3.406.435 6.8-.063 10.233zm9.103-12.047c-2.904.434-5.789.964-8.689 1.387-.069-.811-.146-1.623-.222-2.438-.287-3.036-.483-6.08-.598-9.125 1.847-.415 3.682-.884 5.513-1.352 2.686-.686 5.379-1.383 8.103-1.92.307 4.317.732 8.622 1.364 12.904a58.32 58.32 0 0 0-5.471.544zm4.494-13.407c-.004-.038-.004-.076-.008-.114a54.46 54.46 0 0 1 3.682-.587 38.327 38.327 0 0 1 4.755-.286c.46 4.64.854 9.285 1.176 13.936l-1.092-.057a69.189 69.189 0 0 0-7.153-.05c-.628-4.258-1.057-8.544-1.36-12.842zm1.958 16.516a107.924 107.924 0 0 1-.54-3.315 50.997 50.997 0 0 1 5.448-.023c.923.05 1.843.107 2.766.152.077 1.112.153 2.229.222 3.341.222 3.619.318 7.25.506 10.873-.709.202-1.414.392-2.123.575a46.078 46.078 0 0 1-4.004.834c-.486-4.181-1.536-8.288-2.275-12.437zm2.249 24.097c.199-2.903.379-5.787.268-8.614a37.383 37.383 0 0 0-.195-2.617c.571-.103 1.138-.21 1.705-.331a76.151 76.151 0 0 0 4.395-1.112c.069 1.333.153 2.667.261 4 .199 2.412.586 4.785 1.218 7.124.069.259.146.518.218.777-2.621.281-5.246.537-7.87.773z" fill="#FFFFFF" data-color="4"/>
        <path d="M87.987 125.645c.192 0 16.858-2.032 21.583-2.286 4.725-.254 4.214-4.826 4.214-4.826s-9.962-2.857-11.813-2.476c-1.852.381-11.941 3.238-12.963 4.064-1.021.826-1.021 5.524-1.021 5.524z" fill="#A18BBC" data-color="7"/>
        <path d="M87.987 125.645c.192 0 16.858-2.032 21.583-2.286 4.725-.254 4.214-4.826 4.214-4.826s-9.962-2.857-11.813-2.476c-1.852.381-11.941 3.238-12.963 4.064-1.021.826-1.021 5.524-1.021 5.524z" opacity=".6"/>
        <path d="M90.126 125.845c-.309 0-.607-.104-.85-.3a1.343 1.343 0 0 1-.497-.907l-.302-2.833a1.354 1.354 0 0 1 1.207-1.485l6.595-.696c.36-.037.714.066.996.292.282.227.459.549.497.907l.302 2.834a1.349 1.349 0 0 1-1.207 1.485l-6.595.696a1.805 1.805 0 0 1-.146.007zm6.296-5.468a.468.468 0 0 0-.064.004l-6.595.696a.589.589 0 0 0-.525.647l.302 2.833a.582.582 0 0 0 .216.395.582.582 0 0 0 .434.127l6.595-.696a.589.589 0 0 0 .525-.647l-.302-2.834a.588.588 0 0 0-.586-.525z" fill="#FFFFFF" data-color="4"/>
        <path fill="#FFD191" d="m102.486 125.399-.766-6.032 1.141-.143.766 6.032-1.141.143z" data-color="6"/>
        <path d="m108.143 42.634-.004-.015c-.285-1.061-.59-2.06-.685-3.17-.077-.904-.085-1.774-.454-2.626-.487-1.125-.807-2.033-1.225-3.152-.245-.655-1.094-1.089-1.188-1.78a6.7 6.7 0 0 0-.491-1.794c-.523-1.19-1.443-2.184-2.665-2.676-.706-.285-2.259-.682-2.716.175-.115.216.215.409.331.192.412-.772 2.211-.067 2.704.204a4.475 4.475 0 0 1 1.592 1.501c.85 1.314.771 2.612.953 4.086a10.831 10.831 0 0 0-.836-.701c-.828-.65-2.073-1.018-2.722-1.835-.531-.668-.825-1.129-1.643-1.513-.878-.412-1.837-.613-2.798-.703-3.59-.337-7.999.239-10.637 2.91.348-.98.879-1.794 1.573-2.628.807-.969 2.485-3.345 3.981-2.532.216.118.41-.211.193-.329-1.176-.639-2.182.206-3.001 1.016-1.059 1.047-2.228 2.262-2.856 3.628-.438.951-.52 2.101-.936 3.076-.028.327-.601.153-.649.481-.237 1.611-1.062 2.908-1.802 4.27-.63 1.16-.47 2.519-.171 3.742.112.456.151.88.047 1.34-.098.434-.354.851-.103 1.29.237.415.802.47 1.278.527.81.097 1.601.342 2.325.716.321.166.637.473.971.591.415.147.86-.017 1.281-.033.493-.02.96.18 1.454.153 1.01-.055 1.99-.361 2.951-.654 1.117-.342 2.209-.644 3.366-.817.786-.118 1.522-.281 2.117-.794.449.715.795 1.375 1.76 1.451.914.072 1.224.514 2.118.41 1.795-.207 3.634.01 5.389-.504.62-.182.55-.592.692-1.118.211-.787.73-1.52.506-2.385z" fill="#4D3932" data-color="8"/>
        <path d="M100.508 29.529c-.111-.617-.704-1.032-1.228-1.312a4.852 4.852 0 0 0-.978-.382 3.165 3.165 0 0 1-1.047-.481.188.188 0 0 0-.193 0l-.05.031c-.209.129-.017.458.193.329-.199.123 1.145.532 1.187.546.561.18 1.372.531 1.657 1.106a.182.182 0 0 0 .023.224l.115.125c.141.151.353-.013.321-.186z" fill="#4D3932" data-color="8"/>
        <path d="M107.633 58.638c-4.416-.712-4.466-4.776-4.672-7.035-.201-2.204-.191-4.422-.167-6.634.039-.258.046-.528.006-.814-.029-.21-1.533.015-1.535.231l-.008.815c-.317 1.954-3.356 2.889-5.07 3.243-1.831.378-2.953.55-4.82.681a31.148 31.148 0 0 0-.252-1.921c-.04-.242-.417-.17-.376.072.104.623.184 1.249.249 1.875l-.09.006c-.245.017-.171.391.073.374l.059-.004c.071.79.111 1.583.111 2.379 0 2.082.477 5.044-.797 6.717-1.046 1.373-2.549 1.801-2.549 1.801s-1.407 2.412-.678 2.856a42.19 42.19 0 0 0 2.846 1.579c1.686.855 2.672 1.697 4.46 2.321 1.47.514 2.92-.239 4.289-.77 3.443-1.334 7.117-3.043 10.188-5.083.466-.309 1.253-1.883 1.253-1.883s-1.67-.669-2.52-.806z" fill="#FFA680" data-color="5"/>
        <path d="M89.296 50.592c1.372 1.912 4.693 3.099 7.016 2.357 2.326-.743 4.663-3.272 5.957-5.47 2.303-3.912 2.132-8.587 1.921-12.949-.142-2.934-.912-4.776-3.183-6.922-2.027-1.915-5.089-2.219-7.842-1.726-2.079.372-4.175 1.19-5.5 2.741-2.06 2.411-2.432 5.636-2.375 8.681.044 2.373.605 8.55 4.006 13.288z" fill="#FFA680" data-color="5"/>
        <path d="M89.033 38.468c-.866-.171-.72 1.903-.083 1.92a.526.526 0 0 0 .4-.199c.342-.402.34-1.591-.317-1.721z" opacity=".7"/>
        <path d="M98.383 37.846c-.826-.163-.687 1.815-.08 1.831a.501.501 0 0 0 .382-.19c.326-.384.325-1.517-.302-1.641z" opacity=".7"/>
        <path d="M94.677 45.213h-.009c-.072-.003-1.753-.092-1.864-1.195-.096-.959.147-3.993.157-4.121a.191.191 0 0 1 .382.03c-.003.031-.251 3.128-.158 4.053.078.777 1.486.852 1.5.853a.19.19 0 0 1-.008.38z" opacity=".2"/>
        <path d="M103.809 37.253s1.502-.942 1.873 1.614c.37 2.555-.403 4.318-1.674 4.439-1.272.121-1.642-1.864-1.642-1.864l1.443-4.189z" fill="#FFA680" data-color="5"/>
        <path d="M103.836 41.588a.191.191 0 0 1-.072-.368c-.001 0 .28-.154.335-.897.053-.725-.218-.87-.221-.872a.196.196 0 0 1-.094-.25.189.189 0 0 1 .24-.102c.055.021.532.235.457 1.251-.073.995-.524 1.202-.575 1.222a.156.156 0 0 1-.07.016z" opacity=".2"/>
        <path d="M94.209 53.263c-1.738 0-2.747-.69-2.797-.725a.19.19 0 0 1-.046-.265.193.193 0 0 1 .267-.047c.014.01 1.401.947 3.689.56 3.069-.522 5.502-3.183 5.527-3.21a.193.193 0 0 1 .271-.015.19.19 0 0 1 .015.269c-.102.113-2.544 2.786-5.747 3.331a7.031 7.031 0 0 1-1.179.102z" opacity=".2"/>
        <path d="M91.523 46.663s.934.024 2.826-.167c1.892-.19 2.921-.571 2.921-.571s-1.173 1.905-3.089 1.953c-1.916.047-2.658-1.215-2.658-1.215z" fill="#FFFFFF" data-color="4"/>
        <path d="M90.868 36.424a1.44 1.44 0 0 0-.39-.152c-.731-.162-1.557.04-2.268.211-.792.19-1.594.393-1.958 1.184-.053.114.006.306.165.287l2.585-.319c.551-.068 1.434-.014 1.946-.294.561-.306.31-.695-.08-.917z" fill="#4D3932" data-color="8"/>
        <path d="M96.574 37.077c.56.163 1.411-.078 1.964-.13l2.594-.242c.16-.015.176-.215.099-.315-.527-.694-1.353-.721-2.169-.737-.732-.015-1.582-.035-2.261.28-.12.056-.243.137-.348.232-.332.3-.493.733.121.912z" fill="#4D3932" data-color="8"/>
        <path d="M104.868 32.857c-.166-1.806-.466-3.691-1.746-5.037a.17.17 0 0 0-.049-.164c-2.965-2.946-7.778-3.506-11.633-2.161-3.42 1.192-5.823 4.129-6.179 7.733a.174.174 0 0 0 .014.088c-.076.155-.152.311-.229.463-.05.098-.009.188.059.241-.037.076-.079.151-.113.227-.1.222.23.416.331.192.746-1.654 2.105-3.275 3.83-3.965.421.281 1.034.27 1.522.332.964.122 1.935.186 2.907.191 1.832.008 3.65-.205 5.436-.599.302.288.695.496 1.049.744 1.253.877 2.032 1.873 2.225 3.418.073.581.106 1.169.155 1.753.042.497-.033 1.189.159 1.652.137.329.302.453.646.298.645-.291 1.28-1.31 1.476-1.971.323-1.09.243-2.32.14-3.435z" fill="#4D3932" data-color="8"/>
        <path d="M94.966 26.626c-1.444.827-2.953 1.698-4 3.021a4.989 4.989 0 0 0-.427.644c-.491-.109-.957-.326-1.478-.361a2.522 2.522 0 0 0-1.407.337c-.995.557-1.644 1.597-2.125 2.591-1.308 2.703-1.766 5.828-2.451 8.727-.036.152.135.312.281.215 1.088-.721 2.39-1.06 2.637-2.51.164-.967-.132-2.005.396-2.897.452-.763 1.278-1.224 1.96-1.756 1.368-1.066 1.589-2.459 2.36-3.917l.011-.018c.251.031.505.037.767-.013.242-.046.139-.413-.102-.367-.153.029-.3.031-.444.024.982-1.534 2.666-2.505 4.214-3.391.215-.122.022-.452-.192-.329z" fill="#4D3932" data-color="8"/>
        <path d="M103.876 35.063a7.99 7.99 0 0 0-1.032-3.582c-.614-1.072-1.435-1.722-2.664-1.945-.893-.162-1.863-.232-2.694.129-.392-.432-.624-.952-.468-1.633.055-.239-.314-.341-.369-.101-.169.732.06 1.378.495 1.915-.059.037-.121.069-.178.112-.195.146-.004.477.193.329.079-.059.162-.105.246-.152.103.101.21.198.326.289 1.18.931 2.301 1.49 2.987 2.908.331.683.541 1.418.709 2.155.147.644.164 1.406.408 2.02.224.565.85 1.202 1.42.757.721-.566.658-2.401.621-3.201z" fill="#4D3932" data-color="8"/>
        <path d="M106.253 27.999a2.364 2.364 0 0 1-.076-.161c-.215-.51-.204-1.082-.197-1.635.019-1.537-.116-3.271-1.293-4.268-.619-.524-1.432-.75-2.22-.946-3.274-.812-6.7-1.336-10.016-.72-2.154.4-4.322 1.366-5.555 3.168-.774 1.13-1.119 2.498-1.285 3.855-.056.46-.091.974-.329 1.385-.199.345-.603.508-.81.849-.447.735-.539 1.64-.684 2.469-.137.787-.274 1.602-.077 2.377a.453.453 0 0 0 .111.228c.159.148.414.035.599-.08 3.4-2.121 7.398-3.492 11.397-3.161 2.992.248 5.847 1.433 8.389 3.023.325.203.652.416 1.023.512.371.096.802.056 1.084-.203.557-.512.222-1.413.224-2.167.003-1.087.802-2.143.486-3.183-.151-.494-.532-.883-.771-1.342z" fill="#A18BBC" data-color="7"/>
        <path d="M85.88 28.741a.19.19 0 0 1-.1-.354c.129-.078 3.244-1.915 10.24-1.979 6.993-.063 9.559 1.572 9.665 1.642a.19.19 0 0 1 .054.264.193.193 0 0 1-.265.054c-.025-.016-2.58-1.635-9.45-1.579-6.877.062-10.013 1.905-10.044 1.923a.189.189 0 0 1-.1.029z" opacity=".3"/>
        <path d="M104.844 34.273a.191.191 0 0 1-.153-.305c.004-.005.438-.618.409-2.104-.031-1.574 0-2.541 0-2.55a.194.194 0 0 1 .198-.184.19.19 0 0 1 .185.197c0 .009-.031.967 0 2.53.033 1.634-.464 2.312-.485 2.34a.192.192 0 0 1-.154.076z" opacity=".3"/>
        <path d="m103.896 33.294-.016-.001a.191.191 0 0 1-.175-.206l.172-2.005a.188.188 0 0 1 .207-.174.191.191 0 0 1 .175.206l-.172 2.005a.192.192 0 0 1-.191.175z" opacity=".3"/>
        <path d="M86.233 33.062a.205.205 0 0 1-.072-.014c-.128-.052-.193-.077-.12-1.491.067-1.298.72-2.819.747-2.883a.192.192 0 0 1 .252-.1.19.19 0 0 1 .1.25c-.007.015-.653 1.523-.717 2.752-.048.934-.024 1.17-.016 1.219a.19.19 0 0 1-.174.267z" opacity=".3"/>
        <path d="M83.485 44.877a.19.19 0 0 1-.182-.249l.447-1.376c.445-1.369.533-2.111.47-3.968-.065-1.904.849-4.132.888-4.226a.194.194 0 0 1 .25-.104.19.19 0 0 1 .104.249c-.009.022-.921 2.248-.859 4.068.064 1.89-.032 2.694-.488 4.098l-.447 1.376a.193.193 0 0 1-.183.132z" opacity=".3"/>
        <path d="M106.568 45.766a.193.193 0 0 1-.187-.148c-.001-.004-.099-.421-.38-1.387-.297-1.018-.016-2.384-.004-2.441a.191.191 0 0 1 .227-.147c.104.021.17.122.148.225-.003.013-.274 1.331-.004 2.257.286.978.382 1.39.386 1.407a.19.19 0 0 1-.144.228.116.116 0 0 1-.042.006z" opacity=".3"/>
        <path d="M104.499 42.18c-.133-.154-.288-.176-.484-.15-.159.021-.261.183-.276.339a.35.35 0 0 0 .075.401.466.466 0 0 0 .762-.136.439.439 0 0 0-.077-.454z" opacity=".9"/>
        <path d="M87.793 60.426s1.782 4.236 6.603 4.453c7.696.346 11.5-6.785 11.5-6.785s7.537 2.055 8.974 5.23c1.437 3.175-4.31 38.289-3.736 42.114.575 3.826 5.06 11.255 3.967 13.064-1.093 1.81-16.861.571-19.849 2.667-2.987 2.095-7.968 9.239-12.949 9.525-4.981.286-6.992 1.429-8.142 0-1.149-1.429 2.267-33.812 3.64-50.24 1.086-12.986 9.992-20.028 9.992-20.028z" fill="#FFFFFF" data-color="4"/>
        <path d="M105.896 58.093s-4.287 22.596-2.191 29.581c2.097 6.985-.582 9.017 1.587 15.874 2.17 6.858 3.447 10.975 7.15 16.854 3.704 5.878 3.704 12.355 4.981 12.228 1.277-.127 13.027-5.771 13.154-6.505.128-.734-3.065-9.105-5.364-16.222-2.299-7.117-3.193-44.056-5.747-47.239-2.553-3.182-13.57-4.571-13.57-4.571z" fill="#AB5855" data-color="2"/>
        <path d="M108.52 127.154c1.667 1.297 3.427 2.47 5.198 3.619.57.37 1.163.713 1.769 1.043 1.036-2.394 2.381-4.322 2.776-6.902.021-.137.056-.534.026-.584.874-1.059 1.75-2.116 2.608-3.188.617-.771 1.23-1.544 1.838-2.322.534-.682 1.256-1.397 1.672-2.158 1.049-1.918-3.934-2.686-5.007-2.786-2.838-.264-4.585 2.856-6.267 4.732a39.785 39.785 0 0 0-4.688 6.406c-.252.429-.577.907-.864 1.4.318.258.635.504.939.74z" fill="#FFA680" data-color="5"/>
        <path d="M97.629 156.219a.19.19 0 0 1-.188-.156c-.017-.094-1.757-9.464-3.02-12.928-.691-1.896-.851-3.402-1.006-4.859-.134-1.257-.272-2.557-.758-4.097-1.051-3.325-.968-7.355-.967-7.395.003-.105.081-.191.196-.186.106.003.189.09.187.195-.001.04-.083 4.008.949 7.272.498 1.576.638 2.895.774 4.171.152 1.434.31 2.916.985 4.769 1.273 3.493 3.019 12.894 3.036 12.989a.191.191 0 0 1-.188.225z" opacity=".3"/>
        <path d="M95.426 143.261a.19.19 0 0 1-.095-.356c.011-.006 1.244-.768 1.244-3.83 0-3.18-1.988-11.776-2.008-11.863a.19.19 0 0 1 .144-.228.192.192 0 0 1 .23.143c.082.355 2.017 8.726 2.017 11.948 0 3.311-1.379 4.128-1.438 4.161a.19.19 0 0 1-.094.025z" opacity=".3"/>
        <path d="M107.175 126.471a.195.195 0 0 1-.116-.039l-1.597-1.206a.191.191 0 0 1 .232-.303l1.597 1.206a.19.19 0 0 1-.116.342z" opacity=".3"/>
        <path d="M117.316 133.454s-1.626-1.11-1.722-1.173a.19.19 0 0 1-.053-.264.192.192 0 0 1 .266-.053c.096.063 1.726 1.176 1.726 1.176l-.217.314z" opacity=".3"/>
        <path d="M120.298 178.538a.191.191 0 0 1-.192-.19c0-.025-.006-2.556-.508-5.3-.531-2.901-1.595-12.811-1.344-17.031.252-4.23.002-20.729 0-20.895a.19.19 0 0 1 .189-.193h.003c.105 0 .19.083.192.188.003.166.253 16.679 0 20.923-.25 4.193.81 14.052 1.338 16.94.508 2.779.514 5.342.514 5.368a.192.192 0 0 1-.192.19z" opacity=".3"/>
        <path d="M86.833 74.983c-.276-.399-7.261.428-7.318.523-.281.47-.442 1.448-.442 1.448s7.49-.222 7.506-.301c.077-.365.491-1.327.254-1.67z" fill="#EBCFA9" data-color="1"/>
        <path d="M93.919 79.796c.24-.526.47-1.058.622-1.611a.212.212 0 0 0-.091-.029c-2.615-.107-5.346.038-7.964.024-2.503-.013-4.952-.014-7.416.398-.126.021-.485 1.439-.373 1.432a34.437 34.437 0 0 1 3.987-.016c1.22.068 5.772-.352 6.847-.279 1.233.085 2.918-.266 4.38.08.003.002.005.001.008.001z" fill="#EBCFA9" data-color="1"/>
        <path d="M111.001 58.498c-.383.476-2.664 12.887-2.803 19.081-.181 8.092 1.957 21.806 3.032 24.552 1.289 3.292 2.784 7.069 4.042 8.403 1.258 1.333 4.128 3.345 4.128 3.345l2.63-2.774s-4.388-4.604-6.331-14.096c-1.963-9.588-2.682-16.446-2.107-23.875.485-6.271 2.762-12.293 2.379-12.988-.383-.696-4.587-2.124-4.97-1.648z" fill="#A18BBC" data-color="7"/>
        <path d="M111.001 58.498c-.383.476-2.664 12.887-2.803 19.081-.181 8.092 1.957 21.806 3.032 24.552 1.289 3.292 2.784 7.069 4.042 8.403 1.258 1.333 4.128 3.345 4.128 3.345l2.63-2.774s-4.388-4.604-6.331-14.096c-1.963-9.588-2.682-16.446-2.107-23.875.485-6.271 2.762-12.293 2.379-12.988-.383-.696-4.587-2.124-4.97-1.648z" opacity=".6"/>
        <path d="M116.087 60.533s5.009 1.248 8.457 5.87c2.584 3.463 14.629 28.401 15.431 34.384.395 2.947-3.936 6.191-4.894 8.953-.958 2.762-2.203 4.262-4.023 5.798-1.82 1.536-6.992 5.441-6.992 5.441l-9.962-7.62 6.194-8.731-4.211-44.095z" fill="#AB5855" data-color="2"/>
        <path d="M66.403 153.711a.19.19 0 0 1-.047-.375l2.028-.504a.19.19 0 1 1 .093.37l-2.028.504a.24.24 0 0 1-.046.005z" opacity=".3"/>
        <path d="M81.057 67.808a.19.19 0 0 1-.173-.109c-.026-.055-.64-1.361-.615-2.272.025-.911.782-2.295.814-2.354a.193.193 0 0 1 .26-.076c.093.05.127.166.076.258-.007.014-.744 1.363-.767 2.182-.022.821.573 2.086.579 2.099a.191.191 0 0 1-.174.272z" opacity=".3"/>
        <path d="M70.333 130.297h-.006a.191.191 0 0 1-.186-.196c.004-.113.351-11.286.491-13.8.051-.915.286-2.87.559-5.133.491-4.081 1.102-9.16 1.014-11.214-.149-3.469.475-10.201.741-13.075.038-.408.069-.746.091-.999.187-2.131.003-12.903-.001-12.993a.191.191 0 0 1 .184-.198.189.189 0 0 1 .199.183c.004.09.188 10.896-.001 13.041l-.091 1.001c-.266 2.867-.887 9.58-.74 13.024.089 2.085-.524 7.181-1.017 11.276-.271 2.256-.506 4.205-.557 5.108-.14 2.508-.487 13.678-.49 13.79a.19.19 0 0 1-.19.185z" opacity=".3"/>
        <path d="M115.109 114.819a.188.188 0 0 1-.106-.032c-.163-.108-.978-.669-1.086-1.132-.106-.455.889-1.708 1.321-2.225a.194.194 0 0 1 .27-.025.19.19 0 0 1 .025.268c-.699.836-1.268 1.705-1.242 1.897.054.232.573.666.925.899a.19.19 0 0 1 .053.264.193.193 0 0 1-.16.086z" opacity=".3"/>
        <path d="M124.014 121.173c-.579 0-1.418-.969-1.672-1.279a.19.19 0 1 1 .297-.24c.479.585 1.156 1.181 1.39 1.137.288-.054 1.866-1.307 3.226-2.488a.191.191 0 0 1 .252.287c-.475.413-2.872 2.476-3.407 2.575a.399.399 0 0 1-.086.008z" opacity=".3"/>
        <path d="M126.811 118.185a.192.192 0 0 1-.165-.093c-.008-.013-.814-1.331-3.053-3.124-2.25-1.802-7.053-3.698-7.102-3.717a.19.19 0 1 1 .14-.354c.199.078 4.906 1.937 7.201 3.775 2.3 1.842 3.109 3.17 3.142 3.226a.19.19 0 0 1-.163.287z" opacity=".3"/>
        <path d="M125.215 118.24a.86.86 0 0 0-.862-.857.86.86 0 0 0-.862.857.86.86 0 0 0 .862.857.86.86 0 0 0 .862-.857z" fill="#EBCFA9" data-color="1"/>
        <path d="M132.705 99.676c-.027-.003-.678-.063-2.148.128-.771.1-1.887.657-3.07 1.247-1.093.545-2.224 1.109-2.967 1.23-1.684.276-3.748-.201-4.485-2.362-.268-.785-.316-1.403-.363-2.002-.096-1.225-.188-2.381-2.103-4.589-2.73-3.146-2.637-12.101-2.635-12.191a.191.191 0 0 0-.189-.193.194.194 0 0 0-.194.188c-.005.374-.096 9.19 2.729 12.446 1.833 2.113 1.916 3.159 2.011 4.37.049.622.1 1.265.382 2.094.332.974.907 1.635 1.594 2.06-.185.18-.584.564-1.004.959-.597.56-1.251 2.907-1.324 3.173a.19.19 0 0 0 .185.241.193.193 0 0 0 .185-.14c.19-.693.778-2.583 1.217-2.996a87.056 87.056 0 0 0 1.097-1.049 4.688 4.688 0 0 0 2.028.445c.316 0 .63-.027.932-.076.199-.032.421-.093.658-.173l5.333.248h.009a.19.19 0 0 0 .009-.381l-4.497-.21a37.806 37.806 0 0 0 1.566-.751c1.102-.549 2.241-1.118 2.948-1.21 1.417-.184 2.054-.127 2.06-.126a.193.193 0 0 0 .209-.171.194.194 0 0 0-.173-.209z" opacity=".3"/>
        <path d="M118.13 61.486a.18.18 0 0 1-.078-.017l-1.704-.762a.19.19 0 0 1-.096-.252.193.193 0 0 1 .253-.096l1.704.762a.19.19 0 0 1 .096.252.192.192 0 0 1-.175.113z" opacity=".3"/>
        <path d="M104.861 66.903a.191.191 0 0 1-.167-.097.19.19 0 0 1 .073-.259c.246-.138.921-.572 1.096-.919.12-.238.619-1.08 2.012-1.912.833-.497 1.899-3.29 2.239-4.325a.19.19 0 0 1 .241-.122.19.19 0 0 1 .123.24c-.052.157-1.28 3.861-2.406 4.533-1.037.619-1.644 1.312-1.867 1.755-.258.513-1.15 1.024-1.251 1.081a.186.186 0 0 1-.093.025z" opacity=".3"/>
        <path d="M97.102 120.169a.19.19 0 0 1-.046-.375c.016-.004 1.64-.427 2.416-1.889 1.278-2.409 3.993-3.13 4.108-3.159a.192.192 0 0 1 .233.137.19.19 0 0 1-.137.232c-.026.007-2.667.711-3.865 2.968-.857 1.615-2.588 2.062-2.661 2.08a.21.21 0 0 1-.048.006z" opacity=".2"/>
        <path d="M105.324 70.117a.19.19 0 0 1-.19-.218l.16-1.08a.188.188 0 0 1 .217-.161.19.19 0 0 1 .162.216l-.16 1.08a.191.191 0 0 1-.189.163z" opacity=".3"/>
        <path d="M104.429 78.467a.191.191 0 0 1-.192-.19v-1.08c0-.105.086-.19.192-.19.106 0 .192.085.192.19v1.08c0 .105-.086.19-.192.19z" opacity=".3"/>
        <path d="M104.86 87.865a.192.192 0 0 1-.188-.153l-.239-1.175a.191.191 0 0 1 .15-.225.191.191 0 0 1 .226.149l.239 1.175a.191.191 0 0 1-.188.229z" opacity=".3"/>
        <path d="m105.292 97.865-.023-.001a.19.19 0 0 1-.168-.211l.128-1.079a.191.191 0 0 1 .381.044l-.128 1.079a.192.192 0 0 1-.19.168z" opacity=".3"/>
        <path d="M107.878 107.739a.191.191 0 0 1-.178-.12l-.511-1.265a.19.19 0 1 1 .355-.142l.511 1.265a.19.19 0 0 1-.177.262z" opacity=".3"/>
        <path d="M112.124 118.312a.193.193 0 0 1-.175-.112l-.447-.984a.19.19 0 0 1 .096-.252.19.19 0 0 1 .253.095l.447.984a.19.19 0 0 1-.096.252.192.192 0 0 1-.078.017z" opacity=".3"/>
        <path d="M117.552 131.587a.191.191 0 0 1-.183-.135l-.319-1.053a.192.192 0 0 1 .367-.11l.319 1.053a.19.19 0 0 1-.184.245z" opacity=".3"/>
        <path d="M113.393 57.402a.186.186 0 0 1-.061-.01c-.025-.008-2.573-.856-5.172-1.23-2.595-.373-3.842-.34-3.855-.34-.097.014-.194-.079-.197-.184a.19.19 0 0 1 .185-.196c.051-.002 1.288-.036 3.922.343 2.635.379 5.214 1.237 5.24 1.246a.19.19 0 0 1 .12.241.192.192 0 0 1-.182.13z" opacity=".3"/>
        <path d="M84.036 59.64a.19.19 0 0 1-.073-.367l6.274-2.572a.19.19 0 1 1 .146.353l-6.274 2.572a.19.19 0 0 1-.073.014z" opacity=".3"/>
    </g>
</svg>
