<?xml version="1.0" encoding="UTF-8"?>
<svg data-bbox="63.001 19.999 74.001 160.001" viewBox="0 0 200 200" height="200" width="200" xmlns="http://www.w3.org/2000/svg" data-type="color">
    <g>
        <path d="M76.348 143.887c-.142.121-.029.311.116.334.076.39.152.781.22 1.173.179 1.016 1.286 24.052 1.978 28.085.355 2.07.785 4.121.897 6.23l.015.291h20.707c-.022-2.196-.378-4.47.022-6.601.199-1.059.605-2.048.895-3.077.288-1.023.385-2.059.48-3.118.2-2.244.586-4.451 1.005-6.655.296 3.496.935 6.951 1.411 10.427.41 2.994.617 6.006.745 9.024h21.763c.065-3.12.122-7.766.236-10.194.181-3.846.592-16.22.537-17.945-.057-1.82-.464-9.057-.942-10.7-.296-1.017-1.065-1.436-2.005-1.431-1.304.007-2.973.491-4.29.294-.836-.125-1.43-.497-2.012-1.16-.307-.349-.623-.653-1.087-.676-.55-.027-1.124.304-1.626.503-.807.319-1.609.652-2.421.958-1.695.638-3.405 1.088-5.198 1.238-3.431.288-6.909.07-10.349.158a198.36 198.36 0 0 0-11.609.639c-2.706.229-6.787.201-9.129 1.924a18.161 18.161 0 0 1-.103-.925c.021.26.396.262.375 0-.051-.629-.707-.501-.782.083-.042.324.129.778.194 1.087-.012.011-.028.021-.043.034z" fill="#3B3348" data-color="1"/>
        <path d="M110.255 25.506c-1.341-1.536-3.148-2.593-5.138-3.059-1.303-.305-2.281-.026-3.492.416-.357-.479-.755-.902-1.22-1.196-1.504-.95-3.404-.041-5.004-.798-1.402-.664-2.709-1.158-4.288-.679-.97.294-1.429 1.036-1.713 1.894-.778.112-1.49.471-2.031 1.243-.557.795-.367 1.771-.83 2.597-.47.837-1.287 1.418-1.496 2.4-.167.784.067 1.569.328 2.304.46 1.297.887 2.352.449 3.74-.267.847-.693 1.735-.429 2.643.25.857.995 1.115 1.688 1.546.64.399.86.872 1.152 1.552.114.265.173.464.408.661.74.62 2.101.894 2.994 1.2 2.478.85 5.056 1.68 7.626 2.205 1.125.23 2.273.339 3.413.155 1.479-.24 2.884-.865 4.279-1.385.892-.333 1.67-.45 1.979-1.406.038-.119.055-.362.125-.479.457-.763.806-.338 1.352-.48a1.16 1.16 0 0 0 .225-.083c.085.039.186.026.235-.085.035-.078.065-.159.099-.237.015-.025.031-.046.045-.075a.223.223 0 0 0 .022-.086c1.04-2.462 1.635-5.08 1.679-7.757a10.017 10.017 0 0 0-2.457-6.751z" fill="#F7DAB2" data-color="2"/>
        <path d="M113.282 63.043c-1.283-.81-3.84-2.175-4.507-4.218-.667-2.043-.861-7.123-.784-10.586.035-.008.07-.014.105-.023.23-.055.148-.453-.083-.397l-.012.003.023-.807c.011-.356-.665-.254-.205.375l-.177.51c-4.036.925-9.38 1.159-13.469.704a74.595 74.595 0 0 1-.053-1.946c-.003-.262-.368-.277-.365-.013.006.619.029 1.263.053 1.922l-.022.012c-.304-.135-.346.355-.09.386l.128.013c.108 2.918.423 8.488-.005 9.693-.526 1.481-4.497 3.697-4.497 3.697s-2.105.868-2.126.9c-.008-.005-.426.202-.221.33 2.266 1.415 3.666 3.908 5.616 5.745 1.965 1.851 5.445 3.219 7.358 5.134a.19.19 0 0 0 .219.038c6.234-3.034 13.132-11.46 13.114-11.472z" fill="#FFA18A" data-color="3"/>
        <path d="M110.724 39.333c.041-.625.072-1.251.095-1.875.111-2.967.031-5.836-1.763-8.333-1.341-1.867-3.612-2.973-5.904-3.574-3.035-.795-6.488-.717-8.93 1.274-2.736 2.23-3.288 3.155-3.713 6.459-.357 2.775-.407 6.639.191 9.35.554 2.512.975 5.303 2.312 7.541.92 1.54 1.875 3.191 3.617 3.906 2.531 1.039 6.841 1.367 9.047-.119 2.057-1.385 3.01-3.977 3.671-6.236.8-2.727 1.191-5.559 1.377-8.393z" fill="#FFA18A" data-color="3"/>
        <path d="M95.746 39.621c-1-.264-.983 2.175-.24 2.242a.617.617 0 0 0 .483-.204c.43-.446.517-1.838-.243-2.038z" opacity=".8"/>
        <path d="M105.638 39.571c-1-.264-.983 2.175-.24 2.242a.617.617 0 0 0 .483-.204c.43-.446.516-1.838-.243-2.038z" opacity=".8"/>
        <path d="m101.319 47.645-.018-.001c-.186-.016-1.827-.181-2.151-.905-.3-.672.756-4.046.971-4.716a.205.205 0 0 1 .258-.132.204.204 0 0 1 .133.257c-.609 1.898-1.145 4.073-.987 4.426.177.396 1.297.618 1.812.664a.204.204 0 0 1-.018.407z" opacity=".2"/>
        <path d="M97.921 37.323c-.164-.267-.577-.463-.867-.512-1.001-.169-2.141.258-3.101.512-.52.137-1.107.381-1.22.968-.025.131.057.255.198.259 1 .024 2.014-.177 3.003-.302.475-.06 1.551.043 1.909-.355.185-.207.181-.403.078-.57z" fill="#F7DAB2" data-color="2"/>
        <path d="M103.248 37.892c.358.398 1.434.295 1.909.355.989.125 2.004.326 3.003.302.141-.003.223-.127.198-.259-.113-.587-.701-.831-1.22-.968-.96-.253-2.1-.681-3.101-.512-.289.049-.703.244-.867.512-.103.168-.107.364.078.57z" fill="#F7DAB2" data-color="2"/>
        <path d="M97.223 48.497s2.155.051 3.899 0c1.744-.051 2.771-.179 2.771-.179s-.564 1.481-3.053 1.635c-2.488.153-3.617-1.456-3.617-1.456z" fill="#FFFFFF" data-color="4"/>
        <path d="m101.007 55.489-.24-.003c-4.296-.104-5.899-2.331-5.965-2.425a.203.203 0 0 1 .051-.284.207.207 0 0 1 .286.05c.015.021 1.564 2.152 5.638 2.25 4.089.093 6.07-2.513 6.09-2.539a.207.207 0 0 1 .287-.043.204.204 0 0 1 .043.286c-.084.113-2.055 2.708-6.19 2.708z" opacity=".2"/>
        <path d="M110.178 40.558s1.726-.745 1.766 1.884c.04 2.63-1.025 4.303-2.393 4.252-1.368-.051-1.487-2.106-1.487-2.106l2.114-4.03z" fill="#FFA18A" data-color="3"/>
        <path d="M110.264 44.977a.204.204 0 0 1-.179-.304c.004-.006.339-.61.324-1.088-.014-.466-.075-.616-.075-.618a.206.206 0 0 1 .103-.267.203.203 0 0 1 .267.091c.023.045.099.236.115.781.018.593-.36 1.272-.376 1.3a.207.207 0 0 1-.179.105z" opacity=".2"/>
        <path d="M90.615 40.558s-1.726-.745-1.766 1.884c-.04 2.63 1.025 4.303 2.392 4.252 1.368-.051 1.487-2.106 1.487-2.106l-2.113-4.03z" fill="#FFA18A" data-color="3"/>
        <path d="M90.53 44.977a.207.207 0 0 1-.179-.104c-.016-.029-.395-.708-.376-1.3.017-.545.093-.736.115-.781a.205.205 0 0 1 .367.183s-.058.153-.072.611c-.012.398.23.92.324 1.088a.204.204 0 0 1-.179.303z" opacity=".2"/>
        <path d="M110.801 30.534c-.658-1.576-1.826-2.71-3.28-3.571-1.603-.95-3.426-2.166-5.314-2.394-2.111-.255-4.381-.011-6.485.219-.77.084-1.751.087-2.466.416-.695.32-.666.86-1.042 1.445-.255.397-.697.648-.977 1.03-.234.319-.387.688-.526 1.056a24.227 24.227 0 0 0-1.014 3.386c-.482 2.217-.5 4.482-.128 6.715a.181.181 0 0 0-.012.141c.135.439.408 1.844 1.115 1.765.592-.066.659-1.351.724-1.732.202-1.187.232-2.386.241-3.587 1.103.072 2.477-1.251 3.186-2.289.047.24.165.44.482.577.651.282 1.524-.054 2.086-.392.585-.352 1.075-.836 1.484-1.393.868.063 1.77-.307 2.524-.663.814-.385 1.426-.571 2.321-.332.677.181 1.361.331 2.049.458a57.48 57.48 0 0 0 3.41.496l-.068 6.248c-.007.677-.181 2.985 1.212 2.505.504-.174.679-.764.819-1.22.298-.965.392-1.992.41-2.998.032-1.914-.002-4.092-.751-5.886z" fill="#F7DAB2" data-color="2"/>
        <path d="M92.46 33.625a.206.206 0 0 1-.128-.045.203.203 0 0 1-.032-.287c.076-.094 1.86-2.296 3.359-2.187 1.135.08 1.494-.325 2.559-1.536.147-.166.305-.347.48-.542 1.539-1.718 4.055-.843 4.162-.805a.204.204 0 0 1 .124.261.207.207 0 0 1-.263.124c-.023-.009-2.364-.817-3.717.693-.174.194-.332.374-.478.539-1.102 1.253-1.56 1.773-2.898 1.674-1.064-.078-2.533 1.443-3.008 2.035a.206.206 0 0 1-.16.076z" opacity=".1"/>
        <path d="M89.655 35.464a.204.204 0 0 1-.205-.197c-.185-1.574.364-3.046 1.504-4.075 1.898-1.714 3.522-1.491 3.589-1.481a.205.205 0 1 1-.062.404c-.014-.002-1.509-.195-3.252 1.38-1.424 1.287-1.474 2.864-1.376 3.689a.743.743 0 0 1 .007.076.205.205 0 0 1-.205.204z" opacity=".1"/>
        <path d="M103.269 30.492a.204.204 0 0 1-.199-.255c.003-.011.295-1.156.176-1.784a2.992 2.992 0 0 0-.221-.699 5.046 5.046 0 0 1-.298-.892 1.99 1.99 0 0 1-.038-.818c.03-.235.052-.405-.213-.862-.515-.886-.926-1.642-.926-1.642a.204.204 0 0 1 .083-.277.206.206 0 0 1 .278.082c0 .001.41.752.921 1.632.335.577.301.84.265 1.119-.023.174-.046.353.03.67.098.407.189.621.277.828.091.215.177.418.246.782.136.718-.168 1.911-.181 1.962a.208.208 0 0 1-.2.154z" opacity=".1"/>
        <path d="M100.558 23.477a.208.208 0 0 1-.084-.018c-.037-.017-3.786-1.669-5.454-1.248-1.777.447-4.574.088-4.693.073a.205.205 0 0 1-.177-.229.206.206 0 0 1 .23-.176c.028.003 2.84.365 4.538-.064 1.805-.455 5.563 1.201 5.722 1.272a.203.203 0 0 1-.082.39z" opacity=".1"/>
        <path d="M87.226 27.461a.204.204 0 0 1-.197-.264c.022-.071.558-1.753 2.613-3.14 2.083-1.406 3.251-.993 3.3-.976a.204.204 0 1 1-.142.383c-.016-.005-1.047-.338-2.927.931-1.928 1.301-2.445 2.905-2.45 2.922a.206.206 0 0 1-.197.144z" opacity=".1"/>
        <path d="M130.219 142.036c-.497 1.528-6.461 2.141-13.521 3.469-7.056 1.328-12.921-.102-18.586.511-5.664.613-22.962-.127-23.458-.421-.094-.057-.123-1.778-.111-4.573v-.4c.008-1.565.025-3.432.049-5.512.004-.135.004-.27.004-.405.02-1.479.041-3.061.066-4.711 0-.135.004-.274.004-.409.029-1.835.057-3.751.086-5.7.004-.127.004-.249.008-.376.012-.891.025-1.786.041-2.685 0-.135 0-.27.004-.405.041-2.852.082-5.733.119-8.499 0-.127 0-.253.004-.38.025-2.117.045-4.16.062-6.08v-.413c.016-1.671.02-3.236.02-4.662v-.413c0-.319 0-.625-.004-.928a145.506 145.506 0 0 0-.074-4.7 27.331 27.331 0 0 0-.082-1.348 374.127 374.127 0 0 1-.546-6.166l-.037-.417c-.111-1.344-.218-2.75-.324-4.148-.008-.127-.021-.249-.029-.372a434.448 434.448 0 0 1-.423-6.272 12.484 12.484 0 0 0-.02-.405c-.148-2.648-.209-4.63-.111-5.149.057-.306.69-.785 1.671-1.348.267-.159.55-.319.866-.482.004-.004.004-.004.008-.004a63.655 63.655 0 0 1 3.267-1.594c4.564-2.092 10.147-4.27 10.147-4.27s9.917 8.847 11.649 8.275c1.732-.576 10.898-8.483 10.898-8.483s7.614 3.057 10.726 4.63c.218.11.415.212.583.306.287.159.497.29.616.392l.004.004c.357.315.747 1.908 1.125 4.16.025.127.045.257.066.392.419 2.574.813 5.909 1.125 9.157l.037.409c.107 1.107.201 2.198.279 3.245.012.135.025.27.033.4.14 1.863.238 3.555.279 4.879.008.221.012.454.012.682 0 .135-.004.274-.004.409-.033 2.366-.373 5.022-.714 7.699-.004.025-.004.049-.008.074l-.062.482c-.074.572-.144 1.148-.209 1.724l-.049.421c-.349 3.089-.55 6.089-.123 8.589.025.139.049.274.078.409.053.266.115.523.185.776.312 1.111.575 2.019.8 2.791.041.139.078.274.119.4.796 2.738 1.067 3.788 1.158 6.983l.012.449v.086c.016.87.127 2.051.283 3.404.016.139.033.282.053.425.234 1.921.562 4.148.883 6.326l.062.421a320.726 320.726 0 0 1 .702 4.891c.298 2.261.458 3.973.302 4.46z" fill="#E35F4B" data-color="5"/>
        <path d="M123.175 67.097c-7.101 1.344-14.087 3.567-21.336 3.96-2.738.147-5.459-.033-8.164-.486-2.849-.478-5.652-1.181-8.505-1.622a38.828 38.828 0 0 0-10.139-.229c-.094.008-.189.016-.283.029.267-.172.534-.335.792-.482.119-.012.238-.025.357-.029.004-.004.004-.004.008-.004a40.532 40.532 0 0 1 10.134.445c2.845.482 5.648 1.189 8.501 1.622 2.898.437 5.82.499 8.739.245 5.632-.486 11.107-1.998 16.612-3.2a104.26 104.26 0 0 1 2.701-.556c.218.111.415.213.583.307z" fill="#FFFFFF" data-color="4"/>
        <path d="M127.842 71.51a83.06 83.06 0 0 0-3.657.703c-.209.045-.423.09-.632.139-4.885 1.075-9.617 2.48-14.633 2.905-5.517.47-11.074.642-16.608.715-4.38.061-8.759.016-13.139-.123a301.078 301.078 0 0 1-3.793-.143l-1.888-.086c-1.363-.057-2.73-.114-4.092-.143.058-.135.111-.27.164-.4 1.301.029 2.606.082 3.908.139 1.104.049 2.208.098 3.308.143a292.35 292.35 0 0 0 17.17.18c5.5-.106 11.054-.249 16.525-.838 4.454-.478 8.747-1.749 13.098-2.75a81.107 81.107 0 0 1 3.205-.67c.267-.049.538-.098.805-.143.087.119.173.246.259.372z" fill="#FFFFFF" data-color="4"/>
        <path d="M131.971 80.627a97.548 97.548 0 0 0-3.904.629l-1.921.356c-1.03.192-2.052.384-3.079.572-4.191.772-8.378 1.463-12.663 1.679-5.997.298-12.133.372-18.126-.037-2.877-.2-5.689-.719-8.534-1.173a44.242 44.242 0 0 0-4.573-.494 35.15 35.15 0 0 0-4.909.074c-.107.008-.213.02-.32.033-2.467.237-4.922.744-7.38 1.144l.123-.364c2.409-.384 4.819-.879 7.228-1.152a29.94 29.94 0 0 1 3.136-.204 33.32 33.32 0 0 1 2.122.057c2.233.131 4.441.47 6.658.842 2.992.507 5.972.854 9.01.956 5.964.196 12.019.217 17.966-.245 3.468-.27 6.875-.879 10.282-1.52 1.01-.192 2.015-.388 3.021-.576 1.662-.315 3.325-.617 5-.87.234-.037.472-.069.706-.102.055.129.104.26.157.395z" fill="#FFFFFF" data-color="4"/>
        <path d="M133.535 84.787c-1.634.09-3.267.192-4.897.306a260.616 260.616 0 0 0-5.735.465 304.97 304.97 0 0 0-13.069 1.467c-5.985.805-11.998 1.733-18.052 1.463-4.228-.192-8.406-.924-12.61-1.353a56.883 56.883 0 0 0-4.868-.306c-.304-.008-.608-.008-.911-.008-2.746.016-5.476.278-8.189.678.049-.143.094-.286.144-.433 2.955-.425 5.927-.691 8.919-.654.304.004.603.012.907.02 1.338.045 2.668.147 3.998.282 4.737.474 9.437 1.348 14.21 1.41 6.309.078 12.556-1.022 18.795-1.814a296.088 296.088 0 0 1 14.247-1.455c2.323-.184 4.642-.339 6.966-.47l.145.402z" fill="#FFFFFF" data-color="4"/>
        <path d="M135.571 90.32c-1.576.106-3.152.249-4.724.417a178.96 178.96 0 0 0-4.101.49c-1.387.176-2.767.368-4.15.564-3.477.499-6.945 1.034-10.426 1.508-6.059.825-12.133 1.361-18.249 1.541-4.913.147-9.831.11-14.748.012-1.408-.029-2.82-.061-4.228-.098h-.053a1726.39 1726.39 0 0 1-9.129-.249c-.911-.025-1.835-.065-2.754-.086a.334.334 0 0 1 .012-.188c.016-.041.041-.114.078-.221 1.022.025 2.044.069 3.058.098 2.927.082 5.849.168 8.776.237l1.983.049 2.258.049c5.591.11 11.181.143 16.768-.082 6.535-.262 13.008-.993 19.477-1.929 2.393-.347 4.794-.707 7.2-1.05 1.375-.196 2.754-.384 4.133-.564 2.886-.368 5.779-.682 8.677-.887.044.131.093.262.142.389z" fill="#FFFFFF" data-color="4"/>
        <path d="m126.024 98.999-.062.482c-.525.025-1.055.053-1.58.082-2.808.147-5.623.278-8.419.56-2.816.282-5.595.813-8.406 1.124-5.562.617-11.161.172-16.714-.302-5.283-.454-10.537-.842-15.832-.56v-.413c.357-.02.718-.041 1.075-.057 11.325-.507 22.514 2.247 33.823.617 4.277-.617 8.583-1.026 12.897-1.324h.012c.825-.061 1.654-.114 2.479-.168h.012c.239-.012.477-.029.715-.041z" fill="#FFFFFF" data-color="4"/>
        <path d="m125.753 101.206-.049.421c-4.014.576-8.029 1.156-12.043 1.741-3.871.56-7.737 1.173-11.62 1.647-4.138.507-8.218.47-12.38.36a230.73 230.73 0 0 0-14.67.086v-.413a183.59 183.59 0 0 1 3.706-.11c8.177-.172 16.365.601 24.497-.478 7.527-1.003 15.039-2.155 22.559-3.254z" fill="#FFFFFF" data-color="4"/>
        <path d="M125.658 110.624c-8.907-.057-17.818-.114-26.726-.168-4.593-.033-9.227-.221-13.792.372-3.423.45-6.793.915-10.217 1.091 0-.127 0-.253.004-.38a61.05 61.05 0 0 0 4.807-.364c2.442-.278 4.86-.752 7.31-.964 4.482-.392 9.026-.184 13.517-.155 4.63.029 9.256.061 13.882.09 3.711.025 7.425.045 11.136.069.026.14.051.275.079.409z" fill="#FFFFFF" data-color="4"/>
        <path d="M126.763 114.592c-2.943.11-5.878.409-8.796.809-8.714 1.193-17.322 2.971-26.065 3.992a260.115 260.115 0 0 1-17.1 1.43c0-.135 0-.27.004-.405a285.9 285.9 0 0 0 5.636-.347c9.043-.658 18.02-1.822 26.951-3.363 6.375-1.099 12.79-2.256 19.251-2.517.041.14.078.275.119.401z" fill="#FFFFFF" data-color="4"/>
        <path d="M127.932 122.025c-.115.004-.23.004-.345.008-5.184.106-10.385.123-15.565.364-5.065.237-9.933 1.369-14.941 2.035-7.384.981-14.937-.83-22.329-.548.004-.127.004-.249.008-.376 2.89-.09 5.808.139 8.694.388 5.155.441 10.171.703 15.302-.127 2.496-.4 4.971-.919 7.475-1.267 2.451-.343 4.917-.494 7.388-.576 4.766-.155 9.535-.262 14.301-.351l.012.45z" fill="#FFFFFF" data-color="4"/>
        <path d="M128.269 125.94c-1.182.176-2.36.392-3.538.646-2.052.441-4.101.907-6.19 1.152-2.34.278-4.7.355-7.052.47-4.766.229-9.531.462-14.297.691-7.507.368-15.019.731-22.531 1.095 0-.135.004-.274.004-.409 3.423-.168 6.851-.331 10.278-.499 9.519-.462 19.042-.919 28.564-1.385 2.311-.114 4.622-.249 6.904-.642 2.315-.4 4.589-1.001 6.904-1.402.3-.053.599-.102.899-.143.018.14.035.283.055.426z" fill="#FFFFFF" data-color="4"/>
        <path d="M129.213 132.686c-10.134-.482-20.256-.723-30.305.944-5.225.862-10.434 1.426-15.737 1.536-2.861.057-5.718.025-8.579-.057.004-.135.004-.27.004-.405 3.522.094 7.048.123 10.565-.004a94.934 94.934 0 0 0 8.131-.625c2.779-.339 5.525-.887 8.296-1.275 5.164-.723 10.381-.944 15.59-.915 3.994.02 7.984.188 11.973.38l.062.421z" fill="#FFFFFF" data-color="4"/>
        <path d="M129.915 137.578c-2.931.004-5.861.025-8.788.102-5.004.139-9.757 1.647-14.707 2.198-5.082.56-10.204.531-15.31.633-5.517.114-11.046.454-16.567.511v-.4c1.322-.012 2.643-.045 3.965-.082 5-.155 9.991-.4 14.99-.478 5.082-.082 10.192-.135 15.228-.895 2.438-.368 4.823-1.013 7.249-1.43 2.356-.409 4.745-.474 7.13-.494 2.253-.016 4.503-.033 6.756-.045.021.126.038.253.054.38z" fill="#FFFFFF" data-color="4"/>
        <path d="M79.173 66.085c-.21.478 2.664 17.207 1.124 28.144-1.54 10.938-4.105 14.423-4.105 14.423l2.98 4.776c4.266-9.744 6.069-20.192 5.686-30.792-.155-4.279-.379-8.568-.829-12.828-.038-.355-.605-5.286-1.18-5.339-.833-.077-3.466 1.137-3.676 1.616z" fill="#3B3348" data-color="1"/>
        <path d="M121.942 66.085c.21.478-2.664 17.207-1.124 28.144 1.54 10.938 4.105 14.423 4.105 14.423l-2.98 4.776c-4.266-9.744-6.069-20.192-5.686-30.792.155-4.279.379-8.568.829-12.828.038-.355.605-5.286 1.18-5.339.833-.077 3.466 1.137 3.676 1.616z" fill="#3B3348" data-color="1"/>
        <path d="M68.501 93.178s-2.463 19.963-1.334 24.544c1.129 4.581 10.911 2.991 10.911 2.991l1.095-25.062-10.672-2.473z" fill="#FFA18A" data-color="3"/>
        <path d="M133.416 92.086s2.463 19.963 1.334 24.544c-1.129 4.581-10.877 3.756-10.877 3.756l-1.129-25.826 10.672-2.474z" fill="#FFA18A" data-color="3"/>
        <path d="M79.173 66.64v32.895s-1.851-.102-4.166-.49c-1.219-.204-2.565-.482-3.842-.87-5.127-1.549-8-2.918-8.156-3.755a.334.334 0 0 1 .012-.188c.016-.041.041-.114.078-.221.263-.797 1.08-3.379 2.106-6.509.049-.143.094-.286.144-.433.382-1.173.796-2.411 1.215-3.657l.123-.364c.936-2.754 1.9-5.5 2.713-7.568.058-.135.111-.27.164-.4.181-.454.353-.866.517-1.234 1.006-2.276 2.881-3.943 4.667-5.096.267-.172.534-.335.792-.482 1.966-1.13 3.633-1.628 3.633-1.628z" fill="#E35F4B" data-color="5"/>
        <path d="M129.615 98.12a39.145 39.145 0 0 1-3.583.805 21.39 21.39 0 0 1-.722.114h-.012c-1.211.172-2.003.188-2.479.168h-.012c-.402-.02-.571-.065-.571-.065l.361-7.351.02-.409.287-5.823.02-.409.144-2.967.021-.405.464-9.427.02-.4.218-4.462s1.884 1.022 3.793 3.649c.086.118.172.245.259.372.583.85 1.162 1.851 1.679 3.024.62 1.41 1.437 3.453 2.295 5.696.053.131.103.262.156.396.468 1.226.948 2.501 1.42 3.759.045.131.094.266.144.4a724.8 724.8 0 0 1 1.892 5.145c.045.131.094.262.144.388.768 2.133 1.314 3.657 1.408 3.911.294.81-2.575 2.604-7.366 3.891z" fill="#E35F4B" data-color="5"/>
        <path d="M74.93 111.402c.459-.176 23.022 2.509 23.022 2.509l-1.576 5.179-20.041 1.815s-2.907-6.724-2.83-6.749c.076-.025 1.425-2.754 1.425-2.754z" fill="#FFA18A" data-color="3"/>
        <path d="M126.921 110.698c-.459-.176-21.791 3.213-21.791 3.213l.448 5.199 18.294 1.276s4.813-7.296 4.736-7.322c-.076-.026-1.687-2.366-1.687-2.366z" fill="#FFA18A" data-color="3"/>
        <path d="M82.187 102.453c-.593.188-.486 2.551 0 2.712.233.077 7.535-.025 14.963-.036 8.067-.012 16.309.06 16.492-.046.498-.288.809-2.389-.108-2.631-.47-.124-8.558-.072-16.384-.063-7.457.01-14.673-.028-14.963.064z" fill="#875549" data-color="6"/>
        <path d="M116.863 110.157h-5.12v-5.442h5.12c1.046 0 1.894.848 1.894 1.894v1.653a1.894 1.894 0 0 1-1.894 1.895z" fill="#FFD191" data-color="7"/>
        <path d="M116.863 110.157h-5.12v-5.442h5.12c1.046 0 1.894.848 1.894 1.894v1.653a1.894 1.894 0 0 1-1.894 1.895z" opacity=".2"/>
        <path fill="#FFFFFF" d="M113.363 105.556v3.724H83.724v-3.724h29.639z" data-color="4"/>
        <path d="M113.338 110.157H83.73a.438.438 0 1 1 0-.876h29.608a.439.439 0 0 1 0 .876z" fill="#FFD191" data-color="7"/>
        <path d="M113.297 105.673H83.771a.478.478 0 1 1 0-.958h29.526a.48.48 0 0 1 0 .958z" fill="#FFD191" data-color="7"/>
        <path d="M113.338 110.157H83.73a.438.438 0 1 1 0-.876h29.608a.439.439 0 0 1 0 .876z" opacity=".2"/>
        <path d="M113.297 105.673H83.771a.478.478 0 1 1 0-.958h29.526a.48.48 0 0 1 0 .958z" opacity=".2"/>
        <path d="M117.12 115.382c-.082.099-1.899.12-4.623.116-.596 0-1.23 0-1.904-.004-.259 0-.527 0-.794-.004-.363 0-.734 0-1.114-.004-2.482-.009-5.283-.017-8.059-.009-7.428.022-14.727.223-14.96.069-.488-.322-.596-5.049 0-5.423.289-.185 7.506-.107 14.96-.125 2.771-.009 5.577-.017 8.059-.021h1.908c.673 0 1.312.004 1.904.004 2.555.017 4.295.056 4.515.142.588.232.609 4.683.108 5.259z" fill="#3B3348" data-color="1"/>
        <path d="M112.498 109.981v5.517c-.596 0-1.23 0-1.904-.004v-5.517c.673 0 1.312.004 1.904.004z" fill="#FFFFFF" data-color="4"/>
        <path d="M109.8 109.977v5.513c-.363 0-.734 0-1.114-.004v-5.509h1.114z" fill="#FFFFFF" data-color="4"/>
        <path d="M88.207 102.596h5.12v-4.531h-5.12a1.894 1.894 0 0 0-1.894 1.894v.742c0 1.047.848 1.895 1.894 1.895z" fill="#A5B1C7" data-color="8"/>
        <path fill="#FFFFFF" d="M91.709 101.72v-3.538h29.639v3.538H91.709z" data-color="4"/>
        <path d="M91.733 102.596h29.608a.438.438 0 1 0 0-.876H91.733a.438.438 0 1 0 0 .876z" fill="#A5B1C7" data-color="8"/>
        <path d="M91.787 99.019h29.526a.48.48 0 0 0 0-.958H91.787a.48.48 0 0 0 0 .958z" fill="#A5B1C7" data-color="8"/>
        <path d="M85.666 93.626c-.593.312-.486 4.234 0 4.502.233.128 7.535-.041 14.963-.059 8.067-.02 16.309.099 16.492-.076.498-.478.809-3.965-.108-4.366-.47-.205-8.558-.12-16.384-.104-7.457.014-14.673-.049-14.963.103z" fill="#FFD191" data-color="7"/>
        <path d="M112.875 97.489H89.616a1.103 1.103 0 0 1-1.104-1.099v-1.16c0-.606.495-1.099 1.104-1.099h23.259c.609 0 1.104.493 1.104 1.099v1.16c0 .606-.495 1.099-1.104 1.099zm-23.259-2.954a.697.697 0 0 0-.698.695v1.16c0 .383.313.695.698.695h23.259a.697.697 0 0 0 .698-.695v-1.16a.697.697 0 0 0-.698-.695H89.616z" fill="#FFFFFF" data-color="4"/>
        <path d="M102.546 118.406c.368.244 1.182.262 1.556-.028l.066-.024c.011-.004.015-.013.024-.018.532.916 1.945 1.104 2.541.104.047-.078.078-.166.117-.249.42.454 1.155.418 1.721-.081.055-.048.097-.108.146-.162.36.515.89 1.156 1.579.989.588-.143.761-.836.844-1.35.096-.595.128-1.207.011-1.801-.085-.436-.214-1.079-.651-1.303-.369-.189-.927-.143-1.178.211.006-.226-.148-2.622-.86-2.896-.836-.322-1.364.238-1.653.898-.245-.552-.679-.926-1.395-.408-.532.385-.8 1.073-.916 1.815-.291-.829-.76-1.363-1.341-1.078-1.114.547-1.135 2.761-1.103 3.746.018.56-.041 1.282.492 1.635z" fill="#FFA18A" data-color="3"/>
        <path d="m108.982 117.85-.023-.001a.204.204 0 0 1-.181-.226l.301-2.667a.205.205 0 0 1 .227-.18.204.204 0 0 1 .181.226l-.301 2.667a.206.206 0 0 1-.204.181z" opacity=".2"/>
        <path d="M106.907 117.944h-.002a.206.206 0 0 1-.204-.206l.035-4.528a.206.206 0 0 1 .205-.203h.002a.206.206 0 0 1 .204.206l-.035 4.528a.205.205 0 0 1-.205.203z" opacity=".2"/>
        <path d="M104.388 118.141h-.009a.205.205 0 0 1-.196-.213l.136-3.142a.206.206 0 0 1 .214-.195c.113.005.201.1.196.213l-.136 3.142a.205.205 0 0 1-.205.195z" opacity=".2"/>
        <path d="M99.623 116.772c.032-.984.011-3.198-1.103-3.746-.581-.286-1.05.248-1.341 1.078-.116-.742-.384-1.43-.916-1.815-.716-.519-1.15-.145-1.395.408-.289-.661-.817-1.22-1.653-.898-.712.274-.866 2.671-.86 2.896-.252-.354-.809-.4-1.178-.211-.437.224-.565.867-.651 1.303-.117.594-.085 1.206.011 1.801.083.514.255 1.208.844 1.35.69.167 1.22-.474 1.579-.989.049.054.092.113.146.162.566.499 1.301.535 1.721.081.04.083.071.17.117.249.596 1 2.009.812 2.541-.104.01.005.013.014.024.018l.066.024c.374.29 1.187.272 1.556.028.534-.354.474-1.076.492-1.635z" fill="#FFA18A" data-color="3"/>
        <path d="M92.696 117.85a.205.205 0 0 1-.204-.182l-.301-2.667a.206.206 0 0 1 .181-.226.207.207 0 0 1 .227.18l.301 2.667a.206.206 0 0 1-.181.226c-.008.002-.016.002-.023.002z" opacity=".2"/>
        <path d="M94.77 117.944a.204.204 0 0 1-.205-.203l-.035-4.528a.205.205 0 0 1 .204-.206h.002c.113 0 .204.09.205.203l.035 4.528a.205.205 0 0 1-.204.206h-.002z" opacity=".2"/>
        <path d="M97.29 118.141a.206.206 0 0 1-.205-.196l-.136-3.142a.205.205 0 0 1 .41-.018l.136 3.142a.205.205 0 0 1-.196.213l-.009.001z" opacity=".2"/>
        <path d="M77.561 111.909h-.011l-5.747-.303a.205.205 0 0 1-.194-.215.21.21 0 0 1 .216-.193l5.747.303c.113.006.2.102.194.215a.205.205 0 0 1-.205.193z" opacity=".2"/>
        <path d="M124.1 111.221a.204.204 0 0 1-.033-.406l5.179-.86a.204.204 0 1 1 .067.403l-5.179.86a.187.187 0 0 1-.034.003z" opacity=".2"/>
        <path d="M79.173 68.098v.392a38.992 38.992 0 0 0-4.142.229c-.094.008-.189.016-.283.029.267-.172.534-.335.792-.482.119-.012.238-.025.357-.029.004-.004.004-.004.008-.004a39.6 39.6 0 0 1 3.268-.135z" fill="#FFFFFF" data-color="4"/>
        <path d="M76.78 75.36c.796.033 1.597.061 2.393.086v.405a301.078 301.078 0 0 1-3.793-.143l-1.888-.086c-1.363-.057-2.73-.114-4.092-.143.058-.135.111-.27.164-.4 1.301.029 2.606.082 3.908.139 1.104.048 2.208.097 3.308.142z" fill="#FFFFFF" data-color="4"/>
        <path d="M127.842 71.51a83.06 83.06 0 0 0-3.657.703c-.209.045-.423.09-.632.139l.02-.4a81.107 81.107 0 0 1 3.205-.67c.267-.049.538-.098.805-.143.087.118.173.245.259.371z" fill="#FFFFFF" data-color="4"/>
        <path d="M77.051 81.689a33.32 33.32 0 0 1 2.122.057v.413a35.15 35.15 0 0 0-4.909.074c-.107.008-.213.02-.32.033-2.467.237-4.922.744-7.38 1.144l.123-.364c2.409-.384 4.819-.879 7.228-1.152a29.925 29.925 0 0 1 3.136-.205z" fill="#FFFFFF" data-color="4"/>
        <path d="M131.971 80.627a97.548 97.548 0 0 0-3.904.629l-1.921.356c-1.03.192-2.052.384-3.079.572l.021-.405c1.01-.192 2.015-.388 3.021-.576 1.662-.315 3.325-.617 5-.87.234-.037.472-.069.706-.102.054.13.103.261.156.396z" fill="#FFFFFF" data-color="4"/>
        <path d="M75.175 86.434c1.338.045 2.668.147 3.998.282v.421a56.883 56.883 0 0 0-4.868-.306c-.304-.008-.608-.008-.911-.008-2.746.016-5.476.278-8.189.678.049-.143.094-.286.144-.433 2.955-.425 5.927-.691 8.919-.654.304.003.603.011.907.02z" fill="#FFFFFF" data-color="4"/>
        <path d="M133.535 84.787c-1.634.09-3.267.192-4.897.306a260.616 260.616 0 0 0-5.735.465l.02-.409c1.166-.106 2.336-.204 3.501-.294 2.323-.184 4.642-.339 6.966-.47l.145.402z" fill="#FFFFFF" data-color="4"/>
        <path d="m76.915 94.394 2.258.049v.409c-1.408-.029-2.82-.061-4.228-.098h-.053a1726.39 1726.39 0 0 1-9.129-.249c-.911-.025-1.835-.065-2.754-.086a.334.334 0 0 1 .012-.188c.016-.041.041-.114.078-.221 1.022.025 2.044.069 3.058.098 2.927.082 5.849.168 8.776.237l1.982.049z" fill="#FFFFFF" data-color="4"/>
        <path d="M135.571 90.32c-1.576.106-3.152.249-4.724.417a178.96 178.96 0 0 0-4.101.49c-1.387.176-2.767.368-4.15.564l.02-.409c1.375-.196 2.754-.384 4.133-.564 2.886-.368 5.779-.682 8.677-.887.047.131.096.262.145.389z" fill="#FFFFFF" data-color="4"/>
        <path d="M125.297 99.04c-1.211.172-2.003.188-2.479.168.825-.062 1.654-.115 2.479-.168z" fill="#FFFFFF" data-color="4"/>
        <path d="M79.173 97.094a.204.204 0 0 1-.205-.204c0-.051.008-5.151.716-9.423.7-4.218-1.888-17.227-1.914-17.358a.205.205 0 0 1 .402-.08c.108.538 2.629 13.213 1.916 17.505-.703 4.238-.711 9.305-.711 9.356a.202.202 0 0 1-.204.204z" fill="#E35F4B" data-color="5"/>
        <path d="M79.98 84.591a.204.204 0 0 1-.194-.139l-4.989-14.716a.204.204 0 0 1 .129-.259.204.204 0 0 1 .26.128l4.989 14.716a.204.204 0 0 1-.195.27z" fill="#E35F4B" data-color="5"/>
        <path d="m121.208 94.635-.02-.001a.204.204 0 0 1-.184-.223c.004-.034.345-3.465.548-5.15.125-1.035.092-2.332.051-3.974-.026-1.044-.056-2.226-.053-3.598.007-3.557 2.522-12.42 2.629-12.795a.204.204 0 0 1 .254-.141.204.204 0 0 1 .141.252c-.026.091-2.606 9.184-2.614 12.684-.003 1.366.027 2.546.053 3.587.041 1.658.074 2.968-.055 4.033a348.662 348.662 0 0 0-.546 5.142.206.206 0 0 1-.204.184z" fill="#E35F4B" data-color="5"/>
        <path d="M122.235 78.031a.204.204 0 0 1-.188-.288l3.518-7.758a.205.205 0 0 1 .375.168l-3.518 7.758a.206.206 0 0 1-.187.12z" fill="#E35F4B" data-color="5"/>
        <path d="M100.587 73.809c-2.387 0-10.887-8.993-11.889-10.061a.204.204 0 0 1 .01-.289.206.206 0 0 1 .29.01c3.873 4.132 10.466 10.473 11.698 9.914 1.226-.563 6.525-5.341 9.371-7.909 2.375-2.142 2.372-2.138 2.533-2.045l.13.076-.033.149a.206.206 0 0 1-.13.147c-.19.142-1.136.995-2.224 1.976-3.064 2.763-8.192 7.388-9.475 7.977a.656.656 0 0 1-.281.055z" fill="#E35F4B" data-color="5"/>
        <path d="M78.173 70.029a.205.205 0 0 0-.402.08c.019.097 1.452 7.301 1.901 12.729l-4.486-13.233a.203.203 0 0 0-.26-.128.205.205 0 0 0-.129.259l4.979 14.684c.055 1.219.038 2.28-.09 3.047-.709 4.271-.716 9.372-.716 9.423a.205.205 0 0 0 .41 0c0-.051.008-5.117.711-9.356.711-4.292-1.81-16.968-1.918-17.505z" opacity=".5"/>
        <path d="M125.94 70.153a.204.204 0 0 0-.103-.27.206.206 0 0 0-.272.102l-2.765 6.097c.758-3.5 1.756-7.02 1.772-7.076a.203.203 0 0 0-.141-.252.204.204 0 0 0-.254.141c-.107.376-2.621 9.238-2.629 12.795-.003 1.372.027 2.554.053 3.598.041 1.642.073 2.939-.051 3.974-.203 1.685-.544 5.116-.548 5.15a.206.206 0 0 0 .204.225.206.206 0 0 0 .204-.184c.003-.034.344-3.461.546-5.142.128-1.064.096-2.374.055-4.033-.026-1.041-.056-2.221-.053-3.587.002-.953.198-2.326.478-3.814l3.504-7.724z" opacity=".5"/>
        <path d="M100.587 73.809c-2.387 0-10.887-8.993-11.889-10.061a.204.204 0 0 1 .01-.289.206.206 0 0 1 .29.01c3.873 4.132 10.466 10.473 11.698 9.914 1.226-.563 6.525-5.341 9.371-7.909 2.375-2.142 2.372-2.138 2.533-2.045l.13.076-.033.149a.206.206 0 0 1-.13.147c-.19.142-1.136.995-2.224 1.976-3.064 2.763-8.192 7.388-9.475 7.977a.656.656 0 0 1-.281.055z" opacity=".5"/>
        <path d="M93.227 43.044c.013-.112-.105-.202-.205-.204l-.029-.001h-.002l-.097-.002c-.011 0-.019.004-.03.005-.068.004-.13.019-.185.084a.235.235 0 0 0 .024.335c.06.05.128.07.194.07a.196.196 0 0 0 .194-.041c.022-.02.034-.044.049-.067a.313.313 0 0 0 .087-.179z" opacity=".2"/>
        <path d="M94.873 43.865a.452.452 0 0 0-.209-.03c-.262.021-.264.43 0 .409a.115.115 0 0 1 .1.016c.246.096.352-.299.109-.395z" opacity=".2"/>
        <path d="m96.05 43.069-.077-.051c-.221-.146-.426.207-.207.353l.077.051c.221.146.426-.207.207-.353z" opacity=".2"/>
        <path d="m93.358 44.991-.153-.055c-.249-.089-.356.305-.109.394l.153.055c.249.09.356-.305.109-.394z" opacity=".2"/>
        <path d="m97.1 44.52-.001.007c-.234-.121-.442.231-.207.353a.339.339 0 0 0 .208.049c.261-.023.264-.431 0-.409z" opacity=".2"/>
        <path d="M107.584 42.689a.306.306 0 0 0-.245-.097c-.157-.041-.285.12-.248.255.024.097.113.181.222.167a.91.91 0 0 0 .126.024c.186.021.257-.232.145-.349z" opacity=".2"/>
        <path d="M105.823 43.704a.188.188 0 0 1-.128-.009c-.253-.077-.361.317-.109.394.08.024.153.033.237.024.26-.03.263-.439 0-.409z" opacity=".2"/>
        <path d="M103.829 42.756c-.109-.046-.207-.062-.311.011-.191.135-.047.431.141.382a.227.227 0 0 0 .243-.113c.053-.086.029-.237-.073-.28z" opacity=".2"/>
        <path d="m104.318 45.118-.027.024c-.195.178.096.467.29.289l.027-.024c.195-.179-.096-.467-.29-.289z" opacity=".2"/>
        <path d="m107.334 45.185-.069-.02a.188.188 0 0 0-.108 0c-.215.017-.292.35-.053.393l.121.022c.256.045.366-.319.109-.395z" opacity=".2"/>
        <path d="M102.208 158.966c-.014-.018-1.455-1.851-2.647-4.853-1.202-3.025-2.204-5.875-2.214-5.903a.206.206 0 0 0-.261-.126.203.203 0 0 0-.126.26c.01.029 1.015 2.885 2.219 5.919.205.517.416.984.626 1.428-2.983-2.281-6.929-5.335-7.229-5.672a.192.192 0 0 0-.192-.107.204.204 0 0 0-.193.216c.007.12.018.285 8.023 6.39.872 1.675 1.629 2.647 1.672 2.702a.206.206 0 0 0 .322-.254z" opacity=".2"/>
        <path d="M99.446 39.343a1.018 1.018 0 0 0-.288-.119c-1.854-.518-4.445-.519-6.345-.291-.463.055-1.739.227-1.739.227l-.028.902s.56.378.759 1.565c.11.659.441 1.714.763 2.057.479.511 2.58.825 3.846.613 1.08-.181 1.89-.55 2.363-1.415.468-.856.867-3.207.811-3.37a.343.343 0 0 0-.142-.169zm-1.258 3.539c-.42.516-1.108.897-1.798.996-1.223.175-2.673.11-3.394-.658-.337-.359-.491-1.023-.582-1.49-.044-.226-.169-1.357-.089-1.629.129-.438.615-.519 1.012-.591.886-.159 2.207-.175 3.106-.116.451.03.9.078 1.348.138.307.041.831.063 1.012.349.169.268-.232 2.531-.615 3.001z" fill="#FFFFFF" data-color="4"/>
        <path d="M101.279 39.513c-.056.163.343 2.514.811 3.37.473.865 1.283 1.234 2.363 1.415 1.265.212 3.367-.102 3.846-.613.322-.344.653-1.399.763-2.057.199-1.187.759-1.565.759-1.565l-.028-.902s-1.276-.172-1.739-.227c-1.9-.228-4.491-.228-6.345.291a1.06 1.06 0 0 0-.288.119.33.33 0 0 0-.142.169zm.784.369c.181-.286.705-.308 1.012-.349.448-.06.897-.109 1.348-.138.899-.059 2.22-.043 3.106.116.397.071.883.152 1.012.591.08.272-.045 1.403-.089 1.629-.091.467-.244 1.131-.582 1.49-.721.768-2.171.833-3.394.658-.69-.099-1.379-.48-1.798-.996-.383-.471-.784-2.734-.615-3.001z" fill="#FFFFFF" data-color="4"/>
        <path d="M99.152 39.224s.46.182 1.115.216c.656.034 1.485-.228 1.485-.228l-.302 1.203s-.434-.271-1.128-.265c-.694.005-1.17.533-1.17.533v-1.459z" fill="#FFFFFF" data-color="4"/>
    </g>
</svg>
