<?xml version="1.0" encoding="UTF-8"?>
<svg data-bbox="76.5 25.509 47.008 159.981" viewBox="0 0 200 211" height="211" width="200" xmlns="http://www.w3.org/2000/svg" data-type="color">
    <g>
        <path d="M121.887 81.642c-.018.097-.047.193-.051.291-.029.655-.028 1.313-.083 1.965a11.41 11.41 0 0 1-.374 2.066c-.142.516-.231 1.046-.373 1.562-.144.525-.348 1.035-.483 1.562-.258 1.012-.733 1.932-1.163 2.872-.388.849-.785 1.693-1.179 2.539-.254.544-.508 1.088-.764 1.632-.244.518-.471 1.046-.737 1.552-.443.842-.921 1.665-1.366 2.506-.367.693-.779 1.365-1.049 2.107a.939.939 0 0 1-.084.175c-.08.129-.101.132-.279.063-.127-.499-.246-.991-.377-1.48-.403-1.508-.809-3.014-1.216-4.521-.065-.239-.127-.483-.361-.63.095-.279.176-.534.268-.784.169-.459.339-.919.519-1.374.222-.558.456-1.11.682-1.666.184-.453.372-.906.546-1.364.524-1.382.947-2.8 1.265-4.243.106-.487.249-.966.348-1.454.076-.378.108-.766.16-1.149.041-.301.069-.605.126-.904.131-.683.18-1.371.174-2.066a18.239 18.239 0 0 0-.096-1.685c-.036-.358-.044-.718-.054-1.078-.005-.183.006-.183.211-.316l.236.215c.509-.041.995-.216 1.483-.373.633-.2 1.245-.461 1.828-.78.451-.25.892-.517 1.337-.778.079-.047.151-.106.23-.153.287-.171.478-.063.492.279.004.102.003.204.001.305-.014.656.024 1.309.087 1.963.041.431.038.867.06 1.3.005.098.031.194.048.291-.005.516-.008 1.034-.012 1.553z" fill="#F7B986" data-color="1"/>
        <path d="M116.239 149.09c-.176-.224-.164-.479-.202-.729-.008-.055-.003-.112-.014-.166-.12-.587-.209-1.18-.267-1.776-.056-.604-.179-1.203-.287-1.801-.082-.454-.193-.902-.279-1.355-.167-.878-.308-1.762-.494-2.637-.18-.848-.394-1.69-.609-2.53-.208-.814-.351-1.642-.597-2.448-.353-1.156-.644-2.331-.964-3.497-.026-.096-.067-.189-.105-.292-.256-.006-.329.057-.379.291-.108.505-.223 1.009-.323 1.515a49.843 49.843 0 0 0-.297 1.633c-.095.591-.164 1.186-.258 1.778-.119.746-.267 1.488-.373 2.236-.137.959-.318 1.91-.514 2.858-.196.948-.377 1.901-.593 2.845-.196.845-.41 1.686-.643 2.522-.173.631-.428 1.238-.511 1.894-.062.484-.138.967-.199 1.451-.051.402-.081.807-.136 1.209-.083.612-.185 1.221-.269 1.832-.104.767-.197 1.535-.294 2.303-.022.174-.047.347-.062.522-.026.285-.039.571-.068.855-.074.724-.155 1.447-.231 2.171-.027.257-.041.515-.075.771-.066.512-.143 1.022-.212 1.533-.065.484-.101.974-.196 1.452-.16.814-.343 1.624-.543 2.429-.118.477-.177.961-.231 1.446-.018.163-.005.333.019.497.088.611.32 1.174.615 1.71.23.42.535.777.972.992.255.126.523.225.782.344.289.134.589.207.907.209.249.001.498-.001.746.006.763.022 1.416-.278 2.022-.705a.812.812 0 0 0 .323-.405c.111-.335.146-.684.171-1.03.043-.598.073-1.199.068-1.799-.004-.513.093-1.009.163-1.511.055-.392.132-.781.195-1.172.086-.537.15-1.078.253-1.611.159-.824.334-1.645.52-2.463.279-1.232.568-2.463.864-3.69.162-.673.36-1.338.518-2.012.162-.691.288-1.39.443-2.083.203-.909.418-1.816.626-2.724.033-.144.068-.29.073-.436.006-.15.022-.334-.055-.432zm-18.702 18.263c-.122-.811-.291-1.614-.442-2.42-.094-.498-.199-.995-.285-1.495-.109-.636-.206-1.273-.303-1.911-.065-.428-.122-.857-.179-1.286-.052-.392-.1-.785-.151-1.178-.037-.283-.082-.565-.113-.849-.026-.238-.03-.478-.053-.716-.046-.476-.111-.951-.143-1.429-.033-.497-.035-.996-.05-1.494-.002-.074.005-.149-.005-.222a10.309 10.309 0 0 1-.094-1.684c.005-.222.015-.447-.015-.665a12.62 12.62 0 0 1-.14-1.624 5.241 5.241 0 0 0-.064-.771c-.07-.446-.167-.889-.145-1.345.002-.045-.013-.09-.021-.143a.456.456 0 0 0-.405-.104c-.151.023-.308.006-.463.003-.082-.001-.164-.018-.246-.014-.183.008-.366.024-.549.037-.329.023-.663.022-.987.076-.5.083-.996.161-1.506.137-.2-.01-.402.025-.603.039a1.27 1.27 0 0 1-.138.002c-.404-.019-.807-.056-1.21-.055-.31.001-.621.048-.924.179-.126-.113-.257-.066-.412.033.01.092.012.191.032.287.121.587.25 1.173.367 1.761.094.47.143.951.267 1.413.192.714.349 1.433.478 2.161.182 1.026.397 2.046.603 3.066a124.08 124.08 0 0 0 1.085 4.974c.17.709.383 1.408.543 2.119.3 1.332.576 2.669.86 4.003.065.306.118.614.185.92.015.068.065.127.097.189.377.053.708.186 1.008.393.25.173.504.339.743.526.434.341.857.696 1.285 1.045.186.151.365.311.563.445.221.15.462.114.651-.07.059-.058.117-.118.172-.18.528-.608.83-1.324.977-2.109.028-.152.041-.321.006-.469-.125-.518-.197-1.046-.276-1.575z" fill="#F7B986" data-color="1"/>
        <path d="M111.848 161.454c-.744.017-1.488-.028-2.234.033-.455.037-.916-.008-1.376-.042-.386-.029-.776.003-1.165.02-.029.203-.058.405-.085.608-.065.484-.101.974-.196 1.452-.16.814-.343 1.624-.543 2.429-.118.477-.177.961-.231 1.446-.018.163-.005.333.019.497.088.611.32 1.174.615 1.71.23.42.535.777.972.992.255.126.523.225.782.344.289.134.589.207.907.209.249.001.498-.001.746.006.763.022 1.416-.278 2.022-.705a.812.812 0 0 0 .323-.405c.111-.335.146-.684.171-1.03.043-.598.073-1.199.068-1.799-.004-.513.093-1.009.163-1.511.055-.392.132-.781.195-1.172.086-.537.15-1.078.253-1.611.099-.512.206-1.023.316-1.533l-.401.017c-.44.019-.88.035-1.321.045z" fill="#CAC9FC" data-color="2"/>
        <path d="M95.042 161.387c-.583.04-1.173.019-1.763-.04-.685-.068-1.378-.022-2.066.036-.217.018-.433.037-.65.054.053.227.104.455.159.682.17.709.383 1.408.543 2.119.3 1.332.576 2.669.86 4.003.065.306.118.614.185.92.015.068.065.127.097.189.377.053.708.186 1.008.393.25.173.504.339.743.526.434.341.857.696 1.285 1.045.186.151.365.311.563.445.221.15.462.114.651-.07.059-.058.117-.118.172-.18.528-.608.83-1.324.977-2.109.028-.152.041-.321.006-.469-.122-.522-.194-1.05-.274-1.579-.122-.811-.291-1.614-.442-2.42-.094-.498-.199-.995-.285-1.495-.109-.636-.206-1.273-.303-1.911l-.023-.166c-.481-.002-.961-.005-1.443.027z" fill="#CAC9FC" data-color="2"/>
        <path d="M88.214 50.131l.001-.167.784-2.069c.171-.448.348-.894.515-1.344.279-.749.424-1.526.522-2.32a11.65 11.65 0 0 0-.045-3.176c-.11-.731-.228-1.458-.223-2.204a9.366 9.366 0 0 0-.107-1.379 4.59 4.59 0 0 1 .342-2.547c.127-.287.223-.587.348-.875.151-.346.295-.698.481-1.026.488-.858 1.125-1.575 2.014-2.038.155-.081.299-.181.447-.276.057-.037.108-.083.178-.138-.414-.092-.733-.311-1.042-.543-.251-.189-.367-.456-.385-.767a5.14 5.14 0 0 1 .382-2.305c.042-.101.097-.201.165-.286.481-.6 1.101-.97 1.853-1.118.043-.008.084-.029.125-.044l.608.004c.033.014.064.037.098.04.497.056.935.267 1.357.518.209.124.371.298.497.509.24.399.39.835.541 1.271.116.333.129.668.051 1.01-.015.066-.011.135-.017.22.226-.06.422-.109.616-.165.496-.143.978-.11 1.461.073.335.127.678.24 1.025.328 1.195.304 2.049 1.064 2.699 2.068.391.603.716 1.249 1.068 1.877.16.285.257.59.291.918.026.257.062.514.103.769.054.336.187.634.426.883.3.313.595.631.885.953.773.859 1.383 1.82 1.763 2.918.066.191.121.388.162.586.098.47.185.942.274 1.414.02.108.038.22.038.329.01.924-.011 1.848-.061 2.771-.021.4-.011.797.093 1.184.092.338.207.669.312 1.003l-.003.444c-.013.023-.035.045-.039.07-.06.417-.224.798-.402 1.174-.143.323-.372.6-.662.802-.344.23-.703.437-1.061.646-.309.181-.623.356-.939.525-.226.121-.45.273-.694.329-.775.178-1.511.467-2.259.723a14.321 14.321 0 0 1-3.472.738c-.504.042-1.007.095-1.511.137-.458.039-.916.079-1.374.103-.284.015-.57.002-.856.004a5.473 5.473 0 0 1-1.528-.19 6.958 6.958 0 0 0-.834-.181c-.236-.035-.479-.018-.715-.049a2.677 2.677 0 0 1-1.228-.465c-.43-.304-.892-.514-1.434-.505-.137.002-.275-.022-.412-.042-.514-.074-.933-.285-1.126-.809-.039-.1-.065-.207-.096-.313z" fill="#343335" data-color="3"/>
        <path d="M85.989 181.934l.073-.405c.111-.606.346-1.169.618-1.716.428-.86.883-1.706 1.371-2.534.351-.596.683-1.204 1.055-1.789.187-.295.33-.619.481-.935.483-1.008.948-2.025 1.446-3.024.271-.545.596-1.063.897-1.593.027-.048.057-.095.085-.143.118-.2.26-.32.521-.339.498-.036.977-.002 1.428.213.214.102.422.234.599.391.366.324.708.674 1.064 1.01.193.182.394.356.622.561.664-.988 1.335-1.923 1.358-3.21.143.093.227.139.301.197.756.596 1.28 1.372 1.696 2.23.239.492.29 1.006.18 1.541a4.464 4.464 0 0 1-.42 1.169c-.199.385-.358.791-.548 1.181-.304.622-.624 1.237-.93 1.858-.278.563-.549 1.13-.819 1.697a6.672 6.672 0 0 0-.478 1.416c-.207.914-.47 1.806-.919 2.635-.101.186-.184.383-.267.579-.407.957-1.11 1.607-2.078 1.947-.905.318-1.839.551-2.8.594-.688.031-1.381.05-2.068-.05-.582-.085-1.063-.37-1.449-.798-.391-.433-.719-.916-.902-1.481-.045-.139-.081-.281-.121-.421 0-.263.002-.522.004-.781z" fill="#343335" data-color="3"/>
        <path d="M112.542 168.85c.187.05.202.197.228.328.04.199.066.401.104.601.115.602.308 1.179.553 1.74.377.864.725 1.739.977 2.65.234.843.628 1.596 1.251 2.22.097.097.189.205.263.321.623.975 1.187 1.974 1.461 3.119.261 1.094.116 2.12-.454 3.07-.77 1.283-1.892 2.066-3.384 2.288a3.645 3.645 0 0 1-1.263-.018c-.307-.061-.617-.103-.923-.169a2.06 2.06 0 0 1-.88-.442c-.747-.616-1.415-1.298-1.854-2.176a11.019 11.019 0 0 1-.795-2.007 350.974 350.974 0 0 1-1.011-3.746 9.523 9.523 0 0 0-.662-1.79c-.184-.373-.348-.757-.547-1.121-.248-.453-.52-.893-.789-1.334-.287-.469-.525-.957-.604-1.508-.155-1.078-.063-2.122.45-3.102.12-.229.252-.452.373-.681.283-.539.748-.908 1.195-1.293.056-.049.143-.061.242-.101.012.095.026.155.026.215 0 .537 0 1.073-.005 1.61a4.82 4.82 0 0 0 .705 2.559c.171.287.398.506.695.654.596.297 1.21.544 1.879.615.305.032.607.016.899-.094.103-.039.204-.085.306-.127.652-.267 1.02-.799 1.283-1.418.113-.271.182-.56.281-.863z" fill="#343335" data-color="3"/>
        <path d="M109.004 88.256c.175.036.245.113.28.245.044.168.087.342.166.495.261.509.526 1.018.812 1.513.344.594.627 1.214.876 1.852.295.757.607 1.508.892 2.269.149.397.262.808.381 1.215.223.762.446 1.524.657 2.289.189.685.365 1.374.542 2.062.149.581.307 1.16.43 1.746.162.767.334 1.535.428 2.312.104.863.306 1.707.439 2.563.135.866.256 1.734.376 2.602.127.923.25 1.846.368 2.77.062.485.102.972.165 1.457.052.393.121.784.187 1.175.146.864.306 1.725.44 2.591.153.984.285 1.971.427 2.957.122.849.25 1.697.367 2.546.08.585.142 1.172.222 1.757.042.311.112.617.158.927.057.383.1.768.152 1.152.058.42.122.84.178 1.26.035.265.062.531.089.797.051.514.103 1.028.149 1.542.025.285.035.571.06.856.055.625.113 1.25.173 1.874.024.248.057.495.082.743.068.66.139 1.321.2 1.982.045.487.074.975.113 1.463.028.359.061.717.091 1.076.002.028.007.055.008.083.016.527.026 1.054.049 1.58.023.544.059 1.088.089 1.632.005.092.001.185.008.277.046.607.095 1.214.142 1.821.022.285.046.57.06.856.028.572.053 1.142.14 1.711.107.697.07 1.402.059 2.105a.324.324 0 0 1-.224.32c-.466.175-.935.361-1.442.328-.398-.026-.76.117-1.139.183-.045.008-.089.027-.135.029-.246.014-.453-.035-.514-.373-.142-.79-.283-1.579-.432-2.367-.121-.634-.26-1.265-.379-1.9-.131-.698-.244-1.399-.37-2.098-.116-.644-.213-1.294-.363-1.93-.376-1.599-.779-3.191-1.166-4.788-.072-.296-.114-.598-.18-.895-.078-.351-.153-.704-.252-1.049-.179-.621-.374-1.238-.563-1.856a.715.715 0 0 0-.12-.252c-.025.187-.048.375-.075.562-.134.959-.268 1.918-.405 2.876-.114.803-.254 1.604-.341 2.41-.078.727-.218 1.441-.357 2.156-.171.878-.324 1.761-.529 2.631-.363 1.545-.769 3.08-1.138 4.624-.133.555-.212 1.122-.324 1.727-.116.131-.314.133-.503.104-.363-.056-.721-.144-1.083-.205-.371-.062-.744-.108-1.117-.159-.355-.049-.71-.097-1.065-.142a23.513 23.513 0 0 0-.794-.091c-.449-.041-.897-.092-1.347-.11a98.312 98.312 0 0 0-2.429-.065c-.386-.006-.773.025-1.159.021-.488-.005-.975-.044-1.462-.042-.902.004-1.805.026-2.707.041-.672.011-1.344.022-2.016.035-.543.01-1.087.01-1.628.04-.485.027-.969.087-1.453.137-.539.056-1.076.123-1.616.173-.595.055-1.191.098-1.787.141-.358.026-.716.036-1.074.061-.302.021-.604.054-.906.081-.073.007-.147.019-.22.018-.301-.003-.39-.142-.365-.441.021-.253-.016-.513-.036-.769-.041-.505-.091-1.01-.134-1.515-.038-.441-.067-.883-.11-1.324-.041-.413-.116-.823-.138-1.237-.027-.501-.135-.986-.222-1.477-.107-.599-.191-1.202-.307-1.8-.116-.598-.257-1.19-.389-1.785-.178-.802-.338-1.608-.544-2.403-.285-1.101-.465-2.22-.646-3.34a14.241 14.241 0 0 1-.204-2.286c0-.35-.054-.699-.081-1.049-.008-.11-.008-.222-.011-.333l-.08-3.465c-.002-.074.001-.148-.001-.222-.019-.86-.027-1.72-.062-2.579-.021-.516-.1-1.029-.124-1.545-.019-.406.007-.814.014-1.22.003-.138.024-.278.012-.415a7.128 7.128 0 0 1 .072-1.822c.046-.272.059-.55.081-.826.055-.69.113-1.381.159-2.072.022-.341.012-.685.03-1.027.026-.507.064-1.014.098-1.52.002-.037.007-.074.008-.111.031-.804.07-1.608.089-2.412.033-1.36.029-2.721.087-4.078.035-.809.057-1.623.21-2.426.081-.424.086-.863.134-1.294.041-.366.095-.731.14-1.097.035-.293.069-.586.096-.88.05-.544.154-1.076.281-1.607.236-.987.457-1.978.688-2.967.046-.198.105-.393.168-.586.355-1.098.638-2.221 1.076-3.29.143-.349.32-.687.511-1.013.379-.648.861-1.222 1.327-1.808.465-.585.923-1.176 1.384-1.765.218-.278.301-.285.639-.184.413.124.835.222 1.255.32.975.228 1.951.451 2.928.672.51.116 1.021.23 1.535.333.242.048.49.07.737.097.566.064 1.132.119 1.697.186.747.089 1.493.194 2.241.277.365.041.734.046 1.101.074 1.138.087 2.278.134 3.418.143.248.002.496.043.744.037.689-.017 1.378-.063 2.067-.071.771-.009 1.508-.206 2.253-.368.199-.038.417-.023.533-.239z" fill="#FFF86B" data-color="4"/>
        <path d="M109.004 88.256c.175.036.245.113.28.245.044.168.087.342.166.495.261.509.526 1.018.812 1.513.344.594.627 1.214.876 1.852.295.757.607 1.508.892 2.269.149.397.262.808.381 1.215.223.762.446 1.524.657 2.289.189.685.365 1.374.542 2.062.149.581.307 1.16.43 1.746.162.767.334 1.535.428 2.312.104.863.306 1.707.439 2.563.135.866.256 1.734.376 2.602.127.923.25 1.846.368 2.77.062.485.102.972.165 1.457.052.393.121.784.187 1.175.146.864.306 1.725.44 2.591.153.984.285 1.971.427 2.957.122.849.25 1.697.367 2.546.08.585.142 1.172.222 1.757.042.311.112.617.158.927.057.383.1.768.152 1.152.058.42.122.84.178 1.26.035.265.062.531.089.797.051.514.103 1.028.149 1.542.025.285.035.571.06.856.055.625.113 1.25.173 1.874.024.248.057.495.082.743.068.66.139 1.321.2 1.982.045.487.074.975.113 1.463.028.359.061.717.091 1.076.002.028.007.055.008.083.016.527.026 1.054.049 1.58.023.544.059 1.088.089 1.632.005.092.001.185.008.277.046.607.095 1.214.142 1.821.022.285.046.57.06.856.028.572.053 1.142.14 1.711.107.697.07 1.402.059 2.105a.324.324 0 0 1-.224.32c-.466.175-.935.361-1.442.328-.398-.026-.76.117-1.139.183-.045.008-.089.027-.135.029-.246.014-.453-.035-.514-.373-.142-.79-.283-1.579-.432-2.367-.121-.634-.26-1.265-.379-1.9-.131-.698-.244-1.399-.37-2.098-.116-.644-.213-1.294-.363-1.93-.376-1.599-.779-3.191-1.166-4.788-.072-.296-.114-.598-.18-.895-.078-.351-.153-.704-.252-1.049-.179-.621-.374-1.238-.563-1.856a.715.715 0 0 0-.12-.252c-.025.187-.048.375-.075.562-.134.959-.268 1.918-.405 2.876-.114.803-.254 1.604-.341 2.41-.078.727-.218 1.441-.357 2.156-.171.878-.324 1.761-.529 2.631-.363 1.545-.769 3.08-1.138 4.624-.133.555-.212 1.122-.324 1.727-.116.131-.314.133-.503.104-.363-.056-.721-.144-1.083-.205-.371-.062-.744-.108-1.117-.159-.355-.049-.71-.097-1.065-.142a23.513 23.513 0 0 0-.794-.091c-.449-.041-.897-.092-1.347-.11a98.312 98.312 0 0 0-2.429-.065c-.386-.006-.773.025-1.159.021-.488-.005-.975-.044-1.462-.042-.902.004-1.805.026-2.707.041-.672.011-1.344.022-2.016.035-.543.01-1.087.01-1.628.04-.485.027-.969.087-1.453.137-.539.056-1.076.123-1.616.173-.595.055-1.191.098-1.787.141-.358.026-.716.036-1.074.061-.302.021-.604.054-.906.081-.073.007-.147.019-.22.018-.301-.003-.39-.142-.365-.441.021-.253-.016-.513-.036-.769-.041-.505-.091-1.01-.134-1.515-.038-.441-.067-.883-.11-1.324-.041-.413-.116-.823-.138-1.237-.027-.501-.135-.986-.222-1.477-.107-.599-.191-1.202-.307-1.8-.116-.598-.257-1.19-.389-1.785-.178-.802-.338-1.608-.544-2.403-.285-1.101-.465-2.22-.646-3.34a14.241 14.241 0 0 1-.204-2.286c0-.35-.054-.699-.081-1.049-.008-.11-.008-.222-.011-.333l-.08-3.465c-.002-.074.001-.148-.001-.222-.019-.86-.027-1.72-.062-2.579-.021-.516-.1-1.029-.124-1.545-.019-.406.007-.814.014-1.22.003-.138.024-.278.012-.415a7.128 7.128 0 0 1 .072-1.822c.046-.272.059-.55.081-.826.055-.69.113-1.381.159-2.072.022-.341.012-.685.03-1.027.026-.507.064-1.014.098-1.52.002-.037.007-.074.008-.111.031-.804.07-1.608.089-2.412.033-1.36.029-2.721.087-4.078.035-.809.057-1.623.21-2.426.081-.424.086-.863.134-1.294.041-.366.095-.731.14-1.097.035-.293.069-.586.096-.88.05-.544.154-1.076.281-1.607.236-.987.457-1.978.688-2.967.046-.198.105-.393.168-.586.355-1.098.638-2.221 1.076-3.29.143-.349.32-.687.511-1.013.379-.648.861-1.222 1.327-1.808.465-.585.923-1.176 1.384-1.765.218-.278.301-.285.639-.184.413.124.835.222 1.255.32.975.228 1.951.451 2.928.672.51.116 1.021.23 1.535.333.242.048.49.07.737.097.566.064 1.132.119 1.697.186.747.089 1.493.194 2.241.277.365.041.734.046 1.101.074 1.138.087 2.278.134 3.418.143.248.002.496.043.744.037.689-.017 1.378-.063 2.067-.071.771-.009 1.508-.206 2.253-.368.199-.038.417-.023.533-.239z" fill="#CAC9FC" opacity=".3" data-color="2"/>
        <path d="M91.554 103.85c.209.163.444.295.678.421.453.246.914.475 1.369.717.312.165.63.245.983.153.254-.066.49-.169.69-.336.233-.195.474-.389.668-.62.49-.584.815-1.23.645-2.033-.154-.727-.548-1.243-1.264-1.477-.697-.228-1.386-.192-2.034.155-.347.186-.663.43-1.041.68-.257.023-.321.053-.519.258-.271.28-.432.616-.524.992-.108.437-.005.813.349 1.09z" fill="#FFF86B" data-color="4"/>
        <path d="M88.42 119.324c.208-.255.366-.538.425-.86.086-.47.145-.946.215-1.419-.027-.719-.213-1.373-.636-1.954-.41-.563-.982-.697-1.634-.63-.22.022-.387.159-.58.241-.339.15-.628.395-.831.705-.244.352-.407.744-.536 1.15-.175.548-.089 1.033.338 1.447.278.269.537.557.8.84.165.177.34.343.566.434.298.121.598.241.906.333.375.111.708.03.967-.287z" fill="#FFF86B" data-color="4"/>
        <path d="M93.401 110.527c.19-.279.308-.602.343-.938-.036-.151-.055-.309-.113-.451a1.31 1.31 0 0 0-.825-.769c-.847-.288-1.69-.346-2.507.116-.176.1-.358.19-.536.287a2.495 2.495 0 0 0-1.21 1.418c-.081.235-.184.463-.283.692-.108.249-.176.504-.153.78.032.374.273.606.648.616.303.008.582-.088.85-.212.612-.283 1.263-.385 1.924-.449.787-.077 1.425-.413 1.862-1.09z" fill="#FFF86B" data-color="4"/>
        <path d="M89.215 128.734a1.892 1.892 0 0 0-.312-.582c-.388-.504-1.027-.434-1.308.132-.042.082-.08.167-.112.253-.161.46-.33.917-.476 1.381a8.141 8.141 0 0 0-.343 1.946c.011.401.054.784.201 1.15.141.352.396.572.754.673.159.045.32.092.483.109.319.033.643.083.942-.098.341-.205.611-.476.754-.855.168-.448.225-.908.15-1.387-.145-.934-.456-1.823-.733-2.722z" fill="#FFF86B" data-color="4"/>
        <path d="M93.135 125.508c.777-.129 1.259-.573 1.411-1.322.16-.792.063-1.563-.218-2.314a1.348 1.348 0 0 0-.45-.62c-.289-.219-.597-.268-.931-.104-.173.085-.35.164-.53.235-.143.056-.268.123-.295.282-.08.038-.148.068-.213.102-.711.38-1.191.941-1.389 1.739-.098.394-.033.736.255 1.021.19.187.393.363.601.531.517.415 1.105.558 1.759.45z" fill="#FFF86B" data-color="4"/>
        <path d="M95.209 137.34c-.303-.101-.626-.143-.941-.201-.078-.014-.165.007-.245.025-.25.055-.458.188-.638.367a4.851 4.851 0 0 0-.983 1.43c-.165.359-.183.735-.135 1.114a.964.964 0 0 0 .491.733c.287.168.599.231.881.218.52-.004.98-.098 1.432-.223.874-.241 1.348-.886 1.331-1.794-.014-.753-.483-1.432-1.193-1.669z" fill="#FFF86B" data-color="4"/>
        <path d="M94.558 96.251c.083.001.167.009.248 0 .358-.04.693-.146.915-.45.306-.421.43-.894.323-1.415-.071-.348-.258-.636-.503-.878a6.349 6.349 0 0 1-.893-1.088 1.6 1.6 0 0 0-.812-.644c-.682-.247-.943-.016-1.135.498-.362.971-.341 1.94.117 2.879.351.721.931 1.101 1.74 1.098z" fill="#FFF86B" data-color="4"/>
        <path d="M94.982 112.749c.005.373-.14.658-.4.906a5.308 5.308 0 0 0-.433.467c-.508.622-.719 1.368-.847 2.14-.066.4.076.731.43.948.204.125.409.255.628.347.174.073.37.124.559.13.969.034 1.887-.581 2.239-1.508.284-.748.413-1.531.458-2.329 0-.065.003-.13.001-.194-.025-.686-.306-1.228-.897-1.594a1.697 1.697 0 0 0-.728-.241c-.459-.047-1.02.176-1.01.928z" fill="#FFF86B" data-color="4"/>
        <path d="M85.48 104.857c.235.126.469.256.702.386.261.146.533.252.843.249.647-.049 1.16-.345 1.499-.9.509-.833.131-2.08-.678-2.591a1.073 1.073 0 0 0-.689-.146c-.126.011-.265.025-.371.086-.173.1-.333.229-.483.363-.551.493-.906 1.113-1.128 1.813-.108.346-.005.573.305.74z" fill="#FFF86B" data-color="4"/>
        <path d="M88.255 98.68c.933-.215 1.619-.77 2.074-1.612.137-.254.231-.525.214-.823.017-.227-.04-.44-.141-.641-.159-.317-.397-.535-.763-.564a2.409 2.409 0 0 0-.465.013 2.321 2.321 0 0 0-1.562.848 3.06 3.06 0 0 0-.644 1.426c-.063.354-.024.707.195 1.009.277.379.676.44 1.092.344z" fill="#FFF86B" data-color="4"/>
        <path d="M111.635 119c-.368-.073-.766-.177-1.102.132-.031.029-.088.029-.127.052-.118.068-.249.124-.348.215-.484.446-.75 1.026-.91 1.648-.118.458.05.782.45 1.034.078.049.157.1.242.132.275.104.549.212.83.295.658.194 1.303-.078 1.648-.677.198-.344.295-.714.309-1.113-.033-.274-.063-.549-.101-.822-.074-.521-.417-.801-.891-.896z" fill="#FFF86B" data-color="4"/>
        <path d="M110.527 113.979a1.64 1.64 0 0 0-.165-.806c-.504-1.111-1.371-1.721-2.568-1.885-.395-.054-1.106.256-1.268.675a1.526 1.526 0 0 1-.196.333 2.12 2.12 0 0 0-.344.868c-.072.395.053.688.403.89.197.114.411.21.63.27.655.18 1.315.341 1.974.505.151.037.306.056.459.084.614-.006 1.027-.35 1.075-.934z" fill="#FFF86B" data-color="4"/>
        <path d="M97.96 99.15c.381.028.719-.123 1.007-.378.518-.459.725-1.061.741-1.728.014-.589-.272-.908-.842-1.019-.081-.016-.164-.016-.188-.018-.419-.005-.603.083-.817.361-.051.066-.106.128-.157.192-.31.386-.548.814-.668 1.294-.204.818.317 1.251.924 1.296z" fill="#FFF86B" data-color="4"/>
        <path d="M107.59 126.14c-.21-.275-.629-.434-.883-.31-.196.096-.399.123-.603.167a5.123 5.123 0 0 0-1.776.735c-.301.199-.444.437-.23.881.321.666.777 1.239 1.305 1.743.549.525 1.197.527 1.805.067.577-.437.792-1.044.828-1.831l-.105-.733c-.04-.275-.178-.505-.341-.719z" fill="#FFF86B" data-color="4"/>
        <path d="M115.461 125.995c-.156-.175-.352-.223-.598-.196-.408.044-.65.356-.971.538a.852.852 0 0 0-.269.272 3.258 3.258 0 0 0-.313.551.938.938 0 0 0 .144 1.013c.294.362.64.665 1.047.89.579.319 1.003.16 1.251-.459.146-.364.2-.747.233-1.178-.012-.105-.033-.251-.043-.398-.026-.407-.219-.739-.481-1.033z" fill="#FFF86B" data-color="4"/>
        <path d="M103.965 133.681c-.266-.281-.555-.342-.923-.201-.033.013-.072.032-.103.024-.364-.09-.619.11-.861.329a2.49 2.49 0 0 0-.349.391c-.481.674-.859 1.407-1.061 2.209-.181.714-.012 1.012.572 1.331.298.163.606.314.924.431.21.077.446.119.67.116.397-.005.677-.25.919-.545.56-.68.768-1.478.797-2.342-.018-.184-.03-.368-.054-.551-.059-.449-.214-.858-.531-1.192z" fill="#FFF86B" data-color="4"/>
        <path d="M96.964 128.653c-.224-.021-.458-.012-.629.146-.246.227-.55.322-.843.449-.067.03-.133.063-.198.098-.477.257-.829.641-1.088 1.11-.35.632-.117 1.335.255 1.621.478.367 1.03.484 1.618.361.472-.098.854-.376 1.208-.693.544-.489.805-1.109.85-1.935-.023-.102-.023-.324-.12-.487a1.328 1.328 0 0 0-1.053-.67z" fill="#FFF86B" data-color="4"/>
        <path d="M100.086 125.346c.315-.404.476-.871.504-1.383.039-.66-.469-1.04-.874-1.174-.208-.069-.386-.032-.519.139-.124.159-.23.332-.343.499-.352.52-.418 1.094-.292 1.695.068.325.329.561.62.593.365.04.677-.078.904-.369z" fill="#FFF86B" data-color="4"/>
        <path d="M99.173 110.349c.397.25.824.397 1.291.45.776.088 1.399-.162 1.835-.817.152-.231.275-.48.366-.741.146-.421.201-.863.233-1.315-.052-.355-.092-.713-.161-1.065a1.689 1.689 0 0 0-.412-.836 5.378 5.378 0 0 0-1.117-.945 1.905 1.905 0 0 0-1.272-.263c-.073.009-.149.024-.22.012-.374-.063-.712-.002-.994.271a2.414 2.414 0 0 0-.776.816c-.397.702-.559 1.423-.18 2.193.237.481.452.972.686 1.454.162.332.409.589.721.786z" fill="#FFF86B" data-color="4"/>
        <path d="M102.867 142.04c-.171-.034-.347-.127-.536-.022-.176.098-.372.159-.549.255-.233.127-.473.252-.68.416-.297.234-.585.463-.94.618-.537.235-.924.647-1.092 1.22-.177.604.006.945.614 1.1.172.044.367.033.546.007.3-.042.593-.128.892-.175.844-.132 1.497-.6 2.053-1.209.292-.32.505-.707.505-1.329.006-.358-.311-.78-.813-.881z" fill="#FFF86B" data-color="4"/>
        <path d="M106.537 108.756c.259-.051.53-.071.776-.158.638-.225 1.125-.622 1.324-1.304.098-.335.09-.67.037-1.014-.138-.901-.479-1.722-.939-2.497a1.393 1.393 0 0 0-.692-.572c-.566-.235-1.186-.003-1.327.695a2.838 2.838 0 0 0-.065.741c.026.371-.061.712-.166 1.057-.119.388-.228.779-.328 1.172-.109.426-.078.841.132 1.236.103.193.248.339.441.444.251.135.519.176.807.2z" fill="#FFF86B" data-color="4"/>
        <path d="M82.628 111.38c.252.238.55.372.903.337.155-.015.308-.053.46-.088.423-.097.719-.357.918-.737.185-.352.267-.748.238-1.145.034-1.059-.297-1.934-1.007-2.677-.621-.649-1.597-.629-2.191-.282a.785.785 0 0 0-.138.105c-.02.905-.027 1.81-.047 2.714.007.042.012.084.02.126.119.64.37 1.199.844 1.647z" fill="#FFF86B" data-color="4"/>
        <path d="M81.993 125.157c.477.367.99.678 1.568.855.323.099.655.113.961-.075.371-.228.606-.554.695-.988.117-.566.054-1.121-.08-1.673-.23-.949-.749-1.635-1.72-1.911a1.247 1.247 0 0 1-.589-.394 3.605 3.605 0 0 0-.194-.197c-.325-.303-.682-.32-1.069-.13-.119.058-.246.1-.371.145-.002.141-.001.282.005.422.024.516.103 1.029.124 1.545.025.614.036 1.229.048 1.843l.042.045c.184.181.376.356.58.513z" fill="#FFF86B" data-color="4"/>
        <path d="M83.075 100.412c.408.113.812.103 1.135-.216.338-.334.598-.725.71-1.198.103-.436.104-.88.074-1.322a1.64 1.64 0 0 0-.232-.761c-.215-.347-.539-.51-.934-.445a.948.948 0 0 0-.683.472c-.049.084-.101.168-.152.251-.093.405-.187.811-.283 1.215a11.482 11.482 0 0 0-.277 1.573c.151.201.361.354.642.431z" fill="#FFF86B" data-color="4"/>
        <path d="M93.105 147.132c.298-.719.15-1.403-.225-2.04-.197-.335-.531-.471-.931-.383-.162.035-.33.045-.487.093-.506.153-1.028.191-1.55.243-1.439.142-1.952 1.234-1.76 2.402.075.454.352.766.703 1.007.467-.047.933-.102 1.4-.15.484-.05.968-.11 1.453-.137.113-.006.226-.007.339-.011.071-.033.143-.066.213-.104.388-.205.676-.513.845-.92z" fill="#FFF86B" data-color="4"/>
        <path d="M84.748 142.266a2.292 2.292 0 0 0 1.463-.281c.196-.11.342-.274.454-.472.269-.475.303-.959.088-1.461-.301-.704-.775-1.274-1.355-1.759a2.564 2.564 0 0 0-1.079-.533c-.543-.128-.931.053-1.186.553a1.67 1.67 0 0 0-.128.357c.116.515.235 1.03.336 1.548.088.455.16.914.236 1.372.274.363.654.606 1.171.676z" fill="#FFF86B" data-color="4"/>
        <path d="M113.448 103.863c-.164.168-.3.374-.408.585-.211.413-.33.862-.419 1.316-.071.363-.114.731-.064 1.102.132.983.763 1.546 1.617 1.903.342.143.666.067.933-.213.017-.017.031-.037.047-.054-.079-.563-.16-1.126-.248-1.688-.133-.856-.335-1.699-.439-2.563a14.557 14.557 0 0 0-.091-.622c-.364-.087-.676-.023-.928.234z" fill="#FFF86B" data-color="4"/>
        <path d="M115.444 113.409a.983.983 0 0 0-.203.086c-.562.3-.976.745-1.271 1.309-.195.373-.208.742.003 1.109.202.352.401.707.621 1.048.211.327.472.614.801.831.364.239.78.234 1.105.015-.02-.133-.038-.266-.059-.399-.135-.866-.294-1.727-.44-2.591-.066-.391-.135-.782-.187-1.175a2.872 2.872 0 0 1-.01-.092c-.095-.158-.178-.19-.36-.141z" fill="#FFF86B" data-color="4"/>
        <path d="M87.611 88.25c.53.185 1.061.368 1.6.526.874.256 1.745.53 2.633.724.725.158 1.472.213 2.211.304.319.039.643.046.962.085.858.105 1.713.224 2.571.327.447.054.898.077 1.345.133.932.115 1.867.189 2.807.179a85.831 85.831 0 0 0 2.152-.049c.791-.028 1.581-.069 2.371-.111.247-.013.5-.022.74-.077.771-.177 1.54-.365 2.304-.569.15-.04.296-.097.44-.159a60.649 60.649 0 0 1-.294-.566c-.079-.153-.122-.326-.166-.495-.034-.132-.105-.209-.28-.245-.116.216-.333.201-.529.244-.745.162-1.481.358-2.253.368-.689.008-1.378.054-2.067.071-.247.006-.496-.034-.744-.037a49.965 49.965 0 0 1-3.418-.143c-.367-.029-.736-.033-1.101-.074-.748-.084-1.493-.188-2.241-.277-.565-.067-1.132-.123-1.697-.186-.246-.028-.494-.049-.737-.097a57.44 57.44 0 0 1-1.535-.333c-.976-.221-1.953-.444-2.928-.672-.42-.098-.842-.196-1.255-.32-.338-.102-.421-.095-.639.184l-.776.989.034.029c.147.104.318.187.49.247z" fill="#FFF86B" data-color="4"/>
        <path d="M85.463 92.632c.278.511.696.802 1.307.801.067-.003.15.001.232-.011.845-.123 1.263-.877.899-1.581-.113-.218-.284-.406-.435-.603-.14-.182-.299-.351-.431-.539-.165-.234-.306-.484-.467-.721a2.036 2.036 0 0 0-.298-.363.855.855 0 0 0-.327-.193c-.288.359-.552.738-.791 1.132-.084.144-.164.291-.242.439.022.095.043.191.066.286.111.47.256.928.487 1.353z" fill="#FFF86B" data-color="4"/>
        <path d="M102.02 121.195c.406.331.887.429 1.393.439.101.001.203.003.304.001a.665.665 0 0 0 .109-.015c.877-.188 1.439-.717 1.658-1.589a5.354 5.354 0 0 0 .128-1.788c-.038-.435-.174-.821-.498-1.108a4.065 4.065 0 0 0-.769-.531c-.749-.4-1.317-.182-1.82.455-.586.742-.899 1.65-1.155 2.561-.069.246-.071.516.039.763.14.319.342.592.611.812z" fill="#FFF86B" data-color="4"/>
        <path d="M100.97 101.296c.164.119.328.239.483.37.183.154.348.332.536.479.591.47 1.448.387 1.939-.187.171-.196.319-.411.318-.698-.029-.144-.054-.289-.088-.432-.089-.377-.19-.751-.269-1.13-.106-.51-.23-1.012-.549-1.437a2.079 2.079 0 0 0-.366-.372c-.219-.171-.457-.174-.693-.021-.215.139-.431.277-.645.417a.261.261 0 0 0-.074.081c-.182.289-.381.569-.538.871-.223.427-.387.877-.394 1.372a.78.78 0 0 0 .34.687z" fill="#FFF86B" data-color="4"/>
        <path d="M117.732 136.123c-.35.285-.583.662-.786 1.059-.28.545-.278 1.082.044 1.608.156.255.256.531.324.821.032.135.056.274.11.4.069.159.145.323.254.455.241.29.508.342.838.165.163-.086.317-.189.459-.307l-.017-.324c-.023-.526-.033-1.053-.049-1.58-.001-.028-.006-.055-.008-.083-.031-.359-.063-.717-.091-1.076-.038-.485-.068-.971-.112-1.455a.504.504 0 0 0-.056-.011c-.352-.031-.646.113-.91.328z" fill="#FFF86B" data-color="4"/>
        <path d="M101.662 115.018c.092.001.184 0 .276.002.789.014 1.425-.738 1.165-1.671-.121-.434-.439-.701-.891-.764-.482-.067-.908.012-1.209.464-.29.436-.399.929-.5 1.425-.057.279.078.436.365.475.263.036.528.057.793.085a.03.03 0 0 1 .001-.016z" fill="#FFF86B" data-color="4"/>
        <path d="M103.8 93.754c.206.139.422.264.628.404.206.139.401.295.61.431.235.153.488.256.778.238.716-.044 1.317-.319 1.773-.885.25-.31.411-.656.408-1.01 0-.402-.09-.624-.327-.88-.517-.558-1.201-.634-1.883-.565-.448.045-.88.251-1.317.391a.708.708 0 0 0-.214.125 2.39 2.39 0 0 0-.704.913c-.154.35-.07.624.248.838z" fill="#FFF86B" data-color="4"/>
        <path d="M109.343 145.575c-.092-.486-.363-.652-.844-.529-.463.118-.923.252-1.38.394-.263.082-.523.18-.775.293-.427.192-.65.528-.646 1.006.001.065-.001.13-.001.194-.065.576.18 1.056.452 1.524l.162.022c.373.051.746.097 1.117.159.362.061.72.149 1.083.205.027.004.054.006.082.008.074-.068.143-.145.205-.236.126-.186.242-.382.34-.584.06-.347.12-.686.2-1.019l.11-.449a5.654 5.654 0 0 0-.105-.988z" fill="#FFF86B" data-color="4"/>
        <path d="M111.186 136.096c.227-.233.201-.367-.087-.463a1.107 1.107 0 0 0-.933.078c-.151.086-.291.194-.431.299-.534.403-.903.912-1.021 1.589-.046.264-.039.52.07.76.217.479.446.953.681 1.423.304.608 1.129.582 1.502.17l.037-.194c.139-.715.279-1.429.357-2.156.027-.25.06-.499.094-.747a2.809 2.809 0 0 0-.087-.279c-.058-.156-.118-.311-.182-.48z" fill="#FFF86B" data-color="4"/>
        <path d="M117.242 147.253a.549.549 0 0 0 .177-.172c.066-.118.148-.247.153-.375.032-.777.005-1.553-.21-2.307-.104-.365-.242-.718-.485-1.018-.202-.249-.448-.416-.783-.382-.246.025-.49.064-.77.101-.249-.14-.328-.153-.399.005.088.506.174 1.012.269 1.517.119.635.259 1.265.379 1.9.072.377.141.754.21 1.131.521.047 1.011-.102 1.459-.4z" fill="#FFF86B" data-color="4"/>
        <path d="M109.484 99.022c.275.31.629.476 1.032.449.57.045 1.179-.275 1.291-1.083a4.709 4.709 0 0 0-.102-1.812c-.114-.449-.329-.845-.737-1.098-.14-.087-.303-.136-.441-.226-.243-.158-.474-.104-.702.015a1.456 1.456 0 0 0-.291.208 4.561 4.561 0 0 0-.968 1.269c-.227.428-.212.841.069 1.225.266.363.55.716.849 1.053z" fill="#FFF86B" data-color="4"/>
        <path d="M118.135 136.264c-.192-.277-.566-.383-.823-.204-.185.129-.381.283-.491.473a2.49 2.49 0 0 0-.317 1.677c.027.172.094.326.275.381.185.056.344-.009.472-.15.135-.151.265-.307.401-.457.293-.322.56-.658.641-1.104l.002-.333c-.053-.094-.098-.194-.16-.283zm-30.95-45.101a.36.36 0 0 0 .256-.408c-.011-.09-.046-.178-.076-.265-.068-.195-.238-.296-.389-.415l-.166-.001c-.171.206-.211.69-.076.911.1.162.283.235.451.178zm11.871 19.714c.262.122.539.189.827.2.636.023 1.3-.531 1.396-1.161.062-.405-.122-.705-.434-.927-.434-.308-.658-.739-.768-1.242a6.439 6.439 0 0 1-.153-1.431c.003-.355-.104-.673-.398-.904-.544-.428-1.428-.238-1.799.35-.29.46-.514.965-.482 1.548-.025.368.055.73.217 1.067.308.641.631 1.275.957 1.907.138.271.361.465.637.593zm4.148 22.448c-.221.006-.403.101-.476.303-.129.354-.18.706-.037 1.08.096.259.16.53.189.805.083.721-.164 1.321-.717 1.792-.112.095-.228.189-.327.297-.305.333-.231 1.027.332 1.194.261.077.529.086.787.003.628-.202 1.058-.633 1.285-1.243.255-.686.37-1.407.41-1.919a3.14 3.14 0 0 0-.293-1.53c-.221-.496-.58-.798-1.153-.782zm-17.623-7.849c.097-.309.144-.633.138-.957-.008-.175-.003-.353-.027-.526a3.74 3.74 0 0 0-1.218-2.302 1.104 1.104 0 0 0-1.255-.164c-.21.108-.233.158-.174.396.074.302.229.565.407.813.474.659.607 1.437.773 2.203a.33.33 0 0 1-.169.378c-.248.136-.502.181-.762.032-.128-.073-.247-.162-.379-.228a.89.89 0 0 0-.31-.101c-.233-.02-.376.12-.344.354.02.135.076.263.164.368.171.192.357.377.563.53 1.025.757 2.317.108 2.593-.796zm3.674-16.668c-.325.15-.538.414-.719.707a2.294 2.294 0 0 0-.314 1.568c.01.072.038.143.07.209.171.359.533.472.845.232.194-.149.367-.339.508-.54.34-.483.783-.764 1.371-.829.351-.039.675-.175.989-.332.216-.108.406-.253.556-.446.348-.449.257-.934-.236-1.216a1.68 1.68 0 0 0-.923-.234c-.064 0-.13-.009-.193 0-.649.091-1.249.299-1.757.732-.063.052-.124.115-.197.149zm-6.208-1.267c.293.46.393.964.38 1.507-.01.44-.086.862-.204 1.282a4.169 4.169 0 0 0-.169 1.121c-.002.429.332.592.634.546.1-.016.197-.047.288-.091.914-.44 1.411-1.156 1.419-2.287-.016-.338-.045-.772-.251-1.169a6.491 6.491 0 0 0-1.177-1.6c-.182-.182-.407-.275-.658-.325-.206-.042-.324.047-.442.2-.12.156-.124.3-.032.46.069.119.137.239.212.356zm20.483 10.433c.057-.106.1-.219.128-.336.036-.17.063-.345.066-.518.004-.207-.114-.352-.306-.417-.252-.085-.506-.096-.748.045-.055.032-.109.073-.169.091a.928.928 0 0 0-.534.418 6.94 6.94 0 0 0-.46.88c-.13.308-.264.609-.448.888-.102.154-.19.316-.264.486a2.07 2.07 0 0 0-.15 1.193c.077.432.524.788.878.75.226.016.428-.073.616-.196.568-.372.895-.898.956-1.577.055-.593.161-1.17.435-1.707zm-5.52 11.935c-.122-.28-.352-.351-.613-.199-.165.097-.313.226-.459.352-.223.193-.436.398-.657.593-.307.27-.644.365-1.046.218a1.704 1.704 0 0 0-1.033-.047.515.515 0 0 0-.397.381c-.095.345-.038.663.189.938.26.314.578.54.993.601.164.024.327.051.49.078.524.087 1.025-.027 1.519-.184a.848.848 0 0 0 .285-.165c.534-.453.908-.992.884-1.734.001-.083.015-.17-.001-.249-.043-.196-.074-.401-.154-.583zm-5.62-27.039c.124-.056.233-.147.344-.228.268-.196.521-.415.802-.59.567-.352.655-.259 1.039.034.022.017.046.031.067.049.315.259.687.39 1.078.475a.987.987 0 0 0 .718-.126.469.469 0 0 0 .254-.432 1.44 1.44 0 0 0-.053-.38c-.153-.505-.507-.838-.973-1.036-1.107-.472-2.189-.398-3.235.201-.412.236-.674.592-.848 1.022-.041.1-.047.214-.06.28.008.119.006.194.018.267.072.419.464.636.849.464zm14.462 9.184c.59.279 1.101.666 1.599 1.08.42.349.922.532 1.437.681.214.062.415.003.538-.184.088-.134.156-.296.18-.453a1.499 1.499 0 0 0-.144-.864 3.463 3.463 0 0 0-1.075-1.313 2.254 2.254 0 0 0-1.384-.464c-.532-.068-1.169.364-1.37.695-.215.352-.155.646.219.822zm-15.553 13.55c.355.103.712.18 1.085.179.202-.001.403.028.605.032.118.002.243.002.353-.036.348-.118.444-.508.194-.781a1.517 1.517 0 0 0-.299-.242c-.248-.16-.51-.298-.75-.468a3.594 3.594 0 0 1-.542-.466c-.209-.222-.258-.481-.08-.758.12-.186.237-.375.339-.571.08-.154.159-.316.198-.484.054-.228-.091-.4-.323-.417a.842.842 0 0 0-.274.018c-.399.113-.749.302-.992.657-.279.407-.534.822-.534 1.414.032.45.15.95.395 1.415.126.25.353.435.625.508zm.954-20.423c.527.532 1.169.786 1.916.789.787-.008 1.424-.312 1.883-.967a1.22 1.22 0 0 0 .232-.644c.018-.371-.213-.633-.578-.625-.17.004-.347.046-.505.11-.212.087-.412.206-.61.322-.333.195-.643.206-.979-.02a5.296 5.296 0 0 0-.858-.439 1.543 1.543 0 0 0-1.027-.057c-.137.036-.202.119-.236.241-.07.255.001.477.172.667.193.211.389.42.59.623zm-4.414 23.156c.018-.198-.126-.324-.383-.327-.053.02-.174.035-.253.101a2.283 2.283 0 0 0-.434.455 6.136 6.136 0 0 0-.429.804c-.418.905-.562 1.85-.356 2.833.089.426.244.834.469 1.208.22.366.555.421.888.16.333-.261.467-.599.401-1.025a80.854 80.854 0 0 1-.293-2.083 4.636 4.636 0 0 1-.04-.772c.012-.337.127-.647.297-.941.072-.123.121-.272.133-.413zm-1.898 10.093c-.11-.2-.26-.381-.413-.551a1.108 1.108 0 0 0-.783-.358c-.132-.008-.257.018-.352.123-.159.173-.14.357.042.56.385.426.621.877.349 1.477-.155.343-.206.727-.199 1.153-.059.442.141.797.536 1.062.443.298.874.255 1.235-.143.375-.413.484-.909.38-1.444-.134-.681-.467-1.282-.795-1.879zm1.273-40.407a.433.433 0 0 0-.179.195c-.206.611.225 1.202.871 1.207.382-.017.928-.101 1.215-.313.222-.165.457-.317.656-.506.516-.489.867-1.077.953-1.797a1.21 1.21 0 0 0-.151-.749c-.16-.283-.388-.324-.643-.125a1.9 1.9 0 0 0-.203.188c-.147.153-.281.32-.436.464-.208.194-.416.395-.651.551-.468.308-.957.586-1.432.885zm.025 17.128c.156-.297.04-.531-.287-.589-.377-.067-.751-.034-1.125.023a.754.754 0 0 0-.562.407c-.115.209-.212.429-.314.645-.133.281-.172.583-.193.905.012.122.011.264.043.397.115.484.219.973.371 1.447.115.359.433.452.725.219.467-.374.807-.836.812-1.474.002-.166 0-.333-.007-.499-.022-.464.131-.871.387-1.247.051-.079.107-.153.15-.234zm7.725 25.004a2.56 2.56 0 0 0-.619-.356c-.525-.206-.826-.592-.982-1.118-.034-.114-.069-.232-.126-.335-.159-.286-.449-.35-.693-.136-.142.13-.264.281-.359.448-.322.55-.362 1.156-.282 1.77.089.685.553 1.101 1.195 1.105.528.003 1.414-.284 1.842-.595.309-.225.33-.55.024-.783zm9.258-45.286a1.5 1.5 0 0 0 1.165.462c.405.007.763-.061 1.102-.221.376-.177.645-.455.776-.855.173-.531-.159-.941-.708-.87-.2.026-.395.084-.593.124-.189.039-.377.091-.568.109-.301.029-.564-.049-.735-.331a3.192 3.192 0 0 0-.297-.433.993.993 0 0 0-.318-.254c-.39-.181-.698-.018-.78.403-.104.535.017 1.007.421 1.387.174.163.368.308.535.479zm-11.74 49.726a1.193 1.193 0 0 0-.44-.217c-.311-.075-.63-.114-.921-.164-.616.075-1.2.137-1.781.219a1.05 1.05 0 0 0-.783.515 2.866 2.866 0 0 0-.372 1.034c-.04.28.115.502.398.527.176.016.367-.017.537-.072.244-.079.472-.204.712-.298.42-.164.841-.32 1.3-.341.265-.012.535-.032.792-.093.2-.048.406-.136.568-.26.305-.236.295-.616-.01-.85zm2.868-30.979c-.046-.527-.461-.728-.9-.435a2.02 2.02 0 0 0-.177.131c-.422.354-.742.791-1.018 1.265a3.667 3.667 0 0 0-.495 1.601c.004.384.064.727.271 1.027.221.321.535.354.82.086.073-.069.146-.145.196-.231.101-.175.197-.355.276-.541a4.69 4.69 0 0 0 .185-.551c.162-.582.403-1.13.685-1.66.115-.218.179-.444.157-.692zm6.767-15.172c.386.103.592.36.659.736.047.263.043.537.104.796.158.674.325 1.347.519 2.011.094.322.385.392.664.2.223-.153.362-.372.419-.632.047-.215.063-.437.094-.656l-.017-.003c-.006-.139.004-.28-.02-.415a7.38 7.38 0 0 0-.637-2.001 1.518 1.518 0 0 0-1.098-.849c-.316-.067-.585.032-.811.247-.202.193-.136.496.124.566zm4.663 28.674c.09-.018.179-.043.264-.077.316-.126.433-.334.389-.677-.076-.587-.888-1.064-1.45-.86a2.286 2.286 0 0 1-.503.118c-.453.054-.828.233-1.091.619-.303.446-.447.947-.518 1.468.003.062.002.118.01.173.059.398.344.546.703.365.041-.021.081-.044.12-.068.306-.189.612-.375.916-.567a3.418 3.418 0 0 1 1.16-.494zm-14.523-31.65c.271.235.533.278.82.063.313-.235.461-.562.418-.943-.03-.262-.118-.521-.208-.77-.153-.421-.273-.843-.236-1.297.018-.221.028-.442.041-.663a.29.29 0 0 0 .008-.083c-.015-.31-.221-.45-.507-.343-.218.08-.407.223-.544.411a1.999 1.999 0 0 0-.341.81c-.098.494-.097.995-.056 1.492.04.506.198.969.605 1.323zm15.317 9.154c.03.237.073.475.134.706.15.569.171 1.127-.057 1.685-.091.232-.16.472-.207.717-.052.244-.068.496.026.738.114.293.366.395.649.257a.904.904 0 0 0 .246-.175c.228-.218.401-.487.504-.785a3.75 3.75 0 0 0 .179-1.117c.003-.583-.168-1.451-.413-1.966a1.709 1.709 0 0 0-.32-.444c-.173-.177-.373-.195-.554-.097-.199.108-.21.295-.187.481zm-21.348.348c.008-.082.021-.165.036-.246.107-.562.357-1.066.633-1.559.09-.161.181-.324.241-.497.138-.395-.096-.732-.51-.701-.308.023-.627.078-.885.277-.595.461-.955 1.048-.913 1.829.02.371.078.737.238 1.076.111.235.289.38.564.37.363.001.562-.184.596-.549zm22.975 17.34c.302.289.71.265.959-.071a.91.91 0 0 0 .159-.319c.055-.233.097-.47.122-.708.051-.482.153-.947.392-1.375.058-.105.106-.215.144-.329a.498.498 0 0 0-.137-.558c-.164-.155-.358-.229-.583-.141-.44.173-.812.43-1.044.859a2.888 2.888 0 0 0-.351 1.357c.025.248.041.497.079.743a.903.903 0 0 0 .26.542zm7.389 20.948c-.304-.09-.512.117-.437.425.059.241.12.485.215.712.356.851.527 1.727.412 2.648-.001.122-.01.243 0 .362.008.09.027.185.064.267.106.232.329.278.519.109.068-.06.124-.136.18-.209.273-.355.398-.764.447-1.204.092-.828.001-1.621-.416-2.359-.222-.393-.566-.627-.984-.751zm-1.687-16.512c.278.391.362.815.251 1.289-.067.286-.122.582-.062.88.089.445.492.582.831.284.193-.17.32-.389.377-.634.085-.367.14-.742.193-1.031-.03-.292-.035-.497-.074-.695-.125-.633-.473-1.089-1.08-1.336a.706.706 0 0 0-.705.07c-.287.189-.328.366-.126.64.132.177.267.353.395.533zm-12.09 15.24c-.291-.123-.604-.035-.601.389.001.157-.003.314.006.47.023.36-.046.721-.199 1.048-.12.249-.228.503-.324.762a1.783 1.783 0 0 0-.101.511c-.009.189.113.303.301.332a.759.759 0 0 0 .597-.155c.411-.315.783-.671 1.065-1.111.172-.267.293-.554.284-.876.01-.262-.064-.52-.211-.736-.199-.308-.501-.501-.817-.634zm-13.883-9.642c-.044.313-.072.627.025.935.134.426.49.52.801.203.243-.248.415-.547.481-.891.052-.271.067-.549.096-.795-.026-.308-.054-.584-.07-.86-.036-.635-.314-1.171-.678-1.67-.124-.171-.271-.195-.46-.094-.041.022-.079.047-.119.07-.167.097-.195.152-.132.337.199.579.227 1.179.197 1.78-.017.33-.095.657-.141.985zm4.839-21.732c.032-.444-.193-.61-.454-.657a1.332 1.332 0 0 0-.599.014c-.5.148-.937.458-1.241.882-.187.262-.36.533-.571.778-.137.16-.233.352-.114.559.111.193.315.217.513.193.579-.07 1.145-.199 1.654-.497.483-.28.77-.701.812-1.272zm12.668-6.245l-.028-.004.001-.111c-.002-.275-.09-.439-.267-.498-.202-.068-.447.034-.594.241-.17.241-.25.509-.273.801-.02.257-.03.519-.087.769-.078.34-.207.669-.294 1.007a7.115 7.115 0 0 0-.18.892.71.71 0 0 0 .209.582c.162.17.366.188.54.031.093-.084.173-.194.232-.306.211-.401.4-.817.469-1.267.107-.708.182-1.424.272-2.137zm6.174 3.678c.278.352.7.323.939-.057.144-.227.187-.482.151-.745a6.503 6.503 0 0 1-.029-1.684 1.475 1.475 0 0 0-.055-.52c-.066-.262-.24-.364-.51-.374-.272-.01-.547.233-.621.537-.042.17-.088.338-.12.51-.051.272-.091.545-.141.852.059.346.112.72.192 1.089.03.139.105.28.194.392zM85.039 92.504c.161.52.536.946 1.031 1.172.213.1.438.143.671.067.317-.104.606-.277.848-.506a.67.67 0 0 0 .217-.527.467.467 0 0 0-.234-.465 1.275 1.275 0 0 0-.402-.17 3.828 3.828 0 0 0-.74-.065 1.254 1.254 0 0 1-.859-.319c-.056-.048-.11-.098-.164-.148-.104-.097-.226-.133-.356-.075-.141.062-.163.198-.144.331.033.236.057.479.132.705zm-1.145 8.575a.669.669 0 0 0 .224-.102c.172-.137.35-.272.496-.434.279-.31.49-.67.659-1.051.155-.349.245-.715.263-.985.013-.557-.172-.955-.401-1.302-.206-.312-.465-.277-.611.044-.058.135-.09.28-.095.427-.011.258-.005.518.015.775.029.369-.077.693-.286.989-.064.09-.136.174-.199.266-.182.266-.367.531-.538.804-.094.15-.108.319.017.465.123.142.287.157.456.104zm26.01 34.846c-.343-.019-.571.185-.766.423-.428.522-.716 1.115-.804 1.792-.024.19-.028.39.001.579.052.336.3.463.609.336.332-.137.582-.369.681-.716.133-.466.346-.89.575-1.311.091-.167.161-.357.19-.544.061-.374-.112-.556-.486-.559zm-5.503-14.123c.331.025.627-.076.848-.321.464-.511.775-1.096.793-1.879a.743.743 0 0 0-.235-.612c-.201-.194-.511-.198-.68.025-.277.367-.553.738-.781 1.136a2.418 2.418 0 0 0-.337 1.241c.004.251.144.392.392.41zm-2.903-15.08c.137.347.215.703.243 1.075.015.189.059.386.138.558.12.26.348.321.602.19a.994.994 0 0 0 .515-.654c.049-.186.065-.38.096-.571 0-.333-.077-.647-.19-.951a1.224 1.224 0 0 0-.602-.693.478.478 0 0 0-.398-.029.698.698 0 0 0-.447.454c-.077.216-.035.422.043.621zm6.826 11.559l.848-.398c.067-.031.136-.057.201-.092.349-.19.453-.513.278-.868-.236-.479-.639-.694-1.243-.743-.291-.043-.724.376-.873.724-.052.137-.07.285-.052.431.026.238.085.473.137.707.089.4.248.475.607.291.032-.017.064-.037.097-.052zm-10.75-19.353a1.75 1.75 0 0 0 .177-.491c.081-.389.233-.759.448-1.093.145-.214.239-.459.274-.716.03-.323-.153-.514-.473-.489a.864.864 0 0 0-.385.123c-.685.447-.985 1.113-1.045 1.907-.005.265.03.518.161.75.219.389.626.399.843.009zm11.139-.216c.226.521.682.715 1.127.787.52.009.708-.183.689-.622a1.337 1.337 0 0 0-.41-.883 27.18 27.18 0 0 0-.93-.865c-.227-.201-.444-.179-.661.027-.187.177-.197.398-.138.615.086.321.194.635.323.941zm6.506 15.785c.048-.118.066-.248.098-.373-.006-.329-.217-.532-.543-.472-.34.063-.643.207-.851.512-.36.529-.484 1.116-.413 1.741.022.193.113.392.219.558.133.208.415.184.556-.021.031-.045.05-.098.075-.148.177-.355.357-.708.53-1.066.116-.241.228-.483.329-.731zm-13.99 15.833c.198.159.381.154.58-.002.307-.241.495-.544.46-.909.003-.443-.085-.656-.371-.93a2.727 2.727 0 0 0-.254-.213c-.423-.309-.962-.151-1.151.342-.066.172-.113.351-.163.528a.514.514 0 0 0 .148.534c.241.227.493.443.751.65zm5.805 14.891a.884.884 0 0 0-.519.162 2.828 2.828 0 0 0-.73.671c-.253.332-.415.697-.396 1.158-.042.267.08.511.257.735.151.192.298.193.446-.002.117-.154.214-.327.344-.469.436-.475.678-1.051.874-1.653a.928.928 0 0 0 .046-.271c.001-.21-.11-.322-.322-.331zm3.755-20.625c-.376-.018-.639.126-.807.459a.616.616 0 0 1-.074.116c-.178.22-.185.464-.066.702.152.305.319.604.501.892.161.256.397.298.638.113.398-.305.657-.695.655-1.269.032-.186-.067-.384-.165-.585-.14-.289-.364-.413-.682-.428zm4.672 6.455c-.297-.052-.54.061-.723.301-.213.28-.308.604-.353.947a.615.615 0 0 0 .226.592c.207.167.408.346.634.483.342.206.58.111.695-.272.076-.254.111-.52.169-.8-.031-.226-.052-.464-.1-.697-.063-.297-.244-.501-.548-.554zm-16.725-5.355a.391.391 0 0 0 .312-.314.954.954 0 0 0 .026-.191c.007-.625.222-1.171.598-1.663.077-.101.146-.216.19-.335.113-.304-.094-.582-.412-.535-.243.036-.496.107-.664.305-.41.483-.682 1.029-.685 1.758.008.088.006.258.045.417.034.14.101.277.18.398.092.142.24.199.41.16zm1.652 18.56c-.04-.141-.069-.289-.131-.42-.102-.218-.304-.298-.529-.231-.318.095-.559.28-.658.608-.071.236-.119.479-.177.719-.001.592.318.883.705.981.307.078.58-.022.831-.194.26-.179.294-.337.19-.642-.091-.269-.153-.548-.231-.821zm9.448-11.587c.148-.237.22-.514.207-.793.03-.297-.119-.545-.344-.754-.223-.208-.472-.239-.705-.081-.2.128-.39.273-.565.434-.156.156-.294.33-.409.519-.122.193-.081.385.082.489.239.154.48.307.727.447.379.213.77.107 1.007-.261zm-11.955-11.788c.225-.276.304-.604.343-1.023-.037-.089-.076-.255-.165-.387-.172-.256-.442-.384-.734-.451-.224-.051-.432.006-.552.213-.161.277-.306.564-.444.854-.096.201-.028.379.13.522.143.13.286.26.436.382.345.278.701.237.986-.11zm-1.44 22.635c-.199-.446-.748-.535-1.066-.169-.11.126-.188.297-.232.46-.057.211-.066.436-.095.655l.02.003c0 .074-.002.148-.001.222.003.482.148.648.621.706.036.005.073.006.11.009.356.023.581-.122.674-.473.082-.312.126-.634.077-.958-.025-.155-.046-.316-.108-.455zm13.658-39.95c.154.026.31.04.465.06.294.022.541-.055.665-.343.184-.426.187-.859.012-1.292-.156-.385-.954-.6-1.278-.111-.297.449-.31.915-.177 1.407a.374.374 0 0 0 .313.279zm-12.857 12.657c.051-.039.101-.08.146-.126.416-.435.666-.943.66-1.558.001-.083.007-.166 0-.249-.02-.236-.092-.451-.262-.624-.236-.24-.502-.211-.644.093-.091.211-.162.43-.213.654-.095.374-.175.753-.259 1.13a2.126 2.126 0 0 0-.055.327c-.011.16.002.325.163.412.162.087.321.051.464-.059zM96.07 95.036c.177-.228.245-.493.231-.78.001-.083.012-.168 0-.249-.071-.462-.275-.844-.695-1.074-.351-.193-.666-.035-.744.359-.009.045-.01.092-.014.138-.047.544.119 1.045.337 1.526.185.41.607.438.885.08zm-9.047 1.069a.672.672 0 0 0-.041.16c-.044.351.167.602.52.589.161-.006.329-.049.479-.112.367-.156.685-.394.978-.663.08-.073.15-.165.203-.26.14-.252.062-.481-.207-.582-.162-.061-.336-.087-.426-.11-.67.017-1.288.425-1.506.978zm25.239 24.593a1.11 1.11 0 0 0-.123.214c-.129.314-.26.628-.375.948-.068.19-.126.387-.157.585-.065.413.227.641.611.482a.983.983 0 0 0 .277-.177c.42-.383.672-.848.682-1.437-.026-.162-.031-.332-.084-.485-.128-.368-.6-.464-.831-.13zm-16.983 17.979c.025.069.062.134.099.198.104.181.252.294.471.276a.518.518 0 0 0 .464-.34c.056-.143.075-.301.111-.452-.003-.265-.059-.507-.237-.699a4.195 4.195 0 0 0-.488-.445c-.22-.173-.471-.186-.731-.096-.364.126-.478.591-.188.845.23.199.395.43.499.713zm-6.226-21.186c-.087-.171-.281-.181-.425-.052a.514.514 0 0 0-.119.151c-.195.409-.37.827-.397 1.286a.635.635 0 0 0 .091.337c.068.118.169.219.267.316.197.192.407.206.618.031.259-.216.408-.495.425-.848-.007-.075-.009-.158-.024-.24-.063-.363-.273-.663-.436-.981zm21.744-9.231c-.079.203-.107.426-.157.64.017.308.063.598.208.864.18.332.5.485.799.39.296-.093.471-.376.414-.756-.069-.464-.28-.881-.558-1.249-.21-.28-.579-.214-.706.111zm-3.108 32.711c-.07-.059-.146-.113-.217-.17-.286-.229-.443-.241-.748-.057-.449.271-.544.814-.197 1.205.12.136.267.255.421.352.333.21.702.116.896-.23.079-.141.111-.307.165-.462-.029-.286-.108-.46-.32-.638zm-18.262-2.519c.211.197.431.172.633-.04a1.24 1.24 0 0 0 .317-.734 1.065 1.065 0 0 0-.268-.754c-.242-.257-.551-.297-.851-.109-.22.137-.357.348-.473.569a.366.366 0 0 0 .041.419c.193.223.386.448.601.649zm10.952-44.348c.349-.011.624-.303.628-.744-.037-.129-.083-.355-.168-.566-.086-.212-.263-.317-.5-.322-.46-.01-.954.383-1.035.833-.024.136-.001.271.098.359.278.247.584.452.977.44zm-17.319 21.04c.183-.31.034-.689-.294-.866-.336-.181-.687-.088-.881.235-.024.039-.036.092-.07.117-.195.145-.163.329-.106.524.035.121.056.247.083.37l-.033.006c.011.11.008.223.034.329.081.334.393.433.621.173.243-.274.46-.571.646-.888zm23.95-17.088c.007-.237-.082-.426-.285-.535-.201-.107-.414-.078-.6.047a1.054 1.054 0 0 0-.254.249c-.275.381-.315.82-.265 1.267.027.241.262.374.493.305a.828.828 0 0 0 .27-.132c.392-.302.583-.718.641-1.201zm-6.547 17.265c.424.003.7-.199.812-.613.041-.15.053-.309.087-.517-.049-.185-.088-.425-.177-.644-.091-.225-.272-.277-.504-.207a.42.42 0 0 0-.294.268c-.1.278-.206.554-.289.837a.989.989 0 0 0-.019.575c.06.188.201.299.384.301zm5.419-22.96c.38.06.764.099 1.146.148l.001-.015c.092.001.184.007.276.001a.41.41 0 0 0 .377-.281c.061-.167.033-.336-.11-.456-.441-.368-.935-.551-1.507-.375-.246.075-.396.267-.47.508-.074.242.037.431.287.47zm-16.696 11.9c-.058-.171-.089-.358-.179-.511-.142-.241-.522-.258-.681-.034a3.647 3.647 0 0 0-.609 1.379c-.053.252.113.437.369.427a.87.87 0 0 0 .267-.06c.461-.174.788-.665.833-1.201zm21.726-7.608c.228.151.51.054.618-.2a.595.595 0 0 0 .039-.372 2.687 2.687 0 0 0-.286-.652c-.154-.244-.395-.378-.709-.414-.113.048-.248.071-.336.149-.25.223-.274.687-.033.923.215.21.456.4.707.566zM88.375 124.28c-.009-.084-.004-.167-.009-.25a.683.683 0 0 0-.627-.661c-.196-.017-.323.113-.473.197-.147.082-.126.237-.148.369a3.082 3.082 0 0 0-.046.44c-.008.378.099.52.462.607.132.031.274.044.409.037.231-.012.353-.123.398-.352.025-.127.024-.258.034-.387zm12.114-23.933c-.204.473.011 1.195.439 1.473.241.157.479.087.568-.191.055-.172.063-.359.093-.539-.001-.286-.044-.556-.185-.803-.101-.176-.233-.316-.458-.291a.543.543 0 0 0-.457.351zm5.909 34.721c-.032.126-.03.246.072.332.184.156.385.29.63.326a.758.758 0 0 0 .775-.414c.217-.47-.055-.953-.541-.96a.986.986 0 0 0-.936.716zm-10.761-5.267h.028c.392 0 .935-.3 1.144-.633.136-.218.1-.408-.126-.539-.32-.187-.658-.197-.961.019a1.86 1.86 0 0 0-.454.474c-.254.376-.086.668.369.679zm19.214-8.366c-.028.134-.008.273.091.361.178.156.359.323.568.426.329.161.711-.109.721-.532-.055-.273-.167-.573-.459-.76-.224-.144-.49-.137-.644.006a.921.921 0 0 0-.277.499zM99.31 98.242a.349.349 0 0 0 .393-.019c.362-.258.583-.605.622-1.056a.643.643 0 0 0-.377-.629c-.222-.114-.401-.036-.47.202-.067.23-.136.46-.194.693a5.055 5.055 0 0 0-.087.489c-.018.123-.004.25.113.32zm-5.362 24.455c.365.167.724-.07.733-.471.008-.366-.319-.824-.668-.935-.313-.099-.571.073-.566.399.004.278.1.542.232.783a.6.6 0 0 0 .269.224zm-1.343-24.548c-.013.209.057.341.256.403.164.051.339.067.509.098l.004-.022c.037 0 .074-.003.11.001.316.039.557-.211.575-.531a.568.568 0 0 0-.529-.604l-.018-.001a1.42 1.42 0 0 0-.405.045.664.664 0 0 0-.502.611zm-2.678-6.633c.231.324.344.36.724.23.035-.012.07-.023.104-.037.214-.087.315-.238.313-.507-.031-.222-.124-.435-.367-.572-.271-.153-.537-.106-.792.004-.237.101-.305.385-.17.61.055.095.124.182.188.272zm23.339 20.744c-.36.204-.514.533-.557.929-.014.307.181.492.439.38.311-.135.596-.329.792-.619a.497.497 0 0 0-.04-.637c-.152-.162-.403-.184-.634-.053zm-11.564 23.046c-.012-.243-.19-.385-.387-.309-.172.06-.326.162-.449.296-.176.214-.268.481-.281.839a.375.375 0 0 0 .203.353c.172.099.343.063.494-.04a.802.802 0 0 0 .247-.255c.152-.272.189-.578.173-.884zm-17.222-.698c.025-.172.046-.345.069-.518-.009-.14-.001-.28-.029-.413-.047-.22-.266-.37-.423-.276-.222.134-.469.265-.497.575-.011.119-.026.238-.024.357a.539.539 0 0 0 .651.527c.137-.028.232-.105.253-.252zm22.136-11.067c.175.098.357.198.548.246.271.068.525-.123.598-.406.07-.272-.039-.485-.314-.594a2.173 2.173 0 0 0-.37-.107c-.357-.07-.594.128-.595.512-.006.121-.004.272.133.349zm-18.898-14.972c.182-.061.443-.436.449-.632.011-.332-.413-.68-.727-.579-.117.038-.221.128-.322.206-.166.127-.204.312-.091.49.099.155.215.3.334.441.096.113.229.118.357.074zm3.519 10.845c-.055.106-.095.22-.118.337-.059.321.074.473.397.481.136-.022.277-.026.405-.071a.553.553 0 0 0 .259-.184c.168-.24.066-.614-.192-.771a.524.524 0 0 0-.751.208zm-5.917 24.84a1.1 1.1 0 0 0-.206.596c-.008.225.037.322.162.368.189.07.61-.08.716-.256.142-.235.081-.622-.124-.788-.19-.153-.398-.12-.548.08zm13.993-3.784a.52.52 0 0 0-.271-.582.514.514 0 0 0-.61.089c-.142.139-.215.479-.138.645.05.107.132.177.252.19.064.007.128.002.193.002a.578.578 0 0 0 .083.005c.268-.003.445-.128.491-.349zm-.35-37.425c.175-.025.316-.112.37-.288.042-.139.059-.286.088-.429l-.021-.004c0-.065.005-.129.001-.193-.012-.189-.104-.319-.25-.358-.129-.035-.266.034-.359.196-.12.209-.206.432-.235.673-.034.281.128.443.406.403zm-3.978 5.674c.327.205.607.044.616-.344a.668.668 0 0 0-.543-.64c-.231-.032-.559.337-.498.566a.244.244 0 0 0 .068.117c.115.105.227.219.357.301zm1.931-16.572c.119.066.234.14.351.211.147.09.283.065.384-.073.147-.201.089-.398-.01-.596-.098-.196-.217-.362-.416-.386-.202-.005-.36.09-.411.234-.03.087-.052.176-.066.267-.025.151.03.266.168.343zm7.798 19.539c.036.005.073.007.11.01.172.017.314-.034.386-.2.043-.1.079-.209.088-.317.02-.258-.213-.445-.453-.355-.134.05-.263.137-.366.236-.116.112-.171.269-.105.432.058.148.2.176.34.194zm-2.105 14.805c.177-.098.228-.278.238-.454-.003-.183-.066-.254-.226-.27-.193-.019-.517.157-.602.329-.061.123-.03.25.097.337.152.105.324.152.493.058z" fill="#343335" data-color="3"/>
        <path d="M76.509 114.112c.016-.032.043-.064.046-.097.025-.331.037-.663.071-.993.038-.376.083-.752.146-1.124.111-.654.28-1.301.347-1.959.061-.602.256-1.171.34-1.765.006-.046.024-.091.022-.136-.02-.467.088-.917.167-1.371.019-.108.013-.221.012-.332-.007-.527.045-1.05.114-1.572.012-.091.015-.186.002-.277a5.1 5.1 0 0 1 .008-1.407c.023-.171-.011-.349-.015-.524-.005-.231-.021-.462-.008-.692.024-.414.066-.826.102-1.239.034-.385.072-.77.106-1.156l.072-.854c.036-.422.075-.844.108-1.267.012-.157.01-.314.014-.471.03-1.488.054-2.977.094-4.464.012-.46.07-.919.105-1.378.008-.101.001-.204.008-.305.037-.524.076-1.048.115-1.572.021-.276.044-.551.064-.827.065-.893.205-1.775.338-2.659.108-.72.215-1.44.346-2.156.119-.652.207-1.311.295-1.968.055-.411.078-.826.128-1.237.064-.522.126-1.044.124-1.572.001-.176.024-.35.069-.52.088-.344.113-.691.108-1.044-.003-.19.051-.349.273-.403.027.007.067.009.097.027.226.137.481.162.732.218.484.108.961.245 1.439.377.744.206 1.49.409 2.229.632.463.14.94.153 1.413.209.182.022.366.033.546.065.191.034.273.148.285.349.02.338-.075.66-.152.982-.101.423-.188.845-.204 1.282-.008.201-.07.399-.104.599-.077.454-.15.909-.226 1.363-.061.364-.126.726-.185 1.09-.077.482-.146.966-.226 1.447-.1.6-.201 1.2-.314 1.798-.113.598-.245 1.192-.359 1.789-.122.634-.265 1.265-.34 1.905-.078.662-.249 1.304-.35 1.959-.193 1.26-.488 2.498-.763 3.739-.133.603-.312 1.195-.405 1.808-.025.163-.098.318-.133.48-.18.82-.363 1.639-.528 2.462-.109.542-.22 1.086-.277 1.635-.069.66-.218 1.31-.206 1.98.005.292-.08.585-.087.879-.018.739-.049 1.481-.01 2.218.035.66.164 1.315.239 1.974.106.926.185 1.855.15 2.789-.007.173.047.349.043.522-.017.702-.018 1.405-.077 2.104-.042.503-.158 1.001-.257 1.497-.06.298-.137.593-.229.883a1.64 1.64 0 0 1-.214.416c-.191.283-.494.333-.771.158-.046-.029-.091-.06-.136-.09-.177.031-.349.089-.52.085-.347-.007-.699-.007-1.027-.154-.271-.121-.438-.363-.631-.572-.231-.25-.446-.515-.668-.774-.377-.442-.76-.878-1.126-1.328-.187-.231-.325-.494-.333-.807-.001-.033-.029-.065-.045-.097.006-.187.007-.372.009-.557zm3.627-.43c-.318.137-.535.319-.622.549-.047.125-.093.283-.057.4.124.406.365.733.811.962-.049-.659.091-1.282-.132-1.911z" fill="#F7B986" data-color="1"/>
        <path d="M104.213 38.278c.083-.106.144-.194.215-.271.137-.147.266-.307.423-.43.496-.387.974-.225 1.339.24.357.455.523.994.655 1.545a7.1 7.1 0 0 1 .155.843c.018.161-.016.33-.041.493-.083.54-.334.992-.722 1.371-.073.072-.336.273-.408.346.047.44.039 2.738 0 3.011-.075.51-1.172 2.066-1.673 2.676-.147.177-.005.774 0 1.004-.02 1.191 1.015 2.879 1.776 3.758.47.543 1.002 1.007 1.725 1.183.071.017.144.033.213.059.219.081.281.233.158.435-.092.149-.2.288-.322.414-.756.784-1.611 1.429-2.606 1.883-.802.366-1.646.583-2.507.744-.352.066-.705.125-1.06.167-.383.045-.767.075-1.152.092-.322.014-.645.012-.967-.004-.899-.046-1.798-.11-2.67-.354a6.855 6.855 0 0 1-1.008-.374c-.46-.211-.919-.431-1.351-.692-.32-.193-.608-.446-.892-.694-.227-.199-.169-.444.106-.567.277-.124.55-.255.826-.38.537-.245.934-.652 1.268-1.124.463-.654.79-1.373.988-2.154.116-.456.107-1.244.114-1.723-.616-.328-1.149-.452-1.614-.95-.457-.49-.622-1.2-1.062-1.726-.05.046-.359.273-.413.333-.333.374-.856.455-1.34.218-.469-.23-.806-.605-1.095-1.031-.31-.457-.425-.978-.483-1.515a1.948 1.948 0 0 1 .117-.872c.154-.43.606-.77 1.037-.728.117.011.235.003.395.004l-.162-.301c-.478-.897-.962-1.792-1.167-2.803a3.57 3.57 0 0 1-.038-1.347c.081-.455.296-.835.606-1.161a17.1 17.1 0 0 1 3.772-2.958c.795-.465 1.595-.921 2.398-1.372.183-.103.388-.169.585-.245.12-.047.25-.071.366-.124.478-.22.984-.219 1.491-.187.367.023.694.182 1 .373.775.482 1.344 1.138 1.674 2 .092.241.226.466.334.701.306.673.608 1.347.914 2.02.021.049.053.092.103.174z" fill="#F7B986" data-color="1"/>
        <path d="M108.577 85.223c.009-.15.014-.268.024-.386.009-.108.065-.173.178-.167.099.006.146.072.151.166.005.083-.003.167.004.25.044.523.07 1.049.142 1.568.075.538.195 1.07.298 1.604.046.239.013.287-.21.36-.703.23-1.431.336-2.16.415-.776.084-1.555.129-2.339.114-.753-.014-1.51.063-2.261.018-.966-.059-1.933-.014-2.897-.067-.622-.034-1.242-.105-1.863-.166-.584-.058-1.169-.114-1.751-.189a53.183 53.183 0 0 1-1.687-.255 42.638 42.638 0 0 1-1.463-.26c-.792-.158-1.579-.336-2.372-.491-.591-.115-1.152-.316-1.704-.549-.523-.221-.48-.297-.322-.723.285-.771.59-1.534.849-2.314.183-.55.307-1.121.449-1.684.039-.157.071-.306.278-.377l.195.234c.185.016.411.042.639.053.569.027 1.14.034 1.708.075.429.031.854.114 1.283.153.439.04.88.06 1.32.077.34.013.682-.003 1.022.014.577.029 1.154.073 1.73.111.33.022.66.036.989.068.456.045.912.098 1.366.157.446.058.892.114 1.334.196a27.85 27.85 0 0 1 3.234.81c.737.233 1.461.506 2.196.746.446.146.9.265 1.351.392.086.026.176.03.289.047z" fill="#F7B986" data-color="1"/>
        <path d="M92.682 44.873c-.118-.002-.182.077-.229.171-.037.074-.058.156-.096.228-.034.065-.042.16-.142.176l-.139-.393c-.111-.001-.243-.109-.342-.002-.115.123-.009.304.033.416.123.326.271.643.411.963a.245.245 0 0 0 .066.087c.084.075.172.149.292.075.108-.066.107-.184.067-.271-.122-.267-.02-.502.077-.74.069-.169.143-.336.209-.489-.043-.122-.079-.219-.207-.221z" opacity=".2"/>
        <path d="M105.264 39.763c.15.062.294.138.444.21-.001.158-.013.288 0 .415.024.237.127.295.4.224.021-.066.072-.146.066-.221-.03-.394-.033-.793-.145-1.176a1.117 1.117 0 0 0-.115-.251c-.075-.123-.182-.167-.275-.119-.114.058-.109.163-.086.265.021.096.055.188.086.292-.502-.077-.502-.077-.63.074.006.167.12.232.255.287z" opacity=".2"/>
        <path d="M77.331 75.266c.121-.278.241-.557.365-.834.294-.657.596-1.311.885-1.97.192-.44.371-.885.548-1.331.187-.472.375-.944.542-1.424.319-.915.619-1.837.934-2.754.165-.48.352-.953.519-1.433.255-.733.532-1.46.742-2.206.234-.831.612-1.603.886-2.416.076-.225.211-.429.314-.645.151-.317.298-.635.446-.953.043-.092.076-.189.124-.278.203-.371.394-.751.621-1.108.398-.625.903-1.157 1.585-1.46a6.35 6.35 0 0 1 1.827-.511c.236-.028.469-.084.705-.119.462-.069.924-.133 1.387-.198.363-.051.725-.104 1.089-.147a9.4 9.4 0 0 1 .712-.058c.541-.021 1.083-.03 1.625-.052.161-.007.266.073.348.188.469.656 1.138 1.041 1.849 1.357.58.258 1.178.479 1.803.601.395.077.796.127 1.196.165.411.038.825.039 1.237.069.446.033.877-.07 1.312-.131a41.414 41.414 0 0 0 1.817-.298c.769-.143 1.537-.305 2.243-.655.552-.274 1.087-.582 1.549-1.002.224-.204.472-.382.693-.589.174-.163.33-.347.484-.53.124-.148.273-.195.462-.186.487.022.972-.001 1.454-.089.178-.032.368-.011.552-.006.67.021 1.343.021 2.01.078.389.034.777.142 1.155.252.592.173 1.158.419 1.722.672.582.261 1.143.556 1.667.919.317.219.614.468.911.713.191.158.382.321.546.507.212.241.405.501.592.763.444.623.894 1.244 1.22 1.941.184.393.358.791.528 1.19.061.143.104.296.141.448.149.599.308 1.197.435 1.801.215 1.018.417 2.04.607 3.062.123.66.205 1.328.321 1.99.166.944.382 1.878.614 2.809.218.877.421 1.757.633 2.636.048.197.116.39.153.589.036.198.042.402.064.603.019.169-.058.287-.195.369-.498.296-.985.616-1.502.877-.666.335-1.338.671-2.04.915-.779.271-1.556.57-2.38.695-.153.023-.305.07-.453.121-.508.176-1.039.226-1.565.299-.308.043-.622.044-.933.053-.615.019-1.231.031-1.846.046-.037.001-.076-.002-.11.01-.213.078-.416.043-.639-.079-.048.086-.1.158-.132.238-.282.713-.594 1.415-.829 2.143-.249.77-.532 1.535-.647 2.345-.035.245-.114.484-.18.723-.067.25-.141.497-.221.743-.096.287-.187.575-.41.803-.182.186-.408.189-.633.212-.354.035-.694-.062-1.033-.14a68.255 68.255 0 0 1-2.088-.509c-.995-.262-1.985-.541-2.978-.811-.043-.012-.089-.013-.153-.022-.034.078-.067.151-.098.225-.191.465-.423.903-.798 1.25-.203.188-.389.396-.606.566-.344.269-.768.34-1.181.433-.466.105-.937.076-1.395-.017-.488-.1-.951-.295-1.333-.633-.44-.389-.815-.831-.986-1.411-.075-.254-.164-.51-.071-.784.019-.055-.006-.124-.012-.2-.053-.009-.097-.026-.14-.024-.275.013-.549.035-.823.044-.578.018-1.157.044-1.736.041a6.999 6.999 0 0 1-1.738-.253c-.347-.091-.696-.178-1.032-.301a28.593 28.593 0 0 1-1.534-.621 1.32 1.32 0 0 1-.375-.276.357.357 0 0 1-.104-.241c.017-.432-.118-.839-.188-1.256a6.618 6.618 0 0 1-.087-.795c-.016-.376-.071-.75-.11-1.128-.166-.08-.331-.048-.493-.037-.137.009-.273.029-.41.039-.256.019-.512.034-.768.051-.512.035-1.003-.098-1.497-.197-.993-.197-1.958-.499-2.923-.796-.502-.149-1-.315-1.491-.498-.333-.128-.643-.317-.966-.472-.348-.167-.705-.316-1.048-.491a7.94 7.94 0 0 1-.908-.523c-.145-.1-.238-.276-.354-.417-.003-.094-.002-.186-.002-.279z" fill="#CAC9FC" data-color="2"/>
        <path d="M77.331 75.266c.121-.278.241-.557.365-.834.294-.657.596-1.311.885-1.97.192-.44.371-.885.548-1.331.187-.472.375-.944.542-1.424.319-.915.619-1.837.934-2.754.165-.48.352-.953.519-1.433.255-.733.532-1.46.742-2.206.234-.831.612-1.603.886-2.416.076-.225.211-.429.314-.645.151-.317.298-.635.446-.953.043-.092.076-.189.124-.278.203-.371.394-.751.621-1.108.398-.625.903-1.157 1.585-1.46a6.35 6.35 0 0 1 1.827-.511c.236-.028.469-.084.705-.119.462-.069.924-.133 1.387-.198.363-.051.725-.104 1.089-.147a9.4 9.4 0 0 1 .712-.058c.541-.021 1.083-.03 1.625-.052.161-.007.266.073.348.188.469.656 1.138 1.041 1.849 1.357.58.258 1.178.479 1.803.601.395.077.796.127 1.196.165.411.038.825.039 1.237.069.446.033.877-.07 1.312-.131a41.414 41.414 0 0 0 1.817-.298c.769-.143 1.537-.305 2.243-.655.552-.274 1.087-.582 1.549-1.002.224-.204.472-.382.693-.589.174-.163.33-.347.484-.53.124-.148.273-.195.462-.186.487.022.972-.001 1.454-.089.178-.032.368-.011.552-.006.67.021 1.343.021 2.01.078.389.034.777.142 1.155.252.592.173 1.158.419 1.722.672.582.261 1.143.556 1.667.919.317.219.614.468.911.713.191.158.382.321.546.507.212.241.405.501.592.763.444.623.894 1.244 1.22 1.941.184.393.358.791.528 1.19.061.143.104.296.141.448.149.599.308 1.197.435 1.801.215 1.018.417 2.04.607 3.062.123.66.205 1.328.321 1.99.166.944.382 1.878.614 2.809.218.877.421 1.757.633 2.636.048.197.116.39.153.589.036.198.042.402.064.603.019.169-.058.287-.195.369-.498.296-.985.616-1.502.877-.666.335-1.338.671-2.04.915-.779.271-1.556.57-2.38.695-.153.023-.305.07-.453.121-.508.176-1.039.226-1.565.299-.308.043-.622.044-.933.053-.615.019-1.231.031-1.846.046-.037.001-.076-.002-.11.01-.213.078-.416.043-.639-.079-.048.086-.1.158-.132.238-.282.713-.594 1.415-.829 2.143-.249.77-.532 1.535-.647 2.345-.035.245-.114.484-.18.723-.067.25-.141.497-.221.743-.096.287-.187.575-.41.803-.182.186-.408.189-.633.212-.354.035-.694-.062-1.033-.14a68.255 68.255 0 0 1-2.088-.509c-.995-.262-1.985-.541-2.978-.811-.043-.012-.089-.013-.153-.022-.034.078-.067.151-.098.225-.191.465-.423.903-.798 1.25-.203.188-.389.396-.606.566-.344.269-.768.34-1.181.433-.466.105-.937.076-1.395-.017-.488-.1-.951-.295-1.333-.633-.44-.389-.815-.831-.986-1.411-.075-.254-.164-.51-.071-.784.019-.055-.006-.124-.012-.2-.053-.009-.097-.026-.14-.024-.275.013-.549.035-.823.044-.578.018-1.157.044-1.736.041a6.999 6.999 0 0 1-1.738-.253c-.347-.091-.696-.178-1.032-.301a28.593 28.593 0 0 1-1.534-.621 1.32 1.32 0 0 1-.375-.276.357.357 0 0 1-.104-.241c.017-.432-.118-.839-.188-1.256a6.618 6.618 0 0 1-.087-.795c-.016-.376-.071-.75-.11-1.128-.166-.08-.331-.048-.493-.037-.137.009-.273.029-.41.039-.256.019-.512.034-.768.051-.512.035-1.003-.098-1.497-.197-.993-.197-1.958-.499-2.923-.796-.502-.149-1-.315-1.491-.498-.333-.128-.643-.317-.966-.472-.348-.167-.705-.316-1.048-.491a7.94 7.94 0 0 1-.908-.523c-.145-.1-.238-.276-.354-.417-.003-.094-.002-.186-.002-.279z" fill="#CAC9FC" data-color="2"/>
        <path d="M107.134 40.639c.158.037.318.066.474.112.723.212 1.263.652 1.631 1.313.236.425.306.881.312 1.359.006.501-.024.995-.171 1.478-.161.529-.436.967-.907 1.276-.365.239-.733.48-1.173.525-.372.038-.75.031-1.124.013-.188-.009-.375-.08-.56-.132-.576-.162-.966-.544-1.245-1.062a3.459 3.459 0 0 1-.403-1.98c.057-.65.312-1.228.697-1.752.21-.286.447-.539.77-.698.099-.049.197-.11.343-.013l.018.241c-.185.126-.366.212-.497.347a3.231 3.231 0 0 0-.902 1.736c-.133.749.075 1.408.418 2.043.266.492.733.703 1.25.828.623.151 1.222.1 1.791-.208.276-.15.531-.329.747-.563.188-.202.294-.451.373-.703.14-.45.206-.918.185-1.391-.02-.467-.11-.93-.383-1.312-.392-.55-.912-.932-1.608-1.015-.046-.005-.094 0-.137-.012-.178-.052-.22-.221-.091-.362.025-.027.055-.048.083-.072.036.003.073.003.109.004z" fill="#5B5BDD" data-color="5"/>
        <path d="M91.901 47.581a.41.41 0 0 1-.024.383c-.22.376-.302.768-.24 1.217.07.515.294.926.634 1.288.345.368.787.453 1.266.393.145-.018.288-.057.429-.1.722-.221 1.17-.719 1.359-1.438.062-.234.046-.497.027-.744-.053-.685-.39-1.249-.836-1.737-.254-.278-.595-.457-1.005-.413-.135.015-.233-.037-.281-.18.023-.154.129-.194.273-.207.337-.031.626.097.921.234.32.149.502.431.702.689.433.556.586 1.197.638 1.904.078 1.063-.764 2.064-1.704 2.311-.564.148-1.146.172-1.698-.099a1.574 1.574 0 0 1-.575-.509c-.265-.368-.499-.757-.551-1.224-.062-.551-.041-1.09.256-1.583.12-.196.184-.229.409-.185z" fill="#5B5BDD" data-color="5"/>
        <path d="M112.035 162.703a9.97 9.97 0 0 1-1.62.097c-.854-.014-1.71-.003-2.558-.128l-.926-.133c-.016.144-.034.288-.052.431.222.033.444.066.667.102.69.114 1.386.164 2.083.165.698.001 1.396.044 2.095-.029.496-.052.996-.067 1.495-.087.012-.066.022-.133.035-.199l.053-.263c-.396.016-.793.026-1.19.039-.026.003-.054.001-.082.005z" fill="#343335" data-color="3"/>
        <path d="M111.86 164.079c-1.031.006-2.062-.008-3.093-.015-.129-.001-.258-.001-.387-.011a177.59 177.59 0 0 1-1.453-.115 5.37 5.37 0 0 1-.218-.023l-.088.416.079.006c.283.021.567.043.85.068.374.033.747.095 1.122.102 1.141.02 2.283.024 3.424.024.302 0 .604-.032.906-.054.032-.167.057-.334.081-.501l-.157.016c-.354.031-.71.085-1.066.087z" fill="#343335" data-color="3"/>
        <path d="M93.363 163.287c.41-.044.819-.099 1.229-.143.392-.042.786-.068 1.178-.116.318-.039.636-.084.953-.131l-.079-.485c-.553.076-1.106.153-1.659.223-.528.067-1.059.102-1.587.169-.702.089-1.405.153-2.114.143-.116-.002-.232 0-.348.001l.121.457c.512-.018 1.025-.033 1.537-.056.257-.011.513-.035.769-.062z" fill="#343335" data-color="3"/>
        <path d="M93.91 164.794c.593-.043 1.184-.129 1.776-.195.439-.049.877-.098 1.316-.145l-.089-.464c-.481.05-.961.103-1.441.156-.237.026-.472.061-.709.083-.475.044-.949.095-1.425.119-.358.018-.718-.001-1.077-.003-.073 0-.147.002-.22.008-.245.019-.49.048-.735.067.032.141.061.283.092.424.405-.017.81-.035 1.215-.043.432-.007.867.024 1.297-.007z" fill="#343335" data-color="3"/>
        <path d="M101.457 37.701c.05.019.098.049.149.054.217.018.406.104.577.218.07.286.045.326-.276.453-.255-.205-.561-.085-.835-.043-.521.08-1.049.174-1.516.453-.164.098-.326.201-.473.292-.232-.034-.331-.16-.342-.36-.012-.211.006-.404.237-.508.46-.207.911-.436 1.415-.52.024-.004.045-.029.068-.044l.996.005z" fill="#343335" data-color="3"/>
        <path d="M99.219 46.066c.12-.154.22-.297.336-.427a.588.588 0 0 1 .509-.211c.038.003.076.001.114.001.365.003 1.28-.705 1.302-.338.023.391-.731 1.702-.977 2.011a1.149 1.149 0 0 1-.21.208c-.493.36-1.035.413-1.606.238-.255-.078-.448-.259-.631-.442-.049-.049-.07-.158-.056-.231.049-.268.166-.512.342-.716.172-.199.408-.221.653-.164.081.019.158.05.224.071z" fill="#C22B00" data-color="6"/>
        <path d="M95.77 40.416c-.327.071-.646.119-.952.212-.386.118-.761.271-1.083.528-.186.148-.375.293-.562.441-.151.12-.294.093-.384-.081-.033-.065-.051-.137-.078-.213.03-.057.051-.122.091-.169.46-.539.972-1.005 1.668-1.221.149-.046.292-.113.438-.169.175-.067.353-.09.541-.066.343.043.506.298.39.627-.011.034-.038.062-.069.111z" fill="#343335" data-color="3"/>
        <path d="M102.037 82.21c-.196-.421-.536-.733-.933-.957-.536-.302-1.106-.482-1.741-.378-.646.106-1.255.309-1.781.695-.51.375-1.012.764-1.411 1.272-.21.268-.425.532-.596.846.112-.007.225-.014.337-.019a.399.399 0 0 1 .097.014.996.996 0 0 1 .111-.175c.336-.403.67-.803 1.081-1.14.46-.377.926-.727 1.498-.912.419-.135.836-.283 1.289-.182.49.11.948.262 1.312.65.24.255.43.524.537.855.02.061.054.118.077.178.179.474.356.95.537 1.423.004.012.011.023.015.034l.066-.152c.065.009.11.011.153.022l.176.048a.799.799 0 0 0-.032-.145 17.303 17.303 0 0 0-.792-1.977zM87.87 76.988c-.012-.119-.033-.237-.042-.356-.022-.266-.032-.534-.06-.799-.062-.595-.166-1.187-.189-1.783-.023-.61-.183-1.201-.179-1.815.003-.524-.059-1.048-.086-1.572-.009-.185.002-.37.002-.555 0-.055.003-.112-.008-.166-.025-.123-.129-.204-.235-.188-.115.018-.144.103-.145.203-.003.213-.006.426-.005.638 0 .268-.006.537.008.804.021.377.058.752.089 1.128.012.147.026.293.042.439.038.366.081.732.115 1.099.024.257.026.516.056.772.057.484.133.966.187 1.451.021.19.001.384-.001.632-.184-.024-.336-.042-.487-.063-.481-.069-.964-.124-1.441-.213-.424-.079-.837-.215-1.261-.29-.876-.154-1.693-.495-2.527-.782a7.304 7.304 0 0 1-.587-.241c-.396-.174-.786-.363-1.186-.527-.68-.278-1.349-.573-1.966-.974l-.154.34c.282.174.565.347.861.493.478.236.991.403 1.461.651.786.415 1.623.697 2.45 1.007.172.064.343.135.521.179.901.219 1.792.482 2.713.61.354.049.709.091 1.063.137.215.028.43.058.637.087.041.336.083.646.115.957.019.185.05.37.08.554.125-.009.251-.025.378.007-.037-.246-.074-.492-.105-.739-.045-.373-.075-.749-.114-1.125zm35.199-3.819c-.438.233-.876.465-1.313.699-.781.417-1.569.816-2.435 1.031-.999.249-1.998.495-2.996.747-.455.115-.915.211-1.383.222-.423.009-.842.038-1.261.097-.197.028-.404.041-.614-.082.126-.432.248-.848.367-1.265.259-.905.533-1.806.768-2.717.195-.758.343-1.528.434-2.308.039-.338.106-.673.155-1.009.044-.301.091-.601.121-.903.018-.174.013-.352.002-.527-.003-.053-.053-.126-.1-.145a.195.195 0 0 0-.171.035c-.039.038-.048.115-.055.177-.026.229-.036.46-.071.687-.106.692-.206 1.384-.335 2.072-.139.78-.303 1.556-.491 2.326-.201.787-.463 1.557-.691 2.337-.238.815-.462 1.634-.704 2.448-.121.407-.259.809-.406 1.207-.053.143-.108.285-.163.428.031-.06.067-.118.104-.184a.89.89 0 0 0 .361.115c.11-.276.226-.55.315-.833.136-.431.242-.871.364-1.307.019-.068.055-.132.074-.176.77-.044 1.51-.099 2.252-.124a6.284 6.284 0 0 0 1.25-.189c.635-.15 1.264-.325 1.902-.463 1.12-.243 2.21-.574 3.218-1.127.532-.291 1.057-.593 1.595-.874l-.093-.395zm-13.034-18.908c-.033.058-.068.116-.097.176-.192.399-.351.815-.552 1.209a4.101 4.101 0 0 1-.504.792c-.38.45-.792.874-1.194 1.304-.266.285-.58.51-.913.708-.34.202-.665.438-1.023.601-.485.221-.986.412-1.495.571-1.031.322-2.09.487-3.171.5-.082.001-.165.015-.247.017-.33.008-.661.032-.991.017-.411-.019-.822-.065-1.232-.109-.392-.042-.785-.078-1.172-.148-.727-.13-1.433-.337-2.091-.68a8.775 8.775 0 0 1-.948-.561c-.301-.209-.57-.465-.862-.688-.368-.282-.708-.587-.962-.98-.09-.139-.202-.263-.307-.391-.301-.371-.596-.745-.815-1.167a7.791 7.791 0 0 0-.373.027c.112.238.231.472.373.69.251.385.549.739.836 1.099.207.259.418.515.648.752.152.157.341.279.513.418.257.208.505.429.771.625.433.32.925.531 1.412.751.746.336 1.533.504 2.341.587.246.025.493.045.74.064.53.04 1.06.104 1.591.108.503.004 1.006-.078 1.509-.085a8.08 8.08 0 0 0 1.823-.257c1.074-.268 2.113-.633 3.06-1.228.486-.305.959-.618 1.35-1.045.305-.333.626-.652.93-.986.148-.163.283-.339.407-.521.302-.445.536-.926.747-1.419.104-.244.211-.49.319-.738a25.786 25.786 0 0 1-.278-.007l-.143-.006zm-29.809 18.65c.02-.031.042-.061.058-.094.283-.589.596-1.166.841-1.771.331-.82.618-1.659.909-2.495.157-.452.285-.915.42-1.375.213-.726.422-1.453.628-2.18a2.23 2.23 0 0 0 .062-.353c.014-.122-.065-.236-.166-.251-.126-.019-.186.062-.223.163a1.648 1.648 0 0 0-.073.267c-.164.922-.525 1.786-.789 2.678-.167.565-.372 1.12-.561 1.679-.151.445-.275.904-.465 1.332-.345.776-.73 1.534-1.1 2.298-.019.04-.054.073-.081.11l-.001.111c.259.161.377.135.541-.119zm38.977-6.598c.157.851.303 1.705.487 2.55.199.914.512 1.793.929 2.632.073.147.16.269.34.289l.199-.148.001-.111c-.281-.428-.446-.909-.621-1.384a14.047 14.047 0 0 1-.617-2.353c-.105-.58-.225-1.158-.326-1.738-.129-.746-.272-1.487-.546-2.196-.043-.11-.094-.201-.263-.217l-.182.206c.058.16.108.289.153.42.228.665.319 1.362.446 2.05zM92.27 80.955c-.358-1.047-.73-2.089-.977-3.17a14.463 14.463 0 0 1-.347-2.512c-.013-.256-.05-.511-.077-.781-.232-.068-.327-.021-.356.164-.008.054-.003.111-.005.166-.018.49.027.975.099 1.459.079.527.126 1.062.242 1.581.269 1.2.675 2.36 1.082 3.517.043.122.089.244.149.357.073.137.187.178.296.125.114-.055.153-.163.104-.306-.068-.2-.141-.399-.21-.6zm17.029-2.556c-.111.027-.164.105-.186.216a.788.788 0 0 1-.064.182c-.212.441-.426.88-.64 1.32-.262.539-.535 1.073-.783 1.617-.271.594-.48 1.216-.837 1.769a.351.351 0 0 0-.048.157c-.01.134.102.239.229.2a.503.503 0 0 0 .223-.145c.077-.09.138-.197.187-.306.261-.58.507-1.167.777-1.743.367-.786.755-1.562 1.125-2.346.113-.24.194-.496.284-.728-.132-.183-.176-.216-.267-.193zm-7.834 5.626c-.446.128-.888.253-1.33.381-.449.13-.895.121-1.319-.079a1.812 1.812 0 0 1-.54-.367c-.187-.198-.325-.443-.481-.67-.13-.189-.255-.382-.376-.563-.262-.032-.262-.032-.372.203.2.317.39.623.584.926.307.482.698.859 1.274.99.232.053.472.148.699.125a7.209 7.209 0 0 0 1.736-.423c.06-.022.12-.05.171-.088.223-.164.204-.311-.046-.435zm-7.486-5.899c-.08-.451-.115-.911-.172-1.366-.05-.401-.105-.801-.149-1.202-.012-.109-.038-.198-.158-.257-.179.037-.235.158-.23.308.008.248.025.496.049.742.035.356.073.713.122 1.067.077.555.153 1.11.251 1.661.071.398.168.791.269 1.183.048.186.13.365.317.457.234-.12.259-.157.179-.384-.251-.718-.346-1.468-.478-2.209zm11.626.505c-.048.089-.113.162-.129.245a11.433 11.433 0 0 1-.479 1.672c-.253.702-.505 1.406-.753 2.11-.045.128-.117.256-.039.427l.221.117c.083-.124.178-.227.227-.349.1-.247.177-.504.261-.757.288-.867.584-1.731.856-2.602.067-.215.055-.454.077-.683.002-.025-.015-.052-.028-.095l-.214-.085zm-23.076-6.279c-.05.181-.024.233.179.333.172-.042.253-.168.295-.329.021-.08.039-.161.06-.241.245-.897.415-1.815.763-2.684.033-.082.006-.188.006-.3l-.302-.018c-.063.123-.126.216-.16.319-.124.376-.245.754-.353 1.135-.168.594-.325 1.19-.488 1.785zm17.675 10.7c.285.033.601-.001.763.309.256.03.256.03.359-.189-.027-.288-.235-.416-.472-.47a8.405 8.405 0 0 0-.973-.15c-.267-.029-.53-.065-.758-.214a6.933 6.933 0 0 1-.573-.423c-.19-.154-.299-.139-.447.116.06.078.104.163.172.218.214.172.426.351.659.492.388.235.834.261 1.27.311zm17.602-10.625c.034.157.122.302.19.463l.337-.021c-.017-.144-.018-.243-.041-.337-.051-.205-.132-.405-.167-.612-.121-.712-.307-1.414-.295-2.145.002-.102-.057-.198-.18-.211-.111-.013-.174.057-.202.151a.667.667 0 0 0-.036.243c.028.329.051.659.105.984.082.497.18.992.289 1.485z" opacity=".2"/>
        <path d="M115.888 74.976a8.306 8.306 0 0 1-.548 3.064c-.404 1.072-.775 2.156-1.16 3.234a7.439 7.439 0 0 1-.742 1.485 3.626 3.626 0 0 1-.796.88c-.272.22-.605.309-.925.422-.639.225-1.27.154-1.892-.072a6.56 6.56 0 0 1-1.635-.857c-.693-.505-1.404-.99-2.063-1.537a26.106 26.106 0 0 1-1.822-1.698c-.514-.516-.851-1.164-1.159-1.815a19.83 19.83 0 0 1-1.422-4.132c-.199-.887-.284-1.788-.418-2.683a4.603 4.603 0 0 1-.055-.885c.008-.175.085-.358.169-.517.236-.444.632-.74 1.012-1.048.2-.162.407-.32.589-.501.26-.259.556-.355.907-.262.703.187 1.414.348 2.103.578 1.362.454 2.712.946 4.065 1.427.685.243 1.373.482 2.051.745a9.307 9.307 0 0 1 2.933 1.846c.551.506.795 1.164.81 1.909.003.139-.001.278-.002.417z" fill="#343335" data-color="3"/>
        <path d="M92.777 55.055c.093.001.204.007.314.001.173-.009.269.082.341.228.52 1.041 1.02 2.092 1.572 3.114.491.91 1.05 1.781 1.639 2.633.851 1.23 1.664 2.487 2.525 3.709.531.754 1.082 1.496 1.716 2.172.277.295.516.627.776.939.075.091.078.186.04.285a.958.958 0 0 1-.107.193c-.275.396-.58.765-.958 1.069-.183.147-.256.163-.44.026-.221-.165-.422-.357-.64-.528-1.046-.819-1.936-1.795-2.75-2.837a57.922 57.922 0 0 1-2.868-4.008c-.676-1.038-1.324-2.091-1.841-3.218a22.135 22.135 0 0 1-1.07-2.823c-.084-.275.017-.509.259-.666.207-.135.441-.183.677-.222.136-.022.274-.038.411-.049.128-.01.258-.012.404-.018z" fill="#343335" data-color="3"/>
        <path d="M105.49 71.476c.312.298.643.577.977.85.664.541 1.378 1.012 2.09 1.486.692.46 1.407.865 2.179 1.179a16.52 16.52 0 0 0 2.275.754c.444.109.901.164 1.35.257.426.088.855.108 1.288.093.043-.001.086-.023.122-.033.062-.238.002-.324-.238-.35-.2-.022-.401-.043-.601-.059a9.532 9.532 0 0 1-1.864-.343 25.891 25.891 0 0 1-1.862-.603 9.575 9.575 0 0 1-1.282-.578c-.46-.25-.898-.541-1.336-.83-.683-.452-1.354-.917-1.983-1.447-.416-.35-.833-.696-1.21-1.087-.48-.497-.954-1.001-1.425-1.507a4.798 4.798 0 0 1-.379-.474c-.14-.198-.275-.398-.412-.598a1.378 1.378 0 0 0-.156.13c-.059.058-.123.112-.185.166.433.666.945 1.266 1.504 1.83.384.388.755.788 1.148 1.164z" fill="#CAC9FC" data-color="2"/>
        <path d="M103.622 68.767c-.039.168-.059.315-.107.452-.139.388-.39.709-.645 1.025a4.967 4.967 0 0 1-.462.511c-.243.229-.519.401-.869.254a1.881 1.881 0 0 1-.424-.255 12.488 12.488 0 0 1-.71-.611c-.274-.253-.313-.457-.121-.786.133-.228.288-.451.466-.644.336-.365.685-.717 1.048-1.056.255-.237.514-.23.742-.034.258.221.528.43.768.669.131.132.211.316.314.475z" fill="#FFF86B" data-color="4"/>
        <path d="M94.91 54.15c.312-.07.358-.041.437.188.218.658.5 1.293.841 1.896.189.327.346.674.529 1.005.182.331.372.659.57.981.329.534.684 1.049 1.096 1.523.271.312.507.657.792.955.279.291.596.547.908.805.233.193.481.37.728.546.087.062.193.097.301.15.049-.067.085-.118.123-.168.123-.16.239-.326.373-.477a.7.7 0 0 1 .592-.243c.174.011.352-.002.523.024.356.055.62.261.821.576.363-.238.67-.53.937-.853.339-.41.684-.821.912-1.313.128-.276.278-.542.406-.818.253-.544.529-1.08.74-1.641.342-.907.65-1.827.843-2.781.042-.207.049-.42.072-.631.003-.028 0-.056.004-.083.025-.168.135-.277.265-.264.141.013.249.158.225.33-.099.693-.178 1.389-.422 2.054-.242.659-.431 1.339-.703 1.984-.406.961-.835 1.918-1.42 2.786-.369.548-.792 1.064-1.349 1.444a.87.87 0 0 0-.22.208.366.366 0 0 0-.066.224c.048.586-.166 1.04-.652 1.365-.431.289-1.33.228-1.717-.13-.235-.217-.315-.513-.36-.819-.013-.089-.01-.181-.013-.237-.271-.155-.523-.271-.742-.433-.347-.256-.676-.537-1.005-.817a6.731 6.731 0 0 1-.606-.564 12.211 12.211 0 0 1-.648-.788c-.258-.335-.519-.67-.754-1.022a17.956 17.956 0 0 1-.861-1.385c-.365-.674-.71-1.36-1.034-2.055-.179-.383-.308-.791-.447-1.193-.034-.098-.014-.213-.019-.329zm6.567 8.665c.011.267.092.503.309.657a.98.98 0 0 0 .761.148c.553-.106.859-.702.662-1.23-.13-.349-.35-.575-.744-.579a.31.31 0 0 1-.109-.015c-.164-.063-.284-.008-.379.13-.031.045-.064.1-.109.122-.328.158-.341.473-.391.767z" fill="#5B5BDD" data-color="5"/>
        <path d="M95.513 53.664c.034-.181.117-.264.278-.274.219.119.312.351.434.551.268.441.494.909.78 1.338.417.627.788 1.29 1.321 1.835.166.17.285.386.449.558a7.64 7.64 0 0 0 1.959 1.465c.674.356 1.31.261 1.915-.168.43-.305.789-.681 1.151-1.065.51-.542.916-1.153 1.315-1.772.184-.285.325-.598.477-.903.193-.388.394-.775.561-1.175.124-.296.2-.612.305-.943.017-.011.051-.045.093-.06.209-.076.37.057.333.275a4.63 4.63 0 0 1-.4 1.234c-.207.434-.405.872-.632 1.295-.393.732-.84 1.432-1.374 2.068-.325.387-.678.756-1.052 1.096-.375.34-.801.622-1.3.756-.535.145-1.056.069-1.552-.164-.536-.251-1.017-.591-1.488-.947-.444-.335-.783-.767-1.14-1.188a9.869 9.869 0 0 1-.913-1.247c-.417-.684-.814-1.381-1.221-2.072-.102-.173-.208-.344-.299-.493z" fill="#343335" data-color="3"/>
        <path d="M93.857 170.928c-.119-.419-.367-.77-.627-1.134-.275.041-.493.22-.723.36-.401.244-.783.519-1.179.771-.584.373-1.19.703-1.866.88-.258.068-.515.075-.736-.098-.258-.201-.319-.485-.123-.76.169-.237.372-.465.602-.641.84-.642 1.797-1.04 2.825-1.254.335-.074.685-.05 1.007.069.19.073.372.097.578.105.284.011.575.116.842.232.416.18.756.487 1.105.771.589.479.948 1.117 1.213 1.814.115.303.187.615.172.946-.018.391-.141.557-.548.676-.4-.169-.726-.464-1.027-.79-.1-.108-.19-.225-.286-.336-.151-.173-.307-.343-.455-.518-.196-.232-.445-.385-.717-.505a3.7 3.7 0 0 0-1.552-.317c-.109.001-.218.026-.326.04-.103.014-.208.026-.261-.094-.041-.094.006-.22.136-.269.161-.061.336-.118.504-.117.385.003.766.06 1.139.165.093.027.185.098.303.004zm2.509 2.24c.162-.083.146-.196.134-.291-.041-.319-.091-.637-.237-.931-.259-.522-.539-1.026-1.024-1.381-.259-.189-.498-.405-.759-.591-.199-.141-.421-.246-.688-.251.589 1.368 1.464 2.492 2.574 3.445zm-3.764-3.65a1.2 1.2 0 0 0-.618-.015 6.694 6.694 0 0 0-2.012.808c-.345.215-.655.48-.921.787-.044.048-.059.122-.094.195a.96.96 0 0 0 .595.004c.558-.154 1.049-.446 1.533-.748.476-.297.944-.609 1.413-.917.035-.021.057-.061.104-.114z" fill="#5B5BDD" data-color="5"/>
        <path d="M93.493 175.229c-.113.194-.189.231-.366.168-.06-.021-.116-.056-.174-.084a3.533 3.533 0 0 0-1.15-.349 3.66 3.66 0 0 0-1.511.132c-.082.025-.174.014-.293.022l-.026-.295c.853-.587 3.122-.312 3.52.406z" fill="#5B5BDD" data-color="5"/>
        <path d="M91.431 172.302c-.072-.256-.045-.344.132-.379.196-.039.402-.071.599-.055a4.01 4.01 0 0 1 2.127.824c.127.097.305.194.264.411-.213.136-.271.135-.466-.02a3.572 3.572 0 0 0-1.156-.628 3.332 3.332 0 0 0-1.001-.15l-.499-.003z" fill="#5B5BDD" data-color="5"/>
        <path d="M93.853 174.165l-.258.235c-.763-.606-1.598-.908-2.553-.663-.116-.043-.182-.113-.176-.23.007-.127.11-.168.205-.193.263-.07.525-.141.806-.076.15.034.313.01.463.042.503.108.935.37 1.35.661.067.047.103.139.163.224z" fill="#5B5BDD" data-color="5"/>
        <path d="M89.201 181.774c.453.172.929.214 1.401.269.282.033.576.039.855-.005.775-.123 1.526-.325 2.222-.713.723-.403 1.383-.877 1.886-1.546.351-.467.648-.961.82-1.527.153-.504.313-1.006.491-1.502.124-.347.266-.69.429-1.02.122-.246.285-.473.442-.7.529-.76.961-1.576 1.371-2.404a7.028 7.028 0 0 0 .55-1.629 2.028 2.028 0 0 0-.066-.151 8.164 8.164 0 0 0-.253-.481.36.36 0 0 0-.034.068c-.019.051-.025.107-.038.161-.091.385-.143.785-.28 1.154-.382 1.026-.911 1.981-1.527 2.882-.494.723-.9 1.481-1.15 2.323-.129.433-.271.863-.416 1.291-.328.965-.975 1.683-1.778 2.27-.389.28-.812.51-1.259.684-.525.209-1.061.369-1.632.355-.45-.011-.903-.009-1.347-.072-.544-.077-1.044-.289-1.45-.684-.349-.339-.592-.751-.815-1.178a2.442 2.442 0 0 1-.286-1.077c-.118.218-.229.44-.343.661.134.474.399.875.634 1.297.362.644.909 1.022 1.573 1.274z" fill="#5B5BDD" data-color="5"/>
        <path d="M116.94 173.406c-.066-.308-.156-.608-.365-.858-.124-.148-.229-.312-.357-.456-.226-.254-.439-.527-.699-.74-.526-.433-1.148-.694-1.796-.888a3.285 3.285 0 0 0-.95-.139h-.019a2.417 2.417 0 0 0-.208.012l-.038.003a2.415 2.415 0 0 0-.19.028l-.049.008a2.59 2.59 0 0 0-.231.056c-.359.105-.715.221-1.085.336-.061-.107-.158-.163-.304-.176-.634-.058-1.225.101-1.795.351a7.373 7.373 0 0 0-.577.287l-.043.024c-.098.054-.196.11-.291.168l-.121.077c-.072.046-.145.091-.215.14-.116.079-.23.161-.341.247-.106.082-.216.158-.338.248-.038-.071-.067-.116-.088-.165-.077-.178-.149-.358-.226-.536-.258-.597-.657-1.111-.982-1.669a3.25 3.25 0 0 1-.394-1.052c-.072-.335-.16-.67-.182-1.009a5.416 5.416 0 0 1-.008-.637l-.016.027c-.12.229-.253.451-.373.681-.013.024-.022.049-.034.073.034.296.086.589.157.879.032.138.066.276.1.413.065.257.166.512.295.743.197.354.436.684.651 1.029.275.44.496.906.646 1.406.043.145.017.243-.086.347-.187.19-.367.388-.542.59a5.096 5.096 0 0 0-.295.377 4.005 4.005 0 0 0-.699 1.632c-.073.414-.046.828.175 1.21.149.257.383.395.656.39.243-.005.478-.109.687-.262.19-.14.372-.29.547-.449.112-.1.223-.202.327-.311.06-.063.135-.112.236-.195.053.121.095.199.122.282.038.114.068.23.097.346.146.591.283 1.184.438 1.772.101.383.193.775.349 1.136.267.619.69 1.128 1.225 1.543a4.859 4.859 0 0 0 1.668.832c.237.068.471.142.707.214l.94.006c.192-.086.389-.161.575-.259.632-.333 1.097-.863 1.578-1.373.094-.1.185-.209.249-.329.192-.357.387-.715.548-1.086.041-.095.078-.192.111-.289.016-.045.029-.091.044-.136.034-.109.064-.219.091-.33l.017-.078c.037-.168.069-.338.092-.509a26.413 26.413 0 0 0-.418-.681c-.016.212-.03.429-.044.645-.01.164-.035.332-.082.489-.094.328-.203.652-.328.97-.151.368-.334.725-.611 1.016-.304.319-.616.631-.94.931-.251.233-.534.454-.878.497a3.473 3.473 0 0 1-1.018-.011c-.996-.175-1.864-.605-2.546-1.381-.322-.366-.589-.758-.708-1.236-.274-1.102-.51-2.214-.866-3.293a.386.386 0 0 1 .076-.386c.448-.561.887-1.129 1.326-1.696.203-.262.391-.536.602-.791.084-.101.203-.213.323-.237.322-.065.653-.087.981-.123.109-.012.221-.007.329-.025.243-.04.445.118.48.415-.667.047-1.31.207-1.962.43l.024.321c.128.001.229.018.323-.001.198-.04.391-.102.588-.149.16-.038.322-.088.484-.096.304-.012.608-.01.912.006.093.004.2.04.273.097.457.363.981.591 1.538.727l.112.025a17.95 17.95 0 0 0 1.51.272c.29.042.587.035.851-.148.172-.117.318-.377.278-.569zm-9.707 1.741a7.255 7.255 0 0 1-.659.699c-.196.18-.404.346-.635.487-.232.142-.472.065-.561-.192a1.406 1.406 0 0 1-.09-.592 3.393 3.393 0 0 1 .783-1.852c.178-.207.362-.41.57-.645l.683 1.958c-.031.047-.056.096-.091.137zm3.077-3.834l-.032.035c-.144.16-.291.317-.435.477-.135.149-.268.3-.392.458-.581.735-1.143 1.485-1.713 2.228-.01.013-.03.018-.069.04-.304-.593-.456-1.23-.605-1.884.443-.481.989-.811 1.553-1.123.092-.051.184-.098.278-.143l.051-.024c.093-.044.187-.086.282-.123a3.033 3.033 0 0 1 1.194-.222c.055.133-.04.201-.112.281zm.317.386c.131-.209.295-.326.507-.435l.273.358-.78.077zm5.809 1.851c-.134.156-.306.158-.467.13-.595-.103-1.191-.199-1.779-.334l-.05-.013a3.067 3.067 0 0 1-.682-.257l-.015-.009a2.782 2.782 0 0 1-.19-.112l-.031-.022a2.7 2.7 0 0 1-.163-.118c-.018-.014-.034-.03-.051-.044-.045-.038-.089-.075-.132-.116-.028-.027-.054-.057-.081-.085-.03-.032-.061-.062-.091-.096a2.858 2.858 0 0 1-.159-.204c-.281-.396-.616-.753-.926-1.129-.016-.02-.024-.047-.043-.086.245-.146.517-.181.785-.224.084-.013.166-.021.248-.026l.091-.004c.049-.002.099-.002.148-.001l.111.003c.061.004.123.01.183.017l.012.001c.468.058.917.222 1.354.428.487.23.912.545 1.227.998.125.18.289.333.427.505.157.196.272.415.291.673.005.045-.011.09-.017.125z" fill="#5B5BDD" data-color="5"/>
        <path d="M112.644 174.433c.177.023.293-.041.319-.201l-.102-.228c-.158-.022-.31-.061-.462-.06-.283.003-.566.03-.849.045a3.039 3.039 0 0 0-1.459.442c-.141.087-.315.168-.326.372.167.216.193.215.399.079.253-.167.515-.334.817-.38.388-.06.781-.09 1.172-.114.163-.011.328.024.491.045z" fill="#5B5BDD" data-color="5"/>
        <path d="M110.774 175.818c.344-.09.686-.221 1.035-.249.322-.025.646-.101.98-.039.155.029.33-.027.389-.222-.036-.145-.131-.196-.265-.199-.642-.016-1.284-.035-1.905.171-.215.071-.446.112-.641.29l.015.241c.167.093.278.037.392.007z" fill="#5B5BDD" data-color="5"/>
        <path d="M103.622 68.767c-.039.168-.059.315-.107.452-.139.388-.39.709-.645 1.025a4.967 4.967 0 0 1-.462.511c-.243.229-.519.401-.869.254a1.881 1.881 0 0 1-.424-.255 12.488 12.488 0 0 1-.71-.611c-.274-.253-.313-.457-.121-.786.133-.228.288-.451.466-.644.336-.365.685-.717 1.048-1.056.255-.237.514-.23.742-.034.258.221.528.43.768.669.131.132.211.316.314.475z" fill="#CAC9FC" opacity=".3" data-color="2"/>
        <path d="M102.818 48.77s-1.673 1.338-2.342 1.673c-.669.335-3.68-.669-3.68-.669-.007.479.002 1.267-.114 1.723a6.425 6.425 0 0 1-.822 1.894c4.964.222 6.958-4.621 6.958-4.621z" opacity=".2"/>
        <path d="M100.477 41.076s.335-2.342 2.342-1.673l-2.342 1.673z"/>
        <path d="M96.128 42.749l-2.676.669s-.669-1.673 2.676-.669z"/>
        <path d="M99.265 44.41c.167 0 .515-.251.193-.251-.168 0-.515.251-.193.251z"/>
        <path d="M98.261 44.745c.167 0 .515-.251.193-.251-.167 0-.515.251-.193.251z"/>
        <path d="M90.441 41.076l13.381-6.356s-7.359-5.687-10.035-2.342c-2.677 3.346-5.018 4.015-3.346 8.698z" fill="#343335" data-color="3"/>
        <path d="M104.297 38.073a7.08 7.08 0 0 0-.768.435c-.388.261-.76.545-1.145.824-.678-.702-1.446-.643-2.237-.264-.836.401-1.124 1.117-1.059 2.029-.821.152-1.572.443-2.314.825-.113-.137-.192-.267-.302-.361-.694-.594-1.561-.767-2.387-.204-.569.388-.905.915-.866 1.631.022.397.176.757.394 1.081.392.579.936.905 1.645.91.536.003.981-.216 1.348-.599.447-.465.642-1.004.462-1.648l-.116-.418c.714-.374 1.446-.673 2.253-.747.03.046.053.075.07.106.247.455.607.788 1.086.979.722.289 1.505.159 2.047-.442.269-.299.39-.665.489-1.042.081-.309.093-.623.007-.931-.052-.184-.133-.36-.206-.553.036-.042.069-.102.119-.137.465-.329.897-.71 1.421-.951.092-.042.175-.102.263-.151.104-.058.17-.138.169-.261-.148-.167-.206-.196-.373-.111zm-8.698 6.4a1.467 1.467 0 0 1-1.589-.617c-.226-.345-.398-.709-.346-1.142.024-.195.075-.362.22-.518.182-.197.356-.393.584-.54.699-.45 1.69.023 1.924.57.181.423.257.619.255.952.045.57-.447 1.137-1.048 1.295zm6.834-3.356a1.397 1.397 0 0 1-.201.54c-.203.316-.445.581-.79.634-.08.025-.16.043-.235.053a1.102 1.102 0 0 1-.639-.108 1.503 1.503 0 0 1-.699-.479 1.322 1.322 0 0 1-.332-.801c-.024-.385.012-.75.252-1.08.105-.144.245-.215.381-.306.404-.272.858-.335 1.32-.261.185.03.366.166.52.291.125.101.212.252.304.389.234.354.174.747.119 1.128z" fill="#5B5BDD" data-color="5"/>
    </g>
</svg>
