<?xml version="1.0" encoding="UTF-8"?>
<svg data-bbox="58 19.998 84 160.002" viewBox="0 0 200 200" height="200" width="200" xmlns="http://www.w3.org/2000/svg" data-type="color">
    <g>
        <path d="M72.358 149.414c-.269-2.228-.448-1.468-.525-3.705-.025-.74-.133-1.494-.553-2.124-.311-.466-1.607-1.65-1.607-1.65s.18-6.648.232-8.211c.103-3.126.22-6.252.363-9.377a.225.225 0 0 0 .01-.241l.021-.483c.013-.269-.41-.277-.423-.008l-.016.376c-2.571-.137-5.064.55-7.6.848-.039-.771-.082-1.543-.117-2.314-.012-.268-.435-.278-.423-.008.036.79.08 1.579.12 2.369-.402.039-.804.068-1.209.079-.271.008-.281.426-.008.419.414-.012.827-.041 1.238-.082.298 5.849 1.453 17.614 1.453 17.614s-.749 4.399-.562 6.631c.111 1.321.011 2.592 1.742 2.636.358.009.472.389.728.559.209.139.783.135.886.307.595.986 1.664.17 2.515.673.675.399 1.298 1.562 2.239.862.778-.579.433-1.782.353-2.573-.028-.276-.046-.552-.067-.829.088.191.196.356.339.454 1.273.874.921-1.808.871-2.222z" fill="#875549" data-color="1"/>
        <path d="m136.016 115.207-23.247-30.51-2.534 4.014 22.314 29.299s1.325.733 1.835.235 1.632-3.038 1.632-3.038z" fill="#EBCFA9" data-color="2"/>
        <path d="M125.975 180h-20.326c-.029-.86-.057-1.723-.147-2.583-.135-1.279-.481-2.49-.889-3.677-.049-.137-.098-.278-.151-.416-.677-1.885-1.48-3.729-1.839-5.723-.281-1.586-.192-3.196-.294-4.799-.004-.081-.008-.165-.016-.246-.004-.061-.008-.125-.016-.186-.175-1.961-.767-3.842-1.142-5.767a30.225 30.225 0 0 1-.522-4.649 82.544 82.544 0 0 1-.812-3.297c-.493 4.573-.991 9.141-1.48 13.714-.012.081-.02.165-.029.246-.008.061-.012.125-.02.186-.363 3.39-.714 6.784-1.089 10.178-.012.141-.029.278-.045.42-.245 2.2-.498 4.403-.771 6.599H78.511c-.257-1.881-.624-3.753-.893-5.63-.016-.129-.037-.258-.053-.387-.216-1.614-.355-3.237-.281-4.871.126-2.813.057-5.618-.126-8.419-.008-.133-.016-.266-.029-.4-.192-2.773-.498-5.541-.844-8.298-.232-1.881-.302-3.753-.298-5.626 0-.133 0-.262.004-.396.02-2.551.167-5.093.212-7.652.004-.137.008-.27.008-.408.02-1.231.012-2.466-.049-3.705-.196-4.084 1.085-7.898 1.248-11.97-.179.016-.355.032-.53.052-.245.024-.241-.379 0-.404l.542-.056c.016-.771-.02-1.546-.126-2.329-.037-.254.33-.363.367-.109.11.807.143 1.606.131 2.401l2.887-.287.445-.04 8.985-.888.416-.04 8.165-.807c1.505-.149 3.014-.315 4.527-.452l.412-.036c2.011-.17 4.025-.278 6.044-.206 1.57.052 3.132.21 4.686.46h.012c.098.016.241.032.404.057.155.024.326.056.498.097a6.717 6.717 0 0 1-.371-.775 9.4 9.4 0 0 1-.306-.932c-.281-1.045-.383-2.139-.428-3.229a50.159 50.159 0 0 1-.033-1.332c0-.262.379-.262.383 0 .029 2.155.082 4.682 1.338 6.498.171.101.29.238.322.416.004.008.008.016.016.024 1.383 1.59 1.99 1.901 2.333 4.181.604 4.012 1.313 6.47 2.166 10.074.029.129.061.258.09.391.086.363.171.739.261 1.126.726 3.229 1.301 7.144 1.741 10.945l.049.4c.265 2.325.485 4.593.665 6.631a203.648 203.648 0 0 1 .391 5.392c.236 3.725.42 7.45.722 11.171.106 1.332.314 2.656.538 3.975.024.137.045.274.069.412.289 1.659.591 3.314.754 4.981z" fill="#A5B1C7" data-color="3"/>
        <path d="M84.89 60.612a20.146 20.146 0 0 0-8.37 2.375c-2.715 1.457-4.145 2.107-6.702 3.756-9.972 6.428-10.597 16.613-10.602 16.692v.001c.006.079-1 10.553-1.139 15.405-.055 1.923-.142 14.423-.001 15.299 0 0 .133 14.053.516 15.555 0 0 1.162 9.214 3.027 9.474 1.458.204 1.032 1.589 1.806 1.753.441.094 1.071.029 2.535.028l1.266.104c.386-.025.77-.047 1.153 0 .5.062 1.303.009 1.469-.354.518-1.135.948-1.622 1.481-1.792.719-.229.979-1.136 1.08-1.88.513-3.801-.241-13.391-.247-14.436-.141-23.101 2.54-25.38 3.823-25.491.037-.003-.948-2.332-.909-2.334 2.586-.144.242-3.011.374-5.582.048-.928.235-1.623.671-1.715 1.034-.218 2.408-.659 2.978-1.625.412-.697.469-1.656.628-2.433a100.106 100.106 0 0 0 1.962-16.466c.027-.749 1.877-5.848 3.242-5.932.264-.017.221-.418-.041-.402z" fill="#3B3348" data-color="4"/>
        <path d="M110.621 59.849s-1.859-.393-2.74-.644c-1.093-.311-2.164-.711-3.142-1.291-2.104-1.25-3.208-3.066-3.616-5.435-.398-2.311-.574-4.654-.735-6.992.02-.276.004-.562-.062-.86-.049-.22-.416-.175-.401.054l.06.862c-.172 2.09-2.912 3.297-4.701 3.812-1.912.551-3.9.888-5.871 1.181a32.151 32.151 0 0 0-.429-2.008c-.063-.252-.457-.145-.393.107.163.649.3 1.303.422 1.96l-.095.014c-.259.038-.149.427.108.389l.062-.009c.142.829.25 1.663.317 2.504.126 1.575.189 3.231-.489 4.702-1.121 2.433-6.33 4.217-6.33 4.217s-.071.02-.098.039c-.032.007.918 1.905 1.526 2.26a41.725 41.725 0 0 0 5.228 2.559c1.861.764 3.791 1.508 5.741 2.019 1.603.421 3.079-.494 4.487-1.167a54.351 54.351 0 0 0 9.978-6.179c.47-.367 1.173-2.094 1.173-2.094z" fill="#875549" data-color="1"/>
        <path d="M84.792 45.921c.752 2.165 2.034 4.397 4.034 5.721 2.09 1.384 4.87 1.463 7.273.488 1.82-.739 3.314-1.952 4.35-3.531 1.036-1.58 1.396-3.506 1.846-5.297.858-3.411 1.085-6.016.642-9.464-.397-3.086-1.369-4.968-3.96-7.047-2.312-1.855-5.587-1.922-8.467-1.174-2.175.565-4.331 1.602-5.606 3.349-1.983 2.716-2.108 6.153-1.791 9.364a32.696 32.696 0 0 0 1.598 7.357l.081.234z" fill="#875549" data-color="1"/>
        <path d="M87.747 38.12c-.922-.181-.767 2.016-.089 2.034a.563.563 0 0 0 .426-.211c.365-.427.363-1.685-.337-1.823z" opacity=".7"/>
        <path d="M97.428 37.292c-.879-.173-.731 1.922-.085 1.94a.535.535 0 0 0 .406-.201c.348-.407.346-1.608-.321-1.739z" opacity=".7"/>
        <path d="M92.304 44.826c-.149 0-.297-.009-.438-.029a.7.7 0 0 1-.498-.3c-.285-.431-.079-1.182.057-1.679.027-.1.051-.187.066-.255.224-1.023.181-2.388.181-2.402a.202.202 0 0 1 .197-.208.203.203 0 0 1 .21.195c.002.058.045 1.428-.19 2.501a5.414 5.414 0 0 1-.072.276c-.103.375-.294 1.073-.11 1.352.028.043.082.103.216.122.81.118 1.91-.217 1.921-.22a.205.205 0 0 1 .255.133.203.203 0 0 1-.134.253c-.039.011-.864.261-1.661.261z" opacity=".3"/>
        <path d="M90.254 46.506s1.354.005 2.978-.196c2.001-.248 2.956-.469 2.956-.469s-.34 1.723-2.83 1.988c-2.051.218-3.104-1.323-3.104-1.323z" fill="#FFFFFF" data-color="5"/>
        <path d="M93.537 53.264c-2.519 0-4.1-1.017-4.178-1.068a.2.2 0 0 1-.057-.279.206.206 0 0 1 .282-.057c.022.014 2.157 1.379 5.345.894 2.936-.447 4.831-3.318 5.181-3.888l.186.086.173.107c-.377.614-2.363 3.62-5.478 4.095-.513.077-.999.11-1.454.11z" opacity=".3"/>
        <path d="M102.576 36.128s1.599-.998 1.994 1.709c.394 2.707-.429 4.574-1.782 4.703-1.354.129-1.748-1.975-1.748-1.975l1.536-4.437z" fill="#875549" data-color="1"/>
        <path d="M83.368 38.066s-1.721-.775-1.742 1.96c-.022 2.735 1.048 4.475 2.407 4.422 1.359-.053 1.463-2.19 1.463-2.19l-2.128-4.192z" fill="#875549" data-color="1"/>
        <path d="M89.811 36.174c-.23-.165-.547-.172-.827-.154-.639.042-1.268.169-1.892.311-.516.118-1.085.214-1.487.583-.375.345-.417.715.106.775.43.049 1.136-.19 1.56-.238.433-.049.867-.083 1.302-.104.411-.02 1.044.085 1.38-.22.239-.218.17-.61-.018-.837a.678.678 0 0 0-.124-.116z" fill="#382823" data-color="6"/>
        <path d="M95.083 35.781c-.151.252-.161.65.108.83.378.253.988.056 1.398.015.433-.043.868-.073 1.303-.088.426-.015 1.16.118 1.578.006.509-.136.411-.496-.011-.782-.453-.307-1.03-.318-1.558-.359-.638-.049-1.279-.083-1.917-.03-.279.023-.591.076-.794.274a.7.7 0 0 0-.107.134z" fill="#382823" data-color="6"/>
        <path d="M102.727 40.355a.203.203 0 0 1-.168-.316 2.06 2.06 0 0 0 .296-.924c.044-.54-.172-.896-.174-.9a.2.2 0 0 1 .066-.277.204.204 0 0 1 .28.063c.012.019.29.465.235 1.146a2.44 2.44 0 0 1-.367 1.121.206.206 0 0 1-.168.087z" opacity=".3"/>
        <path d="M83.779 42.412a.205.205 0 0 1-.15-.065 2.44 2.44 0 0 1-.518-1.061c-.149-.667.065-1.147.074-1.167a.205.205 0 0 1 .27-.101c.102.046.148.165.102.266-.004.01-.165.389-.048.914.121.543.418.872.421.876a.201.201 0 0 1-.014.285.199.199 0 0 1-.137.053z" opacity=".3"/>
        <path d="m103.325 34.506-.008-.408c-.002-.084-.001-.168-.005-.252-.024-1.172-.083-3.641-.17-5.167-.096-1.692-.111-3.619-.805-5.2-.838-1.907-3.401-2.526-5.347-1.865-.299-.876-1.018-1.416-2.213-1.573-1.972-.258-3.668.701-5.265 1.71-.212.136-.692.299-.692.299s-.043-.184-.059-.28c-.227-.311-.25-.631-.639-.799-.373-.161-.813-.101-1.174.063-.545.246-1.125.732-1.602 1.309-.125-.206-.292-.364-.525-.431-.89-.26-1.894.502-2.385 1.146-.729.956-1.07 2.227-1.189 3.401-.347 3.417.111 7.191 1.15 10.465.014.044.044.066.074.089.223.903.646 2.179 1.302 2.224.073.005.138-.043.176-.1.512-.776.233-1.999.092-2.845a37.648 37.648 0 0 1-.391-3.122c.339-.748.733-1.592 1.317-2.166.808-.795 1.649-.261 2.566-.19.377.029.668-.039.993-.237.319-.195.525-.537.86-.711.407-.211.942-.176 1.381-.15 1.41.083 2.79-.228 4.179-.447.826-.13 1.573-.229 2.407-.136.512.057.99.053 1.477-.011.081.005.165.007.257.009.196.004.391.033.586.07.433 1.414.562 2.888.815 4.349.148.85.426 3.237 1.512 3.517 1.011.261 1.204-1.205 1.275-1.837.026-.231.019-.463.026-.695l.024-.029z" fill="#382823" data-color="6"/>
        <path d="M121.644 124.418c-.514 3.519-2.745 2.442-5.514 2.442h-11.297c-5.31 0-10.612.17-15.918.242a265.15 265.15 0 0 1-7.977.004c-1.864-.028-3.801.751-5.657.299-2.594-.626-2.202-2.926-2.011-5.081.42-4.75-.542-13.27-1.419-19.667-.595-4.367-1.15-7.741-1.191-8.257a7.375 7.375 0 0 0-.171-1.09c-.175-.791-.465-1.546-.779-2.317-1.807-4.484.216-9.605.069-14.348-.073-2.329 4.535-4.52 4.633-6.849.065-1.477.363-3.14 1.591-4.129.701-.569 1.57-.759 2.414-1.033 1.187-.383 2.047-1.045 2.953-1.873.926-.844 1.941-1.683 3.136-1.917.665-.783 2.859.839 3.348 1.106 2.125 1.146 4.429 2.248 6.909 2.248 2.675 0 5.233-1.368 7.59-2.478 2.639-1.243 5.143-2.369 6.338-2.865 1.195-.492 8.875 2.107 10.571 4.379 2.174 2.914.126 4.629-.302 7.922-.514 3.919-1.064 7.757-.783 11.716.249 3.435.869 6.829 1.252 10.251.057.533.114 1.07.159 1.606.228 2.644.212 5.295.082 7.939a127.035 127.035 0 0 1-.285 4.31c-.298 3.782 1.003 7.47 1.721 11.135.395 2.035.839 4.23.538 6.305z" fill="#A18BBC" data-color="7"/>
        <path d="M83.56 28.734a.203.203 0 0 1-.203-.19c-.005-.082-.119-2.011.227-3.175.341-1.149 1.071-2.534 1.102-2.593a.204.204 0 0 1 .275-.085.2.2 0 0 1 .086.272c-.007.014-.742 1.409-1.072 2.519-.325 1.096-.212 3.018-.211 3.037a.203.203 0 0 1-.191.214l-.013.001z" opacity=".4"/>
        <path d="M85.139 26.098a.202.202 0 0 1-.199-.247s.17-.742.359-1.477c.192-.748.758-1.792.782-1.836a.205.205 0 0 1 .276-.082.2.2 0 0 1 .083.273c-.006.01-.567 1.045-.746 1.744a65.091 65.091 0 0 0-.356 1.467.204.204 0 0 1-.199.158z" opacity=".4"/>
        <path d="M87.891 26.973a.203.203 0 0 1-.204-.202c0-.045.002-1.107.207-2.222a5.488 5.488 0 0 1 .851-2.033.204.204 0 0 1 .284-.046.202.202 0 0 1 .047.282 5.16 5.16 0 0 0-.781 1.869 13.692 13.692 0 0 0-.201 2.15.202.202 0 0 1-.203.202z" opacity=".4"/>
        <path d="M96.555 26.973a.203.203 0 0 1-.203-.19 19.207 19.207 0 0 1 0-2.094c.066-.965.467-2.573.484-2.641a.204.204 0 0 1 .396.098c-.004.016-.41 1.642-.473 2.571a18.957 18.957 0 0 0 0 2.043.202.202 0 0 1-.192.213h-.012z" opacity=".4"/>
        <path d="m85.322 41.666-.054.15c-.088.245.306.351.393.107l.054-.15c.088-.245-.306-.35-.393-.107z" opacity=".4"/>
        <path d="m86.823 41.341-.076.101c-.158.208.196.409.352.204l.076-.101c.158-.208-.196-.409-.352-.204z" opacity=".4"/>
        <path d="M86.26 42.931v.025c0 .26.408.26.408 0v-.025c0-.259-.408-.26-.408 0z" opacity=".4"/>
        <path d="m88.35 42.021-.05.101c-.116.232.236.437.352.204l.05-.101c.116-.232-.236-.437-.352-.204z" opacity=".4"/>
        <path d="m100.21 39.926-.048.152c-.078.249.316.355.393.107l.048-.152c.078-.248-.316-.354-.393-.107z" opacity=".4"/>
        <path d="m99.547 41.541-.051.151c-.083.247.311.353.393.107l.051-.151c.084-.247-.31-.353-.393-.107z" opacity=".4"/>
        <path d="M98.53 40.52a.385.385 0 0 0-.132.239c-.038.254.355.364.393.107l.027-.061c.192-.178-.096-.463-.288-.285z" opacity=".4"/>
        <path d="m101.148 40.988-.099.178c-.126.228.226.432.352.204l.099-.178c.126-.228-.226-.432-.352-.204z" opacity=".4"/>
        <path d="M97.339 42.222c-.062.053-.082.113-.083.192-.003.235.327.255.394.065.141-.171-.123-.417-.311-.257z" opacity=".4"/>
        <path d="m96.606 40.812-.051.026c-.234.118-.028.466.206.349l.051-.026c.234-.118.028-.467-.206-.349z" opacity=".4"/>
        <path d="m89.532 41.264-.032.175c-.046.254.347.363.393.107l.032-.175c.046-.254-.347-.363-.393-.107z" opacity=".4"/>
        <path d="M118.96 71.156c.428-3.293 2.476-5.009.302-7.922-1.697-2.272-9.376-4.871-10.571-4.379-1.195.496-3.699 1.622-6.338 2.865-2.357 1.11-4.914 2.478-7.59 2.478-2.48 0-4.784-1.102-6.909-2.248-.489-.266-2.684-1.889-3.348-1.106-1.195.234-2.469.918-3.395 1.762-.905.827-1.617 1.181-2.804 1.564-.844.274-2.153.31-2.855.879-1.228.989-1.413 3.244-1.478 4.721-.098 2.329-5.092 4.318-5.019 6.646.147 4.742-1.427 10.289.38 14.773.314.771 1.098 1.961 1.273 2.752 7.692-1.679 15.428 1.2 23.156-.414 2.174-.452 4.246-1.259 6.456-1.546 2.268-.299 4.564-.214 6.835-.02 4.127.355 8.238.839 12.374 1.162-.383-3.422-1.003-6.817-1.252-10.251-.281-3.959.269-7.797.783-11.716z" fill="#3B3348" data-color="4"/>
        <path d="M121.105 118.114c-.718-3.665-2.019-7.353-1.721-11.135.114-1.437.22-2.874.285-4.31-5.196.299-10.375.969-15.587.71-6.762-.339-13.328-3.071-20.139-2.587a18.23 18.23 0 0 0-4.502.9c-1.656.553-3.214 1.074-4.984 1.102-.869.012-1.737-.052-2.606-.137.877 6.397 1.839 14.917 1.419 19.667-.192 2.155-.583 4.456 2.011 5.081 1.856.452 3.793-.327 5.657-.299 2.659.044 5.318.032 7.977-.004 5.306-.073 10.608-.242 15.918-.242h11.297c2.769 0 5 1.078 5.514-2.442.301-2.075-.143-4.27-.539-6.304z" fill="#F5EBE3" data-color="8"/>
        <path fill="#875549" d="m108.793 115.158 4.588-2.81 3.365 5.012-2.546 1.82-5.407-1.17v-2.852z" data-color="1"/>
        <path d="M136.671 95.696c-.712-2.81-2.366-5.202-3.851-7.658-2.103-3.478-7.949-15.107-8.836-17.391-.956-2.461-2.034-5.166-4.04-7.053-2.436-2.29-5.843-2.432-8.788-3.723-.238-.104-.446.243-.206.348 2.379 1.043 5.115 1.263 7.354 2.621.019.011.036.024.054.036a1.164 1.164 0 0 0-.156.103c-.256.201-.289.502-.467.747-.52.717-1.065.571-1.764.861-1.524.631-2.362 2.233-2.588 3.778-.329 2.25.24 4.669.515 6.901l.976 7.9c.541 4.382 1.279 8.552 3.67 12.363.522.832 1.114 1.604 1.72 2.376.973 1.24-.396 2.874-1.096 3.993-1.269 2.03-2.728 3.937-4.264 5.775a121.01 121.01 0 0 1-2.622 3.018c-.444.497-.89.991-1.336 1.485-.259.287-.681.619-.71 1.047-.016.244.112.405.219.606.367.687.936 1.34 1.383 1.979l2.535 3.627c.068.097.23.148.32.041.838-1 2.351-.483 3.488-.698 1.127-.214 2.058-.921 2.873-1.684.944-.884 3.569-1.718 4.562-2.552 1.218-1.022 2.549-1.902 3.919-2.711 2.224-1.314 2.988-2.417 5.028-4.011 4.103-3.204 3.233-7.684 2.108-12.124z" fill="#3B3348" data-color="4"/>
        <path d="M70.966 93.038a.204.204 0 0 1-.201-.17c-.01-.059-.97-5.94-2.713-11.801-1.744-5.866-2.907-8.993-2.919-9.024a.2.2 0 0 1 .121-.259.204.204 0 0 1 .262.119c.012.031 1.178 3.169 2.927 9.05 1.751 5.886 2.715 11.793 2.725 11.851a.202.202 0 0 1-.202.234z" opacity=".3"/>
        <path d="M70.966 87.682a.204.204 0 0 1-.2-.161c-.008-.04-.82-4.003-.888-8.019-.055-3.257-1.581-7.205-2.155-8.691-.199-.514-.224-.583-.224-.654 0-.112.091-.202.204-.202.105 0 .192.079.203.18.015.058.104.288.198.532.581 1.504 2.126 5.5 2.182 8.828.067 3.978.871 7.906.88 7.945a.2.2 0 0 1-.2.242zm-3.059-17.525h.004-.004z" opacity=".3"/>
        <path d="M94.252 65.668c-5.523 0-10.112-4.054-10.159-4.096a.2.2 0 0 1-.014-.285.205.205 0 0 1 .288-.014c.048.043 4.878 4.302 10.505 3.974 5.674-.33 13.706-4.766 13.787-4.811a.206.206 0 0 1 .278.077c.055.097.02.22-.078.275-.081.045-8.197 4.527-13.963 4.862-.216.012-.431.018-.644.018z" opacity=".3"/>
        <path d="M117.459 90.471a.2.2 0 0 1-.193-.268c.033-.095 3.326-9.584 3.66-14.544.335-4.97.004-8.274.001-8.307a.202.202 0 0 1 .182-.221.207.207 0 0 1 .224.18c.003.033.338 3.371.001 8.375-.338 5.014-3.648 14.553-3.681 14.649a.207.207 0 0 1-.194.136z" opacity=".3"/>
        <path d="M119.37 86.452a.199.199 0 0 1-.068-.012.2.2 0 0 1-.123-.258c1.649-4.569 4.128-11.486 4.197-11.817 0-.112.09-.187.203-.187.113 0 .203.105.203.216 0 .196-2.294 6.592-4.219 11.923a.206.206 0 0 1-.193.135z" opacity=".3"/>
        <path d="M121.281 98.841a.201.201 0 0 1-.07-.391c.17-.061 4.203-1.488 7.422-1.336 3.203.151 4.782.667 4.847.689a.2.2 0 0 1 .128.255.204.204 0 0 1-.258.127c-.016-.005-1.598-.521-4.737-.669-3.128-.153-7.223 1.298-7.264 1.312a.179.179 0 0 1-.068.013z" opacity=".3"/>
        <path d="M121.281 99.888a.206.206 0 0 1-.115-.035.2.2 0 0 1-.054-.28c.057-.082.162-.235 2.8-.34 1.463-.058 4.521-.06 9.089-.005l.414.005c.113 0 .204.09.204.202a.203.203 0 0 1-.204.202l-.419-.005c-4.56-.055-7.611-.053-9.068.004-2.063.082-2.472.196-2.536.22a.208.208 0 0 1-.111.032z" opacity=".3"/>
        <path d="M99.413 146.795a.206.206 0 0 1-.186-.118c-.016-.036-1.651-3.609-2.159-8.529-.505-4.903-.246-10.17-.244-10.223a.204.204 0 0 1 .408.02c-.003.052-.26 5.29.242 10.161.5 4.854 2.107 8.367 2.124 8.402a.202.202 0 0 1-.185.287z" opacity=".7"/>
        <path d="M98.185 143.227a.203.203 0 0 1-.203-.18.204.204 0 0 1 .18-.223c.07-.008 1.745-.231 2.17-2.613.45-2.526.443-11.977.443-12.072 0-.111.091-.202.204-.202.113 0 .204.09.204.202.001.39.007 9.582-.45 12.143-.48 2.691-2.507 2.942-2.527 2.944l-.021.001z" opacity=".7"/>
        <path d="M121.131 120.722c2.699-.932 14.001-6.121 14.884-5.516.884.605 5.71 23.677 5.982 24.888.272 1.211-20.525 11.368-21.682 11.704-1.157.336-8.158.202-8.634-.605-.476-.807-5.607-25.764-5.063-26.302.544-.538 8.088-1.949 14.513-4.169z" fill="#EBCFA9" data-color="2"/>
        <path d="M106.619 124.891S88.242 90.874 85.11 84.416c-3.132-6.457-9.065-21.525-9.123-21.794s2.729-2.085 3.272-1.547c.544.538 9.641 22.735 13.963 31.009 4.322 8.274 17.359 32.451 17.4 32.806.04.357-4.003.001-4.003.001z" fill="#EBCFA9" data-color="2"/>
        <path d="M110.381 115.157s-4.662-2.213-6.226-2.291c-1.882-.094-4.382 2.666-5.002 3.65-.478.757.234 1.219.841 1.825-.078.236-.161.421-.14.713.022.314.107.605.327.845.219.24.511.371.811.4l.024.076c-.102.413.06.945.284 1.279.229.341.541.394.85.319-.014.387.179.768.564.963.352.179.777.2 1.203.172.204.039.431.056.694.038 2.078-.146 5.55-1.454 5.55-1.454l4.04-2.513-3.82-4.022z" fill="#875549" data-color="1"/>
        <path d="M100.279 118.446a.208.208 0 0 1-.131-.047.2.2 0 0 1-.024-.284c.031-.036.759-.887 1.335-1.255l.869-.555a.205.205 0 0 1 .282.06.2.2 0 0 1-.061.279l-.869.555c-.525.335-1.238 1.167-1.245 1.175a.203.203 0 0 1-.156.072z" opacity=".3"/>
        <path d="M101.347 120.375a.206.206 0 0 1-.152-.067.2.2 0 0 1 .016-.285c.055-.049 1.35-1.192 1.885-1.432l.513-.23a.204.204 0 0 1 .27.101.201.201 0 0 1-.102.267l-.513.23c-.397.178-1.42 1.045-1.781 1.365a.207.207 0 0 1-.136.051z" opacity=".3"/>
        <path d="M102.368 121.942a.204.204 0 0 1-.172-.092.2.2 0 0 1 .061-.279l2.027-1.294a.205.205 0 0 1 .282.06.2.2 0 0 1-.061.279l-2.027 1.294a.2.2 0 0 1-.11.032z" opacity=".3"/>
        <path d="M120.245 150.605a.202.202 0 0 1-.198-.25c.003-.27-.783-3.058-1.357-5.094-.224-.796-.44-1.559-.612-2.183-.673-2.442-4.416-17.672-4.454-17.826a.202.202 0 0 1 .15-.244c.109-.027.22.04.246.148.038.153 3.78 15.378 4.451 17.815.172.623.386 1.386.611 2.181 1.144 4.056 1.411 5.096 1.36 5.299a.2.2 0 0 1-.197.154z" opacity=".7"/>
        <path d="M128.978 131.397c-2.371 0-13.166-4.485-14.453-5.023a.2.2 0 0 1-.108-.264.205.205 0 0 1 .267-.107c5.27 2.204 13.468 5.347 14.462 4.975.978-.369 4.616-8.954 6.68-14.279a.204.204 0 0 1 .263-.116c.105.04.158.157.117.261-.553 1.427-5.445 13.957-6.915 14.511a.945.945 0 0 1-.313.042z" opacity=".7"/>
        <path d="M132.005 116.677a.202.202 0 0 1-.038-.4l3.756-.711a.205.205 0 0 1 .239.16.202.202 0 0 1-.162.236l-3.756.711a.172.172 0 0 1-.039.004z" opacity=".7"/>
        <path d="M107.647 126.957c-.15 0-.467-.133-.956-1.389a.201.201 0 0 1 .117-.261.205.205 0 0 1 .264.115c.203.519.474 1.025.601 1.124.457-.09 2.544-.599 3.086-.808a81.353 81.353 0 0 0-.634-1.411.2.2 0 0 1 .092-.27.205.205 0 0 1 .273.09c.033.065.661 1.444.716 1.607l.029.087-.05.092c-.185.309-3.444 1.01-3.476 1.016a.26.26 0 0 1-.062.008zm3.17-1.075h.004-.004z" opacity=".7"/>
        <g opacity=".51">
            <path d="M86.913 160.121c1.183-.027 2.366-.033 3.549-.062.948-.024 2.005.054 2.852-.379a.197.197 0 0 0-.054-.369c-4.617-1.021-9.301.197-13.969.043.773-.554 2.423-.528 3.218-.582 1.075-.074 2.154-.079 3.231-.07 2.093.018 4.181.085 6.269-.089.29-.024.293-.383 0-.404a164.29 164.29 0 0 0-10.243-.385.203.203 0 0 0 0 .404c1.204.008 2.408.033 3.611.068-.455-.001-.91 0-1.365.01-1.166.025-2.332.1-3.481.281-.757.119-1.509.219-1.914.851-.089.139.026.294.196.304 4.535.245 9.1-.949 13.594-.18-1.111.259-2.575.11-3.615.126-1.32.02-2.641.034-3.959.108a31.253 31.253 0 0 0-3.349.349c-.92.152-1.959.274-2.705.812-.125.09-.063.317.1.337 2.015.254 4.169-.182 6.195-.265a78.603 78.603 0 0 1 6.951.035c.292.014.291-.39 0-.404a78.781 78.781 0 0 0-6.503-.052c-1.898.066-3.972.462-5.893.348 1.037-.445 2.544-.528 3.552-.631 1.239-.126 2.486-.175 3.732-.204z" fill="#FFFFFF" data-color="5"/>
            <path d="M92.028 161.887c-.483.045-.973.04-1.466.007a10.493 10.493 0 0 0-1.509-.168c-1.041-.15-2.083-.339-3.101-.391a31.016 31.016 0 0 0-5.724.258c-.174.023-.196.175-.125.282-.199-.011-.396-.018-.595-.031-.291-.019-.29.385 0 .404 2.036.133 4.034.202 6.07.034 1.219-.1 2.432-.211 3.63-.143.394.058.789.105 1.183.138.405.072.808.165 1.208.303.207.071.323-.136.25-.281.06-.004.12-.003.18-.008.286-.027.289-.431-.001-.404zm-6.049-.043c-1.701.143-3.37.146-5.058.074a30.147 30.147 0 0 1 5.449-.156c.097.006.194.018.291.027-.226.017-.454.036-.682.055z" fill="#FFFFFF" data-color="5"/>
        </g>
        <g opacity=".51">
            <path d="M119.467 157.715a.155.155 0 0 0-.084-.045 38.248 38.248 0 0 0-12.87-.123c-.233.037-.134.426.098.389a37.714 37.714 0 0 1 9.718-.287c-1.146.029-2.293.093-3.438.145l-3.113.139c-.855.039-1.672.06-2.408.591-.197.142-.013.492.186.349.89-.642 2.062-.529 3.087-.575l2.94-.132c1.937-.087 3.875-.199 5.812-.07.209.016.232-.297.072-.381z" fill="#FFFFFF" data-color="5"/>
            <path d="M121.089 160.32a73.335 73.335 0 0 0-4.268-.183c-.815-.282-1.652-.413-2.498-.483a78.988 78.988 0 0 0 5.533-.48c.233-.029.235-.433 0-.404-.313.04-.627.073-.94.107-.031-.088-.107-.162-.214-.144-1.06.175-2.138-.076-3.2-.143a24.317 24.317 0 0 0-3.078.003 25.35 25.35 0 0 0-5.608 1.021c-.228.068-.131.457.098.389.286-.085.573-.164.861-.24.024.067.077.119.163.118a85.722 85.722 0 0 1 4.535.071c.854.037 1.715.063 2.562.178a73.253 73.253 0 0 0-7.471.451c-.233.026-.236.43 0 .404a73.398 73.398 0 0 1 4.462-.36c-1.52.158-3.038.342-4.553.559a.181.181 0 0 0-.116.068c-.115-.015-.232-.023-.347-.04-.234-.034-.232.37 0 .404 3.405.492 6.973.133 10.4.082.237-.003.237-.407 0-.404-2.795.041-5.682.28-8.5.103 3.64-.436 7.446-.517 11.044-.053.235.03.233-.374 0-.404a38.93 38.93 0 0 0-3.672-.284c.238-.017.476-.037.714-.052a.178.178 0 0 0 .127-.062c1.322.025 2.644.081 3.966.178.236.021.235-.383 0-.4zm-11.967-.871a24.064 24.064 0 0 1 3.985-.486c.969-.035 1.94-.013 2.906.069.215.018.429.041.643.064-2.507.2-5.02.287-7.534.353z" fill="#FFFFFF" data-color="5"/>
        </g>
        <path d="M110.094 77.942a.352.352 0 0 1-.053.056c-.131.153-.29.287-.461.391-.591.383-1.358.496-2.011.238a1.994 1.994 0 0 1-.449-.254 1.927 1.927 0 0 1-.42-.396 1.3 1.3 0 0 1-.11-.149 1.841 1.841 0 0 1-.2-.363 1.536 1.536 0 0 1-.073-.182 2.464 2.464 0 0 1-.09-1.166c.02-.153.057-.307.106-.456.004-.024.012-.044.02-.069a2.42 2.42 0 0 1 .575-.936c.489-.484 1.236-.69 1.913-.549a2.11 2.11 0 0 1 1.073.577c.11.105.208.222.285.347.09.125.159.258.216.396.02.04.037.085.053.129.024.073.049.141.065.214.197.744.058 1.575-.439 2.172z" fill="#A5B1C7" data-color="3"/>
        <path d="M110.094 77.942a.352.352 0 0 1-.053.056c-.131.153-.29.287-.461.391-.591.383-1.358.496-2.011.238a1.994 1.994 0 0 1-.449-.254 1.927 1.927 0 0 1-.42-.396 1.3 1.3 0 0 1-.11-.149 1.841 1.841 0 0 1-.2-.363 1.536 1.536 0 0 1-.073-.182 2.464 2.464 0 0 1-.09-1.166c.02-.153.057-.307.106-.456.004-.024.012-.044.02-.069a2.42 2.42 0 0 1 .575-.936c.489-.484 1.236-.69 1.913-.549a2.11 2.11 0 0 1 1.073.577c.11.105.208.222.285.347.09.125.159.258.216.396.02.04.037.085.053.129.024.073.049.141.065.214.197.744.058 1.575-.439 2.172z" fill="#A5B1C7" data-color="3"/>
        <path d="M110.041 77.999c-.131.153-.29.287-.461.391a72.01 72.01 0 0 0-2.459-.016 1.927 1.927 0 0 1-.42-.396 72.935 72.935 0 0 1 3.34.021z" fill="#3B3348" data-color="4"/>
        <path d="M109.58 76.203c-1.016.509-2.031 1.021-2.989 1.626a1.841 1.841 0 0 1-.2-.363 24.402 24.402 0 0 1 2.035-1.138c.416-.21 1.272-.517 1.99-.9.02.04.037.085.053.129.024.073.049.141.065.214-.342.162-.685.295-.954.432z" fill="#3B3348" data-color="4"/>
        <path d="M110.2 75.033a66.726 66.726 0 0 0-3.972 1.086c.02-.153.057-.307.106-.456a72.74 72.74 0 0 1 3.581-.977c.109.104.207.221.285.347z" fill="#3B3348" data-color="4"/>
        <path d="m82.369 158.396-2.271-.067"/>
        <path d="m75.914 154.977 3.723.111"/>
        <path d="M82.625 160.803a.21.21 0 0 1-.212.198h-.012"/>
        <path d="m81.928 163.073-3.119-.206"/>
        <path d="m68.507 153.529-.001-.006-.131-2.254a.211.211 0 0 1 .199-.223c.116-.006.209.081.223.198l.131 2.254a.211.211 0 0 1-.421.031z" opacity=".3"/>
        <path d="m70.761 151.213-.001-.006-.47-3.671a.21.21 0 0 1 .183-.236c.116-.014.216.075.236.182l.47 3.671a.21.21 0 0 1-.418.06z" opacity=".3"/>
        <path d="M66.14 153.131v-.012l.076-2.334a.212.212 0 0 1 .218-.204.207.207 0 0 1 .204.217l-.076 2.334a.21.21 0 0 1-.218.203.209.209 0 0 1-.204-.204z" opacity=".3"/>
        <path d="M64.623 152.179v-.014l.133-3.103a.211.211 0 0 1 .22-.202.214.214 0 0 1 .202.22l-.133 3.103a.212.212 0 0 1-.422-.004z" opacity=".3"/>
    </g>
</svg>
